<?xml version="1.0" encoding="utf-8"?>
<svg version="1.1" xmlns="http://www.w3.org/2000/svg" x="0px" y="0px"
	 viewBox="0 0 500 500" style="enable-background:new 0 0 500 500;" xml:space="preserve">
	
	<!-- Background -->
	<rect style="fill:#FFFFFF;" width="500" height="500"/>
	
	<!-- Outlines (locked - can't be colored) -->
	<g id="OUTLINES" style="fill:none;stroke:#000000;stroke-width:2;">
		<!-- Main shape outline -->
		<path d="M149.193,223.69c-1.304-3.71-3.099-7.218-4.579-10.856c-1.529-3.761-2.463-7.609-2.937-11.639
			c-1.052-8.948-0.417-18.042-3.125-26.746c-0.415-1.333-2.135-0.896-2.652,0.044c-4.109,7.462-7.008,15.539-8.588,23.911
			c-0.801,4.249-1.001,8.561-1.681,12.824c-0.641,4.013-2.265,7.481-4.151,11.041c-1.79,3.379-3.558,6.899-3.796,10.786
			c-0.215,3.512,0.706,6.939,2.083,10.142c1.45,3.371,3.375,6.508,5.085,9.748c1.755,3.327,3.214,6.814,4.233,10.438
			c1.88,6.686,2.424,13.658,1.651,20.523c-0.958-5.227-2.484-10.352-4.567-15.249c-2.779-6.532-6.758-12.343-10.562-18.299
			c-3.346-5.239-6.599-10.825-7.726-17.009c0.129-0.231,0.199-0.508,0.178-0.828c-1.056-16.308,14.54-28.932,12.692-45.391
			c-0.487-4.34-2.486-8.161-4.406-12.01c-0.984-1.971-1.961-3.989-2.531-6.126c-0.663-2.487-0.691-5.045-0.515-7.596
			c0.344-4.981,1.024-9.802,0.036-14.763c-0.946-4.748-2.832-9.242-4.748-13.665c-4.814-11.114-9.646-22.22-14.469-33.33
			c-0.525-1.21-2.118-1.021-2.652,0.044c-7.313,14.562-5.834,31.262-7.352,47.007c-0.786,8.155-3.328,16.185-3.096,24.418
			c0.204,7.228,2.457,14.32,6.373,20.39c3.532,5.476,8.563,9.723,12.563,14.826c1.897,2.421,3.581,5.084,4.446,8.061
			c1.098,3.782,0.547,7.691,0.302,11.547c-0.451,7.091,1.403,13.533,4.771,19.735c2.569,4.732,5.693,9.126,8.537,13.691
			c-5.179-5.51-10.146-11.266-13.826-17.888c-2.246-4.042-4.25-8.002-7.789-11.093c-1.664-1.454-3.497-2.731-5.043-4.317
			c-1.522-1.562-2.607-3.398-3.375-5.432c-1.499-3.966-1.849-8.255-2.938-12.333c-1.016-3.806-2.7-7.33-5.045-10.5
			c-4.747-6.415-11.57-10.982-18.434-14.857c-9.789-5.525-19.948-10.44-29.934-15.596c-1.222-0.631-2.222,0.853-1.854,1.917
			c3.671,10.613,7.102,21.348,11.081,31.85c1.588,4.191,3.445,8.318,6.019,12.006c2.572,3.685,5.858,6.538,9.759,8.742
			c3.825,2.161,8.249,3.928,11.062,7.453c3.013,3.774,3.529,8.85,5.151,13.26c3.155,8.579,10.599,15.004,19.399,17.244
			c9.94,2.531,23.697,0.392,30.472,9.892c0.283,0.396,0.646,0.563,1.008,0.569c5.385,12.969,6.739,27.474,3.819,41.262
			c-0.383,1.811,2.479,2.125,2.86,0.326c1.132-5.344,1.633-10.809,1.522-16.261c0.14-0.139,0.257-0.322,0.335-0.557
			c2.626-7.905,7.923-14.567,10.945-22.312c3.082-7.897,4.719-16.317,6.364-24.605C151.196,239.916,152.021,231.739,149.193,223.69z"/>
		
		<!-- Additional outline details -->
		<path d="M107.167,213.74c-0.288-1.064-0.658-2.111-1.133-3.138c-2.664-5.756-7.438-10.139-11.602-14.79
			c-4.688-5.236-8.221-11.16-9.719-18.092c-0.801-3.709-1.022-7.486-0.675-11.263c0.39-4.25,1.354-8.416,2.055-12.619
			c2.755-16.53,0.154-34.362,6.677-50.085c3.837,8.838,7.674,17.677,11.511,26.515c2.003,4.613,4.208,9.224,5.56,14.083
			c0.636,2.288,1.087,4.643,1.201,7.019c0.122,2.529-0.188,5.061-0.421,7.575c-0.449,4.833-0.363,9.388,1.512,13.932
			c1.672,4.05,4.254,7.783,5.309,12.075c1.916,7.791-1.422,15.441-4.669,22.376c-0.856,1.829-1.741,3.669-2.591,5.527
			c1.136-9.754-2.772-19.475-5.746-28.734c-1.836-5.717-3.138-11.483-2.956-17.52c0.093-3.098,0.388-6.188,0.356-9.289
			c-0.03-2.846-0.368-5.651-0.893-8.446c-1.196-6.362-3.173-12.708-2.578-19.25c0.168-1.842-2.692-2.174-2.86-0.326
			c-0.512,5.629,0.722,11.117,1.893,16.586c0.592,2.767,1.158,5.548,1.424,8.369c0.293,3.098,0.087,6.198-0.079,9.297
			c-0.32,5.999,0.152,11.658,1.767,17.457c1.546,5.551,3.706,10.91,5.214,16.471C107.155,202.749,108.061,208.339,107.167,213.74z"/>
		
		<!-- Cloud shape outline -->
		<path d="M175.84,307.847c-8.005-11.675-20.235-22.824-34.637-25.196
			c-9.167-1.508-18.108,0.197-26.525,3.539c0.662-6.772-0.306-13.574-2.944-19.87c-0.366-0.878-1.543-1.445-2.386-0.774
			c-7.391,5.872-13.14,13.592-16.545,22.39c-2.164-0.99-4.446-1.74-6.776-2.315c-2.285-0.566-4.602-0.97-6.928-1.311
			c-2.047-0.301-5.204-1.304-7.114-0.123c-1.882,1.166-2.835,4.225-3.588,6.156c-0.881,2.263-1.563,4.608-2.004,6.994
			c-0.918,4.973-0.795,10.019,0.236,14.954c-1.409-0.354-2.883-0.331-4.363-0.169c-2.525,0.277-5.04,0.636-7.558,0.96
			c-5.14,0.653-10.284,1.309-15.424,1.965c-1.553,0.199-2,2.244-0.58,3c5.201,2.773,10.402,5.546,15.603,8.319
			c-0.317,0.439-0.627,0.881-0.931,1.328c-8.18,12.092-11.39,27.223-9.009,41.619c1.254,7.587,4.076,14.666,7.966,21.276
			c3.969,6.754,8.7,13.366,14.377,18.795c10.94,10.46,26.754,15.13,41.585,15.897c15.012,0.779,30.252-2.785,43.264-10.338
			c11.733-6.813,21.396-16.98,27.987-28.81c6.59-11.833,10.016-25.399,9.464-38.952
			C188.439,333.194,183.749,319.383,175.84,307.847z"/>
	</g>
	
	<!-- Fillable Areas (white - can be colored) -->
	<g id="FILLABLE_AREAS">
		<!-- Main fillable area -->
		<path style="fill:#FFFFFF;" d="M149.193,223.69c-1.304-3.71-3.099-7.218-4.579-10.856c-1.529-3.761-2.463-7.609-2.937-11.639
			c-1.052-8.948-0.417-18.042-3.125-26.746c-0.415-1.333-2.135-0.896-2.652,0.044c-4.109,7.462-7.008,15.539-8.588,23.911
			c-0.801,4.249-1.001,8.561-1.681,12.824c-0.641,4.013-2.265,7.481-4.151,11.041c-1.79,3.379-3.558,6.899-3.796,10.786
			c-0.215,3.512,0.706,6.939,2.083,10.142c1.45,3.371,3.375,6.508,5.085,9.748c1.755,3.327,3.214,6.814,4.233,10.438
			c1.88,6.686,2.424,13.658,1.651,20.523c-0.958-5.227-2.484-10.352-4.567-15.249c-2.779-6.532-6.758-12.343-10.562-18.299
			c-3.346-5.239-6.599-10.825-7.726-17.009c0.129-0.231,0.199-0.508,0.178-0.828c-1.056-16.308,14.54-28.932,12.692-45.391
			c-0.487-4.34-2.486-8.161-4.406-12.01c-0.984-1.971-1.961-3.989-2.531-6.126c-0.663-2.487-0.691-5.045-0.515-7.596
			c0.344-4.981,1.024-9.802,0.036-14.763c-0.946-4.748-2.832-9.242-4.748-13.665c-4.814-11.114-9.646-22.22-14.469-33.33
			c-0.525-1.21-2.118-1.021-2.652,0.044c-7.313,14.562-5.834,31.262-7.352,47.007c-0.786,8.155-3.328,16.185-3.096,24.418
			c0.204,7.228,2.457,14.32,6.373,20.39c3.532,5.476,8.563,9.723,12.563,14.826c1.897,2.421,3.581,5.084,4.446,8.061
			c1.098,3.782,0.547,7.691,0.302,11.547c-0.451,7.091,1.403,13.533,4.771,19.735c2.569,4.732,5.693,9.126,8.537,13.691
			c-5.179-5.51-10.146-11.266-13.826-17.888c-2.246-4.042-4.25-8.002-7.789-11.093c-1.664-1.454-3.497-2.731-5.043-4.317
			c-1.522-1.562-2.607-3.398-3.375-5.432c-1.499-3.966-1.849-8.255-2.938-12.333c-1.016-3.806-2.7-7.33-5.045-10.5
			c-4.747-6.415-11.57-10.982-18.434-14.857c-9.789-5.525-19.948-10.44-29.934-15.596c-1.222-0.631-2.222,0.853-1.854,1.917
			c3.671,10.613,7.102,21.348,11.081,31.85c1.588,4.191,3.445,8.318,6.019,12.006c2.572,3.685,5.858,6.538,9.759,8.742
			c3.825,2.161,8.249,3.928,11.062,7.453c3.013,3.774,3.529,8.85,5.151,13.26c3.155,8.579,10.599,15.004,19.399,17.244
			c9.94,2.531,23.697,0.392,30.472,9.892c0.283,0.396,0.646,0.563,1.008,0.569c5.385,12.969,6.739,27.474,3.819,41.262
			c-0.383,1.811,2.479,2.125,2.86,0.326c1.132-5.344,1.633-10.809,1.522-16.261c0.14-0.139,0.257-0.322,0.335-0.557
			c2.626-7.905,7.923-14.567,10.945-22.312c3.082-7.897,4.719-16.317,6.364-24.605C151.196,239.916,152.021,231.739,149.193,223.69z"/>
		
		<!-- Cloud fillable area -->
		<path style="fill:#FFFFFF;" d="M175.84,307.847c-8.005-11.675-20.235-22.824-34.637-25.196
			c-9.167-1.508-18.108,0.197-26.525,3.539c0.662-6.772-0.306-13.574-2.944-19.87c-0.366-0.878-1.543-1.445-2.386-0.774
			c-7.391,5.872-13.14,13.592-16.545,22.39c-2.164-0.99-4.446-1.74-6.776-2.315c-2.285-0.566-4.602-0.97-6.928-1.311
			c-2.047-0.301-5.204-1.304-7.114-0.123c-1.882,1.166-2.835,4.225-3.588,6.156c-0.881,2.263-1.563,4.608-2.004,6.994
			c-0.918,4.973-0.795,10.019,0.236,14.954c-1.409-0.354-2.883-0.331-4.363-0.169c-2.525,0.277-5.04,0.636-7.558,0.96
			c-5.14,0.653-10.284,1.309-15.424,1.965c-1.553,0.199-2,2.244-0.58,3c5.201,2.773,10.402,5.546,15.603,8.319
			c-0.317,0.439-0.627,0.881-0.931,1.328c-8.18,12.092-11.39,27.223-9.009,41.619c1.254,7.587,4.076,14.666,7.966,21.276
			c3.969,6.754,8.7,13.366,14.377,18.795c10.94,10.46,26.754,15.13,41.585,15.897c15.012,0.779,30.252-2.785,43.264-10.338
			c11.733-6.813,21.396-16.98,27.987-28.81c6.59-11.833,10.016-25.399,9.464-38.952
			C188.439,333.194,183.749,319.383,175.84,307.847z"/>
	</g>
</svg>
