<?xml version="1.0" encoding="utf-8"?>
<!-- Generator: Adobe Illustrator 27.5.0, SVG Export Plug-In . SVG Version: 6.00 Build 0)  -->
<svg version="1.1" xmlns="http://www.w3.org/2000/svg" xmlns:xlink="http://www.w3.org/1999/xlink" x="0px" y="0px"
	 viewBox="0 0 500 500" style="enable-background:new 0 0 500 500;" xml:space="preserve">
<g id="BACKGROUND">
	<rect style="fill:#FFFFFF;" width="500" height="500"/>
</g>
<g id="OBJECTS">
	<g>
		<path style="fill:#FFFFFF;" d="M149.193,223.69c-1.304-3.71-3.099-7.218-4.579-10.856c-1.529-3.761-2.463-7.609-2.937-11.639
			c-1.052-8.948-0.417-18.042-3.125-26.746c-0.415-1.333-2.135-0.896-2.652,0.044c-4.109,7.462-7.008,15.539-8.588,23.911
			c-0.801,4.249-1.001,8.561-1.681,12.824c-0.641,4.013-2.265,7.481-4.151,11.041c-1.79,3.379-3.558,6.899-3.796,10.786
			c-0.215,3.512,0.706,6.939,2.083,10.142c1.45,3.371,3.375,6.508,5.085,9.748c1.755,3.327,3.214,6.814,4.233,10.438
			c1.88,6.686,2.424,13.658,1.651,20.523c-0.958-5.227-2.484-10.352-4.567-15.249c-2.779-6.532-6.758-12.343-10.562-18.299
			c-3.346-5.239-6.599-10.825-7.726-17.009c0.129-0.231,0.199-0.508,0.178-0.828c-1.056-16.308,14.54-28.932,12.692-45.391
			c-0.487-4.34-2.486-8.161-4.406-12.01c-0.984-1.971-1.961-3.989-2.531-6.126c-0.663-2.487-0.691-5.045-0.515-7.596
			c0.344-4.981,1.024-9.802,0.036-14.763c-0.946-4.748-2.832-9.242-4.748-13.665c-4.814-11.114-9.646-22.22-14.469-33.33
			c-0.525-1.21-2.118-1.021-2.652,0.044c-7.313,14.562-5.834,31.262-7.352,47.007c-0.786,8.155-3.328,16.185-3.096,24.418
			c0.204,7.228,2.457,14.32,6.373,20.39c3.532,5.476,8.563,9.723,12.563,14.826c1.897,2.421,3.581,5.084,4.446,8.061
			c1.098,3.782,0.547,7.691,0.302,11.547c-0.451,7.091,1.403,13.533,4.771,19.735c2.569,4.732,5.693,9.126,8.537,13.691
			c-5.179-5.51-10.146-11.266-13.826-17.888c-2.246-4.042-4.25-8.002-7.789-11.093c-1.664-1.454-3.497-2.731-5.043-4.317
			c-1.522-1.562-2.607-3.398-3.375-5.432c-1.499-3.966-1.849-8.255-2.938-12.333c-1.016-3.806-2.7-7.33-5.045-10.5
			c-4.747-6.415-11.57-10.982-18.434-14.857c-9.789-5.525-19.948-10.44-29.934-15.596c-1.222-0.631-2.222,0.853-1.854,1.917
			c3.671,10.613,7.102,21.348,11.081,31.85c1.588,4.191,3.445,8.318,6.019,12.006c2.572,3.685,5.858,6.538,9.759,8.742
			c3.825,2.161,8.249,3.928,11.062,7.453c3.013,3.774,3.529,8.85,5.151,13.26c3.155,8.579,10.599,15.004,19.399,17.244
			c9.94,2.531,23.697,0.392,30.472,9.892c0.283,0.396,0.646,0.563,1.008,0.569c5.385,12.969,6.739,27.474,3.819,41.262
			c-0.383,1.811,2.479,2.125,2.86,0.326c1.132-5.344,1.633-10.809,1.522-16.261c0.14-0.139,0.257-0.322,0.335-0.557
			c2.626-7.905,7.923-14.567,10.945-22.312c3.082-7.897,4.719-16.317,6.364-24.605C151.196,239.916,152.021,231.739,149.193,223.69z
			"/>
		<path style="fill:#222221;" d="M149.193,223.69c-1.304-3.71-3.099-7.218-4.579-10.856c-1.529-3.761-2.463-7.609-2.937-11.639
			c-1.052-8.948-0.417-18.042-3.125-26.746c-0.415-1.333-2.135-0.896-2.652,0.044c-4.109,7.462-7.008,15.539-8.588,23.911
			c-0.801,4.249-1.001,8.561-1.681,12.824c-0.641,4.013-2.265,7.481-4.151,11.041c-1.79,3.379-3.558,6.899-3.796,10.786
			c-0.215,3.512,0.706,6.939,2.083,10.142c1.45,3.371,3.375,6.508,5.085,9.748c1.755,3.327,3.214,6.814,4.233,10.438
			c1.88,6.686,2.424,13.658,1.651,20.523c-0.958-5.227-2.484-10.352-4.567-15.249c-2.779-6.532-6.758-12.343-10.562-18.299
			c-3.346-5.239-6.599-10.825-7.726-17.009c0.129-0.231,0.199-0.508,0.178-0.828c-1.056-16.308,14.54-28.932,12.692-45.391
			c-0.487-4.34-2.486-8.161-4.406-12.01c-0.984-1.971-1.961-3.989-2.531-6.126c-0.663-2.487-0.691-5.045-0.515-7.596
			c0.344-4.981,1.024-9.802,0.036-14.763c-0.946-4.748-2.832-9.242-4.748-13.665c-4.814-11.114-9.646-22.22-14.469-33.33
			c-0.525-1.21-2.118-1.021-2.652,0.044c-7.313,14.562-5.834,31.262-7.352,47.007c-0.786,8.155-3.328,16.185-3.096,24.418
			c0.204,7.228,2.457,14.32,6.373,20.39c3.532,5.476,8.563,9.723,12.563,14.826c1.897,2.421,3.581,5.084,4.446,8.061
			c1.098,3.782,0.547,7.691,0.302,11.547c-0.451,7.091,1.403,13.533,4.771,19.735c2.569,4.732,5.693,9.126,8.537,13.691
			c-5.179-5.51-10.146-11.266-13.826-17.888c-2.246-4.042-4.25-8.002-7.789-11.093c-1.664-1.454-3.497-2.731-5.043-4.317
			c-1.522-1.562-2.607-3.398-3.375-5.432c-1.499-3.966-1.849-8.255-2.938-12.333c-1.016-3.806-2.7-7.33-5.045-10.5
			c-4.747-6.415-11.57-10.982-18.434-14.857c-9.789-5.525-19.948-10.44-29.934-15.596c-1.222-0.631-2.222,0.853-1.854,1.917
			c3.671,10.613,7.102,21.348,11.081,31.85c1.588,4.191,3.445,8.318,6.019,12.006c2.572,3.685,5.858,6.538,9.759,8.742
			c3.825,2.161,8.249,3.928,11.062,7.453c3.013,3.774,3.529,8.85,5.151,13.26c3.155,8.579,10.599,15.004,19.399,17.244
			c9.94,2.531,23.697,0.392,30.472,9.892c0.283,0.396,0.646,0.563,1.008,0.569c5.385,12.969,6.739,27.474,3.819,41.262
			c-0.383,1.811,2.479,2.125,2.86,0.326c1.132-5.344,1.633-10.809,1.522-16.261c0.14-0.139,0.257-0.322,0.335-0.557
			c2.626-7.905,7.923-14.567,10.945-22.312c3.082-7.897,4.719-16.317,6.364-24.605C151.196,239.916,152.021,231.739,149.193,223.69z
			 M107.167,213.74c-0.288-1.064-0.658-2.111-1.133-3.138c-2.664-5.756-7.438-10.139-11.602-14.79
			c-4.688-5.236-8.221-11.16-9.719-18.092c-0.801-3.709-1.022-7.486-0.675-11.263c0.39-4.25,1.354-8.416,2.055-12.619
			c2.755-16.53,0.154-34.362,6.677-50.085c3.837,8.838,7.674,17.677,11.511,26.515c2.003,4.613,4.208,9.224,5.56,14.083
			c0.636,2.288,1.087,4.643,1.201,7.019c0.122,2.529-0.188,5.061-0.421,7.575c-0.449,4.833-0.363,9.388,1.512,13.932
			c1.672,4.05,4.254,7.783,5.309,12.075c1.916,7.791-1.422,15.441-4.669,22.376c-0.856,1.829-1.741,3.669-2.591,5.527
			c1.136-9.754-2.772-19.475-5.746-28.734c-1.836-5.717-3.138-11.483-2.956-17.52c0.093-3.098,0.388-6.188,0.356-9.289
			c-0.03-2.846-0.368-5.651-0.893-8.446c-1.196-6.362-3.173-12.708-2.578-19.25c0.168-1.842-2.692-2.174-2.86-0.326
			c-0.512,5.629,0.722,11.117,1.893,16.586c0.592,2.767,1.158,5.548,1.424,8.369c0.293,3.098,0.087,6.198-0.079,9.297
			c-0.32,5.999,0.152,11.658,1.767,17.457c1.546,5.551,3.706,10.91,5.214,16.471C107.155,202.749,108.061,208.339,107.167,213.74z
			 M99.893,258.222c-5.129-0.6-10.207-1.606-14.585-4.488c-3.733-2.457-6.831-5.88-8.798-9.902
			c-2.017-4.123-2.529-8.779-4.484-12.921c-1.958-4.151-5.368-6.799-9.289-8.99c-3.973-2.22-8.053-4.127-11.179-7.542
			c-3.054-3.337-5.173-7.369-6.911-11.514c-2.195-5.235-3.909-10.677-5.764-16.038c-1.757-5.079-3.513-10.159-5.27-15.238
			c7.991,4.099,16.021,8.14,23.927,12.397c6.943,3.738,13.987,8.019,19.073,14.163c2.472,2.986,4.386,6.396,5.455,10.133
			c1.137,3.977,1.554,8.119,2.784,12.074c1.279,4.111,3.637,7.217,6.93,9.941c1.716,1.419,3.517,2.753,4.958,4.466
			c1.513,1.797,2.641,3.856,3.75,5.916c2.56,4.752,5.609,9.079,8.947,13.185c-2.351-2.105-4.815-4.083-7.388-5.912
			c-2.682-1.907-5.492-3.586-8.318-5.266c-2.682-1.594-5.427-3.264-7.596-5.538c-4.314-4.523-5.506-11.121-8.226-16.585
			c-2.646-5.316-6.068-10.254-10.123-14.592c-4.569-4.888-9.87-8.964-15.74-12.167c-1.625-0.887-2.682,1.794-1.074,2.671
			c10.282,5.609,18.802,14.409,24.102,24.85c2.749,5.415,4,11.791,7.888,16.571c3.904,4.799,9.793,7.31,14.849,10.641
			c5.012,3.302,9.645,7.132,13.833,11.415C107.767,259.044,103.685,258.666,99.893,258.222z M147.253,244.914
			c-1.446,8.14-3.088,16.43-5.804,24.251c-1.239,3.569-2.822,6.943-4.604,10.247c2.15-7.819,3.816-15.791,3.481-23.935
			c-0.214-5.199-1.61-10.063-2.999-15.04c-1.386-4.968-2.139-9.684-1.32-14.819c0.805-5.042,2.18-10.382-0.275-15.194
			c-0.838-1.643-3.479-0.494-2.634,1.162c2.088,4.094,0.884,8.72,0.163,13.011c-0.811,4.825-0.567,9.357,0.635,14.1
			c1.211,4.777,2.85,9.425,3.374,14.352c0.553,5.2,0.086,10.452-0.843,15.581c-0.641,3.539-1.512,7.027-2.474,10.49
			c0.092-4.065-0.257-8.14-1.053-12.13c-0.743-3.725-1.861-7.391-3.346-10.888c-1.466-3.453-3.391-6.665-5.15-9.97
			c-1.616-3.037-3.163-6.214-3.694-9.645c-0.608-3.925,0.563-7.474,2.302-10.955c1.713-3.429,3.728-6.703,4.73-10.436
			c1.112-4.143,1.234-8.445,1.823-12.674c1.136-8.15,3.611-16.051,7.225-23.427c1.402,6.592,1.224,13.454,1.792,20.147
			c0.328,3.869,0.933,7.698,2.126,11.401c1.182,3.669,2.907,7.125,4.415,10.664c1.531,3.594,2.737,7.253,3.059,11.168
			C148.528,236.566,147.986,240.792,147.253,244.914z"/>
	</g>
	<g>
		<path style="fill:#FFFFFF;" d="M390.978,54.355c7.589,0.705,12.344,7.678,14.65,14.288c2.376,6.812,3.12,14.834,7.814,20.531
			c0.555-8.816,0.309-17.674-0.793-26.451c-0.014-0.11-0.016-0.213-0.009-0.311c-0.046-0.033-0.092-0.068-0.137-0.108
			c-4.39-3.844-8.802-7.847-11.227-13.272c-2.176-4.867-2.198-10.758,1.077-15.155c2.909-3.906,8.798-5.632,13.118-2.998
			c4.413,2.691,6.515,8.812,6.473,13.752c-0.054,6.464-3.293,12.249-6.482,17.671c0.022,0.077,0.04,0.157,0.051,0.243
			c0.997,7.942,1.277,15.944,0.925,23.918l0.545-0.64c-0.023-0.147-0.025-0.306,0.002-0.477c1.033-6.547,1.621-13.417,4.009-19.645
			c1.963-5.119,5.793-10.054,11.23-11.694c2.62-0.791,5.564-0.715,7.849,0.925c2.127,1.526,3.358,4.08,3.52,6.666
			c0.393,6.267-4.304,11.319-8.739,15.073c-5.961,5.046-12.15,9.841-18.228,14.745c-0.168,0.135-0.337,0.22-0.503,0.266
			c-0.477,6.029-1.319,12.031-2.491,17.969c0.848-0.742,1.699-1.481,2.549-2.22c1.961-3.854,3.916-7.712,5.884-11.563
			c1.624-3.178,3.317-6.325,5.409-9.225c3.849-5.335,10.014-10.159,16.988-9.171c3.229,0.457,6.284,2.495,7.673,5.484
			c1.44,3.099,0.738,6.728-1.062,9.524c-2.078,3.227-5.385,5.497-8.595,7.491c-3.159,1.962-6.507,3.566-9.954,4.953
			c-7.012,2.821-14.908,5.1-19.538,11.523c-0.28,0.388-0.63,0.543-0.977,0.536c-1.132,4.61-2.459,9.171-3.975,13.664
			c-1.079,3.197-2.254,6.356-3.512,9.478c1.327-0.681,2.653-1.364,3.98-2.046c5.902-4.131,9.794-10.946,14.055-16.617
			c4.941-6.577,12.024-13.1,20.865-12.632c3.718,0.197,7.796,1.777,9.701,5.184c2.055,3.677,0.755,8.281-1.406,11.608
			c-5.005,7.707-14.305,10.194-22.862,11.42c-9.351,1.34-21.186,1.992-26.993,10.712c-0.239,0.359-0.566,0.56-0.911,0.64
			c-2.864,6.206-6.07,12.248-9.57,18.12c7.773-4.208,14.383-10.334,21.329-15.745c6.85-5.337,15.876-11.306,24.847-7.572
			c3.427,1.426,6.541,4.275,7.637,7.898c1.374,4.544-0.855,8.999-4.285,11.964c-6.551,5.662-15.806,6.86-24.142,7.025
			c-9.525,0.188-19.321-0.915-28.618,1.681c-4.298,6.746-8.986,13.249-13.99,19.496c2.109-1.496,4.219-2.991,6.328-4.487
			c4.192-2.973,8.329-6.141,12.922-8.483c4.096-2.088,8.519-3.416,13.101-3.854c4.642-0.444,9.743-0.146,14.041,1.794
			c3.798,1.715,7.087,5.298,7.241,9.639c0.162,4.562-3.006,8.488-6.514,11.037c-6.637,4.822-15.47,5.212-23.339,4.447
			c-10.089-0.982-20.405-4.238-30.462-1.285c-0.273,0.08-0.525,0.083-0.751,0.029c-7.369,8.351-15.29,16.21-23.609,23.617
			c-1.363,1.213-3.508-0.696-2.127-1.926c7.836-6.977,15.337-14.369,22.349-22.193c-5.873-0.152-11.762-0.743-17.391-2.431
			c-3.483-1.045-6.857-2.475-9.908-4.467c-2.745-1.793-5.565-3.977-6.744-7.158c-2.057-5.549,1.671-11.596,6.918-13.573
			c6.425-2.421,13.334,0.522,17.992,5.061c5.335,5.198,8.053,12.525,13.461,17.607c6.301-7.417,12.155-15.206,17.437-23.382
			c-6.507-0.07-13.008-0.682-19.407-1.871c-6.728-1.249-15.401-2.587-19.424-8.822c-1.612-2.498-2.248-5.594-1.251-8.444
			c1.019-2.911,3.491-4.94,6.257-6.127c6.252-2.681,13.994-0.643,18.921,3.782c3.17,2.846,5.339,6.632,8.228,9.741
			c2.739,2.947,5.83,5.54,9.2,7.731c0.31-0.505,0.619-1.009,0.924-1.517c4.132-6.87,7.837-13.996,11.061-21.326
			c-0.481-0.575-0.95-1.158-1.405-1.751c-6.539-4.074-15.033-2.815-22.387-3.415c-6.949-0.566-14.861-2.937-17.813-9.94
			c-1.327-3.148-1.143-6.727,0.871-9.538c1.903-2.656,4.96-4.347,8.12-5.005c6.766-1.408,13.419,1.467,18.369,5.991
			c6.149,5.619,9.759,13.218,14.754,19.759c0.302,0.193,0.6,0.398,0.895,0.612c3.159-7.586,5.801-15.381,7.841-23.34
			c-0.075-0.074-0.146-0.158-0.211-0.256c-0.417-0.626-0.818-1.284-1.208-1.966c-7.671-0.135-15.326-1.127-22.747-3.093
			c-3.404-0.902-6.938-2.087-9.366-4.776c-1.955-2.166-3.174-4.958-3.343-7.882c-0.371-6.401,4.483-12.056,10.737-13.015
			c6.367-0.976,12.365,2.701,16.273,7.436c4.823,5.845,7.017,13.235,10.8,19.71c0.993-4.306,1.811-8.657,2.442-13.044
			c0.375-2.611,0.677-5.23,0.912-7.855c-1.067-0.982-1.991-2.06-2.801-3.211c-0.205,0.054-0.441,0.055-0.709-0.02
			c-7.966-2.255-15.623-5.68-22.473-10.35c-4.64-3.163-9.559-7.83-9.437-13.908C377.866,58.59,384.301,53.735,390.978,54.355z"/>
		<path style="fill:#222221;" d="M377.726,65.539c-0.122,6.078,4.797,10.745,9.437,13.908c6.85,4.669,14.507,8.094,22.473,10.35
			c0.267,0.076,0.503,0.074,0.709,0.02c0.81,1.151,1.734,2.229,2.801,3.211c-0.235,2.625-0.537,5.244-0.912,7.855
			c-0.631,4.387-1.449,8.738-2.442,13.044c-3.783-6.475-5.977-13.865-10.8-19.71c-3.908-4.735-9.906-8.412-16.273-7.436
			c-6.254,0.959-11.108,6.614-10.737,13.015c0.169,2.924,1.388,5.716,3.343,7.882c2.428,2.689,5.962,3.874,9.366,4.776
			c7.421,1.967,15.076,2.958,22.747,3.093c0.39,0.683,0.791,1.341,1.208,1.966c0.065,0.097,0.136,0.182,0.211,0.256
			c-2.04,7.959-4.682,15.754-7.841,23.34c-0.295-0.214-0.594-0.419-0.895-0.612c-4.995-6.541-8.605-14.14-14.754-19.759
			c-4.95-4.524-11.603-7.399-18.369-5.991c-3.16,0.658-6.217,2.349-8.12,5.005c-2.014,2.811-2.198,6.39-0.871,9.538
			c2.952,7.003,10.864,9.374,17.813,9.94c7.353,0.599,15.847-0.659,22.387,3.415c0.455,0.593,0.924,1.176,1.405,1.751
			c-3.224,7.331-6.929,14.457-11.061,21.326c-0.305,0.507-0.614,1.012-0.924,1.517c-3.369-2.191-6.461-4.784-9.2-7.731
			c-2.889-3.109-5.058-6.895-8.228-9.741c-4.927-4.424-12.669-6.463-18.921-3.782c-2.767,1.186-5.239,3.216-6.257,6.127
			c-0.997,2.849-0.361,5.946,1.251,8.444c4.023,6.235,12.696,7.572,19.424,8.822c6.399,1.188,12.9,1.8,19.407,1.871
			c-5.282,8.176-11.136,15.965-17.437,23.382c-5.408-5.081-8.126-12.409-13.461-17.607c-4.658-4.539-11.567-7.482-17.992-5.061
			c-5.247,1.977-8.975,8.024-6.918,13.573c1.179,3.181,3.999,5.365,6.744,7.158c3.051,1.992,6.425,3.423,9.908,4.467
			c5.628,1.688,11.518,2.279,17.391,2.431c-7.012,7.824-14.513,15.216-22.349,22.193c-1.381,1.23,0.764,3.139,2.127,1.926
			c8.319-7.407,16.239-15.266,23.609-23.617c0.225,0.054,0.478,0.052,0.751-0.029c10.057-2.953,20.374,0.303,30.462,1.285
			c7.869,0.766,16.702,0.375,23.339-4.447c3.509-2.549,6.677-6.475,6.514-11.037c-0.154-4.341-3.443-7.924-7.241-9.639
			c-4.297-1.94-9.399-2.237-14.041-1.794c-4.582,0.438-9.005,1.766-13.101,3.854c-4.593,2.341-8.73,5.51-12.922,8.483
			c-2.109,1.496-4.219,2.992-6.328,4.487c5.005-6.247,9.693-12.75,13.99-19.496c9.297-2.596,19.094-1.493,28.618-1.681
			c8.335-0.165,17.591-1.362,24.142-7.025c3.43-2.965,5.659-7.42,4.285-11.964c-1.095-3.623-4.21-6.472-7.637-7.898
			c-8.971-3.733-17.998,2.236-24.847,7.572c-6.946,5.411-13.556,11.537-21.329,15.745c3.5-5.872,6.706-11.914,9.57-18.12
			c0.346-0.08,0.672-0.281,0.911-0.64c5.807-8.72,17.642-9.372,26.993-10.712c8.557-1.226,17.857-3.713,22.862-11.42
			c2.161-3.327,3.461-7.931,1.406-11.608c-1.904-3.407-5.983-4.987-9.701-5.184c-8.841-0.468-15.924,6.055-20.865,12.632
			c-4.26,5.671-8.152,12.485-14.055,16.617c-1.327,0.682-2.653,1.365-3.98,2.046c1.258-3.122,2.432-6.281,3.512-9.478
			c1.517-4.493,2.844-9.055,3.975-13.664c0.347,0.007,0.697-0.148,0.977-0.536c4.631-6.423,12.526-8.702,19.538-11.523
			c3.447-1.387,6.795-2.991,9.954-4.953c3.209-1.993,6.517-4.264,8.595-7.491c1.8-2.796,2.502-6.425,1.062-9.524
			c-1.389-2.989-4.443-5.027-7.673-5.484c-6.974-0.987-13.139,3.837-16.988,9.171c-2.092,2.9-3.785,6.047-5.409,9.225
			c-1.968,3.851-3.923,7.708-5.884,11.563c-0.85,0.74-1.701,1.478-2.549,2.22c1.172-5.938,2.014-11.94,2.491-17.969
			c0.166-0.046,0.335-0.13,0.503-0.266c6.078-4.904,12.267-9.7,18.228-14.745c4.435-3.753,9.132-8.805,8.739-15.073
			c-0.162-2.586-1.393-5.139-3.52-6.666c-2.285-1.64-5.229-1.715-7.849-0.925c-5.437,1.64-9.267,6.575-11.23,11.694
			c-2.388,6.229-2.976,13.099-4.009,19.645c-0.027,0.171-0.025,0.329-0.002,0.477l-0.545,0.64
			c0.352-7.975,0.072-15.976-0.925-23.918c-0.011-0.086-0.029-0.166-0.051-0.243c3.189-5.422,6.428-11.207,6.482-17.671
			c0.042-4.941-2.06-11.062-6.473-13.752c-4.32-2.634-10.209-0.908-13.118,2.998c-3.275,4.397-3.253,10.289-1.077,15.155
			c2.425,5.425,6.837,9.428,11.227,13.272c0.045,0.04,0.091,0.075,0.137,0.108c-0.007,0.098-0.005,0.201,0.009,0.311
			c1.101,8.777,1.348,17.635,0.793,26.451c-4.694-5.696-5.438-13.719-7.814-20.531c-2.306-6.61-7.061-13.582-14.65-14.288
			C384.301,53.735,377.866,58.59,377.726,65.539z M414.431,58.38c-0.207-5.929-0.835-11.828-1.893-17.668
			c-0.325-1.796-3.192-1.638-2.863,0.178c1.002,5.529,1.623,11.111,1.862,16.721c-3.176-2.901-6.172-6.083-7.8-10.094
			c-1.667-4.107-1.702-9.185,1.482-12.601c3.077-3.3,8.293-3.193,10.945,0.506c2.665,3.718,3.443,8.372,2.516,12.811
			C417.926,51.845,416.256,55.176,414.431,58.38z M437.798,89.095c-5.334,4.406-10.622,8.868-15.873,13.373
			c0.9-1.771,1.799-3.542,2.703-5.311c1.643-3.214,3.328-6.458,5.526-9.335c3.449-4.515,9.753-9.576,15.808-6.983
			c2.992,1.281,4.656,4.205,3.875,7.413c-0.86,3.531-3.914,5.948-6.768,7.904c-5.478,3.756-11.51,5.998-17.619,8.465
			c-1.117,0.451-2.233,0.927-3.335,1.435c5.698-4.909,11.443-9.763,17.242-14.553C440.769,90.337,439.218,87.922,437.798,89.095z
			 M439.442,122.134c-7.446,3.853-14.898,7.694-22.353,11.53c2.582-3.161,4.882-6.624,7.278-9.853
			c4.576-6.167,11.402-13.195,19.89-12.043c3.923,0.533,7.602,3.096,6.95,7.471c-0.615,4.129-3.542,7.532-6.895,9.811
			c-7.169,4.872-16.08,4.981-24.349,6.346c7.017-3.612,14.03-7.229,21.039-10.855C442.646,123.691,441.066,121.293,439.442,122.134z
			 M428.696,155.461c-9.778,3.329-19.612,6.491-29.495,9.49c5.337-3.74,10.286-8.075,15.451-12.074
			c6.201-4.801,14.936-10.855,22.922-6.495c2.916,1.592,5.462,4.608,5.168,8.114c-0.402,4.793-5.144,7.993-9.17,9.728
			c-7.231,3.116-15.281,3.087-23.012,2.993c-2.952-0.036-5.919-0.088-8.877-0.025c9.351-2.856,18.657-5.856,27.913-9.007
			C431.344,157.589,430.447,154.865,428.696,155.461z M406.816,186.73c-10.964,3.465-22.111,6.328-33.389,8.559
			c3.028-2.148,6.057-4.295,9.085-6.443c4.273-3.03,8.509-6.308,13.268-8.554c3.925-1.853,8.206-2.906,12.539-3.113
			c4.368-0.209,9.563,0.169,13.176,2.896c3.615,2.729,4.378,7.081,1.799,10.828c-2.155,3.129-5.596,5.227-9.149,6.402
			c-10.554,3.49-21.363,0.174-32.12-0.924c8.655-1.946,17.226-4.253,25.69-6.928C409.478,188.896,408.577,186.173,406.816,186.73z
			 M356.094,183.724c2.184,3.098,4.093,6.425,6.406,9.42c-6.268-3.686-12.536-7.372-18.805-11.058
			c-1.595-0.938-2.874,1.631-1.291,2.562c6.841,4.023,13.681,8.045,20.522,12.068c-5.633-0.173-11.262-0.787-16.663-2.442
			c-3.143-0.963-6.181-2.339-8.934-4.142c-2.376-1.555-5.103-3.647-5.628-6.621c-0.975-5.523,4.231-9.439,9.242-9.531
			C347.457,173.858,352.582,178.742,356.094,183.724z M383.577,168.358c-6.156-0.149-12.29-0.807-18.342-1.989
			c-5.801-1.134-13.936-2.261-16.977-8.087c-3.165-6.064,3.118-10.442,8.634-10.598c3.145-0.089,6.285,0.799,8.975,2.416
			c2.816,1.693,4.785,4.287,6.746,6.858c1.311,1.719,2.699,3.353,4.169,4.896c-0.532-0.229-1.066-0.455-1.6-0.679
			c-5.128-2.151-10.26-4.291-15.39-6.437c-1.696-0.709-2.995,1.849-1.291,2.562c4.961,2.075,9.923,4.148,14.884,6.225
			C376.849,164.974,380.338,166.452,383.577,168.358z M393.7,136.18c-6.768-4.486-13.641-8.813-20.621-12.966
			c-1.59-0.946-2.868,1.623-1.291,2.562c6.135,3.651,12.192,7.432,18.164,11.342c-3.761-0.474-7.655-0.431-11.443-0.578
			c-6.373-0.247-14.872-1.522-17.778-8.146c-2.967-6.764,4.031-11.219,10.046-11.142c6.844,0.087,12.474,4.699,16.556,9.803
			C389.655,129.956,391.661,133.079,393.7,136.18z M404.735,110.212c-5.495-4.063-10.99-8.127-16.484-12.19
			c-1.475-1.091-3.407,1.032-1.926,2.127c5.574,4.122,11.148,8.244,16.722,12.366c-6.005-0.377-11.971-1.331-17.791-2.873
			c-3.122-0.827-6.398-1.915-8.414-4.603c-1.505-2.006-2.268-4.604-1.942-7.104c0.769-5.902,6.522-9.283,12.116-8.192
			C396.777,91.646,400.679,101.547,404.735,110.212z M420.387,81.826c0.702-5.111,1.4-10.348,3.268-15.087
			c1.736-4.403,4.916-8.745,9.684-10.07c2.409-0.67,4.949-0.206,6.385,1.988c1.412,2.157,1.204,4.925,0.29,7.233
			c-2.078,5.246-7.107,8.719-11.338,12.133c-1.369,1.104-2.737,2.209-4.106,3.313c3.429-4.026,6.858-8.053,10.288-12.079
			c1.199-1.407-0.93-3.331-2.127-1.926C428.616,72.164,424.502,76.995,420.387,81.826z M396.104,59.334
			c5.532,4.087,7.211,11.121,8.884,17.407c0.523,1.964,1.086,3.945,1.773,5.872c-4.508-5.157-9.015-10.313-13.523-15.469
			c-1.216-1.392-3.125,0.755-1.926,2.127c4.728,5.408,9.455,10.816,14.182,16.224c-6.148-2.15-12.114-5.079-17.375-8.849
			c-4.107-2.944-8.796-7.578-7.219-13.144C382.785,56.845,391.034,55.588,396.104,59.334z"/>
	</g>
	<g>
		<g id="XMLID_00000125593984501702053270000007762893252415503489_">
			<path style="fill-rule:evenodd;clip-rule:evenodd;fill:#FFFFFF;" d="M175.84,307.847c-8.005-11.675-20.235-22.824-34.637-25.196
				c-9.167-1.508-18.108,0.197-26.525,3.539c0.662-6.772-0.306-13.574-2.944-19.87c-0.366-0.878-1.543-1.445-2.386-0.774
				c-7.391,5.872-13.14,13.592-16.545,22.39c-2.164-0.99-4.446-1.74-6.776-2.315c-2.285-0.566-4.602-0.97-6.928-1.311
				c-2.047-0.301-5.204-1.304-7.114-0.123c-1.882,1.166-2.835,4.225-3.588,6.156c-0.881,2.263-1.563,4.608-2.004,6.994
				c-0.918,4.973-0.795,10.019,0.236,14.954c-1.409-0.354-2.883-0.331-4.363-0.169c-2.525,0.277-5.04,0.636-7.558,0.96
				c-5.14,0.653-10.284,1.309-15.424,1.965c-1.553,0.199-2,2.244-0.58,3c5.201,2.773,10.402,5.546,15.603,8.319
				c-0.317,0.439-0.627,0.881-0.931,1.328c-8.18,12.092-11.39,27.223-9.009,41.619c1.254,7.587,4.076,14.666,7.966,21.276
				c3.969,6.754,8.7,13.366,14.377,18.795c10.94,10.46,26.754,15.13,41.585,15.897c15.012,0.779,30.252-2.785,43.264-10.338
				c11.733-6.813,21.396-16.98,27.987-28.81c6.59-11.833,10.016-25.399,9.464-38.952
				C188.439,333.194,183.749,319.383,175.84,307.847z"/>
		</g>
		<g id="XMLID_00000153681906935037903070000001042744462115462295_">
			<path style="fill-rule:evenodd;clip-rule:evenodd;fill:#FFFFFF;" d="M175.84,307.847c-8.005-11.675-20.235-22.824-34.637-25.196
				c-9.167-1.508-18.108,0.197-26.525,3.539c0.662-6.772-0.306-13.574-2.944-19.87c-0.366-0.878-1.543-1.445-2.386-0.774
				c-7.391,5.872-13.14,13.592-16.545,22.39c-2.164-0.99-4.446-1.74-6.776-2.315c-2.285-0.566-4.602-0.97-6.928-1.311
				c-2.047-0.301-5.204-1.304-7.114-0.123c-1.882,1.166-2.835,4.225-3.588,6.156c-0.881,2.263-1.563,4.608-2.004,6.994
				c-0.918,4.973-0.795,10.019,0.236,14.954c-1.409-0.354-2.883-0.331-4.363-0.169c-2.525,0.277-5.04,0.636-7.558,0.96
				c-5.14,0.653-10.284,1.309-15.424,1.965c-1.553,0.199-2,2.244-0.58,3c5.201,2.773,10.402,5.546,15.603,8.319
				c-0.317,0.439-0.627,0.881-0.931,1.328c-8.18,12.092-11.39,27.223-9.009,41.619c1.254,7.587,4.076,14.666,7.966,21.276
				c3.969,6.754,8.7,13.366,14.377,18.795c10.94,10.46,26.754,15.13,41.585,15.897c15.012,0.779,30.252-2.785,43.264-10.338
				c11.733-6.813,21.396-16.98,27.987-28.81c6.59-11.833,10.016-25.399,9.464-38.952
				C188.439,333.194,183.749,319.383,175.84,307.847z"/>
		</g>
		<g>
			<path style="fill:#FFFFFF;" d="M67.433,326.901c-3.698,0.271-6.476,3.488-6.205,7.186c0.271,3.698,3.488,6.476,7.186,6.205
				c3.698-0.271,6.476-3.488,6.205-7.186C74.348,329.408,71.131,326.63,67.433,326.901z"/>
			<path style="fill:#FFFFFF;" d="M108.218,302.5c-3.698,0.271-6.476,3.488-6.205,7.186c0.271,3.698,3.488,6.476,7.186,6.205
				c3.698-0.271,6.476-3.488,6.205-7.186C115.133,305.007,111.916,302.229,108.218,302.5z"/>
			<path style="fill:#FFFFFF;" d="M96.725,320.244c1.659,2.285,2.982,5.826,0.557,8.097c-2.62,2.454-5.441-0.785-7.445-2.464
				c-1.204-1.009-3.055,0.224-2.525,1.729c0.97,2.757,1.423,7.313-2.243,8.297c-3.388,0.91-4.314-4.402-5.065-6.636
				c-0.649-1.929-3.633-0.873-2.982,1.062c0.791,2.352,1.406,5.032,3.109,6.921c1.541,1.71,3.798,2.322,6,1.635
				c3.701-1.155,5.031-4.448,4.979-7.859c0.804,0.553,1.657,1.008,2.584,1.245c2.069,0.528,4.143-0.168,5.692-1.579
				c3.667-3.338,2.564-8.638-0.052-12.241C98.139,316.806,95.523,318.59,96.725,320.244z"/>
		</g>
		<g id="XMLID_00000016057894026299047460000007944927751634241443_">
			<path style="fill-rule:evenodd;clip-rule:evenodd;fill:#222221;" d="M175.842,307.873c7.909,11.536,12.598,25.348,13.169,39.334
				c0.552,13.553-2.874,27.119-9.464,38.952c-6.59,11.83-16.253,21.997-27.986,28.81c-13.012,7.553-28.252,11.117-43.264,10.338
				c-14.83-0.766-30.645-5.437-41.585-15.897c-5.678-5.429-10.408-12.041-14.377-18.795c-3.889-6.61-6.711-13.689-7.965-21.276
				c-2.381-14.397,0.829-29.527,9.009-41.619c0.303-0.447,0.614-0.889,0.931-1.328c-5.201-2.773-10.402-5.546-15.603-8.319
				c-1.42-0.756-0.973-2.8,0.58-3c5.14-0.656,10.283-1.312,15.424-1.965c2.518-0.324,5.033-0.683,7.558-0.96
				c1.48-0.162,2.953-0.185,4.363,0.169c-1.031-4.935-1.153-9.981-0.236-14.954c0.441-2.387,1.122-4.731,2.004-6.995
				c0.753-1.93,1.706-4.99,3.588-6.155c1.909-1.181,5.067-0.178,7.114,0.123c2.326,0.341,4.643,0.745,6.928,1.311
				c2.33,0.575,4.612,1.325,6.776,2.315c3.404-8.798,9.153-16.517,16.545-22.39c0.843-0.671,2.02-0.104,2.386,0.774
				c2.638,6.296,3.606,13.098,2.944,19.87c8.418-3.342,17.359-5.048,26.525-3.54C155.607,285.049,167.838,296.199,175.842,307.873z
				 M180.809,376.18c9.989-24.778,4.63-53.912-13.251-73.748c-4.583-5.087-9.981-9.683-16.049-12.9
				c-6.692-3.549-14.096-4.777-21.61-3.992c-15.751,1.649-29.048,11.08-41.578,20.013c0.172,0.701-0.09,1.463-0.995,1.707
				c-3.1,0.83-6.127,1.915-9.039,3.264c-11.778,5.464-21.53,15.241-26.833,27.098c-5.789,12.936-6.24,28.172-1.248,41.431
				c2.706,7.186,6.919,13.747,11.514,19.858c4.539,6.039,9.831,11.354,16.488,15.032c12.467,6.883,27.356,9.308,41.447,7.952
				c14.009-1.347,27.579-6.574,38.623-15.339C168.27,398.628,176.045,387.997,180.809,376.18z M111.47,286.595
				c0.705-5.801,0.021-11.618-1.912-17.093c-6.222,5.384-10.983,12.25-13.943,19.927c1.214,0.723,2.381,1.536,3.477,2.461
				c1.559,1.317-0.512,3.709-2.068,2.395c-3.216-2.712-7.079-4.365-11.128-5.41c-1.95-0.504-3.93-0.883-5.917-1.204
				c-0.992-0.159-1.993-0.305-2.99-0.441c-0.833-0.113-2.246-0.6-3.054-0.37c-0.836,0.242-1.305,1.768-1.643,2.478
				c-0.457,0.954-0.871,1.93-1.239,2.921c-0.779,2.101-1.329,4.289-1.688,6.502c-0.698,4.29-0.59,8.712,0.344,12.959
				c4.4-2.874,9.179-5.163,14.191-6.745c-2.708-3.314-5.115-6.841-7.201-10.582c-0.987-1.771,1.617-3.571,2.61-1.794
				c2.057,3.686,4.422,7.171,7.083,10.441l0.003-0.003c3.317-2.363,6.634-4.729,10.027-6.976c4.781-3.168,9.874-6.156,15.195-8.545
				C111.487,287.257,111.426,286.947,111.47,286.595z M64.901,315.218c-1.454-0.141-2.975,0.155-4.408,0.339
				c-2.264,0.286-4.524,0.576-6.787,0.865c-3.059,0.389-6.121,0.779-9.18,1.171c3.91,2.084,7.819,4.168,11.729,6.252
				C58.821,320.674,61.725,317.783,64.901,315.218z"/>
		</g>
		<path style="fill:#222221;" d="M67.435,326.927c-3.698,0.271-6.476,3.488-6.205,7.186c0.271,3.698,3.488,6.476,7.186,6.205
			c3.698-0.271,6.476-3.488,6.205-7.186C74.35,329.435,71.133,326.656,67.435,326.927z"/>
		<path style="fill:#222221;" d="M108.22,302.526c-3.698,0.271-6.476,3.488-6.205,7.186c0.271,3.698,3.488,6.476,7.186,6.205
			c3.698-0.271,6.476-3.488,6.205-7.186C115.135,305.034,111.917,302.255,108.22,302.526z"/>
		<path style="fill:#222221;" d="M96.727,320.27c1.659,2.285,2.982,5.826,0.557,8.097c-2.62,2.454-5.441-0.785-7.445-2.464
			c-1.204-1.009-3.055,0.224-2.525,1.729c0.97,2.757,1.423,7.313-2.243,8.297c-3.388,0.91-4.314-4.402-5.065-6.636
			c-0.649-1.929-3.633-0.873-2.982,1.062c0.791,2.352,1.406,5.032,3.109,6.922c1.541,1.71,3.798,2.322,6,1.634
			c3.701-1.155,5.031-4.448,4.979-7.859c0.804,0.554,1.657,1.009,2.584,1.245c2.069,0.528,4.143-0.168,5.692-1.579
			c3.667-3.338,2.563-8.638-0.052-12.241C98.141,316.833,95.525,318.616,96.727,320.27z"/>
		<g id="XMLID_00000027588431989408359630000006062189575208612750_">
			<path style="fill-rule:evenodd;clip-rule:evenodd;fill:#222221;" d="M175.842,307.873c7.909,11.536,12.598,25.348,13.169,39.334
				c0.552,13.553-2.874,27.119-9.464,38.952c-6.59,11.83-16.253,21.997-27.986,28.81c-13.012,7.553-28.252,11.117-43.264,10.338
				c-14.83-0.766-30.645-5.437-41.585-15.897c-5.678-5.429-10.408-12.041-14.377-18.795c-3.889-6.61-6.711-13.689-7.965-21.276
				c-2.381-14.397,0.829-29.527,9.009-41.619c0.303-0.447,0.614-0.889,0.931-1.328c-5.201-2.773-10.402-5.546-15.603-8.319
				c-1.42-0.756-0.973-2.8,0.58-3c5.14-0.656,10.283-1.312,15.424-1.965c2.518-0.324,5.033-0.683,7.558-0.96
				c1.48-0.162,2.953-0.185,4.363,0.169c-1.031-4.935-1.153-9.981-0.236-14.954c0.441-2.387,1.122-4.731,2.004-6.995
				c0.753-1.93,1.706-4.99,3.588-6.155c1.909-1.181,5.067-0.178,7.114,0.123c2.326,0.341,4.643,0.745,6.928,1.311
				c2.33,0.575,4.612,1.325,6.776,2.315c3.404-8.798,9.153-16.517,16.545-22.39c0.843-0.671,2.02-0.104,2.386,0.774
				c2.638,6.296,3.606,13.098,2.944,19.87c8.418-3.342,17.359-5.048,26.525-3.54C155.607,285.049,167.838,296.199,175.842,307.873z
				 M180.809,376.18c9.989-24.778,4.63-53.912-13.251-73.748c-4.583-5.087-9.981-9.683-16.049-12.9
				c-6.692-3.549-14.096-4.777-21.61-3.992c-15.751,1.649-29.048,11.08-41.578,20.013c0.172,0.701-0.09,1.463-0.995,1.707
				c-3.1,0.83-6.127,1.915-9.039,3.264c-11.778,5.464-21.53,15.241-26.833,27.098c-5.789,12.936-6.24,28.172-1.248,41.431
				c2.706,7.186,6.919,13.747,11.514,19.858c4.539,6.039,9.831,11.354,16.488,15.032c12.467,6.883,27.356,9.308,41.447,7.952
				c14.009-1.347,27.579-6.574,38.623-15.339C168.27,398.628,176.045,387.997,180.809,376.18z M111.47,286.595
				c0.705-5.801,0.021-11.618-1.912-17.093c-6.222,5.384-10.983,12.25-13.943,19.927c1.214,0.723,2.381,1.536,3.477,2.461
				c1.559,1.317-0.512,3.709-2.068,2.395c-3.216-2.712-7.079-4.365-11.128-5.41c-1.95-0.504-3.93-0.883-5.917-1.204
				c-0.992-0.159-1.993-0.305-2.99-0.441c-0.833-0.113-2.246-0.6-3.054-0.37c-0.836,0.242-1.305,1.768-1.643,2.478
				c-0.457,0.954-0.871,1.93-1.239,2.921c-0.779,2.101-1.329,4.289-1.688,6.502c-0.698,4.29-0.59,8.712,0.344,12.959
				c4.4-2.874,9.179-5.163,14.191-6.745c-2.708-3.314-5.115-6.841-7.201-10.582c-0.987-1.771,1.617-3.571,2.61-1.794
				c2.057,3.686,4.422,7.171,7.083,10.441l0.003-0.003c3.317-2.363,6.634-4.729,10.027-6.976c4.781-3.168,9.874-6.156,15.195-8.545
				C111.487,287.257,111.426,286.947,111.47,286.595z M64.901,315.218c-1.454-0.141-2.975,0.155-4.408,0.339
				c-2.264,0.286-4.524,0.576-6.787,0.865c-3.059,0.389-6.121,0.779-9.18,1.171c3.91,2.084,7.819,4.168,11.729,6.252
				C58.821,320.674,61.725,317.783,64.901,315.218z"/>
		</g>
		<path style="fill:#222221;" d="M67.435,326.927c-3.698,0.271-6.476,3.488-6.205,7.186c0.271,3.698,3.488,6.476,7.186,6.205
			c3.698-0.271,6.476-3.488,6.205-7.186C74.35,329.435,71.133,326.656,67.435,326.927z"/>
		<path style="fill:#222221;" d="M108.22,302.526c-3.698,0.271-6.476,3.488-6.205,7.186c0.271,3.698,3.488,6.476,7.186,6.205
			c3.698-0.271,6.476-3.488,6.205-7.186C115.135,305.034,111.917,302.255,108.22,302.526z"/>
		<path style="fill:#222221;" d="M96.727,320.27c1.659,2.285,2.982,5.826,0.557,8.097c-2.62,2.454-5.441-0.785-7.445-2.464
			c-1.204-1.009-3.055,0.224-2.525,1.729c0.97,2.757,1.423,7.313-2.243,8.297c-3.388,0.91-4.314-4.402-5.065-6.636
			c-0.649-1.929-3.633-0.873-2.982,1.062c0.791,2.352,1.406,5.032,3.109,6.922c1.541,1.71,3.798,2.322,6,1.634
			c3.701-1.155,5.031-4.448,4.979-7.859c0.804,0.554,1.657,1.009,2.584,1.245c2.069,0.528,4.143-0.168,5.692-1.579
			c3.667-3.338,2.563-8.638-0.052-12.241C98.141,316.833,95.525,318.616,96.727,320.27z"/>
	</g>
	<g>
		<path style="fill:#FFFFFF;" d="M413.454,309.296c-2.895-24.146-11.247-51.309-24.823-80.736
			c-0.209-2.359-1.942-19.558-9.54-40.336c-4.786-13.088-10.932-25.034-18.265-35.506c-9.184-13.115-20.267-23.942-32.94-32.179
			c-0.385-0.25-0.776-0.497-1.165-0.745c2.735-5.346,3.429-11.698,2.915-17.697c-0.737-8.605-2.923-18.006-9.084-24.404
			c-5.241-5.443-13.045-8.421-20.578-7.87c-7.383,0.541-14.333,4.625-18.682,10.574c-4.546,6.218-5.411,13.423-4.699,20.686
			c-15.017-2.063-30.811-1.324-46.981,2.203c-12.437,2.713-22.93,6.519-32.408,10.315c-0.009-0.031-0.017-0.063-0.029-0.094
			c-4.853-13.424-19.108-21.772-33.17-18.975c-7.022,1.397-13.567,5.243-17.857,11.028c-4.268,5.755-6.383,13.044-5.824,20.193
			c0.722,9.234,6.214,17.871,12.007,24.817c0.37,0.444,0.857,0.594,1.318,0.548c-4.541,7.865-8.235,17.528-8.427,28.326
			c-0.866,1.919-5.238,12.37-5.651,28.456c-0.263,10.239,1.15,20.639,4.201,30.913c3.806,12.816,10.183,25.467,18.956,37.602
			l0.129-0.093c-0.535,0.806-1.055,1.629-1.56,2.469c-0.216-0.109-0.476-0.163-0.78-0.136c-8.794,0.789-16.44,6.346-20.901,13.826
			c-4.998,8.38-5.418,18.786-3.108,28.072c1.864,7.495,6.039,16.023,13.569,18.852c1.117,19.56,3.049,36.322,5.786,50.258
			c-0.124,0.039-0.249,0.094-0.374,0.172c-7.569,4.727-11.891,13.783-11.35,22.63c0.564,9.217,6.835,17.051,15.341,20.385
			c4.749,1.861,9.854,2.287,14.813,1.077c3.486,3.438,7.327,5.591,11.52,6.443c2.109,0.429,4.313,0.556,6.591,0.389
			c8.399-0.616,17.802-5.224,27.133-13.41c3.204-2.811,6.33-5.997,9.342-9.495c0.126,0.09,0.271,0.164,0.437,0.219
			c14.503,4.765,29.966,6.323,45.131,4.579c0.035-0.004,0.067-0.011,0.101-0.017c0.077,0.238,0.156,0.474,0.241,0.708
			c2.139,5.887,6.779,10.494,13.791,13.692c2.92,1.331,6.822,1.817,11.684,1.461c8.012-0.587,18.632-3.461,31.76-8.605
			c15.78-6.183,32.253-14.567,41.564-19.868c7.709-4.389,26.635-17.695,35.837-46.375
			C414.519,347.77,415.875,329.483,413.454,309.296z"/>
		<path style="fill:#222221;" d="M175.333,157.42c-5.161,0.378-9.038,4.868-8.66,10.029c0.378,5.161,4.868,9.038,10.029,8.66
			c5.161-0.378,9.038-4.868,8.66-10.029C184.984,160.919,180.494,157.042,175.333,157.42z"/>
		<path style="fill:#222221;" d="M250.828,141.913c-5.161,0.378-9.038,4.868-8.66,10.029c0.378,5.161,4.868,9.038,10.029,8.66
			c5.161-0.378,9.038-4.868,8.66-10.029C260.479,145.413,255.989,141.535,250.828,141.913z"/>
		<path style="fill:#222221;" d="M233.299,173.79c-1.494,5.514-6.741,9.938-11.971,12.067c-2.018-3.95-3.861-7.987-5.544-12.091
			c-0.044-0.108-0.097-0.206-0.156-0.294c0.48-0.317,0.914-0.762,1.308-1.081c1.054-0.855,2.108-1.71,3.162-2.565
			c1.793-1.454,3.886-2.846,5.253-4.737c2.304-3.186,1.35-8.089-3.089-8.415c-2.201-0.162-4.442,0.677-6.542,1.222
			c-2.629,0.683-5.259,1.365-7.888,2.048c-3.144,0.816-8.101,2.588-6.852,6.864c0.604,2.067,2.616,3.305,4.507,4.049
			c2.498,0.983,5.098,1.758,7.651,2.602c-0.251,0.332-0.342,0.78-0.13,1.297c1.669,4.073,3.507,8.067,5.493,11.993
			c-5.131,1.091-10.535-0.6-14.256-4.375c-1.333-1.352-3.249,0.886-1.925,2.23c4.886,4.957,12.443,6.719,19.011,4.406
			c6.581-2.317,12.99-7.751,14.858-14.644C236.686,172.53,233.793,171.969,233.299,173.79z M214.365,170.695
			c-0.006,0.004-0.01,0.007-0.016,0.012c-0.058,0-0.114,0.006-0.171,0.013c-2.241-0.753-4.494-1.481-6.724-2.267
			c-1.179-0.416-3.898-1.292-3.682-2.974c0.185-1.439,2.412-2.039,3.555-2.369c2.263-0.654,4.567-1.19,6.847-1.782
			c2.18-0.566,4.409-1.347,6.641-1.662c1.82-0.257,3.435,0.511,2.746,2.617c-0.619,1.893-2.764,3.194-4.228,4.382
			c-0.903,0.733-1.807,1.466-2.71,2.199c-0.527,0.428-1.054,0.855-1.581,1.283C214.817,170.328,214.591,170.512,214.365,170.695z"/>
		<path style="fill:#222221;" d="M179.256,295.23c3.856-0.549,6.488-4.467,5.879-8.751c-0.609-4.285-4.23-7.313-8.086-6.765
			c-3.856,0.549-6.488,4.467-5.879,8.751C171.78,292.75,175.4,295.779,179.256,295.23z"/>
		<path style="fill:#222221;" d="M223.497,283.031c-3.856,0.549-6.488,4.467-5.878,8.751c0.609,4.285,4.23,7.313,8.086,6.765
			c3.856-0.549,6.488-4.467,5.879-8.751C230.973,285.511,227.353,282.482,223.497,283.031z"/>
		<path style="fill:#222221;" d="M205.383,289.822c-0.228,3.158-2.642,6.047-5.919,6.291c-3.276,0.244-6.083-2.295-6.761-5.376
			c-0.406-1.844-3.179-0.844-2.776,0.988c0.957,4.346,5.287,7.648,9.752,7.325c4.465-0.323,8.273-4.218,8.594-8.655
			C208.408,288.526,205.519,287.935,205.383,289.822z"/>
		<path style="fill:#222221;" d="M201.527,349.174c-6.726-0.708-13.453-1.417-20.179-2.125c-1.873-0.197-2.458,2.691-0.573,2.89
			l20.179,2.125C202.827,352.262,203.412,349.373,201.527,349.174z"/>
		<path style="fill:#222221;" d="M198.108,371.58c-6.89-0.841-13.78-1.682-20.669-2.522c-1.873-0.229-2.456,2.66-0.573,2.89
			c6.89,0.841,13.78,1.681,20.67,2.522C199.408,374.698,199.991,371.81,198.108,371.58z"/>
		<path style="fill:#222221;" d="M190.9,392.057c-5.173-0.942-10.347-1.883-15.52-2.825c-1.866-0.34-2.44,2.55-0.574,2.89
			c5.173,0.942,10.347,1.883,15.52,2.825C192.193,395.287,192.766,392.397,190.9,392.057z"/>
		<path style="fill:#222221;" d="M388.631,228.56c-0.209-2.359-1.942-19.558-9.54-40.336c-4.786-13.088-10.932-25.034-18.265-35.506
			c-9.184-13.115-20.267-23.942-32.94-32.179c-0.385-0.25-0.776-0.497-1.165-0.745c2.735-5.346,3.429-11.698,2.915-17.697
			c-0.737-8.605-2.923-18.006-9.084-24.404c-5.241-5.443-13.045-8.421-20.578-7.87c-7.383,0.541-14.333,4.625-18.682,10.574
			c-4.546,6.218-5.411,13.423-4.699,20.686c-15.017-2.063-30.811-1.324-46.981,2.203c-12.437,2.713-22.93,6.519-32.408,10.315
			c-0.009-0.031-0.017-0.063-0.029-0.094c-4.853-13.424-19.108-21.772-33.17-18.975c-7.022,1.397-13.567,5.243-17.857,11.028
			c-4.268,5.755-6.383,13.044-5.824,20.193c0.722,9.234,6.214,17.871,12.007,24.817c0.37,0.444,0.857,0.594,1.318,0.548
			c-4.541,7.865-8.235,17.528-8.427,28.326c-0.866,1.919-5.238,12.37-5.651,28.456c-0.263,10.239,1.15,20.639,4.201,30.913
			c3.806,12.816,10.183,25.467,18.956,37.602l0.129-0.093c-0.535,0.806-1.055,1.629-1.56,2.469c-0.216-0.109-0.476-0.163-0.78-0.136
			c-8.794,0.789-16.44,6.346-20.901,13.826c-4.998,8.38-5.418,18.786-3.108,28.072c1.864,7.495,6.039,16.023,13.569,18.852
			c1.117,19.56,3.049,36.322,5.786,50.258c-0.124,0.039-0.249,0.094-0.374,0.172c-7.569,4.727-11.891,13.783-11.35,22.63
			c0.564,9.217,6.835,17.051,15.341,20.385c4.749,1.861,9.854,2.287,14.813,1.077c3.486,3.438,7.327,5.591,11.52,6.443
			c2.109,0.429,4.313,0.556,6.591,0.389c8.399-0.616,17.802-5.224,27.133-13.41c3.204-2.811,6.33-5.997,9.342-9.495
			c0.126,0.09,0.271,0.164,0.437,0.219c14.503,4.765,29.966,6.323,45.131,4.579c0.035-0.004,0.067-0.011,0.101-0.017
			c0.077,0.238,0.156,0.474,0.241,0.708c2.139,5.887,6.779,10.494,13.791,13.692c2.92,1.331,6.822,1.817,11.684,1.461
			c8.012-0.587,18.632-3.461,31.76-8.605c15.78-6.183,32.253-14.567,41.564-19.868c7.709-4.389,26.635-17.695,35.837-46.375
			c5.094-15.877,6.45-34.164,4.03-54.351C410.56,285.15,402.208,257.987,388.631,228.56z M143.69,128.663
			c-1.316-6.395-0.082-13.217,3.166-18.854c6.594-11.443,21.807-16.113,33.711-10.472c6.382,3.024,11.431,8.512,13.833,15.157
			c0.027,0.075,0.059,0.144,0.094,0.209c-2.569,1.081-5.138,2.351-7.678,3.786c-4.844-7.191-13.642-12.616-22.467-9.486
			c-7.551,2.678-11.628,11.15-10.51,18.821c0.734,5.034,3.246,9.524,6.736,13.167c-1.885,2.368-3.838,5.073-5.697,8.072
			c-0.035-0.055-0.074-0.109-0.119-0.164C149.937,143.119,145.231,136.15,143.69,128.663z M184.271,119.989
			c-7.964,4.884-15.542,11.355-21.818,18.723c-6.194-6.509-8.453-17.243-1.539-24.128c3.338-3.324,8.176-4.192,12.639-2.953
			C178.086,112.89,181.669,116.18,184.271,119.989z M139.958,321.984c-2.559-8.298-2.75-17.694,0.968-25.683
			c3.472-7.461,10.471-13.4,18.704-14.577c-1.362,2.54-2.597,5.217-3.697,8.025c-1.099-1.156-3.195,0.409-2.235,1.916
			c5.047,7.923,9.828,16.52,11.977,25.745c0.307,1.316,0.538,2.672,0.658,4.038c-3.018-1.919-6.037-3.837-9.055-5.756
			c-1.601-1.018-2.88,1.639-1.297,2.645c3.148,2.001,6.295,4.002,9.443,6.003c0.348,0.221,0.681,0.268,0.973,0.197
			c-0.106,2.091-0.539,4.15-1.444,6.066c-0.793,1.678-1.927,3.245-3.341,4.455c-0.098-0.336-0.328-0.644-0.725-0.852
			c-3.758-1.968-7.465-4.03-11.119-6.185c-1.637-0.965-2.92,1.688-1.297,2.645c3.516,2.074,7.081,4.059,10.694,5.959
			c-0.682,0.307-1.404,0.539-2.165,0.67C147.827,338.869,142.234,329.362,139.958,321.984z M155.839,427.58
			c1.946-0.642,3.908-1.233,5.887-1.767c1.828-0.493,0.836-3.267-0.988-2.776c-2.42,0.652-4.814,1.386-7.185,2.2
			c-0.134,0.046-0.251,0.106-0.355,0.174c-0.399-0.382-0.784-0.777-1.151-1.189c-3.285-3.677-4.917-8.354-4.982-13.111l8.052-2.583
			c1.804-0.579,0.819-3.355-0.988-2.776c-2.293,0.736-4.586,1.471-6.879,2.207c0.251-1.911,0.754-3.802,1.503-5.613
			c1.618-3.911,4.242-7.271,7.731-9.645c3.775,17.868,8.955,30.796,15.518,38.716C166.398,432.369,160.494,430.838,155.839,427.58z
			 M217.594,425.133c-8.844,7.759-17.64,12.123-25.372,12.689c-2.019,0.148-3.967,0.037-5.822-0.34
			c-9.782-1.988-17.644-12.415-23.368-30.99c-4.973-16.138-8.322-38.435-9.96-66.305c0.258,0.04,0.518,0.076,0.783,0.104
			c9.543,0.978,15.426-8.069,15.507-16.675c0.057-6.053-2.113-12.056-4.494-17.536c-1.986-4.573-4.371-8.96-6.961-13.218
			c5.445-15.125,14.776-26.509,26.999-32.929c12.523-6.577,27.576-7.63,43.531-3.045c13.945,4.008,23.581,14.246,28.64,30.429
			c5.292,16.929,4.329,36.34,2.528,49.885c-3.499,3.272-6.408,7.087-8.018,11.655c-2.162,6.135-1.879,13.175,1.656,18.416
			l-0.239-0.074c-1.59,5.103-3.353,9.907-5.238,14.276C240.069,399.311,229.354,414.815,217.594,425.133z M202.707,251.512
			c-1.238,0.139-2.464,0.317-3.677,0.534c-2.015-6.429-3.77-12.932-5.264-19.501c-0.419-1.842-3.192-0.843-2.776,0.989
			c1.464,6.437,3.18,12.81,5.144,19.111c-1.122,0.263-2.233,0.56-3.33,0.892c-0.024-0.057-0.052-0.114-0.084-0.171
			c-2.572-4.557-5.405-9.06-7.546-13.841c-1.822-4.066-3.017-8.491-2.07-12.94c0.795-3.735,3.161-7.191,7.004-8.202
			c3.469-0.913,7.492,0.228,9.788,3.021c0.226,0.275,0.498,0.439,0.78,0.513c-0.101,0.573-0.186,1.148-0.251,1.722
			c-0.514,4.479-0.272,9.021,0.017,13.507C200.754,241.999,201.352,246.829,202.707,251.512z M238.828,240.368
			c-2.516,4.53-5.109,9.016-7.779,13.458c-0.151,0.251-0.215,0.494-0.213,0.72c-0.523-0.171-1.051-0.335-1.586-0.489
			c-0.574-0.165-1.148-0.322-1.72-0.473c0.054-0.073,0.105-0.153,0.15-0.243c3.533-7.033,6.722-14.492,7.201-22.446
			c0.044-0.734,0.063-1.474,0.057-2.216c0.117-0.016,0.238-0.045,0.364-0.094c4.073-1.576,9.186-3.588,13.363-1.245
			c3.187,1.788,4.562,5.632,4.62,9.112c0.072,4.297-2.14,8.33-4.613,11.699c-2.669,3.637-5.717,7.525-9.418,10.167
			c-1.849-1.086-3.795-2.038-5.843-2.846c0.104-0.097,0.199-0.212,0.282-0.349c2.67-4.441,5.263-8.927,7.779-13.458
			C242.397,240.003,239.746,238.716,238.828,240.368z M232.004,229.796c-0.185,7.868-3.495,15.335-6.969,22.249
			c-0.159,0.317-0.196,0.619-0.146,0.891c-3.384-0.77-6.724-1.291-10.007-1.567c0.082-8.797,0.501-17.584,1.269-26.348
			c0.164-1.871-2.725-2.46-2.89-0.573c-0.779,8.894-1.218,17.813-1.311,26.741c-2.174-0.085-4.319-0.06-6.432,0.076
			c0.047-0.224,0.042-0.472-0.035-0.738c-2.055-7.102-2.502-14.876-2.408-22.243c0.082-6.383,1.499-13.406,6.87-17.499
			c5.195-3.96,11.771-2.464,16.163,1.975C230.501,217.199,232.147,223.704,232.004,229.796z M406.62,362.747
			c-8.886,27.695-27.08,40.497-34.489,44.715c-9.226,5.253-25.547,13.56-41.181,19.686c-20.039,7.852-34.268,10.344-41.147,7.206
			c-2.737-1.248-5.063-2.722-6.972-4.413c4.078-2.101,8.157-4.202,12.235-6.302c1.68-0.865-0.001-3.287-1.668-2.428
			c-4.207,2.167-8.415,4.334-12.622,6.502c-0.026,0.013-0.049,0.028-0.073,0.042c-1.377-1.644-2.429-3.451-3.144-5.418
			c-0.863-2.375-1.229-5.004-1.111-7.792c0.042-0.019,0.084-0.039,0.127-0.063c4.976-2.77,10.07-5.305,15.277-7.611
			c1.721-0.762,0.751-3.546-0.989-2.775c-4.764,2.109-9.439,4.41-14.019,6.893c0.512-2.86,1.488-5.836,2.923-8.836
			c4.262-8.914,33.213-21.589,44.009-25.721l-1.053-2.751c-1.63,0.623-39.974,15.408-45.614,27.202
			c-3.155,6.599-4.272,13.161-3.269,18.872c-14.471,1.608-29.113,0.145-42.984-4.264c7.548-9.272,14.296-20.521,19.615-32.849
			c1.72-3.987,3.338-8.323,4.818-12.909c0.723,0.711,1.525,1.369,2.415,1.96c8.564,5.689,19.232,3.372,28.171-0.043
			c11.52-4.401,22.686-9.814,33.422-15.871c1.65-0.931-0.025-3.355-1.669-2.428c-8.823,4.978-17.931,9.435-27.284,13.33
			c-8.458,3.522-18.298,7.723-27.477,4.346c-0.842-0.31-1.654-0.686-2.429-1.12c4.569-1.742,9.137-3.484,13.705-5.226
			c1.767-0.674,0.789-3.453-0.989-2.775l-14.482,5.522c-0.389,0.148-0.645,0.399-0.789,0.693c-1.544-1.34-2.797-2.998-3.598-4.957
			c-0.498-1.217-0.824-2.483-1.006-3.768c4.613-2.284,9.162-4.691,13.639-7.231c1.648-0.935-0.027-3.359-1.669-2.428
			c-3.987,2.261-8.031,4.417-12.131,6.466c0.057-1.588,0.304-3.173,0.712-4.708c2.262-8.516,9.65-14.387,16.774-18.882
			c9.488-5.987,19.666-10.906,30.144-14.895c1.767-0.673,0.79-3.452-0.988-2.776c-10.119,3.852-19.914,8.595-29.17,14.219
			c-2.587,1.572-5.207,3.292-7.669,5.214c1.553-13.596,2.008-31.808-3.034-47.938c-3.693-11.816-9.719-20.658-17.985-26.427
			c2.987-2.368,5.469-5.42,7.815-8.385c2.548-3.221,4.818-6.728,5.922-10.721c1.778-6.436-0.599-14.709-7.463-16.963
			c-4.463-1.465-9.189,0.077-13.404,1.692c-0.527-5.103-2.319-10.101-5.711-13.988c-4.5-5.157-11.818-8.007-18.29-4.82
			c-4.839,2.383-7.839,6.922-9.347,11.93c-4.662-4.552-12.505-4.902-17.31-0.219c-5.95,5.798-4.801,15.097-1.717,21.977
			c2.161,4.821,4.967,9.373,7.578,13.964c-2.207,0.805-4.356,1.754-6.44,2.849c-7.411,3.892-13.805,9.497-18.986,16.566
			c-8.26-11.588-14.293-23.632-17.924-35.814c-2.968-9.958-4.352-20.033-4.115-29.945c0.324-13.519,3.743-24.041,5.505-27.715
			l0.142-0.295l0.004-0.328c0.142-12.449,5.646-25.923,15.5-37.939c8.963-10.93,20.901-19.955,32.752-24.76
			c9.853-3.995,20.77-8.084,33.826-10.932c16.113-3.515,31.83-4.203,46.737-2.052c0.218,1.426,0.484,2.849,0.785,4.262
			c0.393,1.846,3.166,0.845,2.776-0.989c-1.671-7.839-2.348-16.281,1.911-23.441c3.312-5.568,9.166-9.801,15.577-10.919
			c6.667-1.163,13.713,0.903,18.857,5.26c6.133,5.194,8.375,13.28,9.463,20.953c1.225,8.644,0.438,18.192-6.233,24.538
			c-1.374,1.308,0.866,3.222,2.229,1.925c1.093-1.04,2.044-2.172,2.871-3.375c0.357,0.227,0.715,0.454,1.068,0.683
			c12.341,8.021,23.141,18.571,32.102,31.355c7.185,10.251,13.211,21.956,17.912,34.789c8.021,21.899,9.409,39.72,9.422,39.897
			l0.02,0.267l0.112,0.243c13.511,29.238,21.815,56.183,24.681,80.087C412.899,329.41,411.584,347.276,406.62,362.747z"/>
		<path style="fill:#222221;" d="M298.245,85.881c-4.329,0.981-7.446,4.577-8.879,8.641c-2.084,5.906-0.656,12.135,0.762,18.019
			c0.443,1.839,3.217,0.842,2.775-0.988c-1.093-4.536-2.286-9.364-1.333-14.034c0.698-3.417,2.669-6.954,6.024-8.354
			c3.516-1.467,7.662-0.289,10.399,2.214c2.919,2.67,4.169,6.749,4.233,10.61c0.084,5.031-1.942,9.828-4.34,14.148
			c-0.923,1.662,1.728,2.95,2.645,1.297c4.684-8.439,7.44-20.089-0.146-27.83C307.306,86.461,302.558,84.903,298.245,85.881z"/>
		<path style="fill:#222221;" d="M175.333,157.42c-5.161,0.378-9.038,4.868-8.66,10.029c0.378,5.161,4.868,9.038,10.029,8.66
			c5.161-0.378,9.038-4.868,8.66-10.029C184.984,160.919,180.494,157.042,175.333,157.42z"/>
		<path style="fill:#222221;" d="M250.828,141.913c-5.161,0.378-9.038,4.868-8.66,10.029c0.378,5.161,4.868,9.038,10.029,8.66
			c5.161-0.378,9.038-4.868,8.66-10.029C260.479,145.413,255.989,141.535,250.828,141.913z"/>
		<path style="fill:#222221;" d="M233.299,173.79c-1.494,5.514-6.741,9.938-11.971,12.067c-2.018-3.95-3.861-7.987-5.544-12.091
			c-0.044-0.108-0.097-0.206-0.156-0.294c0.48-0.317,0.914-0.762,1.308-1.081c1.054-0.855,2.108-1.71,3.162-2.565
			c1.793-1.454,3.886-2.846,5.253-4.737c2.304-3.186,1.35-8.089-3.089-8.415c-2.201-0.162-4.442,0.677-6.542,1.222
			c-2.629,0.683-5.259,1.365-7.888,2.048c-3.144,0.816-8.101,2.588-6.852,6.864c0.604,2.067,2.616,3.305,4.507,4.049
			c2.498,0.983,5.098,1.758,7.651,2.602c-0.251,0.332-0.342,0.78-0.13,1.297c1.669,4.073,3.507,8.067,5.493,11.993
			c-5.131,1.091-10.535-0.6-14.256-4.375c-1.333-1.352-3.249,0.886-1.925,2.23c4.886,4.957,12.443,6.719,19.011,4.406
			c6.581-2.317,12.99-7.751,14.858-14.644C236.686,172.53,233.793,171.969,233.299,173.79z M214.365,170.695
			c-0.006,0.004-0.01,0.007-0.016,0.012c-0.058,0-0.114,0.006-0.171,0.013c-2.241-0.753-4.494-1.481-6.724-2.267
			c-1.179-0.416-3.898-1.292-3.682-2.974c0.185-1.439,2.412-2.039,3.555-2.369c2.263-0.654,4.567-1.19,6.847-1.782
			c2.18-0.566,4.409-1.347,6.641-1.662c1.82-0.257,3.435,0.511,2.746,2.617c-0.619,1.893-2.764,3.194-4.228,4.382
			c-0.903,0.733-1.807,1.466-2.71,2.199c-0.527,0.428-1.054,0.855-1.581,1.283C214.817,170.328,214.591,170.512,214.365,170.695z"/>
		<path style="fill:#222221;" d="M179.256,295.23c3.856-0.549,6.488-4.467,5.879-8.751c-0.609-4.285-4.23-7.313-8.086-6.765
			c-3.856,0.549-6.488,4.467-5.879,8.751C171.78,292.75,175.4,295.779,179.256,295.23z"/>
		<path style="fill:#222221;" d="M223.497,283.031c-3.856,0.549-6.488,4.467-5.878,8.751c0.609,4.285,4.23,7.313,8.086,6.765
			c3.856-0.549,6.488-4.467,5.879-8.751C230.973,285.511,227.353,282.482,223.497,283.031z"/>
		<path style="fill:#222221;" d="M205.383,289.822c-0.228,3.158-2.642,6.047-5.919,6.291c-3.276,0.244-6.083-2.295-6.761-5.376
			c-0.406-1.844-3.179-0.844-2.776,0.988c0.957,4.346,5.287,7.648,9.752,7.325c4.465-0.323,8.273-4.218,8.594-8.655
			C208.408,288.526,205.519,287.935,205.383,289.822z"/>
		<path style="fill:#222221;" d="M201.527,349.174c-6.726-0.708-13.453-1.417-20.179-2.125c-1.873-0.197-2.458,2.691-0.573,2.89
			l20.179,2.125C202.827,352.262,203.412,349.373,201.527,349.174z"/>
		<path style="fill:#222221;" d="M198.108,371.58c-6.89-0.841-13.78-1.682-20.669-2.522c-1.873-0.229-2.456,2.66-0.573,2.89
			c6.89,0.841,13.78,1.681,20.67,2.522C199.408,374.698,199.991,371.81,198.108,371.58z"/>
		<path style="fill:#222221;" d="M190.9,392.057c-5.173-0.942-10.347-1.883-15.52-2.825c-1.866-0.34-2.44,2.55-0.574,2.89
			c5.173,0.942,10.347,1.883,15.52,2.825C192.193,395.287,192.766,392.397,190.9,392.057z"/>
		<path style="fill:#222221;" d="M388.631,228.56c-0.209-2.359-1.942-19.558-9.54-40.336c-4.786-13.088-10.932-25.034-18.265-35.506
			c-9.184-13.115-20.267-23.942-32.94-32.179c-0.385-0.25-0.776-0.497-1.165-0.745c2.735-5.346,3.429-11.698,2.915-17.697
			c-0.737-8.605-2.923-18.006-9.084-24.404c-5.241-5.443-13.045-8.421-20.578-7.87c-7.383,0.541-14.333,4.625-18.682,10.574
			c-4.546,6.218-5.411,13.423-4.699,20.686c-15.017-2.063-30.811-1.324-46.981,2.203c-12.437,2.713-22.93,6.519-32.408,10.315
			c-0.009-0.031-0.017-0.063-0.029-0.094c-4.853-13.424-19.108-21.772-33.17-18.975c-7.022,1.397-13.567,5.243-17.857,11.028
			c-4.268,5.755-6.383,13.044-5.824,20.193c0.722,9.234,6.214,17.871,12.007,24.817c0.37,0.444,0.857,0.594,1.318,0.548
			c-4.541,7.865-8.235,17.528-8.427,28.326c-0.866,1.919-5.238,12.37-5.651,28.456c-0.263,10.239,1.15,20.639,4.201,30.913
			c3.806,12.816,10.183,25.467,18.956,37.602l0.129-0.093c-0.535,0.806-1.055,1.629-1.56,2.469c-0.216-0.109-0.476-0.163-0.78-0.136
			c-8.794,0.789-16.44,6.346-20.901,13.826c-4.998,8.38-5.418,18.786-3.108,28.072c1.864,7.495,6.039,16.023,13.569,18.852
			c1.117,19.56,3.049,36.322,5.786,50.258c-0.124,0.039-0.249,0.094-0.374,0.172c-7.569,4.727-11.891,13.783-11.35,22.63
			c0.564,9.217,6.835,17.051,15.341,20.385c4.749,1.861,9.854,2.287,14.813,1.077c3.486,3.438,7.327,5.591,11.52,6.443
			c2.109,0.429,4.313,0.556,6.591,0.389c8.399-0.616,17.802-5.224,27.133-13.41c3.204-2.811,6.33-5.997,9.342-9.495
			c0.126,0.09,0.271,0.164,0.437,0.219c14.503,4.765,29.966,6.323,45.131,4.579c0.035-0.004,0.067-0.011,0.101-0.017
			c0.077,0.238,0.156,0.474,0.241,0.708c2.139,5.887,6.779,10.494,13.791,13.692c2.92,1.331,6.822,1.817,11.684,1.461
			c8.012-0.587,18.632-3.461,31.76-8.605c15.78-6.183,32.253-14.567,41.564-19.868c7.709-4.389,26.635-17.695,35.837-46.375
			c5.094-15.877,6.45-34.164,4.03-54.351C410.56,285.15,402.208,257.987,388.631,228.56z M143.69,128.663
			c-1.316-6.395-0.082-13.217,3.166-18.854c6.594-11.443,21.807-16.113,33.711-10.472c6.382,3.024,11.431,8.512,13.833,15.157
			c0.027,0.075,0.059,0.144,0.094,0.209c-2.569,1.081-5.138,2.351-7.678,3.786c-4.844-7.191-13.642-12.616-22.467-9.486
			c-7.551,2.678-11.628,11.15-10.51,18.821c0.734,5.034,3.246,9.524,6.736,13.167c-1.885,2.368-3.838,5.073-5.697,8.072
			c-0.035-0.055-0.074-0.109-0.119-0.164C149.937,143.119,145.231,136.15,143.69,128.663z M184.271,119.989
			c-7.964,4.884-15.542,11.355-21.818,18.723c-6.194-6.509-8.453-17.243-1.539-24.128c3.338-3.324,8.176-4.192,12.639-2.953
			C178.086,112.89,181.669,116.18,184.271,119.989z M139.958,321.984c-2.559-8.298-2.75-17.694,0.968-25.683
			c3.472-7.461,10.471-13.4,18.704-14.577c-1.362,2.54-2.597,5.217-3.697,8.025c-1.099-1.156-3.195,0.409-2.235,1.916
			c5.047,7.923,9.828,16.52,11.977,25.745c0.307,1.316,0.538,2.672,0.658,4.038c-3.018-1.919-6.037-3.837-9.055-5.756
			c-1.601-1.018-2.88,1.639-1.297,2.645c3.148,2.001,6.295,4.002,9.443,6.003c0.348,0.221,0.681,0.268,0.973,0.197
			c-0.106,2.091-0.539,4.15-1.444,6.066c-0.793,1.678-1.927,3.245-3.341,4.455c-0.098-0.336-0.328-0.644-0.725-0.852
			c-3.758-1.968-7.465-4.03-11.119-6.185c-1.637-0.965-2.92,1.688-1.297,2.645c3.516,2.074,7.081,4.059,10.694,5.959
			c-0.682,0.307-1.404,0.539-2.165,0.67C147.827,338.869,142.234,329.362,139.958,321.984z M155.839,427.58
			c1.946-0.642,3.908-1.233,5.887-1.767c1.828-0.493,0.836-3.267-0.988-2.776c-2.42,0.652-4.814,1.386-7.185,2.2
			c-0.134,0.046-0.251,0.106-0.355,0.174c-0.399-0.382-0.784-0.777-1.151-1.189c-3.285-3.677-4.917-8.354-4.982-13.111l8.052-2.583
			c1.804-0.579,0.819-3.355-0.988-2.776c-2.293,0.736-4.586,1.471-6.879,2.207c0.251-1.911,0.754-3.802,1.503-5.613
			c1.618-3.911,4.242-7.271,7.731-9.645c3.775,17.868,8.955,30.796,15.518,38.716C166.398,432.369,160.494,430.838,155.839,427.58z
			 M217.594,425.133c-8.844,7.759-17.64,12.123-25.372,12.689c-2.019,0.148-3.967,0.037-5.822-0.34
			c-9.782-1.988-17.644-12.415-23.368-30.99c-4.973-16.138-8.322-38.435-9.96-66.305c0.258,0.04,0.518,0.076,0.783,0.104
			c9.543,0.978,15.426-8.069,15.507-16.675c0.057-6.053-2.113-12.056-4.494-17.536c-1.986-4.573-4.371-8.96-6.961-13.218
			c5.445-15.125,14.776-26.509,26.999-32.929c12.523-6.577,27.576-7.63,43.531-3.045c13.945,4.008,23.581,14.246,28.64,30.429
			c5.292,16.929,4.329,36.34,2.528,49.885c-3.499,3.272-6.408,7.087-8.018,11.655c-2.162,6.135-1.879,13.175,1.656,18.416
			l-0.239-0.074c-1.59,5.103-3.353,9.907-5.238,14.276C240.069,399.311,229.354,414.815,217.594,425.133z M202.707,251.512
			c-1.238,0.139-2.464,0.317-3.677,0.534c-2.015-6.429-3.77-12.932-5.264-19.501c-0.419-1.842-3.192-0.843-2.776,0.989
			c1.464,6.437,3.18,12.81,5.144,19.111c-1.122,0.263-2.233,0.56-3.33,0.892c-0.024-0.057-0.052-0.114-0.084-0.171
			c-2.572-4.557-5.405-9.06-7.546-13.841c-1.822-4.066-3.017-8.491-2.07-12.94c0.795-3.735,3.161-7.191,7.004-8.202
			c3.469-0.913,7.492,0.228,9.788,3.021c0.226,0.275,0.498,0.439,0.78,0.513c-0.101,0.573-0.186,1.148-0.251,1.722
			c-0.514,4.479-0.272,9.021,0.017,13.507C200.754,241.999,201.352,246.829,202.707,251.512z M238.828,240.368
			c-2.516,4.53-5.109,9.016-7.779,13.458c-0.151,0.251-0.215,0.494-0.213,0.72c-0.523-0.171-1.051-0.335-1.586-0.489
			c-0.574-0.165-1.148-0.322-1.72-0.473c0.054-0.073,0.105-0.153,0.15-0.243c3.533-7.033,6.722-14.492,7.201-22.446
			c0.044-0.734,0.063-1.474,0.057-2.216c0.117-0.016,0.238-0.045,0.364-0.094c4.073-1.576,9.186-3.588,13.363-1.245
			c3.187,1.788,4.562,5.632,4.62,9.112c0.072,4.297-2.14,8.33-4.613,11.699c-2.669,3.637-5.717,7.525-9.418,10.167
			c-1.849-1.086-3.795-2.038-5.843-2.846c0.104-0.097,0.199-0.212,0.282-0.349c2.67-4.441,5.263-8.927,7.779-13.458
			C242.397,240.003,239.746,238.716,238.828,240.368z M232.004,229.796c-0.185,7.868-3.495,15.335-6.969,22.249
			c-0.159,0.317-0.196,0.619-0.146,0.891c-3.384-0.77-6.724-1.291-10.007-1.567c0.082-8.797,0.501-17.584,1.269-26.348
			c0.164-1.871-2.725-2.46-2.89-0.573c-0.779,8.894-1.218,17.813-1.311,26.741c-2.174-0.085-4.319-0.06-6.432,0.076
			c0.047-0.224,0.042-0.472-0.035-0.738c-2.055-7.102-2.502-14.876-2.408-22.243c0.082-6.383,1.499-13.406,6.87-17.499
			c5.195-3.96,11.771-2.464,16.163,1.975C230.501,217.199,232.147,223.704,232.004,229.796z M406.62,362.747
			c-8.886,27.695-27.08,40.497-34.489,44.715c-9.226,5.253-25.547,13.56-41.181,19.686c-20.039,7.852-34.268,10.344-41.147,7.206
			c-2.737-1.248-5.063-2.722-6.972-4.413c4.078-2.101,8.157-4.202,12.235-6.302c1.68-0.865-0.001-3.287-1.668-2.428
			c-4.207,2.167-8.415,4.334-12.622,6.502c-0.026,0.013-0.049,0.028-0.073,0.042c-1.377-1.644-2.429-3.451-3.144-5.418
			c-0.863-2.375-1.229-5.004-1.111-7.792c0.042-0.019,0.084-0.039,0.127-0.063c4.976-2.77,10.07-5.305,15.277-7.611
			c1.721-0.762,0.751-3.546-0.989-2.775c-4.764,2.109-9.439,4.41-14.019,6.893c0.512-2.86,1.488-5.836,2.923-8.836
			c4.262-8.914,33.213-21.589,44.009-25.721l-1.053-2.751c-1.63,0.623-39.974,15.408-45.614,27.202
			c-3.155,6.599-4.272,13.161-3.269,18.872c-14.471,1.608-29.113,0.145-42.984-4.264c7.548-9.272,14.296-20.521,19.615-32.849
			c1.72-3.987,3.338-8.323,4.818-12.909c0.723,0.711,1.525,1.369,2.415,1.96c8.564,5.689,19.232,3.372,28.171-0.043
			c11.52-4.401,22.686-9.814,33.422-15.871c1.65-0.931-0.025-3.355-1.669-2.428c-8.823,4.978-17.931,9.435-27.284,13.33
			c-8.458,3.522-18.298,7.723-27.477,4.346c-0.842-0.31-1.654-0.686-2.429-1.12c4.569-1.742,9.137-3.484,13.705-5.226
			c1.767-0.674,0.789-3.453-0.989-2.775l-14.482,5.522c-0.389,0.148-0.645,0.399-0.789,0.693c-1.544-1.34-2.797-2.998-3.598-4.957
			c-0.498-1.217-0.824-2.483-1.006-3.768c4.613-2.284,9.162-4.691,13.639-7.231c1.648-0.935-0.027-3.359-1.669-2.428
			c-3.987,2.261-8.031,4.417-12.131,6.466c0.057-1.588,0.304-3.173,0.712-4.708c2.262-8.516,9.65-14.387,16.774-18.882
			c9.488-5.987,19.666-10.906,30.144-14.895c1.767-0.673,0.79-3.452-0.988-2.776c-10.119,3.852-19.914,8.595-29.17,14.219
			c-2.587,1.572-5.207,3.292-7.669,5.214c1.553-13.596,2.008-31.808-3.034-47.938c-3.693-11.816-9.719-20.658-17.985-26.427
			c2.987-2.368,5.469-5.42,7.815-8.385c2.548-3.221,4.818-6.728,5.922-10.721c1.778-6.436-0.599-14.709-7.463-16.963
			c-4.463-1.465-9.189,0.077-13.404,1.692c-0.527-5.103-2.319-10.101-5.711-13.988c-4.5-5.157-11.818-8.007-18.29-4.82
			c-4.839,2.383-7.839,6.922-9.347,11.93c-4.662-4.552-12.505-4.902-17.31-0.219c-5.95,5.798-4.801,15.097-1.717,21.977
			c2.161,4.821,4.967,9.373,7.578,13.964c-2.207,0.805-4.356,1.754-6.44,2.849c-7.411,3.892-13.805,9.497-18.986,16.566
			c-8.26-11.588-14.293-23.632-17.924-35.814c-2.968-9.958-4.352-20.033-4.115-29.945c0.324-13.519,3.743-24.041,5.505-27.715
			l0.142-0.295l0.004-0.328c0.142-12.449,5.646-25.923,15.5-37.939c8.963-10.93,20.901-19.955,32.752-24.76
			c9.853-3.995,20.77-8.084,33.826-10.932c16.113-3.515,31.83-4.203,46.737-2.052c0.218,1.426,0.484,2.849,0.785,4.262
			c0.393,1.846,3.166,0.845,2.776-0.989c-1.671-7.839-2.348-16.281,1.911-23.441c3.312-5.568,9.166-9.801,15.577-10.919
			c6.667-1.163,13.713,0.903,18.857,5.26c6.133,5.194,8.375,13.28,9.463,20.953c1.225,8.644,0.438,18.192-6.233,24.538
			c-1.374,1.308,0.866,3.222,2.229,1.925c1.093-1.04,2.044-2.172,2.871-3.375c0.357,0.227,0.715,0.454,1.068,0.683
			c12.341,8.021,23.141,18.571,32.102,31.355c7.185,10.251,13.211,21.956,17.912,34.789c8.021,21.899,9.409,39.72,9.422,39.897
			l0.02,0.267l0.112,0.243c13.511,29.238,21.815,56.183,24.681,80.087C412.899,329.41,411.584,347.276,406.62,362.747z"/>
		<path style="fill:#222221;" d="M298.245,85.881c-4.329,0.981-7.446,4.577-8.879,8.641c-2.084,5.906-0.656,12.135,0.762,18.019
			c0.443,1.839,3.217,0.842,2.775-0.988c-1.093-4.536-2.286-9.364-1.333-14.034c0.698-3.417,2.669-6.954,6.024-8.354
			c3.516-1.467,7.662-0.289,10.399,2.214c2.919,2.67,4.169,6.749,4.233,10.61c0.084,5.031-1.942,9.828-4.34,14.148
			c-0.923,1.662,1.728,2.95,2.645,1.297c4.684-8.439,7.44-20.089-0.146-27.83C307.306,86.461,302.558,84.903,298.245,85.881z"/>
	</g>
	<g>
		<path style="fill:#FFFFFF;" d="M456.324,260.926c3.039-5.769,5.602-11.965,6.314-18.498c0.649-5.957,0.021-12.777-3.583-17.783
			c-1.694-2.353-4.121-4.448-7.042-5.008c-2.858-0.548-5.594,0.555-7.663,2.508c-2.427,2.291-4.014,5.462-5.52,8.393
			c-1.547,3.011-2.897,6.115-4.073,9.288c-2.074-2.566-5.238-4.104-8.64-2.58c-2.578,1.155-3.204,3.706-4.042,6.143
			c-0.346,1.007-0.723,1.946-1.784,2.362c-1.528,0.599-0.91-0.936-0.652-1.912c1.745-6.612,3.891-13.171,4.599-20.005
			c0.37-3.576,0.369-7.2-0.314-10.739c-0.522-2.703-1.501-5.573-3.763-7.319c-2.325-1.795-5.467-1.574-7.742,0.198
			c-1.348,1.05-2.23,2.41-2.853,3.905l-1.352-3.623c-0.818-2.194-1.502-4.643-2.911-6.552c-2.815-3.814-8.047-3.452-11.043-0.02
			c-3.329,3.815-3.588,9.916-3.499,14.717c0.107,5.791,1.312,11.487,2.502,17.133c0.671,3.181,1.353,6.362,1.857,9.574
			c0.15,0.958,0.662,3.746-0.063,5.085c-1.788-4.565-3.493-9.19-5.486-13.661c-1.416-3.177-3.623-6.868-7.221-7.833
			c-3.742-1.004-6.884,1.594-8.017,5.004c-1.354,4.074-0.526,8.59,0.407,12.66c1.197,5.224,3.466,9.875,5.922,14.597
			c2.468,4.744,4.481,9.622,2.281,14.862c-0.894,2.129-2.021,4.171-2.556,6.435c-0.495,2.092-0.383,4.251,0.161,6.321
			c1.162,4.425,4.264,8.105,6.946,11.693c3.236,4.328,5.694,8.96,6.878,14.27c1.115,5,1.05,10.185-0.089,15.163
			c-3.533-0.559-7.13-0.73-10.73-0.461c-17.631,1.321-33.303,12.676-38.875,29.626c-2.958,8.998-2.289,18.373,0.574,27.312
			c2.609,8.145,6.923,15.958,13.265,21.788c1.554,1.428,3.234,2.683,4.996,3.841c-0.696,2.655-1.924,5.006-3.37,7.403
			c-1.79,2.969-2.481,5.73-2.258,9.197c0.252,3.919,0.575,7.836,0.863,11.753c0.061,0.837,0.84,1.548,1.694,1.462
			c3.28-0.327,5.283-3.05,6.213-6.007c0.512-1.631,0.677-3.345,1.158-4.984c0.559-1.904,1.627-3.171,3.302-4.206
			c2.947-1.822,5.786-3.118,7.816-6.076c0.509-0.742,0.955-1.518,1.343-2.32c0.18,0.066,0.381,0.103,0.605,0.1
			c18.102-0.269,38.296-4.518,49.433-20.212c10.112-14.25,7.49-33.451-2.248-47.181c-3.69-5.202-8.386-9.669-13.709-13.174
			c2.839-5.682,5.712-11.442,9.813-16.34c3.725-4.449,8.425-7.84,13.28-10.951c4.779-3.062,9.731-5.879,14.253-9.323
			c4.39-3.344,8.925-7.485,11.14-12.655c2.09-4.88,1.44-11.075-3.563-13.918c-1.034-0.587-2.186-0.908-3.371-0.948
			c-0.806-0.027-3.419,0.723-3.736-0.192c-0.362-1.048,1.198-3.004,1.683-3.847C454.7,263.915,455.531,262.431,456.324,260.926z"/>
		<g>
			<path style="fill:#222221;" d="M456.324,260.926c3.039-5.769,5.602-11.965,6.314-18.498c0.649-5.957,0.021-12.777-3.583-17.783
				c-1.694-2.353-4.121-4.448-7.042-5.008c-2.858-0.548-5.594,0.555-7.663,2.508c-2.427,2.291-4.014,5.462-5.52,8.393
				c-1.547,3.011-2.897,6.115-4.073,9.288c-2.074-2.566-5.238-4.104-8.64-2.58c-2.578,1.155-3.204,3.706-4.042,6.143
				c-0.346,1.007-0.723,1.946-1.784,2.362c-1.528,0.599-0.91-0.936-0.652-1.912c1.745-6.612,3.891-13.171,4.599-20.005
				c0.37-3.576,0.369-7.2-0.314-10.739c-0.522-2.703-1.501-5.573-3.763-7.319c-2.325-1.795-5.467-1.574-7.742,0.198
				c-1.348,1.05-2.23,2.41-2.853,3.905l-1.352-3.623c-0.818-2.194-1.502-4.643-2.911-6.552c-2.815-3.814-8.047-3.452-11.043-0.02
				c-3.329,3.815-3.588,9.916-3.499,14.717c0.107,5.791,1.312,11.487,2.502,17.133c0.671,3.181,1.353,6.362,1.857,9.574
				c0.15,0.958,0.662,3.746-0.063,5.085c-1.788-4.565-3.493-9.19-5.486-13.661c-1.416-3.177-3.623-6.868-7.221-7.833
				c-3.742-1.004-6.884,1.594-8.017,5.004c-1.354,4.074-0.526,8.59,0.407,12.66c1.197,5.224,3.466,9.875,5.922,14.597
				c2.468,4.744,4.481,9.622,2.281,14.862c-0.894,2.129-2.021,4.171-2.556,6.435c-0.495,2.092-0.383,4.251,0.161,6.321
				c1.162,4.425,4.264,8.105,6.946,11.693c3.236,4.328,5.694,8.96,6.878,14.27c1.115,5,1.05,10.185-0.089,15.163
				c-3.533-0.559-7.13-0.73-10.73-0.461c-17.631,1.321-33.303,12.676-38.875,29.626c-2.958,8.998-2.289,18.373,0.574,27.312
				c2.609,8.145,6.923,15.958,13.265,21.788c1.554,1.428,3.234,2.683,4.996,3.841c-0.696,2.655-1.924,5.006-3.37,7.403
				c-1.79,2.969-2.481,5.73-2.258,9.197c0.252,3.919,0.575,7.836,0.863,11.753c0.061,0.837,0.84,1.548,1.694,1.462
				c3.28-0.327,5.283-3.05,6.213-6.007c0.512-1.631,0.677-3.345,1.158-4.984c0.559-1.904,1.627-3.171,3.302-4.206
				c2.947-1.822,5.786-3.118,7.816-6.076c0.509-0.742,0.955-1.518,1.343-2.32c0.18,0.066,0.381,0.103,0.605,0.1
				c18.102-0.269,38.296-4.518,49.433-20.212c10.112-14.25,7.49-33.451-2.248-47.181c-3.69-5.202-8.386-9.669-13.709-13.174
				c2.839-5.682,5.712-11.442,9.813-16.34c3.725-4.449,8.425-7.84,13.28-10.951c4.779-3.062,9.731-5.879,14.253-9.323
				c4.39-3.344,8.925-7.485,11.14-12.655c2.09-4.88,1.44-11.075-3.563-13.918c-1.034-0.587-2.186-0.908-3.371-0.948
				c-0.806-0.027-3.419,0.723-3.736-0.192c-0.362-1.048,1.198-3.004,1.683-3.847C454.7,263.915,455.531,262.431,456.324,260.926z
				 M387.475,290.959c-2.403-3.335-4.905-7.278-4.094-11.579c0.412-2.186,1.549-4.135,2.401-6.165
				c0.842-2.004,1.38-4.043,1.374-6.229c-0.011-4.718-2.423-9.039-4.56-13.097c-2.367-4.496-4.285-9.158-5.202-14.18
				c-0.598-3.272-1.451-7.955,0.853-10.816c3.04-3.777,6.826,1.531,8.074,4.124c2.478,5.148,4.325,10.688,6.444,15.994
				c0.234,0.586,0.919,1.179,1.607,1.047c3.893-0.744,4.509-4.948,4.034-8.3c-0.756-5.336-2.085-10.573-3.093-15.862
				c-1.017-5.334-1.803-10.845-1.218-16.279c0.256-2.376,0.629-4.961,1.928-7.019c1.056-1.672,3.296-3.223,5.327-2.268
				c2.122,0.998,2.818,4.146,3.56,6.135l3.396,9.102c0.539,1.446,2.746,1.333,3.044-0.223c0.51-2.667,1.077-6.114,3.847-7.377
				c2.513-1.146,4.238,1.256,4.999,3.337c2.085,5.698,1.132,12.459-0.094,18.233c-0.654,3.079-1.488,6.117-2.327,9.15
				c-0.418,1.511-0.844,3.02-1.244,4.536c-0.321,1.216-0.648,2.498-0.176,3.726c0.76,1.978,2.983,2.474,4.831,1.841
				c2.162-0.741,3.241-2.489,3.918-4.56c0.756-2.313,1.49-4.91,4.5-4.253c2.581,0.563,3.848,2.986,4.38,5.379
				c1.174,5.273,0.443,11.317-0.687,16.531c-1.201,5.54-3.328,10.852-6.263,15.701c-3.126,5.165-7.478,9.239-11.243,13.901
				c-8.17,10.118-10.76,23.1-13.059,35.57c-0.053,0.289-0.033,0.548,0.04,0.776c-0.447-0.155-0.895-0.303-1.346-0.445
				c0.025-0.082,0.046-0.167,0.059-0.26c3.064-21.391,4.736-42.979,4.98-64.587c0.07-6.192,0.018-12.385-0.143-18.575
				c-0.053-2.037-3.209-1.801-3.156,0.231c0.559,21.425-0.265,42.875-2.523,64.189c-0.641,6.055-1.399,12.098-2.263,18.126
				c-0.001,0.008-0.001,0.016-0.002,0.025c-0.331-0.082-0.663-0.164-0.995-0.239c1.865-8.151,0.938-16.93-2.699-24.472
				C392.769,297.853,390.037,294.514,387.475,290.959z M422.187,344.435c10.265,11.401,15.306,29.155,8.115,43.427
				c-2.353,4.669-5.554,8.445-9.324,11.486c-0.71-5.743-3.039-11.198-6.77-15.657c-1.295-1.548-3.919,0.227-2.609,1.793
				c3.818,4.563,6.051,10.101,6.403,16.04c-10.432,6.908-24.198,9.169-36.558,9.436c0.414-1.429,0.677-2.905,0.803-4.395
				c0.169-2.01-2.934-2.643-3.105-0.616c-0.259,3.075-1.059,6.181-2.88,8.722c-1.908,2.663-4.717,3.667-7.347,5.404
				c-2.59,1.71-3.843,4.172-4.501,7.139c-0.438,1.977-0.81,5.317-2.665,6.672c-0.246-3.236-0.505-6.472-0.709-9.71
				c-0.122-1.934-0.062-3.695,0.782-5.475c0.727-1.531,1.718-2.914,2.538-4.394c3.204-5.788,3.75-12.757,1.78-19.036
				c-0.609-1.943-3.592-0.883-2.982,1.062c0.82,2.614,1.141,5.346,0.924,8.064c-6.331-4.455-10.926-11.048-13.933-18.115
				c-1.544-3.629-2.778-7.438-3.519-11.324c4.464-1.847,9.262-2.589,14.094-2.049c2.012,0.225,2.641-2.879,0.616-3.105
				c-5.187-0.58-10.368,0.052-15.203,1.944c-0.43-3.697-0.378-7.438,0.316-11.137c3.029-16.145,16.211-28.489,32.195-31.537
				C394.753,326.004,411.315,332.361,422.187,344.435z M449.021,269.692c0.347,2.754,3.051,3.292,5.353,3.011
				c2.584-0.314,4.611,0.716,5.813,3.103c1.211,2.404,0.703,5.217-0.398,7.561c-2.298,4.892-6.751,8.716-11.041,11.838
				c-4.271,3.108-8.86,5.738-13.298,8.592c-4.999,3.214-9.84,6.776-13.677,11.359c-4.206,5.023-7.205,10.907-10.12,16.737
				c-0.382-0.22-0.769-0.429-1.156-0.639c4.77-16.231,13.421-31.165,25.05-43.444c1.403-1.482-0.997-3.545-2.395-2.068
				c-11.818,12.478-20.547,27.635-25.513,44.074c-0.829-0.386-1.664-0.758-2.512-1.099c0.348-0.191,0.621-0.531,0.716-1.043
				c2.212-12.003,4.596-24.627,12.528-34.336c3.968-4.857,8.4-9.156,11.645-14.58c3.087-5.159,5.284-10.878,6.499-16.764
				c1.16-5.623,1.8-12.057,0.456-17.701c-0.093-0.389-0.212-0.778-0.351-1.164c0.233-0.146,0.43-0.383,0.555-0.734
				c1.05-2.955,2.245-5.854,3.611-8.678c1.277-2.64,2.608-5.407,4.391-7.748c1.492-1.959,3.59-3.73,6.223-3.227
				c2.505,0.479,4.43,2.59,5.694,4.676c3.125,5.156,3.085,12.045,1.909,17.764c-1.269,6.171-4.083,11.881-7.15,17.337
				C450.653,264.65,448.693,267.089,449.021,269.692z"/>
			<path style="fill:#222221;" d="M420.18,385.44c0.576,1.952,3.558,0.89,2.982-1.062c-0.802-2.718-2.252-5.085-4.215-7.118
				c-1.416-1.467-3.474,0.939-2.068,2.395C418.466,381.299,419.536,383.257,420.18,385.44z"/>
			<path style="fill:#222221;" d="M372.88,334.957c-3.13,0.229-5.482,2.953-5.252,6.083c0.229,3.13,2.953,5.482,6.083,5.253
				c3.13-0.229,5.482-2.953,5.252-6.083C378.733,337.08,376.01,334.728,372.88,334.957z"/>
			<path style="fill:#222221;" d="M407.395,352.372c3.13-0.229,5.482-2.953,5.252-6.083c-0.229-3.13-2.953-5.482-6.083-5.253
				c-3.13,0.229-5.482,2.953-5.253,6.083C401.541,350.25,404.265,352.601,407.395,352.372z"/>
			<path style="fill:#222221;" d="M381.837,344.308c-0.164,0.129-0.31,0.299-0.428,0.518c-2.423,4.5,0.337,10.197,5.416,10.986
				c5.177,0.803,9.328-3.438,9.254-8.492c-0.011-0.74-0.624-1.246-1.27-1.437c-0.507-0.15-1.017-0.287-1.525-0.429
				c-0.198-0.248-0.486-0.441-0.875-0.532c-2.916-0.682-5.832-1.364-8.748-2.046C382.572,342.621,381.898,343.44,381.837,344.308z
				 M392.833,348.605c-0.464,2.515-2.685,4.483-5.392,4.101c-3.009-0.425-4.53-3.513-3.337-6.172
				C387.043,347.104,389.952,347.796,392.833,348.605z"/>
		</g>
	</g>
	<g>
		<g>
			<path style="fill:#FFFFFF;" d="M436.381,409.704c-10.547-2.574-21.221,3.911-23.796,14.458s3.911,21.221,14.458,23.796
				c10.547,2.574,21.221-3.912,23.796-14.458C453.413,422.953,446.927,412.278,436.381,409.704z"/>
			<path style="fill:#222221;" d="M436.381,409.704c-10.547-2.574-21.221,3.911-23.796,14.458s3.911,21.221,14.458,23.796
				c10.547,2.574,21.221-3.912,23.796-14.458C453.413,422.953,446.927,412.278,436.381,409.704z M427.793,444.883
				c-8.851-2.161-14.295-11.12-12.134-19.971c2.161-8.851,11.12-14.295,19.971-12.134c8.851,2.161,14.295,11.12,12.134,19.971
				C445.604,441.601,436.645,447.044,427.793,444.883z"/>
			<path style="fill:#222221;" d="M423.34,419.009c-0.48-0.022-0.957,0.075-1.393,0.265c-0.119,0.033-0.24,0.08-0.361,0.145
				c-1.983,1.063-2.443,3.96-0.922,5.604c1.564,1.69,4.547,1.241,5.692-0.698C427.686,422.074,425.852,419.125,423.34,419.009z"/>
			<path style="fill:#222221;" d="M440.336,424.162c-0.48-0.022-0.957,0.075-1.393,0.265c-0.119,0.033-0.24,0.08-0.361,0.145
				c-1.983,1.063-2.443,3.96-0.922,5.604c1.564,1.689,4.547,1.241,5.693-0.698C444.682,427.227,442.848,424.279,440.336,424.162z"/>
			<path style="fill:#222221;" d="M432.69,429.161c-1.418,1.24-3.072,0.122-3.35-1.476c-0.349-2.002-3.38-1.085-3.033,0.904
				c0.728,4.181,5.655,5.399,8.66,2.772C436.503,430.017,434.214,427.829,432.69,429.161z"/>
			<path style="fill:#222221;" d="M436.381,409.704c-10.547-2.574-21.221,3.911-23.796,14.458s3.911,21.221,14.458,23.796
				c10.547,2.574,21.221-3.912,23.796-14.458C453.413,422.953,446.927,412.278,436.381,409.704z M427.793,444.883
				c-8.851-2.161-14.295-11.12-12.134-19.971c2.161-8.851,11.12-14.295,19.971-12.134c8.851,2.161,14.295,11.12,12.134,19.971
				C445.604,441.601,436.645,447.044,427.793,444.883z"/>
			<path style="fill:#222221;" d="M423.34,419.009c-0.48-0.022-0.957,0.075-1.393,0.265c-0.119,0.033-0.24,0.08-0.361,0.145
				c-1.983,1.063-2.443,3.96-0.922,5.604c1.564,1.69,4.547,1.241,5.692-0.698C427.686,422.074,425.852,419.125,423.34,419.009z"/>
			<path style="fill:#222221;" d="M440.336,424.162c-0.48-0.022-0.957,0.075-1.393,0.265c-0.119,0.033-0.24,0.08-0.361,0.145
				c-1.983,1.063-2.443,3.96-0.922,5.604c1.564,1.689,4.547,1.241,5.693-0.698C444.682,427.227,442.848,424.279,440.336,424.162z"/>
			<path style="fill:#222221;" d="M432.69,429.161c-1.418,1.24-3.072,0.122-3.35-1.476c-0.349-2.002-3.38-1.085-3.033,0.904
				c0.728,4.181,5.655,5.399,8.66,2.772C436.503,430.017,434.214,427.829,432.69,429.161z"/>
		</g>
		<g>
			<path style="fill:#FFFFFF;" d="M68.846,404.177c-9.44,5.362-12.757,17.404-7.395,26.844c5.362,9.44,17.404,12.757,26.844,7.395
				c9.44-5.362,12.757-17.404,7.395-26.844C90.328,402.132,78.286,398.815,68.846,404.177z"/>
			<path style="fill:#222221;" d="M68.846,404.177c-9.44,5.362-12.757,17.404-7.395,26.844c5.362,9.44,17.404,12.757,26.844,7.395
				c9.44-5.362,12.757-17.404,7.395-26.844C90.328,402.132,78.286,398.815,68.846,404.177z M86.732,435.664
				c-7.922,4.5-18.029,1.716-22.529-6.207c-4.5-7.922-1.716-18.029,6.207-22.529s18.029-1.716,22.529,6.206
				C97.438,421.058,94.654,431.164,86.732,435.664z"/>
			<path style="fill:#222221;" d="M65.741,419.893c-0.364,0.313-0.645,0.711-0.832,1.149c-0.064,0.106-0.12,0.223-0.163,0.354
				c-0.713,2.134,0.939,4.558,3.174,4.71c2.297,0.157,4.16-2.216,3.663-4.413C71.006,419.142,67.649,418.255,65.741,419.893z"/>
			<path style="fill:#222221;" d="M81.642,411.983c-0.364,0.313-0.645,0.711-0.832,1.149c-0.064,0.106-0.12,0.223-0.163,0.354
				c-0.713,2.134,0.939,4.558,3.174,4.71c2.297,0.156,4.16-2.217,3.663-4.413C86.907,411.232,83.55,410.345,81.642,411.983z"/>
			<path style="fill:#222221;" d="M79.509,420.865c-0.181,1.875-2.151,2.197-3.45,1.224c-1.627-1.217-3.203,1.529-1.587,2.739
				c3.398,2.542,7.819,0.049,8.202-3.924C82.87,418.873,79.703,418.851,79.509,420.865z"/>
			<path style="fill:#222221;" d="M68.846,404.177c-9.44,5.362-12.757,17.404-7.395,26.844c5.362,9.44,17.404,12.757,26.844,7.395
				c9.44-5.362,12.757-17.404,7.395-26.844C90.328,402.132,78.286,398.815,68.846,404.177z M86.732,435.664
				c-7.922,4.5-18.029,1.716-22.529-6.207c-4.5-7.922-1.716-18.029,6.207-22.529s18.029-1.716,22.529,6.206
				C97.438,421.058,94.654,431.164,86.732,435.664z"/>
			<path style="fill:#222221;" d="M65.741,419.893c-0.364,0.313-0.645,0.711-0.832,1.149c-0.064,0.106-0.12,0.223-0.163,0.354
				c-0.713,2.134,0.939,4.558,3.174,4.71c2.297,0.157,4.16-2.216,3.663-4.413C71.006,419.142,67.649,418.255,65.741,419.893z"/>
			<path style="fill:#222221;" d="M81.642,411.983c-0.364,0.313-0.645,0.711-0.832,1.149c-0.064,0.106-0.12,0.223-0.163,0.354
				c-0.713,2.134,0.939,4.558,3.174,4.71c2.297,0.156,4.16-2.217,3.663-4.413C86.907,411.232,83.55,410.345,81.642,411.983z"/>
			<path style="fill:#222221;" d="M79.509,420.865c-0.181,1.875-2.151,2.197-3.45,1.224c-1.627-1.217-3.203,1.529-1.587,2.739
				c3.398,2.542,7.819,0.049,8.202-3.924C82.87,418.873,79.703,418.851,79.509,420.865z"/>
		</g>
		<g>
			<path style="fill:#FFFFFF;" d="M260.892,427.109c-7.586-0.809-14.785,2.735-18.769,9.111c-3.001-2.772-6.883-4.639-11.247-5.104
				c-10.795-1.151-20.514,6.694-21.665,17.49c-1.151,10.795,6.695,20.514,17.49,21.665c7.715,0.823,14.878-2.952,18.759-9.112
				c3.096,2.856,7.035,4.655,11.257,5.105c10.795,1.151,20.514-6.695,21.665-17.49C279.533,437.979,271.687,428.26,260.892,427.109z
				"/>
			<path style="fill:#222221;" d="M260.892,427.109c-7.586-0.809-14.785,2.735-18.769,9.111c-3.001-2.772-6.883-4.639-11.247-5.104
				c-10.795-1.151-20.514,6.694-21.665,17.49c-1.151,10.795,6.695,20.514,17.49,21.665c7.715,0.823,14.878-2.952,18.759-9.112
				c3.096,2.856,7.035,4.655,11.257,5.105c10.795,1.151,20.514-6.695,21.665-17.49C279.533,437.979,271.687,428.26,260.892,427.109z
				 M227.035,467.124c-9.06-0.966-15.645-9.123-14.679-18.183c0.966-9.06,9.123-15.645,18.183-14.679
				c9.06,0.966,15.645,9.123,14.679,18.183C244.252,461.506,236.095,468.09,227.035,467.124z M269.871,445.972
				c1.662,1.374,4.309,0.723,5.359-1.069c0.125,1.153,0.133,2.336,0.005,3.535c-0.966,9.06-9.123,15.645-18.183,14.678
				c-3.836-0.409-7.394-2.145-10.075-4.896c0.704-1.698,1.184-3.521,1.388-5.44c0.56-5.248-1.011-10.238-4.01-14.117
				c3.232-5.828,9.538-9.119,16.201-8.409c6.189,0.66,11.22,4.676,13.481,10.042c-0.663-0.46-1.471-0.715-2.313-0.642
				c-0.478,0.042-0.939,0.201-1.345,0.448c-0.114,0.049-0.227,0.111-0.339,0.192C268.216,441.613,268.144,444.545,269.871,445.972z"
				/>
			<path style="fill:#222221;" d="M217.433,444.01c-0.478,0.042-0.939,0.201-1.346,0.448c-0.114,0.049-0.227,0.111-0.339,0.192
				c-1.824,1.317-1.896,4.249-0.169,5.677c1.774,1.467,4.672,0.626,5.549-1.448C222.148,446.471,219.938,443.792,217.433,444.01z"/>
			<path style="fill:#222221;" d="M236.308,446.514c-0.478,0.042-0.939,0.201-1.345,0.448c-0.114,0.049-0.227,0.111-0.339,0.192
				c-1.824,1.317-1.896,4.25-0.169,5.677c1.774,1.467,4.672,0.626,5.549-1.448C241.023,448.974,238.814,446.296,236.308,446.514z"/>
			<path style="fill:#222221;" d="M255.96,441.737c-0.478,0.042-0.939,0.201-1.346,0.448c-0.114,0.049-0.227,0.111-0.339,0.192
				c-1.824,1.317-1.896,4.249-0.169,5.677c1.774,1.467,4.672,0.626,5.549-1.448C260.674,444.198,258.465,441.52,255.96,441.737z"/>
			<path style="fill:#222221;" d="M267.013,446.058c-0.914-0.098-1.574,0.564-1.741,1.406c0.066-0.331,0.034,0.011-0.263,0.018
				c-0.426,0.009-0.832-0.534-1.054-0.82c-1.252-1.611-3.713,0.378-2.462,1.988c0.929,1.195,2.316,2.103,3.885,1.961
				c1.585-0.144,2.74-1.287,3.042-2.811C268.585,446.96,267.809,446.143,267.013,446.058z"/>
			<path style="fill:#222221;" d="M228.76,449.154c-1.004,0.053-2.008,0.106-3.012,0.159c-0.322,0.017-0.6,0.052-0.853,0.116
				c-0.009-0.001-0.017-0.002-0.026-0.002c-0.976-0.601-2.67,0.066-2.48,1.576c0.261,2.075,1.338,4.371,3.702,4.527
				c2.695,0.178,4.114-2.346,4.499-4.646C230.776,449.774,229.714,449.104,228.76,449.154z"/>
			<path style="fill:#222221;" d="M260.892,427.109c-7.586-0.809-14.785,2.735-18.769,9.111c-3.001-2.772-6.883-4.639-11.247-5.104
				c-10.795-1.151-20.514,6.694-21.665,17.49c-1.151,10.795,6.695,20.514,17.49,21.665c7.715,0.823,14.878-2.952,18.759-9.112
				c3.096,2.856,7.035,4.655,11.257,5.105c10.795,1.151,20.514-6.695,21.665-17.49C279.533,437.979,271.687,428.26,260.892,427.109z
				 M227.035,467.124c-9.06-0.966-15.645-9.123-14.679-18.183c0.966-9.06,9.123-15.645,18.183-14.679
				c9.06,0.966,15.645,9.123,14.679,18.183C244.252,461.506,236.095,468.09,227.035,467.124z M269.871,445.972
				c1.662,1.374,4.309,0.723,5.359-1.069c0.125,1.153,0.133,2.336,0.005,3.535c-0.966,9.06-9.123,15.645-18.183,14.678
				c-3.836-0.409-7.394-2.145-10.075-4.896c0.704-1.698,1.184-3.521,1.388-5.44c0.56-5.248-1.011-10.238-4.01-14.117
				c3.232-5.828,9.538-9.119,16.201-8.409c6.189,0.66,11.22,4.676,13.481,10.042c-0.663-0.46-1.471-0.715-2.313-0.642
				c-0.478,0.042-0.939,0.201-1.345,0.448c-0.114,0.049-0.227,0.111-0.339,0.192C268.216,441.613,268.144,444.545,269.871,445.972z"
				/>
			<path style="fill:#222221;" d="M217.433,444.01c-0.478,0.042-0.939,0.201-1.346,0.448c-0.114,0.049-0.227,0.111-0.339,0.192
				c-1.824,1.317-1.896,4.249-0.169,5.677c1.774,1.467,4.672,0.626,5.549-1.448C222.148,446.471,219.938,443.792,217.433,444.01z"/>
			<path style="fill:#222221;" d="M236.308,446.514c-0.478,0.042-0.939,0.201-1.345,0.448c-0.114,0.049-0.227,0.111-0.339,0.192
				c-1.824,1.317-1.896,4.25-0.169,5.677c1.774,1.467,4.672,0.626,5.549-1.448C241.023,448.974,238.814,446.296,236.308,446.514z"/>
			<path style="fill:#222221;" d="M255.96,441.737c-0.478,0.042-0.939,0.201-1.346,0.448c-0.114,0.049-0.227,0.111-0.339,0.192
				c-1.824,1.317-1.896,4.249-0.169,5.677c1.774,1.467,4.672,0.626,5.549-1.448C260.674,444.198,258.465,441.52,255.96,441.737z"/>
			<path style="fill:#222221;" d="M267.013,446.058c-0.914-0.098-1.574,0.564-1.741,1.406c0.066-0.331,0.034,0.011-0.263,0.018
				c-0.426,0.009-0.832-0.534-1.054-0.82c-1.252-1.611-3.713,0.378-2.462,1.988c0.929,1.195,2.316,2.103,3.885,1.961
				c1.585-0.144,2.74-1.287,3.042-2.811C268.585,446.96,267.809,446.143,267.013,446.058z"/>
			<path style="fill:#222221;" d="M228.76,449.154c-1.004,0.053-2.008,0.106-3.012,0.159c-0.322,0.017-0.6,0.052-0.853,0.116
				c-0.009-0.001-0.017-0.002-0.026-0.002c-0.976-0.601-2.67,0.066-2.48,1.576c0.261,2.075,1.338,4.371,3.702,4.527
				c2.695,0.178,4.114-2.346,4.499-4.646C230.776,449.774,229.714,449.104,228.76,449.154z"/>
		</g>
	</g>
	<g>
		<g>
			<path style="fill:#FFFFFF;" d="M370.09,64.693l-8.245-1.544c-0.07-0.013-0.126-0.063-0.141-0.109l-6.97-23.057
				c-0.378-1.177-1.463-1.951-2.7-1.925c-1.236,0.028-2.288,0.844-2.617,2.036l-5.575,23.604c-0.097,0.3-0.528,1.043-0.775,1.318
				l-7.094,1.848c-1.215,0.316-2.049,1.372-2.075,2.627c-0.026,1.255,0.762,2.345,1.963,2.712l8.012,2.45
				c0.059,0.018,0.105,0.063,0.126,0.121l8.275,23.782c0.42,1.206,1.551,1.949,2.822,1.856c0.01-0.001,0.021-0.002,0.031-0.003
				c1.283-0.107,2.289-1.033,2.504-2.302l4.246-25.081c0.012-0.07,0.061-0.128,0.128-0.15l8.454-2.824
				c1.218-0.407,1.977-1.541,1.889-2.822C372.26,65.949,371.353,64.929,370.09,64.693z"/>
			<path style="fill:#222221;" d="M370.09,64.693l-8.245-1.544c-0.07-0.013-0.126-0.063-0.141-0.109l-6.97-23.057
				c-0.378-1.177-1.463-1.951-2.7-1.925c-1.236,0.028-2.288,0.844-2.617,2.036l-5.575,23.604c-0.097,0.3-0.528,1.043-0.775,1.318
				l-7.094,1.848c-1.215,0.316-2.049,1.372-2.075,2.627c-0.026,1.255,0.762,2.345,1.963,2.712l8.012,2.45
				c0.059,0.018,0.105,0.063,0.126,0.121l8.275,23.782c0.42,1.206,1.551,1.949,2.822,1.856c0.01-0.001,0.021-0.002,0.031-0.003
				c1.283-0.107,2.289-1.033,2.504-2.302l4.246-25.081c0.012-0.07,0.061-0.128,0.128-0.15l8.454-2.824
				c1.218-0.407,1.977-1.541,1.889-2.822C372.26,65.949,371.353,64.929,370.09,64.693z M369.641,67.602l-8.454,2.824
				c-0.974,0.326-1.685,1.156-1.857,2.169l-4.246,25.081c-0.009,0.055-0.025,0.147-0.173,0.159
				c-0.149,0.008-0.179-0.075-0.197-0.128l-8.275-23.782c-0.29-0.833-0.966-1.484-1.809-1.742l-8.013-2.45
				c-0.049-0.015-0.139-0.042-0.136-0.188c0.003-0.145,0.094-0.169,0.144-0.182l7.284-1.897c1.462-0.381,2.419-3.065,2.426-3.091
				l5.577-23.611c0.015-0.05,0.049-0.119,0.176-0.123c0.143-0.003,0.172,0.086,0.18,0.112l6.97,23.057
				c0.312,0.971,1.129,1.69,2.131,1.878l8.246,1.544c0.055,0.01,0.146,0.028,0.156,0.176
				C369.781,67.555,369.693,67.585,369.641,67.602z"/>
			<path style="fill:#222221;" d="M370.09,64.693l-8.245-1.544c-0.07-0.013-0.126-0.063-0.141-0.109l-6.97-23.057
				c-0.378-1.177-1.463-1.951-2.7-1.925c-1.236,0.028-2.288,0.844-2.617,2.036l-5.575,23.604c-0.097,0.3-0.528,1.043-0.775,1.318
				l-7.094,1.848c-1.215,0.316-2.049,1.372-2.075,2.627c-0.026,1.255,0.762,2.345,1.963,2.712l8.012,2.45
				c0.059,0.018,0.105,0.063,0.126,0.121l8.275,23.782c0.42,1.206,1.551,1.949,2.822,1.856c0.01-0.001,0.021-0.002,0.031-0.003
				c1.283-0.107,2.289-1.033,2.504-2.302l4.246-25.081c0.012-0.07,0.061-0.128,0.128-0.15l8.454-2.824
				c1.218-0.407,1.977-1.541,1.889-2.822C372.26,65.949,371.353,64.929,370.09,64.693z M369.641,67.602l-8.454,2.824
				c-0.974,0.326-1.685,1.156-1.857,2.169l-4.246,25.081c-0.009,0.055-0.025,0.147-0.173,0.159
				c-0.149,0.008-0.179-0.075-0.197-0.128l-8.275-23.782c-0.29-0.833-0.966-1.484-1.809-1.742l-8.013-2.45
				c-0.049-0.015-0.139-0.042-0.136-0.188c0.003-0.145,0.094-0.169,0.144-0.182l7.284-1.897c1.462-0.381,2.419-3.065,2.426-3.091
				l5.577-23.611c0.015-0.05,0.049-0.119,0.176-0.123c0.143-0.003,0.172,0.086,0.18,0.112l6.97,23.057
				c0.312,0.971,1.129,1.69,2.131,1.878l8.246,1.544c0.055,0.01,0.146,0.028,0.156,0.176
				C369.781,67.555,369.693,67.585,369.641,67.602z"/>
		</g>
		<g>
			<path style="fill:#FFFFFF;" d="M142.118,73.56l-8.245-1.544c-0.069-0.013-0.126-0.063-0.141-0.109l-6.97-23.057
				c-0.378-1.177-1.464-1.951-2.7-1.925c-1.236,0.028-2.288,0.844-2.617,2.036l-5.575,23.604c-0.097,0.3-0.528,1.043-0.775,1.318
				l-7.094,1.848c-1.215,0.316-2.049,1.372-2.075,2.627c-0.026,1.255,0.762,2.345,1.963,2.712l8.012,2.45
				c0.059,0.018,0.106,0.063,0.126,0.121l8.275,23.782c0.42,1.206,1.551,1.949,2.821,1.856c0.01-0.001,0.021-0.002,0.031-0.003
				c1.283-0.107,2.289-1.033,2.504-2.302l4.246-25.08c0.012-0.07,0.061-0.128,0.128-0.15l8.454-2.824
				c1.218-0.407,1.977-1.541,1.889-2.822C144.287,74.816,143.38,73.796,142.118,73.56z"/>
			<path style="fill:#222221;" d="M142.118,73.56l-8.245-1.544c-0.069-0.013-0.126-0.063-0.141-0.109l-6.97-23.057
				c-0.378-1.177-1.464-1.951-2.7-1.925c-1.236,0.028-2.288,0.844-2.617,2.036l-5.575,23.604c-0.097,0.3-0.528,1.043-0.775,1.318
				l-7.094,1.848c-1.215,0.316-2.049,1.372-2.075,2.627c-0.026,1.255,0.762,2.345,1.963,2.712l8.012,2.45
				c0.059,0.018,0.106,0.063,0.126,0.121l8.275,23.782c0.42,1.206,1.551,1.949,2.821,1.856c0.01-0.001,0.021-0.002,0.031-0.003
				c1.283-0.107,2.289-1.033,2.504-2.302l4.246-25.08c0.012-0.07,0.061-0.128,0.128-0.15l8.454-2.824
				c1.218-0.407,1.977-1.541,1.889-2.822C144.287,74.816,143.38,73.796,142.118,73.56z M141.668,76.469l-8.454,2.824
				c-0.974,0.326-1.685,1.157-1.857,2.169l-4.246,25.08c-0.009,0.055-0.025,0.147-0.174,0.159c-0.149,0.008-0.179-0.075-0.197-0.128
				l-8.275-23.782c-0.29-0.833-0.966-1.484-1.809-1.742l-8.013-2.45c-0.049-0.015-0.139-0.042-0.136-0.188
				c0.003-0.145,0.095-0.169,0.144-0.182l7.284-1.897c1.462-0.381,2.419-3.065,2.426-3.091l5.577-23.611
				c0.015-0.05,0.049-0.119,0.176-0.123c0.143-0.003,0.172,0.086,0.18,0.112l6.97,23.057c0.312,0.971,1.128,1.69,2.131,1.878
				l8.246,1.544c0.055,0.01,0.146,0.028,0.156,0.176C141.809,76.422,141.721,76.451,141.668,76.469z"/>
			<path style="fill:#222221;" d="M142.118,73.56l-8.245-1.544c-0.069-0.013-0.126-0.063-0.141-0.109l-6.97-23.057
				c-0.378-1.177-1.464-1.951-2.7-1.925c-1.236,0.028-2.288,0.844-2.617,2.036l-5.575,23.604c-0.097,0.3-0.528,1.043-0.775,1.318
				l-7.094,1.848c-1.215,0.316-2.049,1.372-2.075,2.627c-0.026,1.255,0.762,2.345,1.963,2.712l8.012,2.45
				c0.059,0.018,0.106,0.063,0.126,0.121l8.275,23.782c0.42,1.206,1.551,1.949,2.821,1.856c0.01-0.001,0.021-0.002,0.031-0.003
				c1.283-0.107,2.289-1.033,2.504-2.302l4.246-25.08c0.012-0.07,0.061-0.128,0.128-0.15l8.454-2.824
				c1.218-0.407,1.977-1.541,1.889-2.822C144.287,74.816,143.38,73.796,142.118,73.56z M141.668,76.469l-8.454,2.824
				c-0.974,0.326-1.685,1.157-1.857,2.169l-4.246,25.08c-0.009,0.055-0.025,0.147-0.174,0.159c-0.149,0.008-0.179-0.075-0.197-0.128
				l-8.275-23.782c-0.29-0.833-0.966-1.484-1.809-1.742l-8.013-2.45c-0.049-0.015-0.139-0.042-0.136-0.188
				c0.003-0.145,0.095-0.169,0.144-0.182l7.284-1.897c1.462-0.381,2.419-3.065,2.426-3.091l5.577-23.611
				c0.015-0.05,0.049-0.119,0.176-0.123c0.143-0.003,0.172,0.086,0.18,0.112l6.97,23.057c0.312,0.971,1.128,1.69,2.131,1.878
				l8.246,1.544c0.055,0.01,0.146,0.028,0.156,0.176C141.809,76.422,141.721,76.451,141.668,76.469z"/>
		</g>
		<g>
			<path style="fill:#FFFFFF;" d="M467.212,181.655l-5.39-1.009c-0.046-0.009-0.083-0.041-0.092-0.071l-4.557-15.073
				c-0.247-0.77-0.957-1.275-1.765-1.258c-0.808,0.019-1.496,0.552-1.711,1.331l-3.645,15.431c-0.064,0.196-0.345,0.682-0.506,0.861
				l-4.638,1.208c-0.794,0.207-1.339,0.897-1.357,1.717c-0.017,0.82,0.498,1.533,1.283,1.773l5.238,1.602
				c0.038,0.012,0.069,0.041,0.082,0.079l5.41,15.547c0.274,0.788,1.014,1.274,1.844,1.213c0.007-0.001,0.014-0.001,0.02-0.002
				c0.839-0.07,1.497-0.675,1.637-1.505l2.776-16.396c0.008-0.046,0.04-0.083,0.084-0.098l5.526-1.846
				c0.796-0.266,1.292-1.007,1.235-1.845C468.631,182.476,468.037,181.809,467.212,181.655z"/>
			<path style="fill:#222221;" d="M467.212,181.655l-5.39-1.009c-0.046-0.009-0.083-0.041-0.092-0.071l-4.557-15.073
				c-0.247-0.77-0.957-1.275-1.765-1.258c-0.808,0.019-1.496,0.552-1.711,1.331l-3.645,15.431c-0.064,0.196-0.345,0.682-0.506,0.861
				l-4.638,1.208c-0.794,0.207-1.339,0.897-1.357,1.717c-0.017,0.82,0.498,1.533,1.283,1.773l5.238,1.602
				c0.038,0.012,0.069,0.041,0.082,0.079l5.41,15.547c0.274,0.788,1.014,1.274,1.844,1.213c0.007-0.001,0.014-0.001,0.02-0.002
				c0.839-0.07,1.497-0.675,1.637-1.505l2.776-16.396c0.008-0.046,0.04-0.083,0.084-0.098l5.526-1.846
				c0.796-0.266,1.292-1.007,1.235-1.845C468.631,182.476,468.037,181.809,467.212,181.655z M466.918,183.557l-5.526,1.846
				c-0.637,0.213-1.102,0.756-1.214,1.418l-2.776,16.396c-0.006,0.036-0.016,0.096-0.113,0.104
				c-0.097,0.005-0.117-0.049-0.129-0.084l-5.41-15.547c-0.189-0.544-0.631-0.97-1.183-1.139l-5.238-1.602
				c-0.032-0.01-0.091-0.028-0.089-0.123c0.002-0.095,0.062-0.111,0.094-0.119l4.762-1.24c0.956-0.249,1.581-2.003,1.586-2.021
				l3.646-15.436c0.01-0.032,0.032-0.078,0.115-0.08c0.094-0.002,0.112,0.056,0.118,0.073l4.557,15.073
				c0.204,0.635,0.738,1.105,1.393,1.228l5.39,1.009c0.036,0.007,0.096,0.018,0.102,0.115
				C467.01,183.526,466.953,183.546,466.918,183.557z"/>
			<path style="fill:#222221;" d="M467.304,181.164l-5.166-0.968l-4.489-14.847c-0.314-0.982-1.204-1.627-2.252-1.606
				c-1.031,0.024-1.907,0.706-2.185,1.716l-3.634,15.392c-0.034,0.104-0.197,0.396-0.321,0.574l-4.473,1.165
				c-1.013,0.264-1.709,1.145-1.731,2.191c-0.022,1.046,0.637,1.955,1.637,2.261l5.057,1.547l5.348,15.368
				c0.33,0.945,1.189,1.552,2.193,1.552c0.062,0,0.123-0.002,0.186-0.007c1.07-0.089,1.909-0.861,2.089-1.92l2.737-16.175
				l5.313-1.775c1.017-0.339,1.65-1.285,1.576-2.354C469.114,182.211,468.357,181.361,467.304,181.164z M466.838,183.302l0.08,0.255
				l-0.082-0.255L466.838,183.302z M459.643,181.23c0.26,0.81,0.94,1.41,1.776,1.567l3.972,0.743l-4.157,1.389
				c-0.813,0.271-1.405,0.964-1.549,1.809l-2.531,14.958l-4.931-14.17c-0.242-0.694-0.807-1.237-1.509-1.452l-3.973-1.215
				l3.482-0.907c1.259-0.328,1.936-2.351,1.946-2.39l3.32-14.067L459.643,181.23z"/>
		</g>
		<g>
			<path style="fill:#FFFFFF;" d="M97.273,57.15l-5.39-1.009c-0.046-0.009-0.083-0.041-0.092-0.071l-4.557-15.073
				c-0.247-0.77-0.957-1.275-1.765-1.258c-0.808,0.019-1.496,0.552-1.711,1.331l-3.645,15.431c-0.064,0.196-0.345,0.682-0.506,0.861
				l-4.638,1.208c-0.794,0.207-1.339,0.897-1.357,1.717c-0.017,0.82,0.498,1.533,1.283,1.773l5.238,1.602
				c0.038,0.012,0.069,0.041,0.082,0.079l5.41,15.547c0.274,0.788,1.014,1.274,1.844,1.213c0.007-0.001,0.013-0.001,0.02-0.002
				c0.839-0.07,1.497-0.675,1.637-1.505l2.776-16.396c0.008-0.046,0.04-0.083,0.084-0.098l5.526-1.846
				c0.796-0.266,1.292-1.007,1.235-1.845C98.691,57.971,98.098,57.304,97.273,57.15z"/>
			<path style="fill:#222221;" d="M97.273,57.15l-5.39-1.009c-0.046-0.009-0.083-0.041-0.092-0.071l-4.557-15.073
				c-0.247-0.77-0.957-1.275-1.765-1.258c-0.808,0.019-1.496,0.552-1.711,1.331l-3.645,15.431c-0.064,0.196-0.345,0.682-0.506,0.861
				l-4.638,1.208c-0.794,0.207-1.339,0.897-1.357,1.717c-0.017,0.82,0.498,1.533,1.283,1.773l5.238,1.602
				c0.038,0.012,0.069,0.041,0.082,0.079l5.41,15.547c0.274,0.788,1.014,1.274,1.844,1.213c0.007-0.001,0.013-0.001,0.02-0.002
				c0.839-0.07,1.497-0.675,1.637-1.505l2.776-16.396c0.008-0.046,0.04-0.083,0.084-0.098l5.526-1.846
				c0.796-0.266,1.292-1.007,1.235-1.845C98.691,57.971,98.098,57.304,97.273,57.15z M96.979,59.052l-5.527,1.846
				c-0.636,0.213-1.102,0.756-1.214,1.418l-2.776,16.396c-0.006,0.036-0.016,0.096-0.113,0.104
				c-0.097,0.005-0.117-0.049-0.129-0.084l-5.41-15.547c-0.189-0.544-0.631-0.97-1.183-1.139l-5.238-1.602
				c-0.032-0.009-0.091-0.028-0.089-0.123c0.002-0.095,0.062-0.111,0.094-0.119l4.762-1.24c0.956-0.249,1.581-2.003,1.586-2.021
				l3.646-15.435c0.01-0.033,0.032-0.078,0.115-0.08c0.094-0.002,0.112,0.056,0.118,0.073l4.557,15.073
				c0.204,0.635,0.738,1.105,1.393,1.228l5.39,1.009c0.036,0.007,0.096,0.018,0.102,0.115C97.071,59.021,97.013,59.04,96.979,59.052
				z"/>
			<path style="fill:#222221;" d="M97.364,56.659l-5.166-0.968l-4.489-14.847c-0.314-0.982-1.204-1.627-2.252-1.606
				c-1.031,0.024-1.907,0.706-2.186,1.716l-3.634,15.392c-0.034,0.104-0.197,0.396-0.321,0.574l-4.473,1.165
				c-1.013,0.264-1.709,1.145-1.731,2.191c-0.021,1.046,0.637,1.955,1.637,2.261l5.057,1.547l5.348,15.368
				c0.33,0.945,1.188,1.552,2.193,1.552c0.062,0,0.123-0.002,0.186-0.007c1.07-0.089,1.909-0.861,2.089-1.92l2.737-16.175
				l5.314-1.774c1.017-0.339,1.649-1.285,1.576-2.354C99.175,57.706,98.418,56.855,97.364,56.659z M96.898,58.797l0.08,0.255
				l-0.081-0.255L96.898,58.797z M89.703,56.725c0.26,0.81,0.94,1.41,1.776,1.567l3.972,0.743l-4.157,1.389
				c-0.813,0.271-1.405,0.964-1.549,1.809L87.214,77.19l-4.931-14.17c-0.242-0.694-0.807-1.237-1.509-1.452l-3.973-1.215
				l3.481-0.907c1.259-0.328,1.937-2.351,1.946-2.39l3.32-14.067L89.703,56.725z"/>
		</g>
	</g>
	<g>
		<g>
			<path style="fill:#FFFFFF;" d="M470.289,329.796c0.268-4.531-2.688-9.298-7.456-9.822c-2.446-0.269-4.85,0.678-6.953,1.836
				c-1.163,0.64-2.258,1.323-3.193,2.168c-1.082-3.666-3.164-6.991-6.921-8.473c-4.895-1.931-9.725,1.107-11.171,5.948
				c-1.591,5.328,0.261,11.222,2.232,16.189c2.206,5.558,4.963,10.895,8.111,15.976c0.275,0.444,0.671,0.669,1.084,0.732
				c0.525,0.38,1.267,0.503,1.93,0.044c4.953-3.434,9.577-7.31,14.068-11.322C465.951,339.56,469.96,335.364,470.289,329.796z"/>
			<path style="fill:#222221;" d="M470.289,329.796c0.268-4.531-2.688-9.298-7.456-9.822c-2.446-0.269-4.85,0.678-6.953,1.836
				c-1.163,0.64-2.258,1.323-3.193,2.168c-1.082-3.666-3.164-6.991-6.921-8.473c-4.895-1.931-9.725,1.107-11.171,5.948
				c-1.591,5.328,0.261,11.222,2.232,16.189c2.206,5.558,4.963,10.895,8.111,15.976c0.275,0.444,0.671,0.669,1.084,0.732
				c0.525,0.38,1.267,0.503,1.93,0.044c4.953-3.434,9.577-7.31,14.068-11.322C465.951,339.56,469.96,335.364,470.289,329.796z
				 M466.052,333.78c-2.01,3.919-5.758,6.786-9.026,9.611c-3.204,2.769-6.494,5.436-9.939,7.898
				c-2.245-3.705-4.272-7.536-6.039-11.493c-1.875-4.2-3.722-8.677-3.943-13.331c-0.194-4.086,1.927-9.829,7.081-8.273
				c4.21,1.271,5.651,5.815,6.229,9.716c0.249,1.68,2.506,1.416,2.933,0.064c0.078-0.1,0.149-0.211,0.208-0.337
				c0.824-1.769,3.102-2.846,4.768-3.649c1.677-0.808,3.665-1.417,5.47-0.643C467.9,325.104,467.789,330.392,466.052,333.78z"/>
		</g>
		<g>
			<path style="fill:#FFFFFF;" d="M274.812,56.344c0.277-4.693-2.784-9.63-7.722-10.173c-2.533-0.278-5.023,0.702-7.201,1.901
				c-1.204,0.663-2.339,1.371-3.307,2.246c-1.121-3.797-3.277-7.241-7.168-8.776c-5.07-2-10.073,1.147-11.571,6.161
				c-1.648,5.518,0.27,11.623,2.312,16.768c2.285,5.757,5.14,11.285,8.401,16.547c0.285,0.46,0.695,0.693,1.123,0.758
				c0.544,0.394,1.312,0.521,1.999,0.045c5.13-3.556,9.92-7.571,14.571-11.727C270.319,66.457,274.471,62.112,274.812,56.344z"/>
			<path style="fill:#222221;" d="M274.812,56.344c0.277-4.693-2.784-9.63-7.722-10.173c-2.533-0.278-5.023,0.702-7.201,1.901
				c-1.204,0.663-2.339,1.371-3.307,2.246c-1.121-3.797-3.277-7.241-7.168-8.776c-5.07-2-10.073,1.147-11.571,6.161
				c-1.648,5.518,0.27,11.623,2.312,16.768c2.285,5.757,5.14,11.285,8.401,16.547c0.285,0.46,0.695,0.693,1.123,0.758
				c0.544,0.394,1.312,0.521,1.999,0.045c5.13-3.556,9.92-7.571,14.571-11.727C270.319,66.457,274.471,62.112,274.812,56.344z
				 M270.424,60.47c-2.082,4.059-5.964,7.029-9.348,9.954c-3.319,2.868-6.726,5.63-10.294,8.18
				c-2.326-3.837-4.425-7.805-6.255-11.904c-1.942-4.35-3.856-8.987-4.084-13.807c-0.201-4.232,1.996-10.18,7.334-8.569
				c4.36,1.316,5.853,6.023,6.451,10.064c0.258,1.74,2.595,1.467,3.038,0.066c0.081-0.103,0.155-0.218,0.216-0.349
				c0.853-1.833,3.212-2.948,4.938-3.78c1.737-0.837,3.796-1.468,5.666-0.666C272.338,51.484,272.223,56.961,270.424,60.47z"/>
		</g>
		<g>
			<path style="fill:#FFFFFF;" d="M218.384,65.561c-1.171-2.766-4.322-4.726-7.303-3.637c-1.529,0.558-2.677,1.825-3.585,3.129
				c-0.502,0.721-0.951,1.447-1.257,2.223c-1.717-1.857-3.928-3.218-6.591-2.994c-3.47,0.291-5.443,3.51-4.88,6.805
				c0.62,3.627,3.447,6.579,6.074,8.946c2.939,2.649,6.14,5.005,9.498,7.095c0.293,0.182,0.594,0.2,0.858,0.116
				c0.423,0.071,0.899-0.073,1.157-0.54c1.93-3.49,3.535-7.145,5.021-10.843C218.676,72.625,219.823,68.96,218.384,65.561z"/>
			<path style="fill:#222221;" d="M218.844,65.367c-1.2-2.836-4.574-5.136-7.936-3.912c-1.389,0.507-2.604,1.559-3.823,3.313
				c-0.312,0.448-0.684,1.009-1,1.635c-1.991-1.932-4.166-2.813-6.48-2.619c-1.66,0.139-3.121,0.923-4.115,2.207
				c-1.094,1.413-1.537,3.301-1.215,5.181c0.643,3.766,3.511,6.78,6.232,9.233c2.837,2.557,6.056,4.962,9.569,7.148
				c0.255,0.158,0.535,0.239,0.817,0.239c0.113,0,0.227-0.013,0.338-0.04c0.664,0.071,1.245-0.235,1.561-0.807
				c1.689-3.055,3.247-6.416,5.047-10.898C219.237,72.569,220.327,68.868,218.844,65.367z M216.54,69.16
				c-0.036,2.447-1.066,4.84-2.063,7.153l-0.431,1.008c-1.121,2.663-2.205,4.985-3.303,7.08c-2.277-1.472-4.444-3.057-6.447-4.715
				c-2.306-1.909-4.68-3.991-6.132-6.606c-0.755-1.36-1.258-3.465-0.58-4.873c0.362-0.751,1.034-1.213,1.998-1.375
				c0.233-0.039,0.464-0.059,0.695-0.059c1.836,0,3.595,1.245,5.356,3.785c0.389,0.56,1.04,0.763,1.654,0.517
				c0.665-0.265,1.082-0.932,1.021-1.609c0.015-0.095,0.021-0.191,0.019-0.287c-0.026-1.093,0.923-2.311,1.651-3.244
				c0.917-1.175,1.771-1.745,2.689-1.795c0.893-0.039,1.67,0.246,2.323,0.873C215.954,65.939,216.563,67.568,216.54,69.16z"/>
		</g>
		<g>
			<path style="fill:#FFFFFF;" d="M65.87,255.227c-1.171-2.766-4.322-4.726-7.304-3.637c-1.529,0.558-2.677,1.825-3.585,3.129
				c-0.502,0.721-0.951,1.447-1.257,2.223c-1.717-1.857-3.928-3.218-6.591-2.994c-3.47,0.291-5.443,3.51-4.88,6.805
				c0.62,3.627,3.448,6.579,6.074,8.946c2.939,2.649,6.14,5.005,9.498,7.094c0.293,0.182,0.594,0.2,0.858,0.116
				c0.423,0.071,0.899-0.073,1.157-0.54c1.93-3.49,3.535-7.145,5.021-10.843C66.163,262.29,67.309,258.626,65.87,255.227z"/>
			<path style="fill:#222221;" d="M66.331,255.032c-1.2-2.836-4.574-5.136-7.936-3.912c-1.389,0.507-2.604,1.559-3.823,3.313
				c-0.313,0.448-0.684,1.009-1,1.635c-1.991-1.932-4.166-2.812-6.479-2.619c-1.66,0.139-3.121,0.923-4.115,2.207
				c-1.094,1.413-1.537,3.301-1.215,5.181c0.643,3.766,3.511,6.78,6.232,9.233c2.837,2.557,6.056,4.962,9.569,7.148
				c0.255,0.158,0.535,0.239,0.817,0.239c0.113,0,0.227-0.013,0.338-0.04c0.664,0.071,1.245-0.235,1.561-0.807
				c1.689-3.055,3.246-6.416,5.047-10.898C66.724,262.235,67.813,258.534,66.331,255.032z M64.027,258.825
				c-0.036,2.447-1.066,4.84-2.063,7.153l-0.431,1.008c-1.121,2.663-2.205,4.985-3.303,7.08c-2.277-1.472-4.444-3.057-6.447-4.715
				c-2.306-1.909-4.68-3.991-6.132-6.607c-0.755-1.36-1.258-3.465-0.58-4.874c0.362-0.75,1.034-1.213,1.998-1.375
				c0.233-0.039,0.464-0.059,0.695-0.059c1.836,0,3.595,1.245,5.356,3.785c0.389,0.56,1.04,0.763,1.654,0.517
				c0.665-0.265,1.082-0.932,1.021-1.609c0.015-0.095,0.021-0.191,0.019-0.287c-0.026-1.093,0.923-2.311,1.651-3.244
				c0.917-1.175,1.771-1.745,2.688-1.795c0.893-0.04,1.67,0.246,2.323,0.873C63.441,255.605,64.05,257.233,64.027,258.825z"/>
		</g>
		<g>
			<path style="fill:#FFFFFF;" d="M72.158,130.584c-2.221-3.266-6.79-4.983-10.355-2.813c-1.829,1.113-2.983,3.042-3.819,4.957
				c-0.462,1.059-0.854,2.111-1.05,3.19c-2.692-1.953-5.893-3.14-9.27-2.167c-4.4,1.268-6.117,5.927-4.543,10.032
				c1.732,4.518,6.138,7.598,10.134,9.976c4.472,2.661,9.206,4.876,14.074,6.707c0.425,0.16,0.818,0.105,1.136-0.071
				c0.564-0.017,1.141-0.326,1.354-0.994c1.591-4.997,2.722-10.124,3.687-15.275C74.352,139.619,74.888,134.598,72.158,130.584z"/>
			<path style="fill:#222221;" d="M72.365,130.444c-2.172-3.195-6.879-5.206-10.691-2.886c-1.585,0.965-2.83,2.576-3.917,5.07
				c-0.341,0.781-0.749,1.79-0.989,2.864c-3.125-2.168-6.209-2.833-9.171-1.98c-1.994,0.575-3.587,1.887-4.488,3.695
				c-0.997,2-1.076,4.431-0.219,6.666c1.754,4.575,6.161,7.673,10.24,10.101c4.299,2.558,9.048,4.821,14.114,6.726
				c0.198,0.075,0.397,0.112,0.592,0.112c0.241,0,0.476-0.057,0.699-0.17c0.727-0.043,1.308-0.486,1.525-1.166
				c1.388-4.359,2.527-9.079,3.694-15.305C74.644,139.413,75.094,134.456,72.365,130.444z M59.76,138.279
				c-0.002-0.12-0.016-0.239-0.042-0.355c-0.347-1.545,0.603-3.435,1.296-4.815l0.032-0.065c0.924-1.838,1.993-2.891,3.269-3.218
				c1.249-0.32,2.439-0.126,3.541,0.579c1.575,1.006,2.851,3.056,3.25,5.221h0c0.598,3.245-0.124,6.636-0.823,9.914
				c-0.101,0.473-0.201,0.943-0.296,1.408c-0.8,3.913-1.643,7.331-2.575,10.44c-3.482-1.36-6.84-2.909-9.985-4.606
				c-3.5-1.887-7.134-3.985-9.724-7.038c-1.389-1.637-2.634-4.37-2.085-6.501c0.308-1.197,1.14-2.06,2.473-2.566
				c0.676-0.257,1.367-0.386,2.074-0.386c2.187,0,4.534,1.232,7.116,3.723c0.511,0.493,1.186,0.567,1.762,0.191
				C59.684,139.788,59.987,138.967,59.76,138.279z"/>
		</g>
	</g>
</g>
</svg>
