<?xml version="1.0" encoding="utf-8"?>
<!-- Generator: Adobe Illustrator 27.5.0, SVG Export Plug-In . SVG Version: 6.00 Build 0)  -->
<svg version="1.1" xmlns="http://www.w3.org/2000/svg" xmlns:xlink="http://www.w3.org/1999/xlink" x="0px" y="0px"
	 viewBox="0 0 500 500" style="enable-background:new 0 0 500 500;" xml:space="preserve">
<g id="BACKGROUND">
	<rect style="fill:#FFFFFF;" width="500" height="500"/>
</g>
<g id="OBJECTS">
	<g>
		<g>
			<g>
				
					<path style="fill:#FFFFFF;stroke:#000000;stroke-width:1.4;stroke-linecap:round;stroke-linejoin:round;stroke-miterlimit:10;" d="
					M131.635,176.306c0,0-4.033,6.012,2.15,17.012s37.47,8.155,68.66-8.506c31.19-16.661,45.19-35.7,46.357-44.097
					c1.167-8.397-8.833-16.372-14.5-17.468c0,0-13.833,22.757-48,38.997C152.135,178.484,131.635,176.306,131.635,176.306z"/>
				
					<path style="fill:#FFFFFF;stroke:#000000;stroke-width:1.4;stroke-linecap:round;stroke-linejoin:round;stroke-miterlimit:10;" d="
					M126.301,166.651c0,0-4.359,5.643-2.43,9.655c1.93,4.012,6.829,2.512,6.829,2.512s-1.766,4.167,3.084,4.833
					c4.85,0.667,5.183-2.5,5.183-2.5s2.667,7.5,10.5,5.833c7.833-1.667,9.142-7.667,9.142-7.667s2.192,2.333,5.525,0.833
					c3.333-1.5,3.167-5.333,3.167-5.333s1.833,2.143,4.667,1.488c2.833-0.655,3.833-3.821,3.833-3.821s4.333,5.833,13.333,2.5
					s8.133-11,8.133-11s2.32,1.5,5.177,0c2.857-1.5,2.023-5.333,2.023-5.333s2.667,2,5.167,1.333s2.833-4.333,2.833-4.333
					s5.667,1.5,8.5-1.833c2.833-3.333,1-8.5,1-8.5s2.667,1.333,4.167,0c1.5-1.333,0-4.603,0-4.603s4.333,1.603,7.167-0.73
					c2.833-2.333,0.833-7,0.833-7s4.167-0.667,5-5.333c0.833-4.667-3.667-5.333-3.667-5.333s5.539-2.667,3.77-8.167
					c-1.77-5.5-10.103-3.333-10.103-3.333s-4.667,30.833-41.667,46.667S126.301,166.651,126.301,166.651z"/>
				
					<path style="fill:#FFFFFF;stroke:#000000;stroke-width:1.4;stroke-linecap:round;stroke-linejoin:round;stroke-miterlimit:10;" d="
					M125.968,156.318c-2.667,3.167-3.833,10.5,3,17c6.833,6.5,31.667,2,58.667-9.667c27-11.667,43.5-34,44.5-42
					s-2.751-16.341-11.167-16.527c0,0-15.561,17.86-44.037,33.36C148.454,153.984,125.968,156.318,125.968,156.318z"/>
				
					<path style="fill:#FFFFFF;stroke:#000000;stroke-width:1.4;stroke-linecap:round;stroke-linejoin:round;stroke-miterlimit:10;" d="
					M115.135,143.651c-0.167,0.5-3.833,13.167,0,29.667c0,0,18-18.5,41-20.667c23-2.167,37.167,4.333,37.167,4.333
					s6.167-26.433,13.167-36.633s34-23.7,34-23.7s-9.167-9.936-27.5-9.801c0,0-10.763,22.801-44.131,38.468
					C135.468,140.984,115.135,143.651,115.135,143.651z"/>
				
					<path style="fill:#FFFFFF;stroke:#000000;stroke-width:1.4;stroke-linecap:round;stroke-linejoin:round;stroke-miterlimit:10;" d="
					M114.346,145.984c-0.907-0.092,4.481,18.667,28.301,16c23.821-2.667,26.189-27.667,26.189-27.667
					S144.058,148.984,114.346,145.984z"/>
				
					<path style="fill:#FFFFFF;stroke:#000000;stroke-width:1.4;stroke-linecap:round;stroke-linejoin:round;stroke-miterlimit:10;" d="
					M176.73,132.204c-0.613,0.311,16.183,10.998,31.25-1.787c17.073-14.487,7.7-32.75,3.144-36.332
					C211.124,94.085,203.538,118.626,176.73,132.204z"/>
				
					<path style="fill:#FFFFFF;stroke:#000000;stroke-width:1.4;stroke-linecap:round;stroke-linejoin:round;stroke-miterlimit:10;" d="
					M138.468,69.151c33.333-15.667,66-9.667,74.667,3.667c8.667,13.333,8.333,40-38.667,63.333c-43.128,21.411-64,17-72.333-1.667
					C93.801,115.818,107.431,83.739,138.468,69.151z"/>
			</g>
			<g>
				<path style="fill:none;stroke:#000000;stroke-width:1.4;stroke-linecap:round;stroke-linejoin:round;stroke-miterlimit:10;" d="
					M129.673,85c3.224,1.41-2.003,6.438-3.863,5.007C123.951,88.577,127.384,83.999,129.673,85z"/>
				<path style="fill:none;stroke:#000000;stroke-width:1.4;stroke-linecap:round;stroke-linejoin:round;stroke-miterlimit:10;" d="
					M153.699,72.273c2.764,2.177-3.561,5.725-5,3.872C147.26,74.292,151.736,70.727,153.699,72.273z"/>
				<path style="fill:none;stroke:#000000;stroke-width:1.4;stroke-linecap:round;stroke-linejoin:round;stroke-miterlimit:10;" d="
					M115.883,103.488c3.297,1.231-1.645,6.538-3.581,5.212C110.367,107.374,113.543,102.614,115.883,103.488z"/>
				<path style="fill:none;stroke:#000000;stroke-width:1.4;stroke-linecap:round;stroke-linejoin:round;stroke-miterlimit:10;" d="
					M147.326,89.659c3.108,1.651-2.485,6.268-4.231,4.7C141.349,92.792,145.12,88.487,147.326,89.659z"/>
				<path style="fill:none;stroke:#000000;stroke-width:1.4;stroke-linecap:round;stroke-linejoin:round;stroke-miterlimit:10;" d="
					M110.415,120.397c3.424,0.814-0.824,6.691-2.909,5.615C105.421,124.935,107.984,119.819,110.415,120.397z"/>
				<path style="fill:none;stroke:#000000;stroke-width:1.4;stroke-linecap:round;stroke-linejoin:round;stroke-miterlimit:10;" d="
					M167.913,87.05c3.108,1.651-2.485,6.268-4.231,4.7C161.937,90.182,165.707,85.878,167.913,87.05z"/>
				<path style="fill:none;stroke:#000000;stroke-width:1.4;stroke-linecap:round;stroke-linejoin:round;stroke-miterlimit:10;" d="
					M176.805,72.534c2.478,2.498-4.233,5.248-5.435,3.233S175.045,70.76,176.805,72.534z"/>
				<path style="fill:none;stroke:#000000;stroke-width:1.4;stroke-linecap:round;stroke-linejoin:round;stroke-miterlimit:10;" d="
					M136.324,104.451c2.478,2.498-4.233,5.248-5.435,3.233C129.687,105.669,134.565,102.677,136.324,104.451z"/>
				<path style="fill:none;stroke:#000000;stroke-width:1.4;stroke-linecap:round;stroke-linejoin:round;stroke-miterlimit:10;" d="
					M194.047,67.085c1.309,3.266-5.943,3.184-6.265,0.86C187.46,65.62,193.118,64.766,194.047,67.085z"/>
				<path style="fill:none;stroke:#000000;stroke-width:1.4;stroke-linecap:round;stroke-linejoin:round;stroke-miterlimit:10;" d="
					M208.422,77.341c2.046,2.863-5.019,4.502-5.883,2.321C201.675,77.48,206.969,75.308,208.422,77.341z"/>
			</g>
		</g>
		<g>
			<path style="fill:none;stroke:#000000;stroke-width:2;stroke-linecap:round;stroke-linejoin:round;stroke-miterlimit:10;" d="
				M135.318,115.743c0,0,6.671-3.035,14.658-2.934c0,0-5.013,2.601-10.513,9.768"/>
			<path style="fill:none;stroke:#000000;stroke-width:2;stroke-linecap:round;stroke-linejoin:round;stroke-miterlimit:10;" d="
				M187.101,86.109c0,0-5.635,4.686-9.019,11.921c0,0,4.523-3.382,13.369-5.215"/>
			<path style="fill:none;stroke:#000000;stroke-width:1.4;stroke-linecap:round;stroke-linejoin:round;stroke-miterlimit:10;" d="
				M154.468,110.395c0,0,0.39-0.08,1.07-0.27c1.04-0.29,2.75-0.82,4.77-1.68c2.34-0.99,5.09-2.43,7.65-4.42
				c1.16-0.91,2.29-1.94,3.29-3.1c0.56-0.61,1.07-1.26,1.55-1.94"/>
			<path style="fill:none;stroke:#000000;stroke-width:1.4;stroke-linecap:round;stroke-linejoin:round;stroke-miterlimit:10;" d="
				M159.798,113.984c-1.28,0.21-3.1-2.14-4.26-3.86c1.04-0.29,2.75-0.82,4.77-1.68C160.728,110.685,161.068,113.774,159.798,113.984
				z"/>
			<path style="fill:none;stroke:#000000;stroke-width:1.4;stroke-linecap:round;stroke-linejoin:round;stroke-miterlimit:10;" d="
				M172.798,106.145c-0.99,0.5-3.21-0.91-4.84-2.12c1.16-0.91,2.29-1.94,3.29-3.1C172.498,103.054,173.758,105.664,172.798,106.145z
				"/>
			<g>
				<path style="fill:none;stroke:#000000;stroke-width:1.4;stroke-linecap:round;stroke-linejoin:round;stroke-miterlimit:10;" d="
					M142.647,126.143c1.821,3.008-5.478,6.842-7.329,4.675C133.468,128.651,140.827,123.134,142.647,126.143z"/>
				<path style="fill:none;stroke:#000000;stroke-width:1.4;stroke-linecap:round;stroke-linejoin:round;stroke-miterlimit:10;" d="
					M202.155,91.139c1.821,3.008-5.478,6.842-7.329,4.675C192.976,93.647,200.335,88.13,202.155,91.139z"/>
			</g>
		</g>
	</g>
	<g>
		<g>
			<path style="fill:none;stroke:#000000;stroke-width:1.4;stroke-linecap:round;stroke-linejoin:round;stroke-miterlimit:10;" d="
				M377.343,69.018c-1.76,15.7-5.85,30.53-10.83,43.73c-6.54,17.32-14.61,31.84-20.94,41.89c-2.75,4.38-5.17,7.9-6.99,10.45
				c-2.16,3.03-5.65,4.83-9.36,4.84c-25.59,0.03-46.47-8.54-55.63-13.01c-3.24-1.59-5.53-4.61-6.23-8.15
				c-2.51-12.79-3.11-27.09-2.72-40.83c0.61-21.32,3.6-41.31,5.53-52.28c0.97-5.51,1.67-8.75,1.67-8.75
				C312.343,75.048,377.343,69.018,377.343,69.018z"/>
			
				<path style="fill:#FFFFFF;stroke:#000000;stroke-width:1.4;stroke-linecap:round;stroke-linejoin:round;stroke-miterlimit:10;" d="
				M377.343,66.268c0,0,3.25-7.25,2-11.5s-27.75-15.25-54.5-21.25s-47.5-4.25-49.75,0s-1.75,9.25-1.75,9.25s-5,0.879-3.25,5.189
				c1.75,4.311,27.5,16.311,52.75,20.811s54.072,5,56.786,2C382.343,67.768,377.343,66.268,377.343,66.268z"/>
			<path style="fill:none;stroke:#000000;stroke-width:1.4;stroke-linecap:round;stroke-linejoin:round;stroke-miterlimit:10;" d="
				M274.593,45.268c0,0,19.5,11.25,47,17.75s52.25,4,52.25,4"/>
			<path style="fill:none;stroke:#000000;stroke-width:1.4;stroke-linecap:round;stroke-linejoin:round;stroke-miterlimit:10;" d="
				M277.343,34.768c-0.25,2.75,12.722,13,47.736,20c35.014,7,51.514,4.25,52.264,0"/>
			
				<path style="fill:#FFFFFF;stroke:#000000;stroke-width:1.4;stroke-linecap:round;stroke-linejoin:round;stroke-miterlimit:10;" d="
				M321.093,42.768c-0.242,1.751,8.75,4,11.75,2.5s3-17,6.25-20s16.25-4.25,17.5-6.25s-1.25-10.5-3-11s-16,3-21.5,5.75
				S322.093,35.518,321.093,42.768z"/>
			<path style="fill:none;stroke:#000000;stroke-width:1.4;stroke-linecap:round;stroke-linejoin:round;stroke-miterlimit:10;" d="
				M366.512,112.748c-6.54,17.32-14.61,31.84-20.94,41.89c-45.66-9.07-69.92-32.37-80.93-46.7c0.61-21.32,3.6-41.31,5.53-52.28
				C296.043,85.528,345.913,105.458,366.512,112.748z"/>
		</g>
		<g>
			<g>
				<path d="M296.666,86.867c4.085,1.295,2.051,11.008-2.247,10.366C290.12,96.59,292.581,85.572,296.666,86.867z"/>
				<path d="M338.499,96.7c4.085,1.295,2.051,11.008-2.247,10.366S334.414,95.405,338.499,96.7z"/>
			</g>
			<g>
				<path style="fill:none;stroke:#000000;stroke-width:1.4;stroke-linecap:round;stroke-linejoin:round;stroke-miterlimit:10;" d="
					M330.093,100.878c-0.88,0.16-1.73,0.28-2.56,0.38c-3.04,0.37-5.79,0.38-8.25,0.14c-10.59-0.99-15.86-6.38-15.86-6.38"/>
				<path style="fill:none;stroke:#000000;stroke-width:1.4;stroke-linecap:round;stroke-linejoin:round;stroke-miterlimit:10;" d="
					M323.262,111.518c-4.54,0-4.27-7.06-3.98-10.12c2.46,0.24,5.21,0.23,8.25-0.14C327.633,105.158,327.193,111.518,323.262,111.518
					z"/>
				
					<line style="fill:none;stroke:#000000;stroke-width:1.4;stroke-linecap:round;stroke-linejoin:round;stroke-miterlimit:10;" x1="323.344" y1="101.555" x2="323.344" y2="107.097"/>
			</g>
			<g>
				<path style="fill:none;stroke:#000000;stroke-width:1.4;stroke-linecap:round;stroke-linejoin:round;stroke-miterlimit:10;" d="
					M281.926,96.594c1.833-3.576,10.5,0.652,9.333,4.288C290.093,104.518,280.093,100.171,281.926,96.594z"/>
				<path style="fill:none;stroke:#000000;stroke-width:1.4;stroke-linecap:round;stroke-linejoin:round;stroke-miterlimit:10;" d="
					M335.876,111.772c1.375-3.776,10.5-0.656,9.793,3.096C344.963,118.621,334.501,115.548,335.876,111.772z"/>
			</g>
		</g>
	</g>
	<g>
		<g>
			<g>
				
					<path style="fill:#FFFFFF;stroke:#000000;stroke-width:1.4;stroke-linecap:round;stroke-linejoin:round;stroke-miterlimit:10;" d="
					M414.849,260.617c-34,19-77.75,27.5-83.25,27c-0.3-0.03-0.62-0.07-0.96-0.12c-4.9-0.76-14.16-4.11-20.98-8.43
					c-1.5-0.94-2.87-1.93-4.06-2.95c-1.35-1.16-2.56-2.48-3.57-4.11c-4.24-6.8-5-18.85,2.01-45.89c0.51-1.96,1.03-3.88,1.56-5.74
					c3.69-12.92,7.83-23.36,11.34-31.05c4.49-9.81,7.95-15.14,8.15-15.45c0.01-0.01,0.01-0.01,0.01-0.01
					c-14.25-3.75-7.5-22.25,0.94-28.15c8.44-5.9,19.88-2.6,23.31,0c3.43,2.6,24.5,1.9,30.87,4.23c6.38,2.34,10.88,3.17,23.13,7.92
					s20.25,11,24,13.66c1.99,1.41,5.03,3.67,7.82,7.72c0.01,0.01,0.01,0.01,0.02,0.02c0.47,0.68,0.93,1.41,1.37,2.2
					c0.01,0.01,0.02,0.02,0.02,0.02c1.91,3.35,3.57,7.7,4.52,13.38c2.5,15,7.5,17,7.75,24S448.849,241.617,414.849,260.617z"/>
				<g>
					
						<path style="fill:#FFFFFF;stroke:#000000;stroke-width:1.4;stroke-linecap:round;stroke-linejoin:round;stroke-miterlimit:10;" d="
						M369.953,216.39c-5.072,5.106-6.603,13.786-2.596,19.766c3.037,4.532,8.541,6.866,13.951,7.563
						c6.66,0.858,13.804-0.555,18.977-4.837c5.173-4.282,7.932-11.669,5.814-18.042C401.688,207.567,378.371,207.917,369.953,216.39
						z"/>
					
						<path style="fill:#FFFFFF;stroke:#000000;stroke-width:1.4;stroke-linecap:round;stroke-linejoin:round;stroke-miterlimit:10;" d="
						M318.489,215.407c-3.61,2.99-8.19,4.58-12.89,4.97c3.69-12.92,7.83-23.36,11.34-31.05c3.43,1.7,6.13,4.34,7.36,8.04
						C326.419,203.737,323.659,211.127,318.489,215.407z"/>
					
						<path style="fill:#FFFFFF;stroke:#000000;stroke-width:1.4;stroke-linecap:round;stroke-linejoin:round;stroke-miterlimit:10;" d="
						M342.177,172.529c-5.073,5.106-6.603,13.786-2.596,19.766c3.037,4.532,8.541,6.866,13.952,7.563
						c6.66,0.858,13.804-0.555,18.977-4.837c5.172-4.282,7.931-11.67,5.814-18.042C373.911,163.706,350.594,164.056,342.177,172.529
						z"/>
					
						<path style="fill:#FFFFFF;stroke:#000000;stroke-width:1.4;stroke-linecap:round;stroke-linejoin:round;stroke-miterlimit:10;" d="
						M314.98,259.224c-4.358,4.387-5.672,11.844-2.23,16.98c2.609,3.893,7.338,5.898,11.986,6.498
						c5.721,0.737,11.859-0.477,16.303-4.155c4.444-3.679,6.814-10.025,4.994-15.5C342.243,251.643,322.211,251.944,314.98,259.224z
						"/>
				</g>
				
					<path style="fill:#FFFFFF;stroke:#000000;stroke-width:1.4;stroke-linecap:round;stroke-linejoin:round;stroke-miterlimit:10;" d="
					M436.559,181.467c-0.42-0.44-9.49-9.79-20.96-3.59c-11.75,6.35-7,20.49-7,20.49c-22,2-30.25-11-30.25-11
					c-19-1.25-28.25-10.17-28.25-10.17c-7.75,0.82-17-0.33-25-3.33c-14.25-3.75-7.5-22.25,0.94-28.15c8.44-5.9,19.88-2.6,23.31,0
					c3.43,2.6,24.5,1.9,30.87,4.23c6.38,2.34,10.88,3.17,23.13,7.92s20.25,11,24,13.66c1.99,1.41,5.03,3.67,7.82,7.72
					c0.01,0.01,0.01,0.01,0.02,0.02C435.659,179.947,436.119,180.677,436.559,181.467z"/>
				
					<path style="fill:#FFFFFF;stroke:#000000;stroke-width:1.4;stroke-linecap:round;stroke-linejoin:round;stroke-miterlimit:10;" d="
					M414.849,260.617c-34,19-77.75,27.5-83.25,27s-19-5.5-26-11.5c-1.35-1.16-2.56-2.48-3.57-4.11c7.7,7.11,34.55,6.86,83.19-17.64
					c48.63-24.5,41.38-35.68,38.63-39.34c-2.75-3.66-11-4.91-15.25-16.66s0.5-19.5,7-23s11.39-4.75,19.57,3.88
					c0.01,0.01,0.01,0.01,0.02,0.02c2.47,3.59,4.74,8.57,5.91,15.6c2.5,15,7.5,17,7.75,24S448.849,241.617,414.849,260.617z"/>
			</g>
			<g>
				<path style="fill:none;stroke:#000000;stroke-width:1.4;stroke-linecap:round;stroke-linejoin:round;stroke-miterlimit:10;" d="
					M410.678,218.373c-0.523,1.596-0.607,3.347,0.09,4.891c0.697,1.544,2.261,2.834,4.134,3.083
					c1.789,0.237,3.626-0.496,4.871-1.647c1.245-1.151,1.962-2.671,2.385-4.213C424.375,212.416,413.054,211.119,410.678,218.373z"
					/>
				<path style="fill:none;stroke:#000000;stroke-width:1.4;stroke-linecap:round;stroke-linejoin:round;stroke-miterlimit:10;" d="
					M414.088,219.351c-0.209,0.637-0.242,1.337,0.036,1.953c0.278,0.617,0.903,1.132,1.651,1.231
					c0.714,0.095,1.448-0.198,1.945-0.658c0.497-0.46,0.784-1.067,0.953-1.683C419.558,216.972,415.037,216.454,414.088,219.351z"/>
			</g>
			<g>
				<path style="fill:none;stroke:#000000;stroke-width:1.4;stroke-linecap:round;stroke-linejoin:round;stroke-miterlimit:10;" d="
					M371.45,200.139c-0.828,1.461-1.257,3.161-0.879,4.812c0.378,1.651,1.655,3.226,3.442,3.84c1.707,0.587,3.652,0.231,5.101-0.651
					c1.448-0.882,2.452-2.23,3.172-3.658C386.055,197.01,375.214,193.499,371.45,200.139z"/>
				<path style="fill:none;stroke:#000000;stroke-width:1.4;stroke-linecap:round;stroke-linejoin:round;stroke-miterlimit:10;" d="
					M374.599,201.772c-0.331,0.583-0.502,1.262-0.351,1.922c0.151,0.659,0.661,1.288,1.375,1.533
					c0.682,0.234,1.459,0.092,2.037-0.26c0.578-0.352,0.979-0.891,1.267-1.461C380.432,200.523,376.102,199.12,374.599,201.772z"/>
			</g>
			<g>
				<path style="fill:none;stroke:#000000;stroke-width:1.4;stroke-linecap:round;stroke-linejoin:round;stroke-miterlimit:10;" d="
					M356.038,250.077c-1.181,1.193-2.041,2.721-2.108,4.414c-0.068,1.692,0.754,3.546,2.317,4.607
					c1.494,1.013,3.465,1.179,5.093,0.707c1.628-0.472,2.95-1.511,4.019-2.7C370.953,250.879,361.409,244.653,356.038,250.077z"/>
				<path style="fill:none;stroke:#000000;stroke-width:1.4;stroke-linecap:round;stroke-linejoin:round;stroke-miterlimit:10;" d="
					M358.65,252.477c-0.472,0.477-0.815,1.087-0.842,1.763c-0.027,0.676,0.301,1.416,0.925,1.84
					c0.597,0.405,1.384,0.471,2.034,0.282c0.65-0.189,1.178-0.603,1.605-1.078C364.606,252.798,360.795,250.311,358.65,252.477z"/>
			</g>
			<g>
				<path style="fill:none;stroke:#000000;stroke-width:1.4;stroke-linecap:round;stroke-linejoin:round;stroke-miterlimit:10;" d="
					M322.645,180.6c-0.828,1.461-1.257,3.161-0.88,4.812c0.378,1.651,1.656,3.226,3.442,3.84c1.707,0.587,3.652,0.231,5.101-0.651
					s2.452-2.23,3.172-3.658C337.25,177.471,326.409,173.96,322.645,180.6z"/>
				<path style="fill:none;stroke:#000000;stroke-width:1.4;stroke-linecap:round;stroke-linejoin:round;stroke-miterlimit:10;" d="
					M325.794,182.233c-0.331,0.583-0.502,1.262-0.351,1.922c0.151,0.659,0.661,1.288,1.375,1.533
					c0.682,0.234,1.459,0.092,2.037-0.26c0.578-0.352,0.979-0.891,1.267-1.461C331.626,180.984,327.297,179.581,325.794,182.233z"/>
			</g>
			<g>
				<path style="fill:none;stroke:#000000;stroke-width:1.4;stroke-linecap:round;stroke-linejoin:round;stroke-miterlimit:10;" d="
					M310.007,238.488c-0.828,1.461-1.257,3.161-0.879,4.812c0.378,1.651,1.655,3.226,3.442,3.84
					c1.707,0.587,3.652,0.231,5.101-0.651c1.448-0.882,2.452-2.23,3.172-3.658C324.612,235.359,313.772,231.848,310.007,238.488z"/>
				<path style="fill:none;stroke:#000000;stroke-width:1.4;stroke-linecap:round;stroke-linejoin:round;stroke-miterlimit:10;" d="
					M313.156,240.121c-0.331,0.583-0.502,1.262-0.351,1.922c0.151,0.659,0.661,1.288,1.375,1.533
					c0.682,0.234,1.459,0.092,2.037-0.26c0.578-0.352,0.979-0.891,1.267-1.461C318.989,238.872,314.66,237.469,313.156,240.121z"/>
			</g>
		</g>
		<g>
			<g>
				<path style="fill:none;stroke:#000000;stroke-width:2;stroke-linecap:round;stroke-linejoin:round;stroke-miterlimit:10;" d="
					M329.25,212c0,0-2.361,4.204,0.941,7.012c3.302,2.808,6.986-0.019,6.986-0.019"/>
				<path style="fill:none;stroke:#000000;stroke-width:2;stroke-linecap:round;stroke-linejoin:round;stroke-miterlimit:10;" d="
					M355.683,229.317c0,0-2.361,4.204,0.941,7.012c3.302,2.808,6.985-0.019,6.985-0.019"/>
			</g>
			<path style="fill:none;stroke:#000000;stroke-width:1.4;stroke-linecap:round;stroke-linejoin:round;stroke-miterlimit:10;" d="
				M348.981,227.331c0,0-1.684,3.171-3.993,5.081c-1.255,1.051-2.692,1.721-4.15,1.309c-1.915-0.543-1.92-2.917-1.365-5.305
				c0.642-2.769,2.028-5.572,2.028-5.572S345.396,223.641,348.981,227.331z"/>
			<path style="fill:none;stroke:#000000;stroke-width:1.4;stroke-linecap:round;stroke-linejoin:round;stroke-miterlimit:10;" d="
				M344.988,232.412c-1.255,1.051-2.692,1.721-4.15,1.309c-1.915-0.543-1.92-2.917-1.365-5.305
				C341.408,228.896,343.788,229.972,344.988,232.412z"/>
			<g>
				<path style="fill:none;stroke:#000000;stroke-width:1.4;stroke-linecap:round;stroke-linejoin:round;stroke-miterlimit:10;" d="
					M320.372,217.6c1.608-2.663,8.173,1.807,6.187,4.187C324.574,224.167,318.764,220.263,320.372,217.6z"/>
				<path style="fill:none;stroke:#000000;stroke-width:1.4;stroke-linecap:round;stroke-linejoin:round;stroke-miterlimit:10;" d="
					M358.604,241.589c1.608-2.663,8.172,1.807,6.187,4.187C362.805,248.155,356.995,244.251,358.604,241.589z"/>
			</g>
		</g>
	</g>
	<g>
		<g>
			
				<path style="fill:#FFFFFF;stroke:#000000;stroke-width:1.4;stroke-linecap:round;stroke-linejoin:round;stroke-miterlimit:10;" d="
				M134.189,315.243c0,0,9,8.5,11,10.5c0,0-13,2.75-11,18.75s21,16,28.75,10.5s7.25-16.5,5.5-22.25c0,0,9,7.5,21.25-1
				s7.013-24.25-3.5-28.25c-9.651-3.672-18.5,2.75-22.5,8.25c0,0-8.5-9-11.75-13.25
				C151.939,298.493,135.189,294.743,134.189,315.243z"/>
			
				<path style="fill:#FFFFFF;stroke:#000000;stroke-width:1.4;stroke-linecap:round;stroke-linejoin:round;stroke-miterlimit:10;" d="
				M140.689,304.493c2.409-1.874,8.5,3.75,13.5,0s1-11.75,1.5-19s-0.75-43.25-16-63.961c-15.132-20.552-51.25-37.531-84.25-11.539
				c-28.526,22.469-26,74,4.25,94s52.75,10.25,61.25,11s12.551,5.953,16.651,1.727S138.439,306.243,140.689,304.493z"/>
			<g>
				<path style="fill:none;stroke:#000000;stroke-width:1.4;stroke-linecap:round;stroke-linejoin:round;stroke-miterlimit:10;" d="
					M82.939,205.434c5.644-4.775,23,5.949,19.5,12.505C98.939,224.493,74.439,212.624,82.939,205.434z"/>
				<path style="fill:none;stroke:#000000;stroke-width:1.4;stroke-linecap:round;stroke-linejoin:round;stroke-miterlimit:10;" d="
					M116.939,215.541c4-3.548,12.5,3.952,9,9.202C122.439,229.993,112.939,219.089,116.939,215.541z"/>
				<path style="fill:none;stroke:#000000;stroke-width:1.4;stroke-linecap:round;stroke-linejoin:round;stroke-miterlimit:10;" d="
					M133.98,247.243c8.116-1.679,18.709,19.25,9.959,25S125.521,248.993,133.98,247.243z"/>
				<path style="fill:none;stroke:#000000;stroke-width:1.4;stroke-linecap:round;stroke-linejoin:round;stroke-miterlimit:10;" d="
					M133.98,231.243c3.207-2.178,7.011,5.25,3.61,7.25S131.771,232.743,133.98,231.243z"/>
				<path style="fill:none;stroke:#000000;stroke-width:1.4;stroke-linecap:round;stroke-linejoin:round;stroke-miterlimit:10;" d="
					M67.435,211.901c0.853-3.782,8.706-0.958,7.59,2.826C73.908,218.511,66.847,214.506,67.435,211.901z"/>
			</g>
		</g>
		<g>
			<g>
				<path d="M67.773,250.81c3.194-5.119,11.162,5.216,8.155,8.764C72.922,263.121,65.118,255.065,67.773,250.81z"/>
				<path d="M99.69,224.986c3.194-5.119,11.162,5.216,8.155,8.764C104.839,237.297,97.035,229.241,99.69,224.986z"/>
			</g>
			<path style="fill:none;stroke:#000000;stroke-width:1.4;stroke-linecap:round;stroke-linejoin:round;stroke-miterlimit:10;" d="
				M83.689,249.413c0,0-1.25,6.46,5,5.52c6.25-0.94,3.341-8.94,3.341-8.94s6.909,2.25,8.409-3.5s-3.5-7.25-6.75-5.5"/>
			<g>
				<path style="fill:none;stroke:#000000;stroke-width:1.4;stroke-linecap:round;stroke-linejoin:round;stroke-miterlimit:10;" d="
					M69.266,271.996c-3.577-3.753,7.361-11.753,9.892-7.753C81.689,268.243,72.844,275.75,69.266,271.996z"/>
				<path style="fill:none;stroke:#000000;stroke-width:1.4;stroke-linecap:round;stroke-linejoin:round;stroke-miterlimit:10;" d="
					M111.16,236.239c-3.577-3.753,7.361-11.753,9.892-7.753C123.582,232.486,114.737,239.992,111.16,236.239z"/>
			</g>
		</g>
	</g>
	<g>
		<g>
			
				<path style="fill:#FFFFFF;stroke:#000000;stroke-width:1.4;stroke-linecap:round;stroke-linejoin:round;stroke-miterlimit:10;" d="
				M346.931,338.723c24.534-25.345,23.215-50.439,44.904-53.186c26.068-3.302,40.146,28.8,20.995,63.731
				c-19.151,34.931-52.735,59.711-82.482,67.706c-29.748,7.995-44.86-15.85-35.872-35.714
				C303.463,361.397,328.804,357.449,346.931,338.723z"/>
			
				<path style="fill:#FFFFFF;stroke:#000000;stroke-width:1.4;stroke-linecap:round;stroke-linejoin:round;stroke-miterlimit:10;" d="
				M330.136,412.635c-10.667,3.529-23.991-12.518-18.324-27.592c5.667-15.074,32-24.408,47.667-43.741
				c15.667-19.333,15.25-33.144,31.75-39.214c12.104-4.453,27.583,5.196,28.917,22.871
				C421.479,342.635,373.46,398.302,330.136,412.635z"/>
			
				<path style="fill:#FFFFFF;stroke:#000000;stroke-width:1.4;stroke-linecap:round;stroke-linejoin:round;stroke-miterlimit:10;" d="
				M377.879,364.302c25.174-27.069,23.266-53.333,45.933-56.667c27.243-4.006,42.667,29.333,23.333,66.333
				c-19.333,37-54,63.667-85,72.667s-47.333-15.667-38.333-36.667S359.28,384.302,377.879,364.302z"/>
			
				<path style="fill:#FFFFFF;stroke:#000000;stroke-width:1.4;stroke-linecap:round;stroke-linejoin:round;stroke-miterlimit:10;" d="
				M311.221,386.901c0,0-4.242-5.933,2.508-12.183s13.25-0.75,19.25,0s9.424-3.507,5.25-7.5c-4.174-3.993-7.75-4.55-4.75-10.15
				c3-5.6,11.032-6.686,15.891-5.518c4.859,1.168,10.359-0.832,8.859-2.832s-9.75-1.75-8.25-8.75s13.5-8.75,20-7.75
				s6.881-3.283,3.5-5c-3.381-1.717-8.5-6-3.5-12.5s30-7,31-2.75s-16.5,2.75-20.25,5.25s-3.565,3.5,3.717,7.25
				c7.283,3.75,4.033,12.5-2.467,14.75s-19.081-2.265-20.79-0.091c-1.71,2.174,11.04,5.591,8.79,13.841s-25.5,2-26.75,6.75
				s9.5,8,5.5,16.5s-16.484,6.5-23.492,4.25C318.229,378.219,313.212,379.584,311.221,386.901z"/>
		</g>
		<g>
			<g>
				<path style="fill:none;stroke:#000000;stroke-width:2;stroke-linecap:round;stroke-linejoin:round;stroke-miterlimit:10;" d="
					M382.979,417.469c0,0,1.5-13.25,16.75-9.75"/>
				<path style="fill:none;stroke:#000000;stroke-width:2;stroke-linecap:round;stroke-linejoin:round;stroke-miterlimit:10;" d="
					M423.729,377.924c0,0-3.25-12.206,8-16.956"/>
			</g>
			<path style="fill:none;stroke:#000000;stroke-width:1.4;stroke-linecap:round;stroke-linejoin:round;stroke-miterlimit:10;" d="
				M403.729,399.219c0,0,0,3.5,4.75,3s2-7.25,2-7.25s4.5,1.75,7.25-2.25s-0.75-6.134-3.25-5.817"/>
			<g>
				<path style="fill:none;stroke:#000000;stroke-width:1.4;stroke-linecap:round;stroke-linejoin:round;stroke-miterlimit:10;" d="
					M386.479,423.719c2.091,2.806-5.25,9-7.25,5.5C377.44,426.088,384.34,420.848,386.479,423.719z"/>
				<path style="fill:none;stroke:#000000;stroke-width:1.4;stroke-linecap:round;stroke-linejoin:round;stroke-miterlimit:10;" d="
					M441.875,358.919c2.356,2.588-4.342,9.472-6.675,6.185C433.112,362.164,439.465,356.272,441.875,358.919z"/>
			</g>
		</g>
	</g>
	<g>
		<g>
			
				<path style="fill:#FFFFFF;stroke:#000000;stroke-width:1.4;stroke-linecap:round;stroke-linejoin:round;stroke-miterlimit:10;" d="
				M232.991,373.72c0,0-12.075,56.001-8.221,59.2c3.854,3.199,10.562,2.153,13.596,0.871c3.034-1.281,9.084-58.038,9.084-58.038
				L232.991,373.72z"/>
			
				<path style="fill:#FFFFFF;stroke:#000000;stroke-width:1.4;stroke-linecap:round;stroke-linejoin:round;stroke-miterlimit:10;" d="
				M258.886,234.289c0.631,0.089,1.266,0.183,1.906,0.285c22.502,3.563,38.845,23.449,37.974,46.214
				c-0.646,16.897-3.095,39.287-9.855,64.89c-5.668,21.466-26.288,35.596-48.36,33.194c-0.532-0.058-1.067-0.118-1.604-0.181
				c-23.885-2.792-41.344-23.801-39.871-47.803c1.119-18.233,3.781-41.058,9.776-63.529
				C214.747,245.269,236.245,231.108,258.886,234.289z"/>
		</g>
		<g>
			<g>
				
					<path style="fill:none;stroke:#000000;stroke-width:2.2092;stroke-linecap:round;stroke-linejoin:round;stroke-miterlimit:10;" d="
					M221.908,276.831c0,0,11.599-7.869,18.779,5.939"/>
				
					<path style="fill:none;stroke:#000000;stroke-width:2.2092;stroke-linecap:round;stroke-linejoin:round;stroke-miterlimit:10;" d="
					M282.477,283.742c0,0-9.992-9.829-19.541,2.46"/>
			</g>
			
				<path style="fill:none;stroke:#000000;stroke-width:1.5465;stroke-linecap:round;stroke-linejoin:round;stroke-miterlimit:10;" d="
				M247.45,281.941c0,0-4.001,0.514-3.449,4.261c0.552,3.747,4.971,2.052,6.628,0c0,0,1.657,5.11,5.247,3.324
				c3.59-1.786,0-6.481,0-6.481"/>
			<g>
				
					<path style="fill:none;stroke:#000000;stroke-width:1.5465;stroke-linecap:round;stroke-linejoin:round;stroke-miterlimit:10;" d="
					M212.243,281.941c0.828-4.695,12.427-2.762,10.77,1.933C221.356,288.568,211.414,286.635,212.243,281.941z"/>
				
					<path style="fill:none;stroke:#000000;stroke-width:1.5465;stroke-linecap:round;stroke-linejoin:round;stroke-miterlimit:10;" d="
					M282.356,288.938c0.828-4.695,12.427-2.762,10.77,1.933C291.469,295.566,281.527,293.633,282.356,288.938z"/>
			</g>
		</g>
	</g>
	<g>
		<g>
			
				<path style="fill:#FFFFFF;stroke:#000000;stroke-width:1.4;stroke-linecap:round;stroke-linejoin:round;stroke-miterlimit:10;" d="
				M186.593,411.268c0,0-32.06-92.23-31.405-94.49c0.655-2.26,17.501-7.278,18.828-6.269c1.327,1.009,33.077,96.621,33.077,96.621
				L186.593,411.268z"/>
			
				<path style="fill:#FFFFFF;stroke:#000000;stroke-width:1.4;stroke-linecap:round;stroke-linejoin:round;stroke-miterlimit:10;" d="
				M165.343,429.832c0,0-45.75-106.564-44.75-108.814s15.5-7.75,16.75-7s46.75,104.541,46.75,104.541L165.343,429.832z"/>
			
				<path style="fill:#FFFFFF;stroke:#000000;stroke-width:1.4;stroke-linecap:round;stroke-linejoin:round;stroke-miterlimit:10;" d="
				M142.878,438.886c0,0-43.301-96.332-43.293-98.6c0.008-2.268,13.496-8.768,15.627-8.518c2.131,0.25,46.513,98.494,46.513,98.494
				L142.878,438.886z"/>
			
				<path style="fill:#FFFFFF;stroke:#000000;stroke-width:1.4;stroke-linecap:round;stroke-linejoin:round;stroke-miterlimit:10;" d="
				M124.789,438.886c0,0-48.077-86.715-48.285-88.631c-0.208-1.916,13.663-10.473,15.656-9.945
				c1.993,0.528,52.424,95.476,52.424,95.476L124.789,438.886z"/>
			
				<path style="fill:#FFFFFF;stroke:#000000;stroke-width:1.4;stroke-linecap:round;stroke-linejoin:round;stroke-miterlimit:10;" d="
				M101.093,425.268c0,0-27-52.351-26.25-54.676c0.75-2.324,11.973-7.824,13.737-7.074c1.763,0.75,35.763,69.609,35.763,69.609
				L101.093,425.268z"/>
			
				<path style="fill:#FFFFFF;stroke:#000000;stroke-width:1.4;stroke-linecap:round;stroke-linejoin:round;stroke-miterlimit:10;" d="
				M133.343,433.128c0,0-32.5-65.194-32.5-67.152c0-1.958,14.5-9.738,16.25-7.723c1.75,2.016,36.378,73.266,36.378,73.266
				L133.343,433.128z"/>
			
				<path style="fill:#FFFFFF;stroke:#000000;stroke-width:1.4;stroke-linecap:round;stroke-linejoin:round;stroke-miterlimit:10;" d="
				M161.725,426.575c0,0-38.882-77.222-39.132-78.514c-0.25-1.293,13.667-8.477,15.959-7.51
				c2.291,0.967,39.291,76.918,39.291,76.918S170.857,423.437,161.725,426.575z"/>
			
				<path style="fill:#FFFFFF;stroke:#000000;stroke-width:1.4;stroke-linecap:round;stroke-linejoin:round;stroke-miterlimit:10;" d="
				M183.593,415.518c0,0-30.291-81.201-30.122-82.25c0.168-1.049,16.651-7.5,17.762-6.5c1.111,1,30.861,80.362,30.861,80.362
				L183.593,415.518z"/>
		</g>
		
			<path style="fill:#FFFFFF;stroke:#000000;stroke-width:1.4;stroke-linecap:round;stroke-linejoin:round;stroke-miterlimit:10;" d="
			M97.538,423.373c2.439-2.272,7.342-6.176,14.449-8.71c2.972-1.06,6.268-0.248,8.553,1.929c5.354,5.099,17.498,13.304,35.553,6.296
			c18.882-7.329,22.81-23.384,23.602-30.802c0.291-2.723,1.863-5.132,4.256-6.464c4.177-2.324,11.273-5.504,19.891-6.303
			c1.909-0.177,3.673,1.041,4.25,2.87c2.467,7.826,8.872,29.988,11.991,58.086c0.763,6.878-2.525,13.589-8.469,17.132
			c-10.798,6.437-31.342,17.112-64.265,28.382c-6.5,2.225-13.711,0.508-18.464-4.452c-9.7-10.122-25.414-29.372-32.492-53.856
			C95.967,426.008,96.417,424.417,97.538,423.373z"/>
		<g>
			<g>
				<path d="M142.593,443.351c4.833-3.167,9.833,9.333,6.5,12.333S137.759,446.518,142.593,443.351z"/>
				<path d="M186.593,423.685c4.833-3.167,9.833,9.333,6.5,12.333S181.759,426.851,186.593,423.685z"/>
			</g>
			<path style="fill:none;stroke:#000000;stroke-width:1.4;stroke-linecap:round;stroke-linejoin:round;stroke-miterlimit:10;" d="
				M171.262,447.518c-2.76,1.62-5.17-0.12-6.92-2.33c-1.83-2.32-2.92-5.17-2.92-5.17s2.84-6.46,10.67-4.98c0,0,1.47,2.79,1.84,5.84
				C174.233,443.368,173.803,446.028,171.262,447.518z"/>
			<path style="fill:none;stroke:#000000;stroke-width:1.4;stroke-linecap:round;stroke-linejoin:round;stroke-miterlimit:10;" d="
				M171.262,447.518c-2.76,1.62-5.17-0.12-6.92-2.33c1.7-2.11,4.69-4.43,9.59-4.31C174.233,443.368,173.803,446.028,171.262,447.518
				z"/>
			<g>
				<path style="fill:none;stroke:#000000;stroke-width:1.4;stroke-linecap:round;stroke-linejoin:round;stroke-miterlimit:10;" d="
					M146.697,459.277c2.619,3.445-5.651,8.517-7.837,5.476C136.925,462.063,144.631,456.559,146.697,459.277z"/>
				<path style="fill:none;stroke:#000000;stroke-width:1.4;stroke-linecap:round;stroke-linejoin:round;stroke-miterlimit:10;" d="
					M204.035,434.037c2.274,3.683-6.449,7.931-8.33,4.692C194.04,435.864,202.241,431.132,204.035,434.037z"/>
			</g>
		</g>
	</g>
	<g>
		
			<path style="fill:#FFFFFF;stroke:#000000;stroke-width:1.4;stroke-linecap:round;stroke-linejoin:round;stroke-miterlimit:10;" d="
			M205.917,202.69l-21.585,20.07c0,0,29.436,2.406,29.358,2.603c-0.077,0.197,11.055,26.485,11.055,26.485l12.018-27.635
			c0,0,27.056-3.972,26.487-3.441c-0.569,0.531-21.327-19.688-21.327-19.688l4.925-26.323l-24.103,14.957l-24.553-14.454
			L205.917,202.69z"/>
		
			<path style="fill:#FFFFFF;stroke:#000000;stroke-width:1.4;stroke-linecap:round;stroke-linejoin:round;stroke-miterlimit:10;" d="
			M260.965,413.177l-28.902-3.868c0,0,16.67,23.998,16.471,24.062c-0.199,0.065-13.28,25.098-13.28,25.098l28.666-8.196
			c0,0,20.046,18.169,19.283,18.068c-0.763-0.101,1.628-28.67,1.628-28.67l23.203-12.789l-26.58-9.006l-4.397-27.843
			L260.965,413.177z"/>
		
			<path style="fill:#FFFFFF;stroke:#000000;stroke-width:1.4;stroke-linecap:round;stroke-linejoin:round;stroke-miterlimit:10;" d="
			M425.259,413.242l-30.702,9.004c0,0,27.41,16.631,27.239,16.784c-0.171,0.154-2.129,31.082-2.129,31.082l25.088-20.994
			c0,0,28.197,9.282,27.387,9.521c-0.81,0.239-11.146-29.471-11.146-29.471l17.564-23.164l-30.664,2.817l-16.818-25.957
			L425.259,413.242z"/>
		
			<path style="fill:#FFFFFF;stroke:#000000;stroke-width:1.4;stroke-linecap:round;stroke-linejoin:round;stroke-miterlimit:10;" d="
			M72.084,429.224l-22.135-2.962c0,0,12.767,18.379,12.615,18.428c-0.153,0.05-10.171,19.221-10.171,19.221l21.954-6.277
			c0,0,15.353,13.915,14.768,13.838c-0.584-0.077,1.247-21.957,1.247-21.957l17.77-9.795l-20.357-6.897l-3.368-21.324
			L72.084,429.224z"/>
		
			<path style="fill:#FFFFFF;stroke:#000000;stroke-width:1.4;stroke-linecap:round;stroke-linejoin:round;stroke-miterlimit:10;" d="
			M392.952,130.083l-19.989-9.959c0,0,6.141,21.519,5.98,21.517c-0.16-0.002-15.838,14.901-15.838,14.901l22.805,1.157
			c0,0,10.03,18.131,9.502,17.869c-0.528-0.262,8.278-20.375,8.278-20.375l19.983-3.524l-17.034-13.108l3.707-21.268
			L392.952,130.083z"/>
		
			<path style="fill:#FFFFFF;stroke:#000000;stroke-width:1.4;stroke-linecap:round;stroke-linejoin:round;stroke-miterlimit:10;" d="
			M400.364,60.957l-9.262-4.615c0,0,2.845,9.971,2.771,9.97c-0.074-0.001-7.339,6.905-7.339,6.905l10.567,0.536
			c0,0,4.648,8.401,4.403,8.28c-0.245-0.121,3.836-9.441,3.836-9.441l9.259-1.633l-7.893-6.074l1.717-9.855L400.364,60.957z"/>
		
			<path style="fill:#FFFFFF;stroke:#000000;stroke-width:1.4;stroke-linecap:round;stroke-linejoin:round;stroke-miterlimit:10;" d="
			M281.873,182.686l-10.01,2.623c0,0,8.706,5.634,8.649,5.682c-0.057,0.048-0.98,10.029-0.98,10.029l8.308-6.552
			c0,0,9.029,3.266,8.765,3.335c-0.264,0.07-3.327-9.633-3.327-9.633l5.896-7.324l-9.94,0.623l-5.194-8.55L281.873,182.686z"/>
		
			<path style="fill:#FFFFFF;stroke:#000000;stroke-width:1.4;stroke-linecap:round;stroke-linejoin:round;stroke-miterlimit:10;" d="
			M235.611,62.759l-10.01,2.623c0,0,8.705,5.634,8.649,5.682c-0.057,0.048-0.98,10.029-0.98,10.029l8.308-6.552
			c0,0,9.029,3.266,8.765,3.335c-0.264,0.07-3.327-9.633-3.327-9.633l5.896-7.324l-9.94,0.623l-5.194-8.55L235.611,62.759z"/>
		
			<path style="fill:#FFFFFF;stroke:#000000;stroke-width:1.4;stroke-linecap:round;stroke-linejoin:round;stroke-miterlimit:10;" d="
			M86.928,168.478l-9.349,4.436c0,0,9.6,3.919,9.554,3.977c-0.047,0.058,0.899,10.036,0.899,10.036l6.947-7.981
			c0,0,9.478,1.532,9.232,1.65c-0.247,0.117-5.058-8.847-5.058-8.847l4.433-8.292l-9.652,2.458l-6.691-7.437L86.928,168.478z"/>
		
			<path style="fill:#FFFFFF;stroke:#000000;stroke-width:1.4;stroke-linecap:round;stroke-linejoin:round;stroke-miterlimit:10;" d="
			M413.439,257.321l-12.342,2.294c0,0,10.038,7.581,9.965,7.634c-0.073,0.053-2.066,12.048-2.066,12.048l10.627-7.197
			c0,0,10.637,4.744,10.311,4.805c-0.326,0.061-3.179-11.946-3.179-11.946l7.777-8.344l-12.081-0.119l-5.533-10.8L413.439,257.321z"
			/>
		
			<path style="fill:#FFFFFF;stroke:#000000;stroke-width:1.4;stroke-linecap:round;stroke-linejoin:round;stroke-miterlimit:10;" d="
			M313.357,326.217l-7.638-1.045c0,0,4.389,6.358,4.336,6.374c-0.053,0.017-3.53,6.625-3.53,6.625l7.585-2.145
			c0,0,5.286,4.819,5.084,4.792c-0.202-0.027,0.453-7.579,0.453-7.579l6.145-3.363l-7.021-2.402l-1.141-7.365L313.357,326.217z"/>
		
			<path style="fill:#FFFFFF;stroke:#000000;stroke-width:1.4;stroke-linecap:round;stroke-linejoin:round;stroke-miterlimit:10;" d="
			M179.804,247.414l-12.246,2.987c0,0,10.486,7.042,10.416,7.1c-0.07,0.057-1.402,12.194-1.402,12.194l10.255-7.807
			c0,0,10.929,4.165,10.606,4.244c-0.323,0.079-3.852-11.801-3.852-11.801l7.333-8.798l-12.119,0.552l-6.148-10.52L179.804,247.414z
			"/>
		
			<path style="fill:#FFFFFF;stroke:#000000;stroke-width:1.4;stroke-linecap:round;stroke-linejoin:round;stroke-miterlimit:10;" d="
			M127.64,44.799l-5.347-0.802c0,0,3.02,4.498,2.983,4.509c-0.037,0.011-2.535,4.614-2.535,4.614l5.338-1.436
			c0,0,3.663,3.427,3.522,3.406c-0.141-0.021,0.386-5.31,0.386-5.31l4.339-2.303l-4.901-1.747l-0.734-5.175L127.64,44.799z"/>
		
			<path style="fill:#FFFFFF;stroke:#000000;stroke-width:1.4;stroke-linecap:round;stroke-linejoin:round;stroke-miterlimit:10;" d="
			M74.679,329.539l-4.986,2.091c0,0,4.916,2.276,4.89,2.305c-0.026,0.029,0.228,5.26,0.228,5.26l3.817-3.998
			c0,0,4.91,1.028,4.778,1.083c-0.131,0.055-2.427-4.739-2.427-4.739l2.513-4.221l-5.096,1.051l-3.313-4.042L74.679,329.539z"/>
		
			<path style="fill:#FFFFFF;stroke:#000000;stroke-width:1.4;stroke-linecap:round;stroke-linejoin:round;stroke-miterlimit:10;" d="
			M452.188,146.531l-5.338-0.861c0,0,2.97,4.531,2.933,4.542c-0.037,0.011-2.587,4.586-2.587,4.586l5.354-1.376
			c0,0,3.625,3.468,3.484,3.445c-0.141-0.023,0.445-5.306,0.445-5.306l4.364-2.255l-4.882-1.802l-0.676-5.182L452.188,146.531z"/>
		
			<path style="fill:#FFFFFF;stroke:#000000;stroke-width:1.4;stroke-linecap:round;stroke-linejoin:round;stroke-miterlimit:10;" d="
			M219.801,463.168l-5.124,1.725c0,0,4.739,2.626,4.711,2.653c-0.028,0.027-0.152,5.262-0.152,5.262l4.096-3.712
			c0,0,4.823,1.38,4.688,1.425c-0.135,0.046-2.078-4.902-2.078-4.902l2.811-4.028l-5.159,0.68L220.581,458L219.801,463.168z"/>
		
			<path style="fill:#FFFFFF;stroke:#000000;stroke-width:1.4;stroke-linecap:round;stroke-linejoin:round;stroke-miterlimit:10;" d="
			M311.411,455.125l-7.331,2.388c0,0,6.721,3.81,6.68,3.848c-0.04,0.038-0.291,7.501-0.291,7.501l5.893-5.236
			c0,0,6.858,2.035,6.664,2.098c-0.193,0.063-2.895-7.019-2.895-7.019l4.065-5.705l-7.366,0.897l-4.236-6.132L311.411,455.125z"/>
		
			<path style="fill:#FFFFFF;stroke:#000000;stroke-width:1.4;stroke-linecap:round;stroke-linejoin:round;stroke-miterlimit:10;" d="
			M41.453,315.21l-11.134,0.064c0,0,7.572,8.194,7.5,8.229c-0.072,0.035-3.696,10.192-3.696,10.192l10.407-4.614
			c0,0,8.541,5.812,8.247,5.814c-0.294,0.002-0.899-10.928-0.899-10.928l8.099-6.062l-10.527-2.001l-3.134-10.297L41.453,315.21z"/>
		
			<path style="fill:#FFFFFF;stroke:#000000;stroke-width:1.4;stroke-linecap:round;stroke-linejoin:round;stroke-miterlimit:10;" d="
			M466.127,375.054l-7.638-1.045c0,0,4.389,6.358,4.336,6.375c-0.053,0.017-3.53,6.625-3.53,6.625l7.585-2.145
			c0,0,5.286,4.819,5.084,4.792c-0.202-0.027,0.453-7.579,0.453-7.579l6.145-3.363l-7.021-2.402l-1.141-7.365L466.127,375.054z"/>
		
			<path style="fill:#FFFFFF;stroke:#000000;stroke-width:1.4;stroke-linecap:round;stroke-linejoin:round;stroke-miterlimit:10;" d="
			M84.2,58.143l-27.404-1.396c0,0,17.487,21.219,17.305,21.295c-0.182,0.076-10.516,24.563-10.516,24.563l26.251-9.9
			c0,0,20.203,15.492,19.48,15.456c-0.723-0.036-0.687-27.014-0.687-27.014l20.774-13.786l-25.624-6.394l-6.274-25.773L84.2,58.143z
			"/>
	</g>
	<g>
		
			<path style="fill:#FFFFFF;stroke:#000000;stroke-width:1.4;stroke-linecap:round;stroke-linejoin:round;stroke-miterlimit:10;" d="
			M205.068,54.167c0,0-17.295-2.384-20.302-10.624c-3.007-8.24,5.122-13.24,14.224-5.573c0,0-1.613-10.333,6.078-11
			C212.759,26.303,217.377,38.698,205.068,54.167z"/>
		
			<path style="fill:#FFFFFF;stroke:#000000;stroke-width:1.4;stroke-linecap:round;stroke-linejoin:round;stroke-miterlimit:10;" d="
			M46.457,184.52c0,0-11.371-1.568-13.349-6.985c-1.977-5.418,3.368-8.705,9.352-3.664c0,0-1.06-6.794,3.996-7.232
			C51.514,166.199,54.55,174.349,46.457,184.52z"/>
		
			<path style="fill:#FFFFFF;stroke:#000000;stroke-width:1.4;stroke-linecap:round;stroke-linejoin:round;stroke-miterlimit:10;" d="
			M460.936,190.796c0,0-9.58-6.323-9.025-12.064c0.556-5.74,6.796-6.398,10.018,0.732c0,0,1.977-6.586,6.727-4.799
			C473.406,176.453,472.627,185.115,460.936,190.796z"/>
		
			<path style="fill:#FFFFFF;stroke:#000000;stroke-width:1.4;stroke-linecap:round;stroke-linejoin:round;stroke-miterlimit:10;" d="
			M162.932,226.522c0,0-9.58-6.323-9.025-12.064c0.556-5.74,6.796-6.398,10.018,0.732c0,0,1.977-6.586,6.727-4.798
			C175.402,212.18,174.623,220.841,162.932,226.522z"/>
		
			<path style="fill:#FFFFFF;stroke:#000000;stroke-width:1.4;stroke-linecap:round;stroke-linejoin:round;stroke-miterlimit:10;" d="
			M287.757,226.574c0,0-11.456,0.719-14.469-4.199c-3.012-4.918,1.574-9.2,8.44-5.447c0,0-2.387-6.449,2.482-7.881
			C289.079,207.615,293.672,215,287.757,226.574z"/>
		
			<path style="fill:#FFFFFF;stroke:#000000;stroke-width:1.4;stroke-linecap:round;stroke-linejoin:round;stroke-miterlimit:10;" d="
			M184.894,298.945c0,0-6.979-4.667-6.547-8.863c0.432-4.196,4.999-4.65,7.324,0.58c0,0,1.475-4.808,4.941-3.48
			C194.078,288.511,193.47,294.842,184.894,298.945z"/>
		
			<path style="fill:#FFFFFF;stroke:#000000;stroke-width:1.4;stroke-linecap:round;stroke-linejoin:round;stroke-miterlimit:10;" d="
			M249.269,173.577c0,0-4.789-6.896-2.852-10.644c1.936-3.747,6.353-2.499,6.604,3.218c0,0,3.131-3.936,5.872-1.432
			C261.633,167.225,258.751,172.895,249.269,173.577z"/>
		
			<path style="fill:#FFFFFF;stroke:#000000;stroke-width:1.4;stroke-linecap:round;stroke-linejoin:round;stroke-miterlimit:10;" d="
			M400.696,111.763c0,0-7.973-2.631-8.679-6.789c-0.706-4.159,3.573-5.817,7.212-1.4c0,0,0.135-5.028,3.831-4.675
			C406.755,99.252,407.862,105.516,400.696,111.763z"/>
		
			<path style="fill:#FFFFFF;stroke:#000000;stroke-width:1.4;stroke-linecap:round;stroke-linejoin:round;stroke-miterlimit:10;" d="
			M393.026,464.748c0,0-8.394-7.83-6.891-13.397c1.503-5.568,7.766-5.178,9.756,2.389c0,0,3.045-6.165,7.432-3.612
			C407.709,452.682,405.499,461.093,393.026,464.748z"/>
		
			<path style="fill:#FFFFFF;stroke:#000000;stroke-width:1.4;stroke-linecap:round;stroke-linejoin:round;stroke-miterlimit:10;" d="
			M333.515,323.84c0,0-12.883-11.783-10.68-20.273c2.203-8.49,11.734-7.99,14.873,3.489c0,0,4.54-9.422,11.249-5.604
			C355.667,305.27,352.43,318.095,333.515,323.84z"/>
		
			<path style="fill:#FFFFFF;stroke:#000000;stroke-width:1.4;stroke-linecap:round;stroke-linejoin:round;stroke-miterlimit:10;" d="
			M53.339,408.693c0,0-17.214-2.914-19.966-11.242c-2.753-8.328,5.526-13.076,14.388-5.134c0,0-1.295-10.378,6.413-10.808
			C61.882,381.078,66.118,393.609,53.339,408.693z"/>
		
			<path style="fill:#FFFFFF;stroke:#000000;stroke-width:1.4;stroke-linecap:round;stroke-linejoin:round;stroke-miterlimit:10;" d="
			M73.814,155.933c0,0-26.22-3.615-30.778-16.106c-4.559-12.492,7.764-20.072,21.564-8.449c0,0-2.445-15.665,9.214-16.676
			C85.474,113.691,92.475,132.482,73.814,155.933z"/>
		
			<path style="fill:#FFFFFF;stroke:#000000;stroke-width:1.4;stroke-linecap:round;stroke-linejoin:round;stroke-miterlimit:10;" d="
			M470.518,304.212c0,0-26.327,2.723-33.725-8.326c-7.398-11.049,2.769-21.342,18.936-13.334c0,0-6.1-14.635,4.985-18.389
			C471.798,260.409,483.067,276.996,470.518,304.212z"/>
		
			<path style="fill:#FFFFFF;stroke:#000000;stroke-width:1.4;stroke-linecap:round;stroke-linejoin:round;stroke-miterlimit:10;" d="
			M431.55,116.374c0,0-21.555-23.808-16.051-38.976s22.871-12.604,26.635,8.963c0,0,9.944-16.47,21.571-8.316
			C475.332,86.198,467.187,109.126,431.55,116.374z"/>
	</g>
</g>
</svg>
