<?xml version="1.0" encoding="utf-8"?>
<!-- Generator: Adobe Illustrator 27.5.0, SVG Export Plug-In . SVG Version: 6.00 Build 0)  -->
<svg version="1.1" xmlns="http://www.w3.org/2000/svg" xmlns:xlink="http://www.w3.org/1999/xlink" x="0px" y="0px"
	 viewBox="0 0 500 500" style="enable-background:new 0 0 500 500;" xml:space="preserve">
<g id="BACKGROUND">
	<g>
		<rect style="fill:#FFFFFF;" width="500" height="500"/>
	</g>
</g>
<g id="OBJECTS">
	<g>
		<path style="fill:#222221;" d="M299.441,222.27c6.767,0.199,12.456-6.542,12.705-15.056c0.25-8.513-5.034-15.576-11.801-15.775
			c-6.767-0.199-12.456,6.542-12.705,15.056C287.39,215.009,292.674,222.072,299.441,222.27z M302.637,205.631
			c3.226,0.095,5.764,2.786,5.67,6.012c-0.095,3.226-2.786,5.764-6.012,5.67c-3.226-0.095-5.764-2.786-5.669-6.012
			C296.72,208.075,299.412,205.536,302.637,205.631z M295.764,196.577c2.274,0.067,4.063,1.964,3.996,4.238
			c-0.067,2.274-1.964,4.063-4.238,3.996c-2.274-0.067-4.063-1.964-3.996-4.238C291.593,198.299,293.49,196.51,295.764,196.577z"/>
		<path style="fill:#222221;" d="M355.318,226.73c7.386,0.217,13.594-7.14,13.867-16.432c0.273-9.292-5.494-17-12.879-17.216
			c-7.386-0.217-13.594,7.14-13.867,16.432C342.166,218.805,347.932,226.513,355.318,226.73z M358.807,208.57
			c3.521,0.103,6.291,3.041,6.188,6.562c-0.103,3.521-3.041,6.291-6.562,6.188c-3.521-0.103-6.291-3.041-6.188-6.562
			C352.348,211.237,355.286,208.467,358.807,208.57z M351.305,198.688c2.482,0.073,4.434,2.144,4.361,4.625
			c-0.073,2.482-2.143,4.434-4.625,4.361s-4.434-2.143-4.361-4.625C346.753,200.568,348.824,198.615,351.305,198.688z"/>
		<path style="fill:#222221;" d="M330.877,222.027c-4.251,3.888-8.592,1.925-9.445,1.475c-2.545-1.407-5.756-0.509-7.196,2.026
			c-1.452,2.553-0.56,5.8,1.994,7.252c1.983,1.128,5.071,2.189,8.627,2.257c4.104,0.079,8.833-1.167,13.199-5.161
			c2.167-1.983,2.317-5.346,0.334-7.514C336.408,220.194,333.044,220.044,330.877,222.027z M324.888,233.543
			c-1.873-0.036-3.6-0.391-5.051-0.881c0.588-1.392,2.602-4.812,7.563-2.67c0,0,3.222-5.295,8.596-0.62
			C332.302,232.595,328.345,233.609,324.888,233.543z"/>
		<path style="fill:#222221;" d="M403.868,195.039c14.712-13.702,20.019-29.129,15.772-45.858
			c-5.615-22.145-26.044-37.555-49.737-37.555c-0.086,0-0.175,0-0.261,0c-19.711,0.096-31.624,9.473-38.634,18.911l-0.517-10.289
			l0,0l-0.039-0.777l-0.274-5.46l-0.232-4.621l0,0l-0.348-6.916c0,0,0,0,0,0l-0.275-5.46l0,0l-0.171-3.411c0,0,0,0,0,0
			c-0.139-2.765-3.61-4.622-8.637-4.622c-0.323,0-0.651,0.008-0.984,0.025c-6.435,0.323-9.233,3.098-9.111,5.539l0,0l0,0
			l0.933,18.565c0,0,0,0,0,0l0.275,5.46v0l0.541,10.761l0,0l0.039,0.777l0.274,5.46l0.023,0.466l0.355,7.059l-1.635-2.053v0
			l-0.485-0.609l-0.359-0.451l-9.987-12.54l-0.252-0.317l-3.406-4.277l-0.215-0.27l-12.515-15.714c0,0,0,0,0-0.001
			c-0.486-0.61-1.418-1.337-3.099-1.337c-2.109,0-4.874,1.2-7.397,3.209c-1.756,1.399-3.192,3.034-4.042,4.604
			c-1.507,2.782-0.729,4.457-0.132,5.208l11.58,14.541c0,0,0,0,0,0l3.406,4.277h0l11.91,14.955l1.551,1.947
			c-2.743,1.394-5.404,2.947-7.952,4.687c-15.151,10.349-24.748,25.514-27.023,42.7c-1.609,12.155,0.627,24.466,6.468,35.671
			c-1.376,0.642-2.638,1.379-3.762,2.2c-5.355,3.909-7.845,10.368-6.495,16.857c1.409,6.775,6.509,11.931,13.311,13.454
			c1.41,0.316,2.79,0.505,4.121,0.608l21.286,106.992c0.442,2.225,2.103,3.867,4.332,4.287c0.355,0.067,0.708,0.1,1.056,0.1
			c1.834,0,3.513-0.911,4.54-2.519l60.648-94.93c3.73,0.399,6.976-0.077,9.519-0.798c6.766-1.919,11.494-7.706,11.768-14.4
			c0.165-4.06-1.212-7.747-4.097-10.975c11.318-9.96,18.576-23.273,20.472-37.599c1.14-8.614,0.317-17.084-2.127-25.054
			c0.004-0.09,0.018-0.179,0.021-0.27C403.87,195.197,403.87,195.118,403.868,195.039z M404.094,220.351
			c-1.903,14.38-9.018,27.193-20.574,37.056l-0.775,0.662l0.717,0.726c2.971,3.011,4.398,6.476,4.242,10.301
			c-0.239,5.874-4.414,10.958-10.389,12.652c-4.867,1.383-12.513,1.809-21.273-4.002l-1.64-1.085l0.17,1.96
			c0.031,0.352,0.661,8.692-7.051,13.285c-4.262,2.539-9.675,2.868-14.487,0.885c-4.235-1.747-9.663-5.487-11.466-13.387
			l-0.693-3.034l-1.118,2.906c-0.151,0.395-3.854,9.667-15.912,9.686c-0.008,0-0.016,0-0.024,0c-5.791,0-10.953-3.27-13.155-8.334
			c-1.642-3.777-1.851-7.954-0.621-12.415l0.49-1.782l-1.734,0.641c-0.076,0.027-7.685,2.782-16.056,0.909
			c-6.065-1.358-10.611-5.952-11.867-11.989c-1.214-5.837,0.938-11.421,5.757-14.938c1.259-0.919,2.714-1.727,4.325-2.402
			l0.967-0.405l-0.499-0.921c-6.007-11.091-8.337-23.341-6.737-35.425c2.203-16.645,11.512-31.341,26.212-41.382
			c9.238-6.31,19.906-10.306,31.175-11.803l-0.023,0.076l1.422-0.147c12.366-1.28,22.927,0.3,31.155,2.658
			c0.607,0.18,1.219,0.35,1.819,0.544c0.042,0.013,0.081,0.027,0.123,0.04c5.822,1.891,11.268,4.441,16.262,7.519
			c-3.806,2.612-6.392,6.636-7.515,11.742c-0.891,4.083,0.121,8.29,2.776,11.543c2.288,2.803,5.513,4.551,9.03,4.942
			c-1.169,2.071-1.815,4.395-1.887,6.807c-0.114,3.891,1.266,7.594,3.884,10.427c2.624,2.837,6.177,4.462,10.003,4.574
			c0.142,0.004,0.283,0.006,0.424,0.006c3.672,0,7.148-1.406,9.831-3.986c1.666-1.602,2.895-3.547,3.646-5.681
			C404.594,206.402,405.024,213.327,404.094,220.351z M302.421,379.856c-1.139-0.215-2.478-1.061-2.822-2.794l-1.8-9.046
			l10.527,6.726l-2.261,3.538C305.114,379.769,303.556,380.064,302.421,379.856z M338.468,327.562l-12.201-7.795l8.684-13.594
			l12.201,7.795L338.468,327.562z M309.348,373.142l-12.062-7.706l-0.047-0.234l8.592-13.449l12.201,7.795L309.348,373.142z
			 M285.957,308.493l5.547-8.682l15.271,9.756l-8.685,13.594l-10.557-6.745L285.957,308.493z M280.316,280.139l4.024-6.299
			l3.132,2.001c0.202,1.916,0.681,3.768,1.453,5.544c1.453,3.342,4.036,5.99,7.225,7.629l-5.224,8.176l-8.269-5.283L280.316,280.139
			z M287.818,269.36c-0.29,1.416-0.43,2.804-0.446,4.164l-2.009-1.284l1.72-2.692C287.344,269.484,287.594,269.421,287.818,269.36z
			 M283.763,271.219l-1.35-0.862c0.739-0.077,1.433-0.173,2.08-0.28L283.763,271.219z M309.396,308.99l8.685-13.594l15.271,9.756
			l-8.685,13.594L309.396,308.99z M323.645,320.345l-8.685,13.594l-15.271-9.756l8.685-13.594L323.645,320.345z M319.102,293.797
			l4.029-6.307c2.667,3.677,6.192,5.823,9.18,7.055c2.232,0.921,4.584,1.382,6.914,1.413l-4.852,7.595L319.102,293.797z
			 M317.503,292.775l-5.501-3.515c4.407-1.884,7.026-5.023,8.368-7.132c0.451,1.325,1.002,2.526,1.626,3.615L317.503,292.775z
			 M316.482,294.374l-8.685,13.594l-15.271-9.756l5.377-8.416c1.847,0.691,3.847,1.065,5.918,1.065c0.009,0,0.018,0,0.028-0.001
			c2.205-0.003,4.15-0.308,5.881-0.798L316.482,294.374z M289.905,298.789l-4.482,7.016l-2.252-11.318L289.905,298.789z
			 M297.069,324.761l-6.005,9.4l-3.017-15.163L297.069,324.761z M298.668,325.782l15.271,9.756l-8.685,13.594l-12.844-8.206
			l-0.811-4.078L298.668,325.782z M304.232,350.731l-7.528,11.783l-3.782-19.008L304.232,350.731z M306.853,350.154l8.685-13.593
			l12.201,7.795l-8.685,13.593L306.853,350.154z M316.56,334.961l8.685-13.594l12.201,7.795l-8.685,13.594L316.56,334.961z
			 M348.174,312.37l-12.201-7.795l5.576-8.728c2.451-0.279,4.823-1.047,6.943-2.309c0.029-0.017,0.054-0.036,0.083-0.054
			l8.284,5.292L348.174,312.37z M279.17,270.537l3.571,2.281l-2.96,4.633l-1.376-6.916
			C278.664,270.539,278.918,270.539,279.17,270.537z M350.267,292.312c5.005-3.898,6.03-9.281,6.197-12.057
			c3.472,2.074,6.767,3.237,9.794,3.809l-8.377,13.112L350.267,292.312z M279.833,116.673c1.02-0.813,1.853-1.619,2.532-2.406
			l-1.648,15.522l-7.909-9.931C274.863,119.731,277.451,118.569,279.833,116.673z M284.65,110.715l3.406,4.277l-2.249,21.189
			l-3.406-4.277L284.65,110.715z M287.693,136.38l2.046-19.275l3.829,4.809l-0.203,1.914l-2.046,19.275l-4.342-5.452
			C287.367,137.34,287.639,136.895,287.693,136.38z M296.409,149.494l-3.406-4.277l2.25-21.189l3.406,4.277L296.409,149.494z
			 M298.296,149.694l2.046-19.275l3.825,4.802l-0.203,1.914l-1.591,14.989c-0.959,0.406-1.907,0.836-2.847,1.282l-1.432-1.799
			L298.296,149.694z M308.379,149.876c-1.354,0.439-2.689,0.925-4.013,1.44l1.484-13.98l3.406,4.277L308.379,149.876z
			 M319.994,147.12c-1.151,0.181-2.295,0.388-3.432,0.62l-1.068-1.341l13.642-15.303l0.099,1.979
			c-2.144,3.269-3.731,6.444-4.866,9.135L319.994,147.12z M313.523,118.473l-0.275-5.46l14.179-15.905l0.274,5.46L313.523,118.473z
			 M319.056,99.166c0.323,0,0.652-0.008,0.985-0.025c1.227-0.062,2.406-0.245,3.494-0.517l-10.421,11.69l-0.637-12.678
			C314.003,98.602,316.292,99.166,319.056,99.166z M328.557,119.566l-14.179,15.905l-0.275-5.46l14.179-15.905L328.557,119.566z
			 M326.866,112.843l-12.898,14.469l-0.349-6.951c0.497-0.025,0.977-0.238,1.322-0.625l12.898-14.469l0.309,6.139L326.866,112.843z
			 M327.256,93.697c0.088,1.757-3.18,3.341-7.311,3.549c-0.301,0.015-0.598,0.023-0.89,0.023c-3.714,0-6.658-1.192-6.74-2.82
			c-0.088-1.749,3.188-3.342,7.311-3.549c0.3-0.015,0.597-0.022,0.888-0.022C324.236,90.877,327.175,92.075,327.256,93.697z
			 M315.794,136.734l12.898-14.469l0.308,6.132l-1.281,1.437l-12.898,14.469l-0.308-6.132L315.794,136.734z M314.488,148.182
			c-1.393,0.325-2.771,0.698-4.138,1.1l0.59-5.556L314.488,148.182z M280.908,107.421c0.715,0,1.279,0.2,1.615,0.622
			c1.096,1.376-0.636,4.569-3.872,7.145c-2.236,1.781-4.605,2.798-6.214,2.798c-0.715,0-1.279-0.2-1.616-0.623
			c-1.091-1.37,0.642-4.574,3.872-7.145C276.932,108.434,279.3,107.421,280.908,107.421z M402.265,193.939l-0.313,0.287l0.014,0.674
			c0.004,0.107,0.009,0.215,0.006,0.323c-0.1,3.392-1.487,6.542-3.907,8.869c-2.414,2.323-5.523,3.548-8.884,3.451
			c-3.313-0.097-6.391-1.505-8.665-3.966c-2.279-2.466-3.48-5.691-3.381-9.083c0.076-2.599,0.92-5.079,2.44-7.171l1.112-1.531
			l-1.893,0.025c-0.052,0.001-0.104,0.001-0.156,0.001c-3.523,0-6.823-1.572-9.073-4.328c-2.287-2.801-3.159-6.424-2.393-9.937
			c1.147-5.22,3.82-9.034,7.942-11.338l1.266-0.708l-1.155-0.876c-0.206-0.156-5.143-3.86-14.044-7.201
			c-7.951-2.983-20.651-6.184-36.459-4.81c3.139-9.28,14.178-32.944,44.93-33.095c0.084-0.001,0.167-0.001,0.251-0.001
			c22.821,0,42.497,14.824,47.897,36.124C421.894,165.77,416.666,180.672,402.265,193.939z"/>
	</g>
	<g>
		<path style="fill:#222221;" d="M264.142,284.814l-18.564-60.875c0.317-1.289,0.303-2.652-0.088-3.979l-14.04-47.83
			c-1.052-3.832-2.482-7.5-4.238-10.966c-3.452-6.821-8.196-12.829-13.923-17.68c-3.347-2.837-7.019-5.29-10.982-7.257
			c-2.904-1.436-5.887-2.586-8.938-3.476c-7.137-2.087-14.666-2.68-22.524-1.772c-0.163,0.017-0.326,0.043-0.489,0.061
			c-0.535,0.066-1.069,0.126-1.607,0.206c-0.144,0.021-0.288,0.034-0.433,0.055c-0.457,0.069-0.916,0.142-1.376,0.218
			c-2.069,0.34-4.102,0.806-6.097,1.375c-0.131,0.035-0.26,0.063-0.392,0.098c-0.131,0.032-2.619,0.653-6.335,2.19
			c-0.015,0.006-0.028,0.011-0.042,0.017c0,0-0.413,0.161-1.122,0.477c-0.682,0.298-1.394,0.621-2.137,0.978l-23.62,10.286
			c-21.781,9.485-36.202,30.714-36.737,54.084c-0.162,7.075,0.801,14.442,2.881,21.952l17.407,50.462
			c0.577,1.673,1.735,3.058,3.214,3.963l19.058,55.301c1.217,3.531,4.538,5.757,8.081,5.757c0.917,0,1.849-0.149,2.763-0.463
			l20.032-6.873l7.563-2.85c0.004-0.001,0.008-0.002,0.012-0.004l23.672-8.919l23.09,65.792c0.781,2.227,2.386,4.008,4.519,5.016
			c1.19,0.563,2.46,0.845,3.735,0.845c1.014,0,2.03-0.178,3.012-0.537l7.967-2.912c4.471-1.634,6.83-6.619,5.259-11.113
			l-23.182-66.284l39.443-14.861C263.186,293.713,265.451,289.109,264.142,284.814z M236.815,385.773l-7.967,2.912
			c-1.736,0.633-3.613,0.547-5.285-0.241c-1.671-0.79-2.928-2.185-3.54-3.93l-23.104-65.833l20.849-7.855l23.167,66.242
			C242.165,380.588,240.317,384.493,236.815,385.773z M134.813,332.084l-18.519-53.738c0.061,0.014,0.119,0.036,0.181,0.048
			c2.561,0.501,5.096-0.35,6.78-2.275c1.846-2.111,2.585-4.913,2.197-8.328c-0.305-2.676,1.279-5.121,3.761-5.814l0.143-0.039
			c0.167-0.043,4.102-0.969,5.97,4.945l2.957,10.054c1.45,4.931,5.829,8.4,10.708,8.787l11.301,37.046
			c0.696,2.282,2.257,4.118,4.398,5.172c0.359,0.176,0.727,0.318,1.098,0.441l-2.535,0.955l-20.006,6.863
			C139.789,337.388,136.005,335.542,134.813,332.084z M95.152,222.414c-2.013-7.274-2.953-14.456-2.796-21.346
			c0.519-22.633,14.492-43.197,35.598-52.388l13.292-5.789c-12.645,10.003-28.379,30.793-15.104,67.932l22.234,72.883
			c0.005,0.015,0.012,0.029,0.017,0.044c-3.805-0.597-7.138-3.43-8.29-7.348l-2.962-10.072c-1.756-5.561-5.247-6.348-7.082-6.348
			c-0.712,0-1.174,0.118-1.189,0.122l-0.162,0.044c-3.39,0.945-5.552,4.25-5.141,7.857c0.326,2.862-0.26,5.171-1.74,6.864
			c-1.233,1.41-3.099,2.03-4.987,1.662c-2.026-0.396-3.632-1.784-4.298-3.713L95.152,222.414z M224.339,220.229l-0.065-0.093
			c-1.372-1.724-2.898-3.177-4.535-4.32c-3.018-2.1-6.864-2.466-10.288-0.979c-3.49,1.516-5.895,4.647-6.432,8.376
			c-0.971,6.766,1.396,14.08,2.458,16.91c0.788,2.11,1.328,3.848,1.697,5.464c0.886,3.924,1.124,7.54,0.707,10.747
			c-0.712,5.501-4.633,9.642-9.99,10.552c-5.315,0.905-10.338-1.692-12.804-6.607c-1.321-2.629-2.263-5.459-3.173-8.196
			c-1.467-4.411-2.983-8.971-6.133-12.912c-2.44-3.055-5.335-4.797-8.152-4.906c-2.385-0.098-4.616,0.94-6.603,3.067
			c-3.943,4.212-3.943,11.794-3.423,18.655c0.249,3.34,0.841,6.654,1.413,9.859c0.368,2.061,0.748,4.191,1.03,6.292
			c0.745,5.608-3.146,10.817-8.747,11.626c-0.04,0.009-0.083,0.012-0.124,0.017l-0.082,0.01c-0.39,0.038-0.776-0.226-0.902-0.637
			l-22.248-72.927c-17.835-49.896,18.097-69.299,25.48-72.682c0.839-0.383,1.319-0.569,1.357-0.584
			c3.643-1.509,6.098-2.116,6.146-2.128c5.83-1.583,11.492-2.373,16.969-2.373c8.318,0,16.205,1.825,23.57,5.466
			c13.703,6.801,23.965,19.451,28.16,34.722l14.044,47.846c0.521,1.771,0.181,3.632-0.933,5.105
			c-1.126,1.488-2.829,2.358-4.717,2.311C229.143,227.82,224.386,220.305,224.339,220.229z M164.756,236.801
			c0.902-0.46,1.836-0.68,2.799-0.64c1.275,0.05,2.593,0.56,3.876,1.454c0.989,0.689,1.958,1.6,2.869,2.74
			c2.076,2.598,3.378,5.461,4.488,8.485c0.461,1.258,0.893,2.54,1.327,3.847c0.363,1.091,0.738,2.198,1.134,3.304l12.315,37.696
			c0.992,3.036-0.672,6.314-3.708,7.307c-0.778,0.255-1.581,0.339-2.385,0.259h-0.001c-2.278-0.233-4.21-1.79-4.921-3.967
			l-19.397-59.371C163.674,237.452,164.209,237.081,164.756,236.801z M210.218,216.574c0.352-0.153,0.709-0.282,1.069-0.387
			c0.003-0.001,0.007-0.001,0.01-0.002c0.355-0.103,0.714-0.184,1.074-0.242c0.331-0.053,0.664-0.081,0.996-0.096
			c0.033-0.001,0.065-0.008,0.098-0.009c0.648-0.021,1.292,0.042,1.924,0.165c0.083,0.016,0.167,0.021,0.249,0.04
			c0.102,0.023,0.199,0.061,0.3,0.088c0.041,0.011,0.082,0.025,0.123,0.036l20.683,63.309c0.992,3.037-0.672,6.316-3.708,7.307
			c-0.778,0.254-1.578,0.341-2.386,0.26c-2.278-0.234-4.211-1.791-4.922-3.968l-20.198-61.825
			C206.415,219.183,208.066,217.507,210.218,216.574z M218.916,308.365l-22.135,8.341l-25.979,9.789
			c-1.736,0.654-3.61,0.564-5.274-0.256c-1.665-0.818-2.879-2.247-3.421-4.021l-11.141-36.521c0.13-0.012,0.26-0.008,0.39-0.025
			l0.29-0.039c5.257-0.759,9.256-4.879,10.178-9.903c0.228-1.239,0.277-2.531,0.102-3.843c-0.288-2.143-0.671-4.294-1.043-6.374
			c-0.084-0.471-0.167-0.949-0.251-1.424c-0.38-2.162-0.735-4.36-0.972-6.563c-0.06-0.561-0.124-1.121-0.165-1.681
			c-0.019-0.254-0.04-0.533-0.061-0.829c-0.223-3.131-0.476-8.428,0.86-12.559c0.347-1.07,0.803-2.061,1.393-2.917l19.058,58.335
			c0.945,2.889,3.509,4.955,6.532,5.264c0.262,0.027,0.524,0.041,0.786,0.041c0.805,0,1.604-0.128,2.383-0.383
			c4.031-1.317,6.239-5.669,4.923-9.7l-9.177-28.091c3.119,3.09,7.478,4.528,12.024,3.752c6.196-1.053,10.73-5.835,11.553-12.183
			c0.191-1.472,0.245-3.024,0.18-4.64c-0.085-2.145-0.387-4.405-0.921-6.768c-0.205-0.899-0.463-1.834-0.777-2.834
			c-0.177-0.564-0.378-1.157-0.596-1.77c-0.128-0.362-0.254-0.721-0.397-1.105c-0.193-0.515-0.432-1.187-0.685-1.978
			c-0.969-3.033-2.146-7.839-1.821-12.509l19.175,58.694c0.944,2.889,3.508,4.955,6.532,5.265h0.001
			c0.261,0.027,0.521,0.04,0.781,0.04c0.807,0,1.606-0.128,2.386-0.383c4.031-1.316,6.24-5.668,4.923-9.7l-20.145-61.662
			c0.083,0.054,0.17,0.096,0.251,0.152c1.471,1.025,2.85,2.337,4.1,3.9c0.155,0.244,0.76,1.158,1.814,2.304
			c2.316,2.521,6.801,6.159,13.432,6.226c2.475,0.007,4.758-1.09,6.25-3.063c0.05-0.066,0.089-0.138,0.137-0.205l17.94,58.829
			c1.018,3.341-0.744,6.922-4.012,8.153L218.916,308.365L218.916,308.365z"/>
		<path style="fill:#222221;" d="M167.561,184.228c-1.739-8.623-8.65-14.504-15.437-13.135c-6.787,1.368-10.879,9.468-9.141,18.091
			c1.739,8.623,8.65,14.504,15.437,13.135C165.207,200.95,169.299,192.851,167.561,184.228z M159.062,175.407
			c1.995,0.204,3.447,1.987,3.243,3.982c-0.204,1.995-1.987,3.447-3.982,3.243c-1.995-0.204-3.447-1.987-3.243-3.982
			C155.284,176.655,157.067,175.202,159.062,175.407z M159.617,191.606c-0.315,3.076-3.063,5.314-6.139,5
			c-3.076-0.315-5.314-3.063-5-6.139c0.315-3.076,3.063-5.314,6.139-5C157.693,185.781,159.931,188.53,159.617,191.606z"/>
		<path style="fill:#222221;" d="M210.556,170.371c-1.549-7.684-7.708-12.924-13.756-11.705c-6.048,1.219-9.695,8.437-8.145,16.121
			c1.549,7.684,7.708,12.924,13.756,11.705C208.458,185.272,212.105,178.055,210.556,170.371z M198.006,181.401
			c-2.741-0.28-4.736-2.73-4.455-5.471c0.28-2.741,2.73-4.736,5.471-4.455c2.741,0.28,4.736,2.73,4.455,5.471
			C203.196,179.687,200.747,181.681,198.006,181.401z M202.324,168.949c-1.778-0.182-3.072-1.771-2.89-3.549
			c0.182-1.778,1.771-3.072,3.549-2.89c1.778,0.182,3.072,1.771,2.89,3.549C205.691,167.837,204.102,169.131,202.324,168.949z"/>
		<path style="fill:#222221;" d="M191.627,195.651l-1.65-0.994c-4.268,7.09-11.346,4.737-11.646,4.633l-0.638,1.818
			c0.037,0.013,1.56,0.529,3.694,0.529C184.405,201.637,188.644,200.604,191.627,195.651z"/>
	</g>
	<path style="fill:#222221;" d="M468.083,196.389c-2.015-2.396-4.819-3.749-7.894-3.807l-0.211-0.002
		c-4.483,0-7.788,2.809-9.617,4.882c-1.829-2.073-5.135-4.882-9.617-4.882l-0.213,0.002c-3.074,0.059-5.878,1.411-7.892,3.807
		c-2.096,2.493-3.012,5.774-2.512,9.004c0.373,2.387,1.541,6.077,4.985,10.12c3.444,4.044,8.325,7.429,14.506,10.06l0.743,0.316
		l0.743-0.316c6.181-2.631,11.062-6.016,14.506-10.06c3.444-4.043,4.611-7.733,4.984-10.117
		C471.095,202.163,470.179,198.881,468.083,196.389z M468.72,205.103c-0.799,5.104-5.226,13.133-18.359,18.724
		c-13.133-5.59-17.56-13.62-18.359-18.724c-0.833-5.39,3.116-10.521,8.568-10.625c0.058-0.001,0.117-0.002,0.175-0.002
		c5.956,0,9.617,6.122,9.617,6.122s3.66-6.122,9.617-6.122c0.058,0,0.116,0.001,0.175,0.002
		C465.604,194.583,469.554,199.713,468.72,205.103z"/>
	<path style="fill:#222221;" d="M63.343,260.578l-0.235-0.002c-5.165,0-8.935,3.35-10.936,5.686
		c-2.001-2.336-5.771-5.686-10.936-5.686L41,260.578c-3.42,0.065-6.539,1.57-8.781,4.237c-2.335,2.777-3.355,6.434-2.799,10.032
		c0.419,2.681,1.733,6.827,5.609,11.379c3.89,4.568,9.408,8.393,16.4,11.369l0.743,0.316l0.743-0.316
		c6.992-2.976,12.51-6.801,16.4-11.369c3.877-4.552,5.19-8.698,5.609-11.376c0.557-3.602-0.463-7.259-2.798-10.036
		C69.884,262.148,66.765,260.643,63.343,260.578z M73.05,274.557c-0.908,5.804-5.942,14.935-20.877,21.292
		c-14.935-6.357-19.969-15.488-20.877-21.292c-0.948-6.13,3.544-11.964,9.743-12.082c0.067-0.001,0.133-0.002,0.199-0.002
		c6.773,0,10.936,6.961,10.936,6.961s4.162-6.961,10.936-6.961c0.066,0,0.132,0.001,0.198,0.002
		C69.506,262.594,73.997,268.427,73.05,274.557z"/>
	<path style="fill:#222221;" d="M244.291,81.02c0.652-4.215-0.542-8.493-3.274-11.743c-2.62-3.116-6.263-4.874-10.259-4.95
		c-0.09-0.002-0.183-0.003-0.275-0.003c-6.314,0-10.859,4.282-13.127,7.033c-2.268-2.75-6.814-7.033-13.127-7.033
		c-0.092,0-0.184,0.001-0.276,0.003c-3.993,0.076-7.637,1.834-10.257,4.95c-2.732,3.249-3.926,7.528-3.275,11.739
		c0.701,4.478,3.061,9.26,6.647,13.47c4.631,5.438,11.207,9.994,19.545,13.543l0.743,0.316l0.743-0.316
		c8.338-3.549,14.914-8.105,19.545-13.543C241.231,90.277,243.591,85.494,244.291,81.02z M203.992,66.224
		c0.08-0.002,0.159-0.002,0.238-0.002c8.13,0,13.127,8.356,13.127,8.356s4.996-8.356,13.127-8.356c0.079,0,0.159,0.001,0.238,0.002
		c7.441,0.142,12.832,7.145,11.694,14.503c-1.09,6.967-7.133,17.927-25.059,25.557c-17.927-7.63-23.97-18.59-25.06-25.557
		C191.16,73.369,196.551,66.366,203.992,66.224z"/>
	<path style="fill:#222221;" d="M267.563,52.676l-0.159-0.002c-3.045,0-5.356,1.713-6.779,3.181
		c-1.422-1.468-3.734-3.181-6.778-3.181l-0.161,0.002c-2.296,0.044-4.476,1.095-5.98,2.883c-1.581,1.881-2.272,4.356-1.896,6.793
		c1.348,8.613,11.112,13.393,14.072,14.653l0.743,0.316l0.743-0.316c2.96-1.26,12.725-6.041,14.072-14.65
		c0.377-2.44-0.314-4.916-1.895-6.796C272.041,53.771,269.861,52.72,267.563,52.676z M273.565,62.062
		c-0.563,3.598-3.683,9.257-12.94,13.197c-9.257-3.94-12.378-9.6-12.94-13.197c-0.587-3.799,2.196-7.415,6.039-7.489
		c0.041-0.001,0.082-0.001,0.123-0.001c4.198,0,6.779,4.315,6.779,4.315s2.58-4.315,6.778-4.315c0.041,0,0.082,0,0.123,0.001
		C271.369,54.646,274.153,58.263,273.565,62.062z"/>
	<path style="fill:#222221;" d="M435.412,225.23l-0.134-0.001c-2.35,0-4.17,1.214-5.365,2.359c-1.195-1.145-3.015-2.359-5.365-2.359
		l-0.135,0.001c-1.931,0.037-3.765,0.92-5.028,2.423c-1.325,1.576-1.904,3.65-1.588,5.691c1.098,7.018,8.983,10.883,11.373,11.901
		l0.743,0.316l0.743-0.316c2.39-1.018,10.275-4.883,11.373-11.897c0.316-2.044-0.263-4.119-1.588-5.695
		C439.178,226.15,437.345,225.267,435.412,225.23z M440.155,233.054c-0.445,2.847-2.915,7.326-10.241,10.445
		c-7.326-3.118-9.796-7.598-10.241-10.445c-0.465-3.007,1.738-5.869,4.779-5.927c0.033-0.001,0.065-0.001,0.097-0.001
		c3.323,0,5.365,3.415,5.365,3.415s2.042-3.415,5.365-3.415c0.032,0,0.065,0,0.097,0.001
		C438.416,227.185,440.62,230.047,440.155,233.054z"/>
	<path style="fill:#222221;" d="M80.856,236.151l-0.148-0.001c-2.751,0-4.856,1.499-6.185,2.833
		c-1.329-1.334-3.435-2.833-6.185-2.833l-0.15,0.001c-2.143,0.041-4.178,1.021-5.581,2.69c-1.474,1.753-2.118,4.06-1.767,6.33
		c1.243,7.943,10.218,12.34,12.94,13.498l0.743,0.316l0.743-0.316c2.721-1.158,11.697-5.555,12.939-13.495
		c0.351-2.274-0.293-4.581-1.766-6.334C85.036,237.173,83.001,236.192,80.856,236.151z M86.33,244.882
		c-0.514,3.283-3.361,8.447-11.808,12.042c-8.447-3.595-11.294-8.759-11.808-12.042c-0.536-3.467,2.004-6.767,5.51-6.834
		c0.038-0.001,0.075-0.001,0.112-0.001c3.831,0,6.185,3.937,6.185,3.937s2.354-3.937,6.185-3.937c0.037,0,0.075,0,0.112,0.001
		C84.326,238.115,86.866,241.415,86.33,244.882z"/>
	<path style="fill:#222221;" d="M261.76,317.232c-3.808-0.06-6.541,2.601-7.816,4.193c-1.276-1.594-4.02-4.276-7.815-4.193
		c-2.285,0.043-4.369,1.049-5.867,2.832c-1.565,1.86-2.249,4.311-1.876,6.724c0.361,2.306,2.523,10.247,15.187,15.638l0.371,0.158
		l0.371-0.158c12.665-5.392,14.826-13.332,15.187-15.639c0.373-2.412-0.311-4.862-1.875-6.723
		C266.128,318.281,264.044,317.275,261.76,317.232z M267.626,326.495c-0.318,2.039-2.247,9.025-13.683,14.024
		c-11.436-4.998-13.364-11.985-13.683-14.022c-0.289-1.87,0.24-3.77,1.453-5.212c1.141-1.357,2.722-2.123,4.452-2.156
		c0.04-0.001,0.079-0.001,0.118-0.001c4.136,0,6.821,4.371,6.847,4.415l0.814,1.348l0.813-1.348
		c0.026-0.044,2.711-4.415,6.848-4.415c0.039,0,0.078,0,0.118,0.001c1.73,0.033,3.311,0.799,4.451,2.156
		C267.386,322.727,267.915,324.627,267.626,326.495z"/>
	<path style="fill:#222221;" d="M119.445,110.87h-0.161c-3.166,0-5.743-2.576-5.743-5.743c0-2.476-1.855-4.593-4.223-4.818
		c-1.316-0.124-2.63,0.31-3.604,1.194c-0.974,0.886-1.533,2.148-1.533,3.464v0.16c0,3.167-2.576,5.743-5.743,5.743h-0.161
		c-2.581,0-4.68,2.1-4.68,4.68c0,2.581,2.1,4.68,4.68,4.68h0.161c3.166,0,5.743,2.576,5.743,5.743c0,2.476,1.855,4.593,4.223,4.818
		c0.149,0.014,0.298,0.021,0.447,0.021c1.164,0,2.294-0.431,3.157-1.216c0.974-0.886,1.533-2.148,1.533-3.464v-0.16
		c0-3.167,2.576-5.743,5.743-5.743h0.161c2.58,0,4.68-2.099,4.68-4.68C124.125,112.97,122.025,110.87,119.445,110.87z
		 M119.445,118.333h-0.161c-4.213,0-7.64,3.428-7.64,7.641v0.16c0,0.782-0.332,1.533-0.912,2.06
		c-0.587,0.534-1.349,0.785-2.147,0.71c-1.406-0.134-2.506-1.421-2.506-2.93c0-4.213-3.427-7.641-7.64-7.641h-0.161
		c-1.534,0-2.783-1.248-2.783-2.782c0-1.534,1.248-2.783,2.783-2.783h0.161c4.213,0,7.64-3.428,7.64-7.641v-0.16
		c0-0.782,0.333-1.533,0.912-2.06c0.587-0.534,1.346-0.783,2.147-0.71c1.406,0.134,2.506,1.421,2.506,2.93
		c0,4.213,3.427,7.641,7.64,7.641h0.161c1.534,0,2.782,1.249,2.782,2.783C122.227,117.085,120.979,118.333,119.445,118.333z"/>
	<path style="fill:#222221;" d="M262.919,422.43h-0.195c-3.961,0-7.185-3.224-7.185-7.185c0-2.905-2.173-5.388-4.947-5.652
		c-1.544-0.147-3.083,0.363-4.224,1.399c-1.141,1.038-1.795,2.518-1.795,4.059v0.194c0,3.961-3.223,7.185-7.184,7.185h-0.195
		c-3.023,0-5.483,2.46-5.483,5.483c0,3.023,2.46,5.483,5.483,5.483h0.195c3.961,0,7.184,3.223,7.184,7.184
		c0,2.906,2.173,5.389,4.948,5.653c0.175,0.017,0.349,0.025,0.523,0.025c1.363,0,2.688-0.506,3.7-1.425
		c1.141-1.038,1.795-2.517,1.795-4.059v-0.195c0-3.961,3.224-7.184,7.185-7.184h0.195c3.023,0,5.482-2.46,5.482-5.483
		C268.401,424.889,265.943,422.43,262.919,422.43z M262.919,431.5h-0.195c-5.008,0-9.081,4.073-9.081,9.08v0.195
		c0,1.008-0.429,1.976-1.175,2.654c-0.757,0.688-1.736,1.017-2.767,0.915c-1.811-0.173-3.23-1.826-3.23-3.765
		c0-5.007-4.074-9.08-9.081-9.08h-0.195c-1.978,0-3.586-1.609-3.586-3.587c0-1.978,1.608-3.587,3.586-3.587h0.195
		c5.007,0,9.081-4.073,9.081-9.081v-0.194c0-1.008,0.428-1.976,1.175-2.654c0.756-0.688,1.735-1.016,2.767-0.915
		c1.812,0.173,3.23,1.826,3.23,3.764c0,5.008,4.073,9.081,9.081,9.081h0.195c1.977,0,3.586,1.609,3.586,3.587
		C266.505,429.89,264.896,431.5,262.919,431.5z"/>
	<path style="fill:#222221;" d="M141.607,96.675h-0.108c-1.957,0-3.549-1.592-3.549-3.549c0-1.823-1.371-3.382-3.121-3.549
		c-0.973-0.095-1.942,0.229-2.662,0.883c-0.719,0.654-1.132,1.587-1.132,2.558v0.108c0,1.957-1.592,3.549-3.549,3.549h-0.108
		c-1.906,0-3.457,1.551-3.457,3.457c0,1.906,1.551,3.457,3.457,3.457h0.108c1.957,0,3.549,1.592,3.549,3.549
		c0,1.823,1.371,3.382,3.121,3.549c0.11,0.011,0.22,0.016,0.329,0.016c0.859,0,1.695-0.318,2.332-0.898
		c0.719-0.654,1.132-1.586,1.132-2.558v-0.108c0-1.957,1.592-3.549,3.549-3.549h0.108c1.906,0,3.456-1.551,3.456-3.457
		C145.063,98.226,143.512,96.675,141.607,96.675z M141.607,101.691h-0.108c-3.003,0-5.447,2.443-5.447,5.447v0.108
		c0,0.445-0.182,0.854-0.511,1.154c-0.329,0.299-0.76,0.437-1.205,0.398c-0.787-0.075-1.403-0.804-1.403-1.66
		c0-3.003-2.443-5.447-5.447-5.447h-0.108c-0.86,0-1.559-0.699-1.559-1.559c0-0.86,0.699-1.56,1.559-1.56h0.108
		c3.003,0,5.447-2.443,5.447-5.447v-0.108c0-0.445,0.182-0.854,0.511-1.154c0.329-0.299,0.757-0.439,1.205-0.398
		c0.787,0.075,1.403,0.804,1.403,1.66c0,3.003,2.443,5.447,5.447,5.447h0.108c0.86,0,1.559,0.7,1.559,1.56
		C143.166,100.992,142.466,101.691,141.607,101.691z"/>
	<path style="fill:#222221;" d="M290.349,406.688h-0.124c-2.324,0-4.215-1.891-4.215-4.215c0-2.021-1.518-3.749-3.455-3.934
		c-1.081-0.103-2.151,0.253-2.947,0.977c-0.797,0.725-1.253,1.757-1.253,2.833v0.124c0,2.324-1.891,4.215-4.215,4.215h-0.124
		c-2.11,0-3.827,1.717-3.827,3.827c0,2.11,1.717,3.827,3.827,3.827h0.124c2.324,0,4.215,1.892,4.215,4.216
		c0,2.02,1.517,3.748,3.455,3.934c0.122,0.012,0.243,0.018,0.364,0.018c0.952,0,1.877-0.354,2.583-0.996
		c0.797-0.724,1.253-1.756,1.253-2.832v-0.123c0-2.324,1.891-4.216,4.215-4.216h0.123c2.111,0,3.828-1.717,3.828-3.827
		C294.176,408.405,292.459,406.688,290.349,406.688z M290.348,412.446h-0.123c-3.37,0-6.111,2.742-6.111,6.112v0.123
		c0,0.543-0.23,1.064-0.633,1.429c-0.407,0.37-0.935,0.541-1.49,0.493c-0.976-0.094-1.739-0.992-1.739-2.045
		c0-3.37-2.741-6.112-6.111-6.112h-0.124c-1.065,0-1.931-0.866-1.931-1.931c0-1.064,0.866-1.931,1.931-1.931h0.124
		c3.37,0,6.111-2.741,6.111-6.111v-0.124c0-0.543,0.232-1.064,0.633-1.429c0.407-0.371,0.937-0.542,1.491-0.492
		c0.975,0.093,1.738,0.991,1.738,2.045c0,3.37,2.741,6.111,6.111,6.111h0.124c1.064,0,1.931,0.866,1.931,1.931
		C292.279,411.58,291.412,412.446,290.348,412.446z"/>
	<path style="fill:#222221;" d="M452.961,297.976h-0.107c-1.957,0-3.55-1.593-3.55-3.55c0-1.822-1.37-3.381-3.12-3.549
		c-0.968-0.093-1.942,0.228-2.661,0.883c-0.72,0.654-1.132,1.587-1.132,2.559v0.108c0,1.957-1.593,3.55-3.55,3.55h-0.108
		c-1.906,0-3.457,1.55-3.457,3.456c0,1.906,1.551,3.457,3.457,3.457h0.108c1.957,0,3.55,1.593,3.55,3.55
		c0,1.823,1.37,3.382,3.12,3.548c0.11,0.011,0.22,0.016,0.329,0.016c0.859,0,1.695-0.318,2.333-0.898
		c0.719-0.653,1.131-1.586,1.131-2.558v-0.107c0-1.957,1.593-3.55,3.55-3.55h0.107c1.906,0,3.457-1.551,3.457-3.457
		C456.418,299.526,454.867,297.976,452.961,297.976z M452.961,302.992h-0.107c-3.003,0-5.446,2.443-5.446,5.446v0.107
		c0,0.444-0.182,0.855-0.511,1.154c-0.329,0.299-0.752,0.439-1.206,0.397c-0.787-0.075-1.403-0.804-1.403-1.659
		c0-3.003-2.443-5.446-5.446-5.446h-0.108c-0.86,0-1.56-0.7-1.56-1.561c0-0.859,0.7-1.56,1.56-1.56h0.108
		c3.003,0,5.446-2.443,5.446-5.446v-0.108c0-0.445,0.182-0.855,0.512-1.155c0.328-0.298,0.756-0.442,1.204-0.398
		c0.787,0.075,1.404,0.805,1.404,1.66c0,3.003,2.443,5.446,5.446,5.446h0.107c0.86,0,1.56,0.7,1.56,1.56
		C454.522,302.292,453.821,302.992,452.961,302.992z"/>
	<path style="fill:#222221;" d="M64.377,188.169h-0.108c-1.957,0-3.549-1.592-3.549-3.549c0-1.823-1.371-3.382-3.121-3.549
		c-0.969-0.096-1.942,0.229-2.662,0.883c-0.719,0.654-1.132,1.586-1.132,2.558v0.108c0,1.957-1.592,3.549-3.549,3.549h-0.107
		c-1.906,0-3.457,1.551-3.457,3.457c0,1.906,1.551,3.457,3.457,3.457h0.107c1.957,0,3.549,1.592,3.549,3.549
		c0,1.823,1.371,3.382,3.121,3.548c0.11,0.011,0.221,0.016,0.331,0.016c0.858,0,1.693-0.318,2.331-0.898
		c0.72-0.654,1.132-1.587,1.132-2.559v-0.108c0-1.957,1.592-3.549,3.549-3.549h0.108c1.906,0,3.457-1.551,3.457-3.457
		C67.833,189.72,66.282,188.169,64.377,188.169z M64.377,193.185h-0.108c-3.003,0-5.447,2.443-5.447,5.447v0.108
		c0,0.438-0.187,0.859-0.511,1.154c-0.329,0.299-0.754,0.438-1.205,0.397c-0.787-0.075-1.403-0.804-1.403-1.66
		c0-3.003-2.443-5.447-5.447-5.447h-0.107c-0.86,0-1.56-0.7-1.56-1.56c0-0.86,0.7-1.559,1.56-1.559h0.107
		c3.003,0,5.447-2.443,5.447-5.447v-0.108c0-0.445,0.182-0.855,0.511-1.154c0.329-0.299,0.759-0.441,1.205-0.398
		c0.787,0.075,1.403,0.804,1.403,1.66c0,3.003,2.443,5.447,5.447,5.447h0.108c0.86,0,1.559,0.699,1.559,1.559
		C65.936,192.486,65.237,193.185,64.377,193.185z"/>
	<path style="fill:#222221;" d="M246.829,159.712h0.108c1.958,0,3.55,1.592,3.55,3.549c0,1.823,1.371,3.382,3.121,3.549
		c0.109,0.011,0.22,0.016,0.329,0.016c0.859,0,1.694-0.318,2.331-0.898c0.72-0.654,1.132-1.586,1.132-2.559v-0.108
		c0-1.957,1.593-3.549,3.55-3.549h0.108c1.906,0,3.456-1.551,3.456-3.457c0-1.906-1.55-3.457-3.456-3.457h-0.108
		c-1.957,0-3.55-1.592-3.55-3.549c0-1.823-1.37-3.382-3.12-3.549c-0.969-0.096-1.942,0.229-2.66,0.882
		c-0.72,0.654-1.132,1.586-1.132,2.559v0.108c0,1.957-1.592,3.549-3.55,3.549h-0.107c-1.906,0-3.457,1.551-3.457,3.457
		C243.373,158.161,244.923,159.712,246.829,159.712z M246.83,154.696h0.107c3.003,0,5.447-2.443,5.447-5.447v-0.108
		c0-0.445,0.182-0.855,0.512-1.155c0.328-0.299,0.754-0.44,1.204-0.398c0.786,0.075,1.403,0.804,1.403,1.66
		c0,3.003,2.443,5.447,5.446,5.447h0.108c0.859,0,1.559,0.699,1.559,1.559c0,0.86-0.7,1.559-1.559,1.559h-0.108
		c-3.003,0-5.446,2.443-5.446,5.447v0.108c0,0.445-0.182,0.855-0.512,1.155c-0.329,0.299-0.754,0.439-1.204,0.398
		c-0.786-0.075-1.403-0.804-1.403-1.66c0-3.003-2.443-5.447-5.447-5.447h-0.108c-0.86,0-1.559-0.699-1.559-1.559
		C245.27,155.396,245.97,154.696,246.83,154.696z"/>
	<path style="fill:#222221;" d="M357.96,78.571c0.053,0,0.092,0,0.145,0.013c0.687,0.066,1.229,0.714,1.229,1.48
		c0,3.29,2.682,5.973,5.973,5.973h0.119c0.753,0,1.374,0.608,1.374,1.374c0,0.753-0.621,1.374-1.493,1.374
		c-3.29,0-5.973,2.682-5.973,6.078c0,0.396-0.159,0.766-0.449,1.031c-0.257,0.222-0.585,0.351-0.922,0.351
		c-0.045,0-0.09-0.002-0.135-0.007c-0.7-0.066-1.242-0.714-1.242-1.48c0-3.29-2.682-5.973-6.078-5.973
		c-0.766,0-1.387-0.621-1.387-1.374c0-0.766,0.621-1.374,1.493-1.374c3.29,0,5.973-2.683,5.973-6.092
		c0-0.383,0.159-0.753,0.449-1.018C357.299,78.703,357.617,78.571,357.96,78.571 M357.96,76.571c-0.811,0-1.579,0.288-2.22,0.833
		l-0.026,0.022l-0.025,0.022c-0.702,0.638-1.104,1.548-1.104,2.497c0,2.294-1.745,4.092-3.973,4.092
		c-1.959,0-3.493,1.482-3.493,3.374c0,1.861,1.52,3.374,3.387,3.374c2.249,0,4.078,1.782,4.078,3.973
		c0,1.815,1.313,3.307,3.054,3.471c0.096,0.01,0.209,0.016,0.323,0.016c0.813,0,1.604-0.297,2.229-0.837l0.019-0.017l0.019-0.017
		c0.702-0.638,1.104-1.553,1.104-2.511c0-2.249,1.782-4.078,3.973-4.078c1.959,0,3.493-1.482,3.493-3.374
		c0-1.86-1.514-3.374-3.374-3.374h-0.119c-2.191,0-3.973-1.782-3.973-3.973c0-1.74-1.271-3.234-2.915-3.457
		C358.21,76.571,358.047,76.571,357.96,76.571L357.96,76.571z"/>
	<g>
		<path style="fill:#222221;" d="M408.599,352.867c-0.959-5.3-4.953-9.621-10.173-11.006c-18.834-4.997-35.022-0.269-45.289,4.579
			c-8.571,4.045-15.007,11.331-17.66,19.987c-1.511,4.93-1.834,10.045-0.989,15.258c-2.117,0.012-4.036,0.281-5.7,0.832
			c-4.524,1.497-7.389,5.525-7.298,10.263c0.095,4.924,3.238,8.995,8.008,10.372c0.553,0.16,1.13,0.293,1.73,0.401
			c-2.878,3.165-3.754,7.5-2.272,11.511c1.614,4.37,5.552,7.244,10.278,7.502c0.097,0.005,0.193,0.009,0.291,0.012
			c2.672,0.085,6.098-0.642,9.22-3.833c1.028,4.63,4.861,7.917,9.769,8.184c4.734,0.258,8.946-2.452,10.732-6.905
			c0.75-1.871,1.087-3.727,1.126-5.534c0.836,0.097,1.673,0.179,2.512,0.224c1.018,0.055,2.038,0.073,3.058,0.052
			c10.473-0.217,20.192-6.239,25.364-15.719C411.531,380.312,410.264,362.073,408.599,352.867z M358.742,409.377
			c-10.49-4.569-18.266-13.104-21.336-23.417c-1.94-6.514-1.978-12.899-0.115-18.977c2.497-8.147,8.568-15.009,16.656-18.827
			c7.633-3.604,18.632-7.141,31.558-6.437c3.977,0.217,8.135,0.834,12.433,1.975c4.513,1.198,7.964,4.931,8.793,9.511
			c1.621,8.959,2.854,26.709-7.093,44.934c-4.848,8.883-13.944,14.527-23.738,14.729
			C370.113,412.994,364.34,411.813,358.742,409.377z M367.483,419.318c-1.641,4.093-5.331,5.91-8.867,5.717
			c-3.993-0.218-7.789-2.999-8.211-7.96c-0.222-2.605,0.37-4.694,0.37-4.694c-3.189,6.673-7.445,8.42-11.19,8.301
			c-0.083-0.003-0.165-0.006-0.248-0.011c-8.414-0.458-12.346-10.493-6.193-16.366c1.633-1.558,3.209-2.347,3.209-2.347
			c-0.874,0.039-1.692,0.036-2.457-0.006c-1.476-0.08-2.758-0.301-3.871-0.623c-8.465-2.444-9.005-14.244-0.64-17.012
			c1.724-0.57,3.611-0.755,5.464-0.736c0.21,0.97,0.449,1.943,0.739,2.918c3.23,10.852,11.393,19.824,22.397,24.616
			c3.445,1.499,6.957,2.531,10.499,3.11C368.464,416.134,368.077,417.835,367.483,419.318z"/>
		<path style="fill:#222221;" d="M359.789,358.336c1.03-0.277,1.694-1.139,1.482-1.926c-0.211-0.787-1.218-1.201-2.248-0.924
			c-1.03,0.277-1.694,1.139-1.483,1.926C357.752,358.199,358.759,358.613,359.789,358.336z"/>
		<path style="fill:#222221;" d="M387.916,354.814c-0.718-0.385-1.709,0.064-2.214,1.004c-0.505,0.94-0.332,2.014,0.386,2.4
			c0.718,0.385,1.709-0.064,2.214-1.004C388.807,356.274,388.634,355.199,387.916,354.814z"/>
		<path style="fill:#222221;" d="M385.867,370.975c-0.778-0.242-1.666,0.389-1.982,1.407c-0.316,1.019,0.059,2.04,0.837,2.282
			c0.778,0.241,1.666-0.389,1.982-1.407C387.02,372.238,386.645,371.216,385.867,370.975z"/>
		<path style="fill:#222221;" d="M378.61,407.586c-0.95,0.486-1.419,1.467-1.048,2.193c0.371,0.726,1.442,0.92,2.391,0.435
			c0.95-0.486,1.419-1.467,1.048-2.193C380.631,407.295,379.56,407.1,378.61,407.586z"/>
		<path style="fill:#222221;" d="M371.66,347.815c0.778,0.241,1.666-0.389,1.982-1.407c0.316-1.019-0.059-2.04-0.837-2.282
			c-0.778-0.242-1.666,0.388-1.982,1.407C370.507,346.552,370.882,347.573,371.66,347.815z"/>
		<path style="fill:#222221;" d="M364.834,400.835c0.681-0.821,0.725-1.908,0.098-2.429c-0.627-0.52-1.688-0.277-2.369,0.544
			c-0.681,0.821-0.725,1.908-0.098,2.429C363.092,401.899,364.153,401.655,364.834,400.835z"/>
		<path style="fill:#222221;" d="M400.999,352.055c0.627,0.521,1.688,0.277,2.369-0.544c0.681-0.821,0.725-1.908,0.098-2.429
			c-0.627-0.52-1.688-0.277-2.369,0.544C400.415,350.447,400.372,351.534,400.999,352.055z"/>
		<path style="fill:#222221;" d="M380.015,392.302c0.681-0.821,0.725-1.908,0.098-2.429c-0.627-0.52-1.688-0.277-2.369,0.544
			c-0.681,0.821-0.725,1.908-0.098,2.429C378.273,393.366,379.334,393.122,380.015,392.302z"/>
		<path style="fill:#222221;" d="M345.383,390.362c-0.778-0.241-1.666,0.389-1.982,1.407c-0.316,1.019,0.059,2.04,0.837,2.282
			c0.778,0.242,1.666-0.388,1.982-1.407C346.536,391.626,346.161,390.604,345.383,390.362z"/>
		<path style="fill:#222221;" d="M359.535,374.098c-0.316,1.019,0.059,2.04,0.837,2.282c0.778,0.241,1.666-0.389,1.982-1.407
			c0.316-1.019-0.059-2.04-0.837-2.282C360.738,372.449,359.851,373.08,359.535,374.098z"/>
		<path style="fill:#222221;" d="M401.538,372.971c-0.999,0.373-1.578,1.295-1.293,2.058c0.285,0.764,1.326,1.08,2.326,0.707
			c0.999-0.373,1.578-1.295,1.293-2.058C403.579,372.914,402.537,372.597,401.538,372.971z"/>
		<path style="fill:#222221;" d="M395.615,399.774c1.019-0.315,1.65-1.202,1.409-1.981c-0.241-0.779-1.262-1.154-2.281-0.839
			c-1.019,0.315-1.65,1.202-1.409,1.981C393.575,399.714,394.596,400.089,395.615,399.774z"/>
		<path style="fill:#222221;" d="M340.923,366.459c0.718,0.385,1.709-0.064,2.214-1.004c0.505-0.94,0.332-2.014-0.386-2.4
			c-0.718-0.385-1.709,0.064-2.214,1.004C340.033,364.999,340.205,366.073,340.923,366.459z"/>
	</g>
	<path style="fill:#222221;" d="M190.714,360.722l3.104-6.526c0.403-0.848,0.352-1.832-0.138-2.633
		c-0.489-0.801-1.341-1.295-2.279-1.323l-9.347-0.281l-6.116-7.072c-0.614-0.711-1.539-1.058-2.465-0.934
		c-0.93,0.126-1.726,0.707-2.129,1.555l-3.104,6.526c-10.578,0.096-20.706,6.091-25.547,16.269
		c-3.272,6.881-3.669,14.625-1.118,21.805c2.552,7.18,7.746,12.936,14.627,16.208c3.888,1.85,8.051,2.78,12.232,2.78
		c3.219,0,6.449-0.552,9.572-1.661c7.18-2.552,12.936-7.747,16.209-14.628C199.055,380.628,197.314,368.988,190.714,360.722z
		 M177.371,403.645c-6.703,2.382-13.931,2.01-20.354-1.044c-6.423-3.055-11.272-8.429-13.654-15.131
		c-2.382-6.702-2.011-13.931,1.044-20.354c4.556-9.578,14.127-15.189,24.089-15.189c3.828,0,7.714,0.829,11.395,2.579
		c13.26,6.308,18.917,22.226,12.61,35.485C189.446,396.414,184.073,401.263,177.371,403.645z M173.727,343.832
		c0.296-0.034,0.579,0.067,0.775,0.294l6.662,7.703l10.18,0.307c0.299,0.009,0.56,0.16,0.717,0.416
		c0.156,0.256,0.172,0.558,0.043,0.829l-2.746,5.774c-2.388-2.58-5.288-4.762-8.652-6.362c-3.363-1.6-6.887-2.473-10.395-2.697
		l2.747-5.774C173.186,344.051,173.43,343.872,173.727,343.832z"/>
	<path style="fill:#222221;" d="M107.876,317.049c-8.271-4.703-17.877-5.904-27.05-3.382c-3.948,1.085-7.609,2.808-10.877,5.073
		l-8.011-4.555c-0.953-0.543-2.105-0.568-3.081-0.065c-0.976,0.502-1.626,1.453-1.738,2.545l-1.222,11.799l-9.517,7.083
		c-0.88,0.655-1.365,1.7-1.298,2.795c0.068,1.095,0.677,2.072,1.63,2.613l8.029,4.566c-0.906,13.233,5.64,26.467,17.921,33.45
		c4.74,2.696,9.842,4.18,14.949,4.555c13.288,0.973,26.606-5.577,33.619-17.909c4.703-8.269,5.904-17.876,3.381-27.05
		C122.09,329.394,116.146,321.752,107.876,317.049z M73.601,377.323c-7.83-4.453-13.457-11.688-15.845-20.372
		c-2.388-8.685-1.251-17.781,3.201-25.61c4.452-7.829,11.687-13.456,20.372-15.844c3.778-1.039,7.633-1.411,11.429-1.133
		c4.929,0.361,9.757,1.818,14.18,4.334c7.83,4.453,13.457,11.688,15.845,20.372c2.388,8.685,1.251,17.781-3.202,25.61
		C110.39,380.844,89.761,386.515,73.601,377.323z M46.977,338.226c-0.028-0.46,0.167-0.882,0.537-1.156l10.184-7.581l1.308-12.629
		c0.047-0.459,0.309-0.842,0.719-1.053c0.226-0.117,0.468-0.165,0.708-0.148c0.194,0.014,0.387,0.072,0.567,0.175l7.277,4.138
		c-3.595,2.82-6.643,6.34-8.97,10.431c-2.362,4.153-3.787,8.585-4.357,13.054l-7.3-4.151
		C47.251,339.079,47.005,338.685,46.977,338.226z"/>
	<path style="fill:#222221;" d="M124.267,388.608l-0.985-0.264c-2.145-0.573-4.377-0.864-6.636-0.864
		c-14.259,0-25.859,11.6-25.859,25.859c0,2.811,0.447,5.567,1.33,8.192l0.325,0.965l0.984,0.263
		c2.145,0.573,4.377,0.864,6.636,0.864c14.259,0,25.859-11.6,25.859-25.859c0-2.8-0.447-5.555-1.329-8.19L124.267,388.608z
		 M100.061,421.726c-2.126,0-4.178-0.274-6.146-0.8c-0.8-2.378-1.231-4.935-1.231-7.587c0-13.238,10.723-23.961,23.962-23.961
		c1.509,0,2.978,0.144,4.409,0.413c-4.09,1.615-15.674,7.349-22.618,22.508c-0.218,0.477-0.009,1.04,0.467,1.258
		c0.128,0.059,0.262,0.087,0.395,0.087c0.359,0,0.704-0.206,0.863-0.554c7.972-17.403,22.708-21.944,22.895-22
		c0.618,2.124,0.966,4.356,0.966,6.676C124.023,410.992,113.3,421.726,100.061,421.726z"/>
	<path style="fill:#222221;" d="M143.168,401.312c-1.673-1.335-3.533-2.382-5.529-3.112l-0.958-0.35l-0.821,0.606
		c-1.366,1.009-2.605,2.204-3.682,3.554c-3.296,4.129-4.786,9.293-4.197,14.541c0.589,5.247,3.188,9.952,7.317,13.248
		c1.68,1.341,3.541,2.388,5.531,3.113l0.957,0.348l0.819-0.605c1.366-1.009,2.605-2.204,3.682-3.554
		C153.089,420.58,151.69,408.113,143.168,401.312z M135.96,400.808c-0.263,3.318-0.832,14.676,2.894,22.245
		c0.165,0.335,0.501,0.53,0.852,0.53c0.141,0,0.284-0.031,0.419-0.098c0.47-0.231,0.663-0.801,0.432-1.271
		c-3.751-7.619-2.829-19.895-2.652-21.856c1.431,0.616,2.805,1.418,4.08,2.436c7.713,6.156,8.981,17.404,2.821,25.123
		c-0.989,1.24-2.104,2.309-3.326,3.211c-1.759-0.64-3.451-1.579-4.997-2.813c-7.719-6.161-8.981-17.404-2.821-25.123
		C134.365,402.311,135.136,401.519,135.96,400.808z"/>
	<path style="fill:#222221;" d="M422.453,293.935c0.471-2.4,0.628-4.833,0.467-7.232l-0.069-1.016l-0.884-0.505
		c-2.605-1.486-5.44-2.537-8.428-3.124c-1.222-0.24-2.467-0.4-3.701-0.477c-13.938-0.864-26.481,8.834-29.177,22.559
		c-0.471,2.4-0.629,4.833-0.467,7.232l0.069,1.018l0.887,0.504c2.616,1.487,5.45,2.538,8.425,3.122c1.22,0.24,2.464,0.4,3.697,0.476
		C407.211,317.358,419.757,307.66,422.453,293.935z M389.94,314.155c-2.804-0.551-5.407-1.534-7.771-2.867
		c1.343-2.177,9.607-14.668,24.668-18.651c0.506-0.134,0.809-0.653,0.675-1.16c-0.133-0.506-0.647-0.81-1.16-0.675
		c-12.967,3.429-20.961,12.602-24.274,17.2c0.069-1.158,0.214-2.324,0.444-3.495c2.553-12.999,14.329-21.829,27.198-21.031
		c1.143,0.071,2.298,0.218,3.453,0.445c2.835,0.557,5.479,1.555,7.853,2.91c0.149,2.214,0.011,4.466-0.436,6.738
		c-2.553,12.999-14.34,21.828-27.202,21.03C392.246,314.529,391.094,314.382,389.94,314.155z"/>
	<path style="fill:#222221;" d="M436.384,331.568c-0.374-1.941-1.064-3.81-2.052-5.556c-3.087-5.457-8.668-8.947-14.93-9.335
		c-3.561-0.221-7.092,0.595-10.212,2.36c-1.402,0.793-2.687,1.758-3.818,2.868l-0.728,0.714l0.194,1.001
		c0.378,1.946,1.068,3.815,2.051,5.553c3.086,5.456,8.668,8.945,14.932,9.333c3.561,0.221,7.091-0.595,10.208-2.358
		c1.402-0.793,2.687-1.758,3.818-2.868l0.727-0.713L436.384,331.568z M426.287,329.35c0.118,0.059,0.242,0.091,0.366,0.099
		c0.368,0.023,0.732-0.172,0.907-0.523c0.235-0.469,0.044-1.039-0.424-1.273c-7.322-3.658-15.746-4.875-19.44-5.248
		c0.753-0.628,1.546-1.217,2.43-1.717c2.895-1.638,6.072-2.309,9.16-2.117c5.402,0.335,10.531,3.311,13.395,8.375
		c0.902,1.594,1.512,3.279,1.84,4.98c-1.004,0.986-2.145,1.848-3.423,2.571c-2.894,1.637-6.07,2.307-9.157,2.116
		c-5.404-0.335-10.535-3.313-13.398-8.374c-0.727-1.285-1.253-2.625-1.607-3.991C410.119,324.55,418.906,325.662,426.287,329.35z"/>
</g>
</svg>
