<?xml version="1.0" standalone="no"?>
<!DOCTYPE svg PUBLIC "-//W3C//DTD SVG 20010904//EN"
 "http://www.w3.org/TR/2001/REC-SVG-20010904/DTD/svg10.dtd">
<svg version="1.0" xmlns="http://www.w3.org/2000/svg"
 width="512.000000pt" height="512.000000pt" viewBox="0 0 512.000000 512.000000"
 preserveAspectRatio="xMidYMid meet">
<metadata>
Created by potrace 1.16, written by Peter Selinger 2001-2019
</metadata>
<g transform="translate(0.000000,512.000000) scale(0.100000,-0.100000)"
fill="#000000" stroke="none">
<path d="M0 4821 c0 -238 -2 -231 56 -231 39 0 62 17 85 61 11 23 19 42 17 43
-2 1 -16 6 -32 11 -38 13 -55 39 -40 63 6 9 20 17 30 17 15 0 18 -6 16 -27 -4
-35 11 -36 26 -3 7 14 19 28 27 31 12 5 10 11 -12 32 -16 15 -41 33 -58 42
-24 12 -31 23 -33 52 -2 21 2 41 10 47 7 6 26 23 42 37 23 20 36 25 60 20 36
-8 70 -37 86 -77 9 -21 19 -29 37 -29 36 0 73 -42 73 -83 0 -35 -24 -67 -52
-67 -8 0 -20 -11 -26 -25 -13 -29 -57 -43 -83 -27 -26 16 -46 5 -52 -28 -9
-44 -77 -110 -115 -110 -17 0 -34 5 -37 10 -21 34 -25 -17 -25 -347 l0 -358
37 0 c32 0 39 -4 41 -22 2 -17 -7 -30 -37 -50 -22 -15 -40 -31 -41 -35 0 -17
27 -6 63 23 53 43 49 109 -6 109 -13 0 -17 5 -13 16 3 9 6 21 6 28 0 9 9 12
25 8 23 -4 25 -2 25 36 0 23 4 44 10 47 5 3 30 -35 55 -86 26 -50 62 -116 82
-145 33 -50 35 -58 31 -115 -4 -52 -9 -66 -32 -86 -33 -28 -57 -29 -79 -5 -14
15 -15 21 -3 38 31 46 24 55 -12 16 -21 -23 -45 -42 -53 -42 -16 0 -46 17 -39
22 3 2 19 10 35 18 32 17 41 44 30 89 l-7 26 -12 -30 c-19 -43 -41 -59 -76
-51 l-30 6 0 -464 0 -464 46 -16 c44 -15 133 -66 134 -77 0 -3 -40 -3 -90 -1
-77 4 -90 2 -90 -11 0 -14 14 -16 86 -16 47 1 87 -1 89 -3 3 -2 2 -28 -2 -57
l-6 -53 -67 6 c-66 7 -100 2 -100 -15 0 -5 36 -9 80 -9 l80 0 0 -32 c0 -74 -5
-78 -86 -78 -67 0 -74 -2 -74 -20 0 -17 8 -19 68 -22 l67 -3 0 -35 c0 -31 -3
-35 -38 -42 -21 -4 -51 -15 -67 -23 -25 -13 -30 -22 -30 -51 0 -31 3 -35 18
-28 9 4 49 19 87 33 96 34 228 36 333 3 l73 -23 -19 -32 c-20 -33 -22 -34 -57
-21 -19 6 -19 6 -4 -11 15 -15 15 -20 3 -44 -19 -36 -17 -64 7 -94 28 -37 98
-53 316 -72 l71 -7 4 -39 c2 -28 -1 -43 -14 -54 -12 -9 -18 -29 -18 -53 l0
-39 -97 -6 c-53 -4 -169 -4 -257 -1 -210 9 -298 -9 -386 -78 -66 -52 -81 -148
-36 -237 l25 -48 -27 4 c-26 4 -26 4 -8 -11 11 -9 26 -16 33 -16 11 0 11 -5 3
-20 -9 -16 -15 -18 -30 -10 -11 6 -20 9 -20 8 0 -2 18 -39 40 -83 46 -93 48
-105 17 -97 -16 4 -7 -8 30 -42 29 -26 62 -60 73 -76 l20 -28 -26 -5 c-19 -3
-43 7 -90 38 l-64 43 1 -101 c1 -102 2 -107 13 -54 9 37 48 36 107 -1 76 -50
80 -58 82 -171 2 -81 -1 -104 -15 -121 -17 -21 -17 -20 -83 46 -37 36 -69 63
-72 60 -3 -3 0 -12 6 -20 10 -12 8 -21 -9 -44 -30 -40 -24 -87 10 -88 69 -2
115 -46 135 -130 7 -32 12 -60 10 -62 -1 -2 -27 24 -56 57 -29 33 -55 59 -57
57 -12 -13 61 -120 118 -176 67 -64 72 -72 115 -198 3 -8 34 -12 109 -12 97 0
105 2 111 20 4 12 33 56 66 99 71 95 79 126 21 85 -21 -14 -22 -14 -22 8 0 27
19 58 63 105 17 18 27 33 21 33 -18 0 -55 -32 -85 -73 -26 -36 -29 -38 -29
-16 0 35 40 109 71 132 14 10 44 21 66 24 33 4 45 1 62 -16 26 -26 22 -49 -20
-102 -25 -31 -26 -36 -11 -45 15 -10 15 -13 -1 -37 -9 -14 -33 -38 -52 -53
-39 -30 -115 -129 -115 -151 0 -10 40 -13 200 -13 127 0 200 4 200 10 0 29
-85 82 -118 73 l-21 -5 22 -19 22 -18 -41 -1 c-22 0 -49 6 -60 14 -19 14 -19
15 5 40 l24 25 -37 22 c-31 18 -35 24 -24 37 17 20 87 51 115 52 27 0 47 -33
39 -65 -5 -19 1 -26 32 -43 26 -13 44 -34 62 -70 23 -47 27 -51 63 -51 32 -1
39 3 48 27 20 55 51 108 82 140 31 33 87 69 87 56 0 -3 -22 -34 -49 -68 -88
-111 -109 -156 -71 -156 13 0 25 12 35 37 9 21 25 48 37 60 27 29 97 56 134
51 28 -3 27 -5 -46 -67 -41 -35 -76 -68 -78 -73 -2 -4 60 -8 137 -8 78 0 141
4 141 8 0 13 -57 177 -69 201 -19 35 -6 24 23 -19 15 -23 40 -73 56 -113 26
-67 31 -72 61 -75 l32 -3 -5 170 c-3 94 -4 171 -2 171 1 0 10 -33 19 -73 11
-44 17 -109 16 -169 -1 -91 0 -98 19 -98 12 0 22 8 25 23 2 12 11 53 20 90 8
38 20 78 26 90 8 16 3 14 -17 -8 -26 -28 -26 -28 -19 -5 16 51 85 129 142 159
12 6 35 11 52 11 40 0 49 -32 26 -99 -13 -39 -32 -64 -96 -123 -43 -41 -79
-82 -79 -91 0 -11 14 -2 40 26 l39 42 -8 -31 c-5 -17 -14 -41 -20 -52 -15 -28
-14 -32 7 -32 9 0 26 16 37 37 21 40 77 76 132 86 31 6 30 5 -30 -56 l-62 -62
64 -3 c49 -2 68 1 82 14 25 23 24 32 -6 40 -32 8 -32 17 5 47 16 14 30 28 30
30 0 12 -126 5 -157 -8 -20 -9 -38 -13 -41 -10 -3 3 17 27 45 55 34 34 58 50
76 50 14 0 29 5 33 11 5 8 -6 10 -34 8 -38 -4 -39 -3 -31 19 25 65 1 132 -48
132 -59 0 -153 -69 -205 -149 -24 -39 -28 -42 -28 -20 0 45 -29 131 -56 171
-47 67 -109 86 -157 48 -16 -13 -40 -20 -67 -20 -45 0 -72 -11 -107 -43 -13
-11 -25 -18 -29 -15 -3 3 4 45 15 93 12 48 21 88 21 91 0 2 -11 11 -24 19 -21
14 -28 14 -58 2 -40 -18 -88 -67 -121 -125 l-24 -42 -44 48 c-24 26 -55 55
-67 64 l-24 16 22 30 c12 16 20 40 18 53 -3 22 -7 24 -63 23 -33 0 -75 -4 -92
-8 -31 -8 -33 -7 -33 18 0 18 5 26 18 26 16 1 16 1 -1 14 -10 8 -15 20 -11 30
8 20 17 20 55 1 58 -30 330 -115 368 -115 22 0 68 9 103 20 34 11 74 20 88 19
l25 0 -29 -15 c-58 -32 9 -52 204 -61 124 -5 137 -4 159 14 23 19 23 19 8 91
l-15 73 23 -15 c72 -47 321 -70 499 -47 113 15 153 32 162 65 3 14 9 26 13 26
4 0 61 -7 126 -16 158 -22 400 -22 534 -1 123 20 185 22 175 6 -6 -11 -141
-103 -216 -148 -80 -47 -61 -71 57 -71 60 0 87 5 110 19 30 17 33 17 120 0
109 -23 181 -24 272 -5 38 8 92 15 120 14 60 0 92 17 100 55 5 24 10 27 47 27
51 0 66 13 66 57 0 26 4 33 20 33 18 0 20 -7 20 -55 0 -31 -5 -59 -12 -65 -7
-5 -35 -27 -63 -49 -56 -43 -95 -99 -73 -105 33 -9 361 -41 423 -41 62 0 77 5
138 38 45 26 77 52 95 79 25 38 27 49 27 143 l0 102 30 -10 c29 -9 30 -10 27
-64 -3 -44 0 -57 14 -68 16 -11 23 -9 50 11 35 27 76 31 94 9 7 -8 21 -15 32
-15 10 0 30 -7 43 -16 14 -9 25 -12 25 -7 0 5 6 18 14 28 12 17 15 13 34 -46
11 -35 23 -80 25 -99 7 -51 -10 -143 -29 -157 -15 -11 -14 -14 5 -39 37 -47
22 -93 -36 -115 -34 -13 -60 7 -72 58 -6 23 -25 58 -41 77 l-30 34 30 12 c64
27 94 110 66 184 -33 86 -90 110 -161 66 -46 -28 -57 -51 -59 -117 -1 -49 -3
-53 -21 -49 -80 19 -94 18 -145 -10 -68 -37 -88 -64 -23 -30 79 40 179 31 230
-21 24 -23 25 -29 21 -106 -4 -52 -14 -104 -29 -141 -21 -54 -23 -57 -32 -35
l-10 24 -7 -25 c-7 -28 -15 2 -45 170 -17 96 -40 136 -76 132 -30 -3 -69 -40
-69 -64 0 -24 -8 -23 -32 7 -15 20 -29 25 -62 25 -53 0 -83 -21 -92 -65 l-6
-35 -61 51 c-34 28 -72 55 -84 60 -56 21 -149 21 -275 0 -199 -33 -204 -37
-201 -146 2 -68 1 -73 -27 -100 l-30 -29 0 32 c0 40 -16 50 -25 15 l-6 -26
-27 28 c-27 29 -41 21 -23 -14 17 -31 13 -35 -16 -16 -23 16 -25 16 -20 1 4
-9 1 -16 -6 -16 -20 -1 34 -40 55 -40 18 0 17 -4 -11 -35 -17 -20 -31 -40 -31
-45 0 -6 37 -10 86 -10 92 0 91 -2 47 56 -24 32 -30 54 -14 54 5 0 28 -21 51
-48 25 -28 40 -39 36 -27 -18 69 -19 78 -5 73 8 -2 19 -24 25 -47 l10 -43 17
26 c10 14 22 26 27 26 15 0 12 -26 -5 -40 -8 -7 -12 -16 -9 -21 7 -11 194 -12
194 -1 0 5 -23 27 -51 50 -38 31 -46 42 -32 42 22 0 100 -48 127 -78 11 -12
27 -22 37 -22 16 0 16 4 -2 62 -31 98 -18 114 16 23 l31 -80 179 -2 180 -3
-31 28 c-18 15 -50 42 -73 60 -22 18 -52 48 -67 67 -22 29 -24 38 -14 50 17
21 5 51 -14 36 -24 -20 -78 -32 -92 -20 -10 8 -54 3 -161 -16 -81 -14 -155
-28 -164 -31 -11 -3 -28 14 -53 52 -45 67 -42 89 9 80 41 -8 63 2 124 56 48
42 56 43 167 27 76 -12 77 -12 152 -85 74 -71 75 -73 60 -96 -16 -24 -15 -24
38 -52 30 -16 81 -57 114 -92 44 -47 66 -64 86 -64 21 0 25 3 19 18 -21 49
-47 175 -48 237 -2 75 22 137 55 143 29 6 68 -141 68 -256 l0 -54 -19 23 c-11
13 -22 21 -26 17 -13 -13 -17 -85 -6 -107 11 -20 19 -21 161 -21 83 0 150 4
150 9 0 9 -36 35 -79 57 l-25 13 30 12 c28 12 28 13 6 17 -19 3 -21 6 -11 18
27 33 120 6 174 -50 22 -22 46 -50 53 -61 11 -17 11 -16 5 15 -12 54 -9 106 7
126 8 9 43 30 78 45 48 22 62 33 62 49 0 17 -5 20 -20 16 -66 -19 -67 -19 -40
3 24 19 24 20 6 39 -23 26 -12 48 50 98 l46 38 -27 23 -27 23 31 11 c31 11 31
11 31 86 0 71 -1 75 -20 69 -63 -19 -66 -19 -35 8 30 26 28 34 -4 17 -16 -9
-14 2 11 97 35 134 35 152 6 152 -34 0 -137 -53 -185 -94 -24 -21 -62 -66 -85
-102 -66 -100 -74 -86 -29 47 66 196 157 315 312 406 16 10 29 26 29 36 0 21
3 22 -90 -40 -19 -12 -40 -23 -47 -23 -45 0 2 64 83 112 50 30 67 48 45 48 -5
0 -39 -20 -75 -44 -36 -24 -66 -42 -66 -40 0 3 11 21 25 41 13 20 22 39 20 42
-9 9 -72 -60 -91 -100 -26 -54 -36 -49 -17 8 18 52 87 127 166 180 31 22 47
40 47 54 0 20 -2 19 -35 -10 -20 -17 -37 -31 -38 -31 -1 0 -3 37 -5 81 l-3 81
40 -7 41 -7 -1 119 c0 65 -6 133 -13 151 l-12 34 -92 -90 c-82 -80 -145 -122
-160 -107 -9 8 38 53 69 65 24 10 41 38 100 159 39 80 78 174 87 208 15 58 15
64 0 79 -16 16 -19 13 -57 -47 -22 -35 -50 -88 -62 -116 -19 -48 -39 -62 -39
-28 0 32 -42 123 -80 173 l-40 53 47 -7 c47 -6 51 -4 148 61 55 37 101 73 103
81 5 19 -19 10 -93 -37 -59 -38 -60 -38 -67 -16 -3 12 -6 36 -7 54 -1 38 27
61 112 93 32 12 57 28 57 35 0 10 -7 12 -28 6 -36 -11 -112 -49 -133 -68 -15
-12 -17 -11 -22 9 -11 40 39 71 151 93 17 4 32 11 32 16 0 17 -49 60 -86 75
-47 20 -53 12 -15 -16 36 -25 39 -36 10 -45 -12 -4 -38 -23 -60 -42 l-38 -34
-6 33 c-23 127 -33 194 -30 197 2 2 54 6 115 9 72 3 109 9 107 16 -3 10 -173
11 -208 0 -12 -3 -18 3 -22 23 -6 34 0 47 80 156 45 61 64 93 60 107 -8 29 23
119 39 113 7 -2 22 0 33 7 20 10 21 19 21 175 0 170 -1 176 -41 155 -14 -8
-28 -7 -53 5 -51 24 -51 40 -1 70 49 28 95 82 95 110 0 13 -14 3 -50 -33 -34
-35 -67 -57 -102 -69 -47 -17 -53 -22 -75 -73 -33 -76 -53 -114 -76 -142 l-19
-23 7 45 c3 25 17 62 31 82 14 20 28 54 31 75 5 37 7 39 66 56 64 19 102 41
155 91 39 36 40 50 6 73 -26 17 -27 16 -48 -13 -47 -65 -99 -113 -146 -133
-39 -17 -50 -27 -50 -44 0 -25 -26 -67 -41 -67 -5 0 -9 28 -9 63 l0 62 78 52
c43 28 101 72 129 97 37 34 59 46 82 46 l31 0 0 96 0 95 -26 -20 c-29 -23 -83
-28 -101 -10 -9 9 -20 9 -43 0 -18 -6 -44 -8 -59 -5 -59 14 -108 94 -94 153 5
23 1 21 -31 -16 -42 -49 -80 -60 -127 -39 l-34 14 39 1 c54 1 94 30 141 100
38 58 55 73 55 51 0 -6 -7 -25 -16 -42 -12 -22 -14 -45 -10 -77 8 -57 28 -87
71 -108 28 -13 39 -14 61 -4 20 9 34 9 59 -1 29 -10 40 -9 74 7 l41 18 0 166
0 166 -21 -32 c-26 -40 -54 -50 -79 -28 -11 10 -17 22 -14 27 4 6 10 6 17 -1
20 -20 46 -12 62 19 20 39 19 48 -7 71 -21 18 -22 20 -3 17 11 -2 25 -14 32
-28 11 -21 13 25 13 263 l0 287 -137 0 -138 0 -1 -111 c-1 -108 -10 -139 -34
-124 -9 6 -11 38 -8 121 l5 114 -87 0 c-98 0 -100 -1 -100 -85 0 -35 5 -43 36
-64 127 -87 194 -245 161 -381 l-13 -55 -8 83 c-4 46 -14 105 -22 131 -18 62
-80 147 -139 191 l-47 35 5 55 c2 30 8 63 12 73 7 16 -10 17 -280 17 -251 0
-286 -2 -281 -15 3 -8 3 -22 -1 -30 -11 -31 -103 -61 -103 -35 0 6 6 10 14 10
25 0 58 34 51 53 -7 16 -62 17 -921 17 l-914 0 0 -23 c0 -13 -6 -32 -14 -43
-16 -21 -18 -18 -30 39 l-6 27 -314 0 -313 0 -11 -25 c-17 -37 -15 -52 9 -76
26 -26 67 -20 151 22 31 16 60 29 62 29 3 0 -2 -20 -11 -44 -14 -37 -15 -47
-4 -60 15 -18 63 -21 89 -7 12 7 25 4 41 -8 l22 -17 -49 -31 c-61 -38 -87 -73
-78 -109 16 -64 174 -72 224 -12 11 14 16 12 42 -13 30 -30 76 -39 97 -18 13
13 43 5 43 -11 0 -5 -28 -24 -62 -41 -131 -66 -177 -113 -164 -165 9 -36 45
-39 116 -10 l62 25 -26 -28 c-32 -33 -36 -85 -7 -101 29 -15 85 -12 131 6 40
16 42 16 56 -5 19 -26 85 -29 144 -5 63 25 59 9 -6 -24 -93 -47 -126 -89 -110
-140 15 -47 87 -47 177 -2 25 13 48 17 76 13 34 -4 45 -1 64 18 15 15 33 22
49 21 19 -2 42 10 82 42 30 25 58 46 62 46 3 0 4 -11 0 -24 -12 -51 36 -92 88
-74 25 9 95 74 150 141 l23 28 -3 -81 c-6 -127 26 -174 87 -131 36 26 103 124
127 186 l17 45 34 -50 c61 -90 145 -127 265 -115 68 7 69 7 57 -13 -17 -27 1
-49 46 -58 41 -7 91 17 107 52 10 21 8 27 -11 40 -30 21 -43 59 -35 100 8 42
24 35 24 -10 0 -36 21 -62 44 -53 10 4 16 -2 18 -21 7 -63 113 -50 113 15 0
30 1 31 26 18 34 -18 68 -8 75 21 8 30 -15 66 -56 90 -28 17 -39 34 -22 34 16
0 122 -91 122 -106 0 -8 -12 -27 -27 -41 l-28 -26 49 7 c60 7 62 10 49 39 -11
23 -10 24 36 23 41 -1 55 -7 99 -45 54 -45 62 -54 37 -45 -8 4 -52 1 -97 -6
-75 -11 -88 -10 -140 7 -32 11 -58 16 -58 12 0 -12 70 -67 108 -85 61 -29 94
-28 170 4 40 17 74 26 77 22 3 -5 -3 -11 -13 -14 -34 -11 -62 -46 -62 -77 0
-26 -3 -30 -17 -24 -10 4 -35 9 -55 12 -44 7 -68 -9 -68 -43 0 -20 -5 -24 -30
-24 -33 0 -80 -38 -80 -63 0 -36 36 -60 95 -65 33 -3 66 -11 74 -20 10 -10 27
-13 58 -8 24 3 43 3 43 1 0 -13 -79 -85 -93 -85 -23 0 -67 -58 -67 -89 0 -15
-7 -42 -16 -59 -14 -30 -19 -32 -66 -32 -33 0 -58 -6 -69 -16 -13 -12 -22 -13
-38 -5 -30 17 -59 13 -71 -8 -18 -34 -11 -60 26 -101 61 -67 23 -45 -58 34
-85 83 -145 119 -198 119 -42 0 -148 -52 -240 -117 l-65 -46 -32 36 c-27 30
-30 40 -22 56 14 25 3 35 -21 20 -16 -10 -22 -7 -42 17 -13 16 -64 75 -114
133 -50 57 -110 132 -133 166 -24 34 -44 62 -46 62 -2 0 -16 -21 -31 -47 -58
-100 -127 -196 -145 -200 -13 -4 -18 -11 -14 -23 8 -25 -66 -115 -114 -139
-23 -12 -48 -37 -64 -63 -22 -37 -23 -44 -10 -54 14 -9 12 -15 -13 -43 l-29
-32 -100 80 c-55 45 -104 81 -108 81 -5 0 -23 -11 -41 -25 l-33 -25 -39 55
c-22 31 -46 54 -54 52 -8 -1 -38 -43 -66 -92 -56 -97 -166 -235 -188 -235 -7
0 -19 14 -26 30 -7 17 -17 30 -22 30 -5 0 -21 -26 -36 -59 -24 -55 -29 -60
-90 -86 l-64 -28 -71 34 c-84 40 -192 109 -262 167 -27 23 -54 42 -59 42 -5 0
-24 -11 -42 -25 -27 -21 -38 -24 -53 -15 -16 8 -35 1 -103 -41 -46 -28 -91
-58 -101 -67 -14 -13 -25 -14 -65 -4 -51 11 -111 3 -137 -18 -12 -10 -15 -10
-15 0 0 6 31 42 69 78 44 44 83 94 111 145 36 66 44 75 54 62 6 -9 30 -19 52
-22 51 -7 101 17 117 57 11 25 14 27 32 14 38 -28 105 -6 105 34 0 7 13 12 29
12 38 0 81 35 81 66 0 14 -7 38 -15 53 -14 28 -14 29 16 41 35 15 59 46 59 77
l0 23 430 0 c359 0 430 2 430 14 0 16 -74 86 -91 86 -6 0 -27 13 -45 30 -65
57 -156 63 -214 13 -28 -23 -33 -24 -60 -13 -22 9 -33 23 -40 49 -25 93 -110
158 -196 148 -55 -6 -116 -45 -152 -97 -41 -59 -68 -50 -63 22 2 44 -11 75
-46 103 -21 18 -23 23 -13 51 17 50 -8 98 -64 126 -35 17 -46 27 -46 45 0 13
-11 35 -26 48 -24 23 -24 24 -5 30 85 27 76 174 -11 205 -28 11 -36 20 -44 55
l-10 42 42 -5 c36 -4 47 0 68 21 27 27 33 65 16 97 -7 13 -6 21 5 30 18 15 20
51 3 68 -9 9 -168 12 -655 12 l-643 0 0 -219z m615 185 c15 -23 12 -56 -6 -56
-5 0 -12 7 -15 15 -4 8 -17 15 -30 15 -34 0 -31 -33 4 -51 15 -8 30 -18 34
-23 4 -6 17 -5 33 2 58 27 128 -43 105 -104 -6 -15 -26 -32 -52 -44 -27 -12
-37 -21 -28 -24 8 -2 39 -12 67 -21 77 -24 103 -72 67 -123 -19 -28 -67 -29
-94 -2 -11 11 -20 25 -20 30 0 16 -42 12 -61 -6 -23 -21 -65 -21 -88 0 -16 15
-19 15 -31 1 -17 -21 -54 -15 -58 8 -2 10 5 25 15 32 26 19 12 27 -26 14 -42
-15 -81 1 -81 33 0 33 63 81 99 76 27 -4 27 -3 17 24 -9 23 -8 31 4 38 8 5 23
7 33 4 21 -7 23 12 2 20 -21 8 -19 33 5 63 11 14 20 31 20 38 0 19 40 65 55
65 8 0 21 -11 30 -24z m3608 -47 c-5 -43 -3 -54 12 -66 14 -9 16 -16 8 -24
-19 -19 -53 7 -53 42 0 29 24 99 34 99 3 0 2 -23 -1 -51z m211 24 c-9 -37 -8
-37 -44 -18 -35 18 -35 23 0 30 12 2 25 7 28 10 14 13 22 2 16 -22z m-1687
-77 c-64 -139 -210 -226 -380 -226 -84 0 -136 21 -184 71 -32 34 -75 119 -87
172 -10 45 10 31 32 -23 55 -133 120 -183 234 -182 164 1 317 94 379 231 18
42 25 50 27 33 2 -12 -8 -46 -21 -76z m-162 35 c-16 -36 -41 -58 -52 -47 -6 5
60 95 66 90 2 -2 -4 -22 -14 -43z m494 40 c11 -7 10 -13 -4 -35 -19 -28 -34
-33 -53 -14 -18 18 -15 34 11 46 28 13 29 14 46 3z m703 -270 c32 -7 64 -11
72 -8 9 4 32 32 53 63 51 77 54 52 4 -42 -22 -43 -38 -81 -35 -86 3 -4 17 -8
32 -8 32 0 144 -28 154 -38 4 -4 -44 -3 -106 2 -107 8 -120 7 -223 -19 -59
-15 -144 -29 -188 -32 -70 -4 -86 -2 -125 19 -47 24 -90 77 -90 111 0 16 10
10 48 -32 42 -46 53 -53 101 -60 113 -17 351 36 351 79 0 5 -24 16 -54 24 -29
9 -59 22 -66 30 -9 12 -15 13 -31 3 -29 -18 -67 8 -110 74 -53 79 -125 124
-211 132 -69 6 -108 20 -108 38 0 6 7 6 19 -1 30 -16 186 -12 227 5 45 19 43
-3 -3 -26 l-31 -16 34 -18 c33 -18 68 -54 122 -124 14 -19 33 -31 46 -31 22 0
23 4 29 104 10 156 21 159 27 6 l5 -135 57 -14z m88 184 c-25 -51 -118 -141
-132 -127 -6 6 10 29 39 58 27 27 62 76 79 109 26 54 29 57 32 32 2 -15 -6
-48 -18 -72z m-910 34 c0 -50 34 -132 70 -170 51 -54 137 -72 234 -49 57 13
76 37 83 104 7 70 27 70 31 0 6 -101 -56 -146 -203 -148 -70 -1 -86 2 -126 26
-56 33 -93 97 -109 191 -13 71 -7 115 10 87 6 -8 10 -27 10 -41z m2043 -13
c11 -8 15 -20 11 -30 -6 -15 -9 -15 -30 5 -13 12 -24 26 -24 31 0 12 23 9 43
-6z m-2663 -36 c0 -33 -2 -35 -31 -19 -20 10 -20 11 -3 30 24 27 34 24 34 -11z
m-1465 -10 c14 -27 18 -29 37 -19 11 6 36 9 54 6 19 -3 34 -2 34 3 0 5 11 17
25 26 36 24 79 5 72 -31 -2 -14 -1 -25 3 -25 3 0 16 -9 28 -20 30 -28 29 -77
-3 -120 -14 -18 -22 -36 -19 -39 3 -3 8 -1 12 5 12 18 56 44 75 44 31 0 67
-45 67 -85 0 -41 -44 -95 -76 -95 -15 0 -11 -6 14 -29 39 -36 39 -43 6 -87
-16 -20 -24 -40 -20 -50 5 -14 9 -13 25 7 17 21 21 22 58 11 22 -6 48 -21 58
-32 23 -26 23 -74 0 -100 -21 -23 -21 -22 19 -35 36 -12 70 -66 62 -98 -3 -12
-19 -38 -35 -57 l-29 -35 -11 28 c-6 15 -12 27 -13 27 -2 0 -2 -26 0 -59 3
-50 7 -60 28 -71 46 -25 43 -89 -6 -115 -41 -21 -46 -19 -56 18 l-8 32 -3 -32
c-4 -27 -9 -33 -28 -33 -13 0 -29 8 -34 18 -8 15 -4 21 24 36 29 16 32 22 25
41 -7 18 -4 27 11 41 38 34 14 97 -46 118 -14 5 -10 -2 13 -23 37 -34 41 -64
12 -84 -13 -9 -18 -20 -14 -31 9 -24 -24 -56 -58 -56 -27 0 -49 16 -76 56 -12
18 -12 18 -6 -4 6 -24 -18 -72 -37 -72 -6 0 -20 -11 -31 -25 -20 -26 -52 -33
-63 -15 -4 6 -21 8 -40 4 -27 -5 -35 -2 -44 15 -9 17 -9 21 3 21 7 0 24 9 37
19 l24 20 -47 -2 c-38 -2 -49 -6 -57 -24 -6 -12 -21 -25 -35 -29 l-25 -6 20
-31 c10 -18 19 -39 19 -48 0 -25 -39 -69 -61 -69 -11 0 -28 -5 -39 -12 -28
-18 -72 1 -90 38 -14 29 -18 31 -56 26 -35 -4 -44 -1 -58 19 -9 13 -16 32 -16
42 0 15 -10 11 -57 -22 -31 -23 -60 -41 -65 -41 -21 0 -3 21 45 51 66 43 131
102 157 144 17 28 27 33 68 37 61 6 113 31 157 77 30 31 42 37 68 33 l32 -4
-34 35 c-37 40 -36 67 2 67 33 0 50 -23 45 -60 -4 -24 -2 -27 9 -18 8 6 13 25
11 42 -2 24 -11 35 -35 46 -23 10 -31 20 -26 30 15 38 14 69 -4 87 -10 10 -17
27 -15 37 2 10 -1 29 -8 41 -16 30 3 101 30 110 25 8 45 43 41 73 -3 25 11 29
29 7 18 -22 35 -18 48 9 9 20 7 27 -9 42 -10 9 -19 29 -19 43 0 46 -14 54 -40
26 -29 -31 -79 -34 -105 -5 -18 20 -18 22 -1 51 10 17 16 32 14 34 -8 8 -48
-26 -48 -40 0 -11 -6 -12 -32 -3 -36 12 -59 28 -40 28 6 0 23 20 38 45 20 35
88 105 101 105 1 0 10 -14 18 -30z m1169 -5 c16 -24 16 -25 -8 -25 -29 0 -39
11 -30 34 9 22 19 20 38 -9z m2559 -18 c61 -36 111 -94 138 -163 33 -84 34
-250 2 -309 -28 -52 -77 -101 -127 -128 -46 -24 -149 -28 -222 -8 -90 24 -185
116 -219 211 -17 49 -20 148 -5 202 14 48 67 124 113 161 87 71 231 86 320 34z
m475 1 c-3 -7 -36 -35 -76 -61 -84 -58 -106 -99 -77 -144 15 -22 22 -24 52
-20 20 4 46 16 59 28 19 18 24 19 24 7 0 -9 -14 -28 -31 -42 -68 -58 -157 -17
-146 66 7 50 63 127 113 155 43 25 88 31 82 11z m-2628 -62 c0 -16 -18 -31
-27 -22 -8 8 5 36 17 36 5 0 10 -6 10 -14z m403 -70 c18 -27 44 -58 58 -69 34
-24 137 -34 179 -17 43 18 49 5 9 -19 -47 -29 -131 -28 -189 2 -34 17 -51 35
-76 82 -18 33 -35 71 -38 85 -7 24 -6 24 9 5 9 -11 30 -42 48 -69z m1280 5 c4
-5 2 -13 -5 -19 -10 -7 -21 -4 -43 15 l-30 25 35 -7 c19 -4 39 -10 43 -14z
m-1492 -132 c-28 -46 -28 -122 -1 -149 51 -51 180 -6 253 86 42 54 57 65 57
41 0 -19 -53 -98 -86 -129 -82 -76 -228 -78 -262 -3 -25 55 -9 136 36 188 24
28 26 4 3 -34z m-237 -10 c-10 -12 -31 -27 -46 -35 -22 -12 -27 -11 -32 1 -4
10 9 22 42 39 53 27 64 26 36 -5z m743 -59 c10 1 29 7 43 15 32 18 40 18 40 1
0 -22 -40 -46 -77 -46 -37 0 -73 29 -73 58 0 32 13 33 31 2 11 -17 27 -30 36
-30z m-2787 27 c14 0 35 4 46 8 16 5 22 2 27 -14 6 -26 70 -55 99 -45 12 3 32
18 45 32 27 29 40 24 23 -8 -27 -50 -103 -56 -169 -13 -15 10 -41 16 -61 14
-27 -2 -41 4 -55 20 -20 22 -20 22 0 14 11 -5 31 -8 45 -8z m3493 -54 c-4 -11
-11 -9 -29 8 -33 31 -30 44 5 23 17 -10 27 -23 24 -31z m-394 -6 c-6 -10 -8
-25 -5 -34 6 -15 18 -15 76 3 l25 8 -18 -27 c-40 -62 45 -115 107 -66 l26 20
0 -30 c0 -16 -4 -41 -10 -55 -8 -21 -16 -26 -46 -26 -52 0 -91 27 -111 77 -10
24 -23 43 -30 43 -22 0 -63 61 -63 95 0 33 1 33 29 22 25 -9 28 -14 20 -30z
m-1214 13 c9 -15 -4 -50 -20 -50 -18 0 -28 30 -14 46 14 17 25 18 34 4z m157
-27 c22 -20 23 -33 3 -33 -12 0 -35 28 -35 44 0 11 13 6 32 -11z m2502 -17
c-9 -24 15 -58 39 -54 16 2 23 12 28 38 l5 35 14 -27 c12 -25 11 -30 -13 -61
l-26 -34 32 -31 c36 -36 24 -41 -32 -13 -51 26 -87 94 -72 134 6 15 15 27 20
27 6 0 8 -6 5 -14z m-4616 -54 c3 -34 -2 -47 -22 -67 -14 -14 -26 -29 -26 -32
0 -12 174 -183 187 -183 10 0 13 -30 13 -133 0 -121 -2 -136 -20 -152 -20 -18
-20 -17 -20 121 l0 140 -55 54 c-31 30 -72 78 -92 107 -34 49 -34 52 -19 74 9
13 16 42 16 65 0 22 3 44 7 48 15 15 28 -3 31 -42z m3582 -58 c0 -15 -22 1
-35 26 -26 49 -17 69 10 21 14 -23 25 -45 25 -47z m-3384 40 c-4 -14 -18 -43
-31 -65 -20 -31 -25 -51 -25 -109 0 -66 -10 -90 -24 -54 -11 28 -7 166 4 159
12 -8 44 28 61 68 14 34 23 35 15 1z m344 -19 c6 -8 9 -23 6 -33 -4 -12 1 -25
14 -37 28 -26 25 -62 -9 -96 -31 -30 -68 -38 -89 -17 -15 15 -16 48 -2 48 6 0
10 5 10 11 0 6 -9 8 -20 4 -24 -8 -50 10 -50 33 0 26 31 52 62 52 25 0 27 2
19 19 -6 10 -7 21 -4 25 12 11 50 6 63 -9z m-707 -19 c26 -21 27 -24 11 -36
-14 -13 -19 -11 -35 9 -19 23 -25 51 -11 51 4 -1 20 -11 35 -24z m572 -141
c31 -30 31 -41 1 -47 -31 -6 -46 8 -46 44 0 34 13 36 45 3z m4234 -9 c13 -15
-4 -26 -40 -26 -22 0 -24 11 -7 28 16 16 33 15 47 -2z m-3184 -56 c23 -14 43
-40 60 -78 52 -113 47 -107 88 -104 23 2 47 13 61 27 14 13 36 27 51 31 38 10
112 -15 138 -46 13 -15 34 -30 48 -33 13 -4 38 -18 54 -31 l30 -25 -391 -1
c-215 0 -405 -3 -423 -6 -26 -6 -32 -3 -40 18 -5 14 -23 36 -40 51 -34 28 -38
37 -18 37 8 0 24 11 37 25 17 19 27 22 41 15 28 -16 34 -12 56 34 50 102 160
140 248 86z m-1442 -147 c-10 -157 -10 -157 -71 -65 -28 44 -52 83 -52 86 0 4
14 12 31 18 35 12 52 48 44 92 l-6 31 30 -32 30 -33 -6 -97z m266 130 c21 -18
21 -19 5 -68 -18 -53 -58 -118 -91 -148 -20 -17 -20 -17 -27 29 -10 76 -8 91
14 97 13 3 29 25 43 56 12 28 25 51 28 51 4 0 16 -8 28 -17z m4061 -20 c0 -14
-12 -42 -26 -60 l-26 -35 18 -35 c40 -73 111 -123 177 -123 37 0 75 30 99 79
l25 49 37 -32 c36 -30 37 -32 19 -48 -25 -23 -111 -64 -150 -73 -43 -9 -133
18 -173 51 -36 31 -60 73 -60 106 0 21 -4 23 -38 20 -26 -3 -45 2 -63 17 -34
27 -65 89 -50 104 7 7 15 -3 27 -32 18 -45 38 -61 79 -61 32 0 70 39 79 81 7
36 26 30 26 -8z m-3847 8 c15 -8 27 -19 27 -26 0 -30 -88 -88 -151 -100 l-36
-7 22 69 c22 66 23 68 61 74 45 7 41 7 77 -10z m3963 -78 c-31 -26 -78 -30
-96 -8 -11 13 -7 15 28 15 24 0 49 7 63 19 34 28 38 3 5 -26z m-382 -54 c45
-12 49 -34 4 -25 -36 7 -54 20 -70 50 -11 20 -10 21 9 3 12 -10 37 -22 57 -28z
m116 -125 c16 -38 23 -44 50 -44 17 0 44 7 60 15 29 15 30 15 30 -9 0 -33 45
-50 115 -44 52 4 104 30 253 126 12 8 22 10 22 4 0 -15 -105 -91 -179 -130
-57 -29 -73 -33 -118 -30 -46 4 -52 2 -55 -15 -5 -36 -34 -44 -67 -19 -17 12
-40 22 -52 22 -11 0 -32 9 -46 20 -31 24 -69 26 -77 3 -5 -12 -9 -14 -18 -5
-27 27 -98 1 -98 -35 0 -7 -9 -13 -20 -13 -25 0 -37 -27 -23 -49 5 -9 27 -18
48 -21 44 -6 61 -30 21 -30 -31 0 -69 -34 -64 -58 2 -9 18 -21 36 -27 25 -7
32 -15 32 -34 0 -13 8 -33 17 -43 13 -14 14 -21 5 -30 -20 -20 -13 -35 20 -44
20 -6 34 -17 36 -29 2 -11 16 -33 30 -48 22 -23 33 -27 59 -22 28 5 34 2 48
-24 19 -38 19 -61 0 -88 -10 -14 -22 -19 -35 -16 -25 7 -37 -20 -22 -50 10
-21 11 -21 11 6 1 15 5 27 10 27 7 0 81 -75 81 -83 0 -1 -16 -3 -35 -5 -25 -1
-37 3 -42 13 -5 13 -8 13 -20 -5 -18 -26 -72 -27 -104 -1 -21 17 -22 21 -10
47 l13 28 17 -23 c11 -15 23 -21 30 -16 9 5 0 15 -26 31 -44 27 -63 30 -63 9
0 -18 -72 -65 -99 -65 -11 0 -26 9 -34 20 -13 18 -18 19 -40 9 -21 -9 -30 -9
-42 1 -26 22 -14 44 25 44 34 1 35 2 35 39 0 28 6 44 24 58 34 28 51 24 51
-11 0 -16 5 -30 11 -30 6 0 9 16 7 38 -3 34 -5 37 -33 35 -68 -6 -81 -5 -102
2 -17 5 -23 3 -23 -8 0 -28 -42 -32 -62 -7 -23 28 -23 35 3 61 15 15 30 20 50
17 35 -5 39 7 5 16 -34 8 -74 -9 -88 -39 -9 -19 -7 -34 7 -71 22 -57 10 -74
-31 -48 -17 10 -24 12 -16 4 18 -21 15 -51 -10 -77 -26 -28 -49 -29 -73 -3
-19 21 -14 26 35 32 14 2 26 11 28 21 3 16 1 17 -17 5 -18 -11 -24 -9 -51 17
-40 38 -39 55 4 55 19 0 38 5 41 10 3 6 -1 10 -9 10 -29 0 -55 48 -52 96 4 56
30 87 68 82 23 -4 25 -2 18 13 -7 12 -5 21 5 29 8 7 15 25 15 41 0 36 48 69
100 69 l35 0 1 66 c1 81 25 120 72 118 24 -1 32 3 36 21 7 28 31 38 56 25 50
-27 110 11 125 80 6 25 9 29 21 19 8 -6 23 -31 34 -55z m-1506 -42 c14 -23 45
-55 67 -72 23 -16 93 -87 157 -157 64 -70 229 -241 366 -380 225 -226 258
-255 319 -283 49 -23 67 -37 67 -51 0 -13 -7 -19 -24 -19 -38 0 -56 10 -72 42
l-15 29 -20 -25 c-13 -17 -29 -25 -47 -24 -15 0 -52 -2 -82 -6 l-55 -8 -23 59
c-31 80 -94 196 -109 201 -22 6 -16 -168 9 -285 12 -57 18 -106 15 -110 -12
-11 -50 13 -137 87 -47 39 -98 81 -113 92 l-28 20 23 -34 c13 -19 34 -57 47
-86 27 -57 41 -66 41 -25 l0 26 26 -24 25 -24 -28 -22 c-15 -13 -32 -23 -38
-23 -12 0 -151 166 -222 265 -27 39 -83 124 -123 190 -86 141 -104 163 -61 79
l30 -62 -29 -4 c-16 -2 -27 -1 -24 4 7 10 -139 10 -186 0 -68 -15 -73 -8 -41
56 33 66 65 161 58 169 -3 3 -15 -14 -27 -37 -19 -38 -82 -143 -117 -197 -14
-22 -14 -22 21 -16 20 3 36 3 36 0 0 -12 -154 -204 -209 -260 -63 -66 -173
-157 -189 -157 -18 0 -62 23 -62 32 0 4 19 25 42 46 92 80 163 150 222 217 34
39 -25 -13 -131 -115 -106 -102 -203 -189 -216 -194 -13 -5 -46 -5 -72 -1
l-49 7 40 35 c33 29 34 32 9 18 -16 -10 -39 -24 -50 -32 -28 -19 -63 -16 -92
7 l-26 20 26 0 c20 0 61 33 169 134 317 296 484 472 616 647 67 89 75 96 122
108 48 12 51 12 81 -13 37 -31 43 -32 79 -6 l28 20 33 -57 c17 -32 46 -83 62
-113 101 -182 183 -287 251 -322 34 -17 145 -41 154 -33 2 2 -10 16 -27 31
-16 16 -74 94 -129 174 -141 204 -154 222 -157 218 -2 -2 5 -41 16 -88 22 -99
22 -103 9 -95 -14 9 -133 209 -176 299 l-39 78 -79 -6 c-43 -4 -87 -11 -98
-17 -23 -12 -26 -19 46 94 l50 77 17 -27 c9 -16 29 -47 43 -71z m-1824 -15 c0
-12 -4 -29 -10 -37 -8 -12 -10 -12 -16 3 -8 22 4 70 16 62 6 -3 10 -16 10 -28z
m-70 -162 c-13 -24 -49 -45 -79 -45 -10 0 -28 12 -42 27 -21 23 -22 25 -4 18
52 -21 75 -18 103 13 29 32 42 25 22 -13z m-635 -325 c9 7 15 30 15 54 0 32
11 59 46 116 54 87 52 85 59 78 3 -3 -5 -36 -19 -74 -14 -37 -23 -71 -20 -76
10 -16 -118 -170 -130 -157 -2 2 0 49 5 104 4 55 8 141 9 191 0 166 15 109 18
-71 2 -155 4 -176 17 -165z m86 246 c-61 -84 -81 -106 -81 -88 0 14 131 184
137 178 3 -3 -23 -43 -56 -90z m4026 35 c1 -8 24 -37 52 -65 45 -46 51 -57 51
-94 0 -47 1 -46 -35 -30 -20 9 -28 9 -37 0 -9 -9 -2 -22 30 -55 23 -23 42 -51
42 -62 0 -14 -15 -3 -52 39 -29 33 -58 69 -65 81 -7 12 -22 25 -34 28 -17 5
-20 10 -15 29 4 13 10 34 13 48 5 22 4 23 -9 12 -11 -9 -23 -10 -42 -2 -21 8
-26 7 -26 -5 0 -8 -7 -15 -15 -15 -19 0 -20 43 -2 59 8 6 30 13 50 15 57 8 79
23 67 46 -5 10 -10 22 -10 27 0 12 34 -40 37 -56z m57 19 c4 0 15 8 24 17 16
16 17 14 20 -29 2 -37 10 -51 42 -83 40 -39 49 -55 31 -55 -15 0 -121 101
-121 115 0 8 -5 17 -12 21 -7 5 -8 3 -3 -6 5 -9 4 -11 -4 -6 -6 4 -9 11 -6 16
3 4 -2 13 -10 20 -8 7 -15 17 -15 23 0 6 10 1 23 -11 13 -12 27 -22 31 -22z
m-1039 -50 c-41 -103 -67 -143 -112 -166 l-41 -22 -43 44 c-26 27 -40 48 -34
52 6 4 40 27 75 52 66 45 159 99 172 100 3 0 -4 -27 -17 -60z m60 -52 c8 -97
10 -93 -62 -101 l-41 -5 28 67 c15 36 34 85 41 109 16 57 25 39 34 -70z m75
91 c51 -30 179 -167 162 -174 -8 -3 -58 -5 -112 -5 l-97 0 -7 83 c-4 45 -9 90
-12 100 -7 24 22 22 66 -4z m308 -15 c-18 -9 -31 -28 -38 -54 -6 -22 -20 -45
-31 -51 -31 -16 -81 33 -77 76 3 26 7 30 33 30 25 0 31 -4 33 -27 2 -14 10
-32 18 -38 12 -11 14 -7 14 22 0 41 15 58 50 58 l25 -1 -27 -15z m-3540 -41
c-10 -13 -13 -12 -19 4 -9 25 0 36 17 22 11 -9 12 -15 2 -26z m3860 20 c-2
-10 -13 -19 -26 -21 -24 -4 -29 7 -10 26 18 18 40 15 36 -5z m-3438 -62 c0
-45 -146 -231 -180 -231 -6 0 -10 17 -10 39 0 45 55 139 81 140 32 2 69 41 69
73 0 30 0 31 20 13 11 -10 20 -25 20 -34z m1340 -106 c44 -65 55 -76 64 -63 8
14 15 11 53 -20 l43 -36 -92 -94 c-51 -51 -105 -102 -121 -113 l-27 -21 1 189
c1 121 -2 204 -10 233 -7 25 -15 54 -18 65 -6 22 26 -20 107 -140z m382 115
c-15 -26 -19 -28 -32 -14 -13 14 -13 17 4 30 34 25 47 18 28 -16z m-1887 -1
c-4 -5 1 -19 11 -30 17 -19 17 -21 -2 -46 -32 -43 -42 -39 -46 17 -2 38 1 54
12 61 21 12 32 11 25 -2z m1396 -61 c15 -67 18 -320 5 -354 -6 -16 -11 -11
-24 25 -10 23 -21 44 -27 45 -5 0 -20 -35 -33 -78 -12 -44 -24 -81 -26 -84
-11 -10 -26 12 -32 46 -11 63 -43 109 -93 134 -25 13 -48 24 -50 26 -3 1 22
26 55 55 91 80 113 105 156 184 22 40 43 71 47 68 5 -2 14 -33 22 -67z m2928
12 c4 0 14 11 21 25 7 14 15 23 18 21 2 -3 -9 -28 -24 -57 -21 -38 -50 -67
-109 -112 -44 -33 -95 -74 -112 -90 -18 -17 -35 -29 -37 -26 -2 2 -7 46 -11
97 -7 79 -5 92 8 92 8 0 25 -15 36 -34 38 -61 45 -62 101 -21 68 50 81 70 74
119 l-5 41 16 -27 c9 -16 19 -28 24 -28z m-4897 -155 c17 -38 44 -91 60 -116
29 -48 32 -65 22 -118 l-6 -31 -88 0 -88 0 -6 103 c-3 56 -7 132 -9 169 l-3
67 33 6 c18 3 33 7 33 9 0 2 -7 23 -15 46 -25 70 -16 70 11 0 13 -36 39 -96
56 -135z m498 163 c0 -25 -3 -29 -10 -18 -13 20 -13 50 0 50 6 0 10 -15 10
-32z m1725 -41 c47 -38 85 -72 85 -76 0 -4 -13 -20 -28 -34 l-29 -28 -89 85
-89 85 25 20 c14 12 28 20 32 18 4 -1 45 -33 93 -70z m-2167 27 l52 3 -1 -86
c-1 -47 -4 -97 -8 -111 -6 -23 -8 -22 -33 20 -39 69 -88 168 -88 181 0 8 4 8
13 1 7 -6 36 -9 65 -8z m3648 -76 c-3 -13 -6 -36 -6 -53 0 -27 -1 -28 -16 -13
-14 13 -15 22 -5 50 l11 33 -20 -24 c-27 -31 -25 -45 8 -82 27 -31 28 -33 13
-64 -10 -22 -27 -36 -46 -42 -36 -10 -46 -54 -20 -83 15 -17 15 -20 0 -44
l-17 -26 -102 95 c-56 52 -130 126 -164 165 l-62 69 42 12 c44 11 201 25 322
28 66 1 68 0 62 -21z m-3214 -80 c3 -29 6 -70 7 -91 l1 -39 -35 42 c-19 23
-43 55 -52 71 -17 28 -33 38 -33 21 0 -13 55 -96 74 -111 9 -8 21 -22 26 -32
8 -15 1 -18 -63 -28 -39 -6 -84 -14 -99 -17 -28 -6 -28 -6 -27 47 1 73 7 87
61 163 l47 65 43 -19 c41 -18 43 -21 50 -72z m588 41 c0 -18 60 -165 75 -185
8 -10 -1 25 -20 80 -19 54 -35 102 -35 107 0 5 25 -11 55 -35 71 -59 188 -126
357 -206 75 -36 136 -69 134 -75 -2 -5 -16 -10 -32 -10 -16 -1 -54 -13 -84
-27 l-55 -26 -10 35 c-10 32 -12 33 -27 16 -8 -10 -14 -24 -12 -31 1 -7 0 -8
-2 -3 -3 6 -12 7 -20 4 -8 -3 -14 1 -14 11 0 23 -40 126 -50 126 -4 0 -11 -11
-14 -25 -3 -13 -11 -37 -17 -52 l-10 -28 -18 40 -17 39 -17 -42 c-19 -47 -19
-47 -77 -27 -23 8 -52 15 -64 15 -16 0 -25 10 -35 36 l-13 36 -26 -36 c-30
-43 -49 -46 -58 -8 -11 53 -36 122 -44 127 -5 3 -14 -14 -21 -37 -6 -24 -13
-50 -16 -58 -3 -9 -14 3 -31 35 l-26 50 -9 -50 c-4 -27 -11 -53 -15 -57 -4 -3
-62 -8 -130 -10 l-122 -3 0 62 c0 60 1 63 32 79 43 22 95 21 142 -3 l38 -19
-24 -16 c-13 -9 -57 -25 -97 -36 -83 -24 -106 -38 -46 -28 63 10 212 68 242
93 l28 24 -31 -15 c-29 -14 -74 -12 -74 3 0 3 37 29 83 57 109 68 106 67 123
60 13 -5 10 -14 -16 -46 -50 -64 -30 -56 40 15 58 58 80 71 80 44z m3749 -29
c-20 -35 -39 -52 -39 -34 0 7 51 74 57 74 2 0 -6 -18 -18 -40z m-347 -62 c14
-11 18 -47 23 -210 l7 -198 -61 0 -61 0 0 44 c0 36 4 46 20 51 11 4 28 17 36
31 19 29 13 64 -22 117 -23 35 -24 38 -8 62 16 24 16 60 -1 98 -6 14 -2 17 22
17 16 0 36 -6 45 -12z m341 -15 c15 -3 27 -10 27 -15 0 -45 -128 -214 -147
-194 -5 4 -8 33 -8 65 0 49 5 65 35 109 23 35 40 50 50 46 8 -3 27 -8 43 -11z
m-4555 -410 c-2 -296 1 -427 10 -477 7 -38 10 -71 7 -74 -3 -3 -16 0 -30 6
l-25 12 -2 167 c-1 165 -1 166 -8 63 -4 -58 -8 -134 -9 -170 -1 -52 -4 -61
-12 -46 -19 31 -13 350 10 590 12 121 21 237 21 259 0 34 21 77 37 77 2 0 2
-183 1 -407z m1457 348 c78 -37 80 -40 61 -99 -10 -29 -21 -52 -24 -52 -4 0
-20 11 -37 24 -25 20 -31 22 -40 9 -10 -13 -22 -9 -90 25 l-79 39 69 36 c81
42 87 43 140 18z m1015 1 c0 -5 -17 -17 -38 -26 -33 -15 -46 -16 -81 -6 -24 6
-40 14 -36 18 4 4 39 10 78 13 40 3 73 6 75 7 1 1 2 -2 2 -6z m1930 -117 c0
-35 -4 -67 -10 -70 -6 -4 -10 22 -10 70 0 48 4 74 10 70 6 -3 10 -35 10 -70z
m-765 24 c9 -28 -6 -41 -41 -37 -35 4 -43 31 -19 58 21 23 50 12 60 -21z m936
24 c-5 -10 -47 -56 -92 -103 -64 -66 -83 -81 -86 -67 -3 11 6 26 24 39 15 12
55 50 88 83 61 63 83 79 66 48z m-4351 -9 c0 -35 -46 -62 -119 -70 -37 -3 -71
-2 -74 2 -3 5 -3 21 0 37 6 33 40 45 131 46 51 1 62 -2 62 -15z m2073 -35 c8
-13 0 -32 -36 -86 -25 -38 -64 -89 -86 -115 -29 -32 -37 -47 -27 -51 7 -3 17
-25 21 -49 6 -36 9 -39 14 -19 6 22 9 20 43 -28 35 -51 36 -52 51 -31 l14 21
6 -22 c4 -15 -4 -31 -27 -56 l-33 -36 -24 44 c-23 41 -28 44 -62 41 -32 -2
-64 8 -105 36 -19 13 24 97 127 250 83 124 100 138 124 101z m246 -11 c5 -18
24 -80 41 -138 18 -58 52 -158 77 -223 43 -114 46 -137 19 -137 -38 0 -203
461 -183 513 10 28 35 20 46 -15z m-1085 -77 c21 -70 21 -71 -9 -71 -22 0 -25
4 -26 38 l-1 37 -10 -37 c-7 -26 -16 -38 -27 -38 -16 0 -14 7 11 56 15 31 28
64 28 72 0 29 18 -1 34 -57z m-1647 35 c2 -2 -38 -278 -43 -294 -3 -10 -9 -10
-23 -2 -15 8 -22 25 -27 70 -8 73 -20 80 -15 9 2 -40 0 -50 -10 -47 -25 8 -39
55 -47 161 l-7 106 35 4 c28 3 130 -2 137 -7z m423 -95 c0 -55 -2 -106 -5
-114 -5 -11 -21 -10 -103 8 l-97 22 -3 86 -3 86 43 4 c24 2 71 4 106 5 l62 2
0 -99z m565 64 c77 -14 214 -30 305 -35 209 -12 252 -18 247 -33 -5 -14 -301
-12 -461 4 -54 5 -148 8 -210 8 l-111 -2 175 -13 c96 -7 261 -16 367 -20 l192
-7 -50 -74 c-48 -71 -69 -89 -69 -58 0 20 -22 65 -32 65 -4 0 -8 -6 -8 -12 0
-7 -5 -31 -11 -53 l-11 -39 -15 28 c-12 22 -17 26 -24 15 -5 -8 -9 -22 -9 -31
0 -10 -8 -21 -17 -26 -18 -9 -171 -41 -396 -83 -64 -11 -120 -25 -123 -30 -3
-5 -2 -9 3 -9 4 0 62 -7 128 -15 66 -8 188 -15 270 -15 160 -1 484 -15 575
-25 l55 -7 -25 21 c-14 12 -42 26 -63 33 -41 12 -53 23 -59 52 -2 16 8 22 62
36 36 9 80 20 99 23 33 7 34 6 18 -11 -26 -28 -22 -45 8 -38 14 4 46 9 71 13
l45 6 -5 -34 c-3 -19 -8 -56 -11 -82 -5 -37 -12 -50 -28 -57 -24 -9 -223 -26
-427 -35 -144 -7 -268 -23 -290 -37 -11 -6 -6 -8 15 -4 17 3 136 10 265 16
129 5 274 14 323 20 48 7 92 10 97 8 19 -6 -59 -107 -94 -122 -43 -18 -72 -56
-92 -121 -14 -44 -22 -54 -47 -62 -21 -6 -33 -17 -40 -38 -5 -17 -16 -38 -24
-47 -15 -17 -14 -64 2 -100 6 -15 2 -18 -24 -18 -17 0 -31 -4 -31 -10 0 -5 14
-10 31 -10 17 0 28 -4 24 -10 -6 -10 11 -14 50 -11 11 1 1 -7 -22 -18 -24 -11
-48 -31 -55 -46 -10 -22 -8 -28 11 -49 l22 -23 -53 -20 c-28 -11 -54 -25 -56
-31 -11 -33 138 -71 280 -72 l78 0 -10 -26 c-19 -49 -9 -59 15 -14 27 51 30
46 12 -23 l-12 -48 -65 -4 c-36 -2 -79 -8 -96 -13 -31 -10 -31 -9 -43 38 -17
66 -42 74 -135 41 -46 -16 -56 -17 -79 -4 -18 9 -27 22 -27 37 0 13 -11 40
-25 60 -14 20 -25 41 -25 46 0 5 17 10 38 12 20 2 37 8 37 13 0 15 -74 18 -91
4 -12 -10 -20 -7 -44 16 -35 34 -38 51 -10 58 13 3 20 0 20 -8 0 -8 5 -17 12
-21 7 -5 9 0 6 14 -4 14 2 28 19 44 60 54 75 188 22 188 -12 0 -26 15 -40 43
-12 23 -31 55 -41 70 l-20 28 21 23 c28 29 27 72 0 87 -31 16 -65 -3 -80 -45
-11 -31 -31 -45 -66 -46 -6 0 -17 16 -23 35 -21 65 -67 77 -117 32 -27 -24
-29 -56 -6 -119 18 -51 9 -78 -27 -78 -26 0 -46 28 -32 42 9 9 12 7 12 -7 1
-20 1 -20 15 -1 8 11 15 23 15 28 0 11 -41 10 -59 -1 -10 -7 -24 -2 -44 15
-32 27 -80 31 -152 13 -36 -9 -48 -8 -67 5 -12 9 -39 16 -59 16 -21 0 -42 7
-50 16 -38 46 -129 58 -191 24 l-37 -19 -19 27 c-21 29 -47 110 -38 119 3 3
39 -13 80 -36 80 -44 86 -46 86 -32 0 5 -24 24 -52 41 l-53 31 41 -4 c22 -3
60 -17 83 -32 49 -30 121 -58 121 -46 0 4 -11 14 -25 21 -25 13 -35 53 -16 65
5 3 30 1 55 -5 25 -5 92 -14 148 -19 68 -6 117 -16 145 -30 23 -12 47 -21 53
-21 21 0 9 18 -20 30 -35 14 -36 18 -12 36 12 9 36 11 84 7 82 -7 98 3 98 60
0 55 -22 77 -76 77 -41 0 -261 42 -305 58 -30 12 -10 24 91 57 72 23 119 45
99 45 -6 0 -100 -32 -133 -45 -16 -7 -17 -6 -6 14 17 32 9 34 -33 6 -46 -32
-57 -31 -57 3 0 46 -17 59 -24 18 -7 -39 -11 -41 -50 -26 -23 8 -26 15 -26 57
0 27 -5 55 -11 63 -8 11 -9 -11 -5 -80 2 -52 1 -84 -3 -70 -4 14 -11 115 -14
224 l-7 199 183 -6 c128 -5 223 -14 322 -32z m739 -29 l37 -46 -38 0 c-37 0
-39 2 -56 49 -9 27 -17 52 -17 55 0 15 39 -16 74 -58z m2626 49 c0 -33 -57
-30 -68 3 -2 8 9 12 32 12 26 0 36 -4 36 -15z m-316 -32 c-4 -16 -12 -39 -19
-52 -12 -24 -12 -24 -25 14 -11 34 -11 40 6 52 30 22 45 16 38 -14z m115 11
c2 -2 -10 -9 -27 -15 -36 -12 -43 -29 -12 -29 30 0 24 -19 -17 -58 l-38 -36
-3 54 c-2 30 -1 64 3 77 5 21 9 23 48 17 23 -4 44 -8 46 -10z m79 -18 c5 -22
-16 -46 -39 -46 -29 0 -33 20 -8 46 25 27 42 27 47 0z m-598 10 c0 -11 -19
-15 -25 -6 -3 5 1 10 9 10 9 0 16 -2 16 -4z m298 -62 c-2 -13 -8 -12 -33 8
l-29 23 29 5 c31 6 40 -4 33 -36z m-56 -1 c37 -36 44 -55 32 -87 -5 -14 -10
-13 -38 5 -17 12 -41 33 -53 47 -12 15 -25 23 -29 19 -11 -10 23 -55 61 -80
19 -12 35 -26 35 -31 0 -9 -21 -5 -106 19 -48 14 -51 16 -50 47 0 18 -2 40 -4
47 -4 11 8 17 43 24 26 5 47 13 47 18 0 19 26 7 62 -28z m414 22 c3 -8 -5 -33
-18 -56 -19 -35 -32 -45 -84 -63 -33 -12 -77 -32 -97 -45 l-37 -23 0 24 c0 14
20 43 51 75 42 44 54 51 69 43 26 -14 62 2 79 34 16 29 29 33 37 11z m-306
-55 c0 -10 -4 -22 -10 -25 -6 -4 -10 7 -10 25 0 18 4 29 10 25 6 -3 10 -15 10
-25z m-2255 -26 c-21 -19 -51 -37 -65 -40 -44 -10 -50 -13 -50 -29 0 -8 11
-21 25 -27 30 -13 28 -28 -6 -45 -23 -12 -25 -10 -44 30 l-20 42 -3 -40 c-5
-56 -19 -66 -27 -19 -14 83 -27 83 -66 4 -24 -48 -27 -51 -34 -31 -4 14 -12
20 -21 17 -23 -9 -16 7 27 65 22 30 47 66 55 82 l15 27 127 0 127 -1 -40 -35z
m1608 -78 c2 -5 11 -4 22 1 11 6 54 13 97 17 l76 7 7 -33 c11 -48 39 -100 89
-162 l45 -54 -49 -4 c-64 -4 -120 21 -183 84 -47 47 -50 48 -68 32 -11 -9 -22
-15 -25 -11 -8 8 -64 199 -63 217 0 12 40 -59 52 -94z m-724 22 c1 -15 -3 -30
-9 -33 -6 -4 -10 14 -9 47 0 39 3 48 9 33 5 -11 9 -32 9 -47z m1076 11 c33
-12 92 -29 130 -38 l70 -18 -115 -7 c-63 -3 -134 -9 -157 -12 -41 -6 -42 -5
-51 27 -7 29 -5 37 15 56 12 12 23 28 23 34 0 8 5 6 13 -4 6 -9 39 -26 72 -38z
m959 -74 c43 -243 58 -368 44 -376 -18 -11 -25 6 -38 87 -12 74 -40 343 -39
384 0 46 16 0 33 -95z m-664 55 c0 -29 -4 -40 -15 -40 -10 0 -15 10 -15 33 0
19 3 37 7 40 15 16 23 5 23 -33z m460 21 c0 -16 -10 -21 -57 -26 -32 -4 -115
-17 -185 -29 -92 -16 -124 -19 -117 -9 26 31 215 80 317 82 35 1 42 -2 42 -18z
m-4115 -16 c44 -8 81 -15 83 -15 1 0 2 -25 2 -55 0 -30 -4 -55 -10 -55 -5 0
-19 18 -30 41 -24 47 -38 46 -21 -2 14 -41 6 -51 -11 -13 -6 16 -13 31 -15 33
-1 2 -11 -7 -22 -20 l-19 -24 -23 47 c-14 29 -27 44 -36 41 -9 -4 -13 3 -13
22 0 20 4 25 18 21 9 -3 53 -12 97 -21z m1840 -90 c-62 -104 -103 -150 -65
-75 41 81 114 193 118 181 2 -7 -21 -54 -53 -106z m379 55 c8 -8 -22 -59 -36
-60 -5 0 -8 13 -8 28 0 15 -6 34 -12 41 -11 11 -8 12 17 7 17 -4 34 -11 39
-16z m1896 -32 c0 -24 3 -73 6 -110 l7 -67 -29 -6 c-153 -32 -225 -62 -307
-129 l-57 -46 0 79 0 78 103 10 102 10 -101 1 c-107 2 -114 5 -114 53 0 14 7
19 29 19 16 0 44 3 62 6 l34 7 -24 -27 c-31 -33 -20 -34 23 -1 25 19 45 25 82
25 27 0 56 5 64 11 17 12 -221 6 -252 -6 -15 -6 -18 -1 -18 32 l0 39 178 28
c97 15 182 30 187 31 22 7 25 3 25 -37z m-4202 -6 c2 -23 -1 -32 -12 -32 -16
0 -24 25 -18 53 7 28 27 14 30 -21z m2483 23 c17 -11 9 -23 -22 -29 l-30 -6
30 -32 c29 -31 38 -48 26 -48 -14 0 -94 84 -88 93 3 6 1 7 -5 3 -8 -5 -12 1
-12 14 0 19 4 21 46 16 25 -3 50 -8 55 -11z m-115 -82 c5 -82 -2 -73 -14 20
-5 42 -5 64 1 58 5 -5 11 -40 13 -78z m-42 8 c-11 -60 -21 -69 -29 -23 -9 54
1 88 21 71 10 -8 12 -22 8 -48z m1316 -1 l0 -50 -74 0 c-40 0 -93 -2 -117 -6
-42 -5 -45 -4 -71 35 -16 21 -28 44 -28 50 0 6 41 12 108 14 59 1 124 4 145 5
l37 2 0 -50z m108 2 c3 -39 1 -42 -22 -42 -23 0 -26 4 -26 38 0 43 7 54 30 50
10 -2 16 -17 18 -46z m-1716 -8 c39 -28 53 -33 64 -23 23 19 44 3 44 -33 0
-18 -4 -37 -8 -43 -4 -5 -41 -10 -83 -11 -42 -1 -88 -4 -104 -8 l-27 -7 7 47
c7 52 34 114 48 114 5 0 32 -16 59 -36z m-203 -61 c-49 -90 -79 -134 -126
-184 -27 -28 -39 -35 -63 -31 l-29 4 30 47 c20 33 32 72 40 127 7 43 15 83 19
87 6 7 94 22 153 26 14 1 10 -12 -24 -76z m588 34 c8 -23 12 -27 13 -12 1 18
3 17 15 -6 9 -17 11 -36 6 -55 -6 -23 -8 -25 -14 -10 -4 10 -4 23 0 29 4 7 -1
6 -11 -2 -24 -20 -36 -1 -36 58 0 48 8 47 27 -2z m-2304 6 c52 -5 57 -8 57
-30 0 -21 -3 -23 -37 -17 -146 23 -168 29 -171 48 -4 17 0 18 44 12 27 -4 75
-9 107 -13z m2176 -65 c1 -16 -3 -28 -9 -28 -6 0 -10 24 -9 53 1 41 3 47 9 27
4 -14 8 -37 9 -52z m-1101 30 c-11 -16 -27 -24 -54 -26 -59 -6 -446 9 -439 17
13 13 195 28 349 30 l158 1 -14 -22z m160 5 c3 -10 -13 -13 -59 -13 -69 0 -73
5 -13 19 48 11 66 10 72 -6z m894 -65 c-5 -5 -29 -12 -53 -15 l-44 -5 50 51
50 52 3 -37 c2 -20 -1 -41 -6 -46z m124 1 c18 -20 18 -21 1 -34 -18 -13 -43
-72 -34 -81 3 -3 19 2 36 10 35 19 41 19 41 6 0 -5 -18 -19 -40 -30 -37 -19
-40 -24 -41 -63 -1 -23 0 -52 1 -65 1 -21 -1 -22 -19 -13 -17 10 -19 18 -14
60 l5 48 -61 47 c-33 26 -61 52 -61 57 0 9 94 -38 128 -64 9 -7 12 9 12 74 0
46 3 95 7 109 7 24 7 24 14 -8 4 -18 15 -42 25 -53z m133 28 c-5 -18 -9 -34
-10 -37 -2 -8 -17 44 -18 62 -1 11 5 15 18 11 16 -4 18 -9 10 -36z m-2130 11
c38 -14 11 -30 -37 -22 -32 5 -42 11 -42 25 0 20 19 19 79 -3z m2714 -115 c22
-108 25 -138 15 -145 -16 -9 -55 -10 -124 -2 -50 6 -51 7 -62 51 -10 36 -10
49 3 73 23 45 19 85 -11 109 l-27 21 82 0 c65 0 81 3 81 15 0 8 4 15 8 15 5 0
20 -62 35 -137z m665 105 c-2 -25 -8 -33 -23 -33 -15 0 -21 8 -23 33 -3 29 -1
32 23 32 24 0 26 -3 23 -32z m-108 8 c0 -41 -10 -46 -92 -46 -71 0 -82 3 -98
22 -26 32 -11 38 98 38 73 0 92 -3 92 -14z m-1059 -18 c11 -21 11 -22 -4 -9
-15 11 -17 11 -17 -2 0 -8 5 -17 12 -19 6 -2 8 -10 4 -17 -12 -19 -36 7 -36
40 0 35 24 39 41 7z m573 -195 c8 -35 10 -61 6 -58 -21 13 -75 239 -62 260 6
9 14 -22 56 -202z m-2942 176 c102 -14 246 -66 227 -83 -11 -10 -169 17 -208
36 -52 25 -135 20 -208 -12 -26 -11 -47 -19 -49 -18 -1 2 -5 25 -9 52 l-8 49
94 -7 c52 -4 124 -11 161 -17z m1677 -1 c12 -33 5 -35 -24 -8 -18 17 -25 19
-25 9 0 -8 5 -20 11 -26 7 -7 7 -13 1 -17 -15 -9 -34 21 -27 44 9 28 53 27 64
-2z m1005 -4 c22 -22 20 -56 -5 -88 -21 -27 -21 -29 -6 -77 18 -55 13 -82 -24
-116 -26 -23 -87 -43 -135 -43 -37 0 -48 9 -32 27 10 12 7 13 -18 7 -95 -25
-164 11 -164 85 0 69 36 148 81 178 52 34 132 42 190 19 41 -17 43 -16 63 3
25 25 30 26 50 5z m-466 -69 c0 -34 -1 -36 -8 -15 -4 14 -8 41 -8 60 -1 28 1
31 8 15 5 -11 8 -38 8 -60z m882 60 c22 -27 5 -37 -19 -11 -19 20 -21 26 -9
26 9 0 21 -7 28 -15z m-1206 -3 c2 -4 1 -14 -4 -22 -8 -12 -13 -11 -30 8 l-21
22 25 0 c14 0 27 -4 30 -8z m-42 -24 c25 -17 34 -19 49 -10 10 7 21 12 23 12
3 0 19 -44 37 -98 52 -160 31 -185 -157 -184 -199 1 -218 32 -142 234 8 23 15
27 34 22 19 -5 24 -2 24 14 0 36 86 43 132 10z m1568 11 c0 -6 -7 -35 -16 -65
-15 -52 -17 -54 -49 -54 -30 0 -39 7 -74 56 -22 31 -38 61 -35 65 8 13 174 11
174 -2z m110 -38 c0 -27 -5 -62 -11 -78 -15 -41 -29 -12 -29 65 0 55 2 62 20
62 17 0 20 -7 20 -49z m470 20 c0 -28 -1 -29 -52 -28 -39 1 -72 -7 -123 -29
-38 -17 -79 -35 -90 -39 -19 -8 -19 -9 2 -12 12 -2 35 3 52 11 47 25 111 19
111 -10 0 -10 -15 -14 -57 -14 -32 0 -89 -3 -128 -6 l-70 -6 35 31 c49 44 148
91 233 112 40 10 75 18 80 18 4 1 7 -12 7 -28z m-2438 -48 c-42 -61 -92 -114
-92 -96 0 6 7 16 15 23 9 7 36 41 62 76 58 79 69 77 15 -3z m1690 7 l37 -60
-50 0 c-48 0 -50 1 -79 46 -37 58 -27 80 13 30 16 -20 39 -41 50 -47 18 -10
18 -8 -4 21 -55 74 -54 70 -28 70 18 -1 33 -15 61 -60z m-3264 34 c12 -4 22
-12 22 -19 0 -17 -32 -25 -110 -25 l-65 -1 32 -17 c18 -10 41 -28 50 -42 16
-23 16 -23 -3 -16 -10 4 -46 10 -79 13 -86 8 -100 35 -35 72 56 31 141 47 188
35z m227 -56 c14 -13 -14 -28 -54 -28 -28 0 -101 33 -101 45 0 8 146 -8 155
-17z m243 10 c17 -17 15 -48 -3 -48 -8 0 -15 6 -15 14 0 14 -49 26 -107 26
-18 0 -33 5 -33 10 0 15 143 13 158 -2z m102 -11 c0 -32 -15 -44 -50 -39 -36
5 -39 19 -6 32 13 5 27 14 31 19 11 19 25 12 25 -12z m3418 17 c16 -5 22 -14
22 -35 0 -16 -4 -29 -9 -29 -5 0 -23 -3 -40 -6 -31 -6 -31 -6 -31 35 0 43 8
48 58 35z m-3921 -26 c28 -26 30 -48 4 -41 -20 5 -51 -21 -51 -43 0 -13 -4
-13 -29 2 -27 16 -48 45 -49 69 0 8 56 29 92 34 6 0 20 -9 33 -21z m2229 0
c-3 -13 -6 -27 -6 -31 0 -9 -49 25 -50 35 0 7 23 15 49 17 9 1 11 -6 7 -21z
m1624 12 c0 -5 -10 -10 -22 -9 -22 0 -22 1 -3 9 11 5 21 9 23 9 1 1 2 -3 2 -9z
m-3502 -37 c2 -9 -9 -13 -36 -13 -46 0 -72 8 -72 22 0 14 103 5 108 -9z m1802
-27 c0 -16 -7 -26 -22 -29 -29 -8 -34 -2 -20 28 15 32 42 33 42 1z m-788 -74
c23 -85 23 -85 79 -79 27 3 49 5 49 3 0 -1 -7 -25 -16 -52 -27 -78 -66 -103
-143 -88 -26 5 -31 11 -31 34 0 30 -15 40 -61 40 -37 0 -37 13 4 81 61 100 82
129 92 126 6 -2 17 -31 27 -65z m2578 29 c0 -28 -3 -30 -47 -36 -304 -38 -336
-57 -356 -204 -6 -44 -14 -81 -17 -81 -4 0 -15 18 -25 40 -26 58 -75 97 -130
106 -66 9 -247 0 -270 -15 -19 -11 -18 -12 3 -5 13 3 76 6 141 7 172 1 198
-14 235 -143 15 -52 15 -54 -2 -33 -21 26 -81 63 -104 63 -10 0 -19 -11 -23
-30 -4 -17 -23 -47 -43 -68 l-37 -37 -3 30 c-8 86 52 151 112 120 20 -11 26
-11 24 -2 -3 6 -17 18 -32 25 -23 12 -32 11 -64 -5 -46 -23 -62 -53 -62 -123
l0 -55 -18 28 c-19 28 -32 27 -32 -5 0 -25 -7 -23 -47 12 -49 43 -62 37 -19
-10 41 -45 44 -54 18 -46 -10 4 -27 -1 -38 -9 -18 -14 -18 -14 9 -15 16 0 26
-4 22 -10 -3 -5 -2 -10 3 -10 4 0 89 -14 188 -30 223 -38 384 -60 443 -60 45
-1 45 -1 21 -15 -22 -13 3 -14 221 -15 l246 0 7 -61 c3 -34 5 -80 4 -103 -1
-33 -3 -29 -7 19 l-6 61 -42 -9 c-27 -5 -54 -20 -74 -40 -48 -47 -99 -30 -99
32 0 14 -5 33 -11 41 -7 11 -8 -2 -3 -42 6 -54 5 -58 -14 -58 -24 0 -42 -27
-42 -62 -1 -20 -2 -21 -11 -5 -5 9 -8 21 -5 26 8 12 -59 24 -87 16 -48 -14
-77 -28 -77 -38 0 -6 19 -30 42 -54 l41 -42 -29 -6 c-95 -21 -247 -95 -283
-139 -21 -25 -2 -19 38 13 20 15 51 36 69 45 40 20 74 12 131 -31 20 -16 45
-26 58 -25 32 5 29 -12 -12 -65 -19 -25 -35 -52 -35 -59 0 -7 -13 0 -28 16
-51 51 -154 65 -222 30 -39 -20 -57 -49 -23 -36 80 31 166 29 221 -4 57 -35
43 -49 -45 -43 -87 6 -193 -13 -269 -47 -60 -26 -53 -34 11 -14 79 25 176 14
277 -31 119 -53 127 -64 42 -58 -38 3 -91 11 -118 19 -27 8 -69 14 -92 14 -51
0 -198 -41 -262 -74 -50 -25 -102 -25 -102 0 0 7 13 20 30 29 38 20 52 47 49
96 -3 33 2 44 31 75 19 19 50 45 69 57 19 11 29 23 23 25 -16 5 -15 27 2 41
25 21 31 70 9 86 -28 22 -35 18 -17 -10 15 -23 15 -27 -11 -72 -16 -26 -46
-67 -69 -91 l-40 -44 -19 54 c-31 89 -31 93 -3 121 28 28 32 47 16 77 -8 15
-5 27 10 52 24 39 26 98 5 139 -26 49 2 63 68 35 53 -22 132 -114 114 -133 -3
-2 -25 0 -49 5 -40 9 -41 10 -10 11 17 1 32 6 32 11 0 23 -76 90 -109 97 -31
6 -34 4 -27 -13 4 -10 10 -45 13 -76 5 -52 3 -59 -21 -81 -24 -23 -25 -26 -9
-30 108 -29 113 -29 127 -18 8 7 13 18 10 25 -3 8 11 19 36 29 32 12 40 21 40
40 0 29 -49 92 -101 132 -34 25 -37 31 -41 91 -5 82 -21 101 -71 84 -32 -12
-37 -11 -73 17 -42 32 -101 59 -110 50 -3 -3 16 -17 44 -31 27 -14 63 -38 79
-54 l29 -30 27 20 c15 11 31 17 37 13 5 -3 10 -33 10 -66 0 -55 -2 -59 -23
-59 -24 0 -57 31 -57 53 0 8 -11 24 -25 37 l-25 24 -28 -27 c-20 -20 -38 -27
-66 -27 -32 0 -46 -8 -88 -49 -29 -29 -56 -47 -64 -44 -22 8 -64 -6 -64 -22 0
-12 -15 -15 -70 -15 l-69 0 -14 48 -14 47 64 7 c36 3 82 9 103 13 41 7 80 40
64 54 -12 12 -106 31 -152 31 l-37 0 27 23 c20 16 28 33 30 62 3 35 6 40 28
40 21 0 26 5 28 32 2 24 9 33 28 37 30 8 44 41 44 106 0 63 -14 98 -42 109
-13 4 -59 11 -103 14 l-80 6 3 -87 c2 -60 -1 -92 -10 -105 -11 -15 -13 -7 -14
55 -1 40 -7 85 -13 101 -6 16 -7 27 -1 27 16 0 41 46 34 63 -3 8 -22 22 -42
30 -36 15 -34 15 53 10 56 -3 135 1 210 11 322 43 514 66 665 81 91 8 181 17
200 18 19 2 56 5 83 5 46 2 47 1 47 -27z m-1770 -21 c0 -11 -6 -20 -14 -20 -7
0 -28 -3 -46 -6 -28 -6 -32 -4 -28 12 2 10 14 21 28 25 45 13 60 10 60 -11z
m40 10 c0 -5 -4 -10 -10 -10 -5 0 -10 5 -10 10 0 6 5 10 10 10 6 0 10 -4 10
-10z m1917 -116 c27 -55 36 -88 40 -141 4 -67 4 -67 -12 -40 -15 26 -18 27
-38 14 -21 -14 -23 -12 -42 26 -12 22 -27 43 -34 45 -10 3 -9 -3 2 -24 8 -16
25 -61 37 -101 21 -71 21 -73 4 -130 l-18 -58 -8 60 c-13 99 -29 159 -39 144
-5 -8 -9 -27 -9 -44 0 -16 -3 -40 -6 -52 -6 -22 -7 -22 -43 12 -55 54 -198
132 -232 127 l-28 -4 23 -32 c35 -46 78 -135 74 -154 -3 -15 -32 25 -106 148
-12 19 -22 28 -22 20 0 -8 -3 -25 -6 -36 -4 -16 0 -23 18 -28 19 -7 14 -10
-32 -20 -30 -7 -58 -10 -62 -8 -5 2 -8 22 -8 45 0 49 38 136 75 173 l25 25 42
-23 c22 -13 75 -54 116 -93 70 -65 75 -68 70 -40 -9 45 26 144 83 230 l50 77
25 -23 c14 -13 41 -56 61 -95z m-2904 56 c-28 -50 -43 -62 -43 -35 0 13 56 85
67 85 2 0 -8 -22 -24 -50z m983 3 c-10 -10 -19 5 -10 18 6 11 8 11 12 0 2 -7
1 -15 -2 -18z m-1655 -31 c6 -15 8 -40 5 -56 l-6 -30 22 20 c56 49 136 15 178
-75 14 -29 37 -61 50 -72 l25 -19 -43 0 -43 0 21 -27 c20 -26 20 -28 4 -40
-14 -10 -15 -13 -3 -13 8 0 20 5 26 11 21 21 34 6 17 -19 -28 -41 -92 -65
-174 -66 -131 -2 -175 34 -174 139 0 40 7 73 21 99 l20 39 -24 47 c-21 40 -22
50 -12 73 21 45 71 39 90 -11z m186 32 c4 -13 -34 -64 -48 -64 -19 0 -21 30
-4 56 16 25 45 29 52 8z m3200 -11 c-3 -16 -17 -54 -32 -85 l-26 -56 -27 25
c-38 35 -74 52 -125 59 -39 6 -47 3 -82 -27 -21 -19 -47 -47 -57 -64 l-18 -30
0 48 c0 40 5 54 28 77 33 32 74 45 205 64 140 21 140 21 134 -11z m-1760 11
c-7 -8 -87 -7 -95 0 -3 3 19 6 48 6 29 0 51 -3 47 -6z m199 -54 c24 0 22 -4
-28 -44 -29 -23 -57 -44 -63 -44 -10 -2 -43 79 -44 110 -1 15 4 15 54 -3 30
-10 66 -19 81 -19z m-412 14 c3 -9 6 -34 6 -55 0 -37 -2 -40 -22 -34 -23 7
-78 53 -78 66 0 5 63 35 81 38 4 1 10 -6 13 -15z m-2019 -8 c32 -14 48 -36 25
-36 -18 0 -78 -61 -89 -90 -5 -17 -7 -30 -4 -30 3 0 30 22 58 49 60 57 106 71
152 48 16 -9 35 -22 42 -31 10 -12 7 -17 -16 -28 -18 -8 -33 -28 -43 -56 l-16
-44 -31 26 c-39 33 -61 33 -135 0 l-59 -27 -24 23 c-35 33 -49 82 -35 124 24
75 96 104 175 72z m2737 -7 c10 -6 18 -18 16 -27 -3 -13 -13 -16 -43 -15 -40
3 -89 38 -78 56 6 11 76 2 105 -14z m-160 -41 c-11 -11 -26 -18 -33 -16 -9 3
-5 13 16 33 20 21 30 25 33 16 2 -7 -5 -22 -16 -33z m-808 25 c4 -5 17 -8 29
-8 11 0 22 -6 25 -14 4 -11 -2 -12 -24 -7 -29 7 -67 36 -48 36 6 0 14 -3 18
-7z m96 -2 c0 -5 -7 -14 -15 -21 -12 -10 -15 -10 -15 2 0 8 3 18 7 21 9 10 23
9 23 -2z m404 3 c33 -13 2 -24 -65 -24 -76 0 -123 -15 -153 -49 -17 -18 -18
-26 -8 -60 28 -93 4 -91 -27 2 -18 55 -18 57 -1 52 13 -4 20 0 24 13 9 28 41
53 78 62 41 10 131 12 152 4z m264 -13 c-13 -21 -28 -19 -28 5 0 8 9 14 20 14
17 0 19 -3 8 -19z m-610 -41 c12 -31 12 -33 -2 -21 -14 12 -16 9 -16 -22 0
-19 -4 -37 -8 -39 -4 -1 -21 -20 -36 -40 -16 -21 -32 -35 -37 -32 -18 11 -8
43 21 67 39 33 44 88 8 81 -22 -4 -22 -4 -2 5 12 5 24 17 28 26 9 24 28 13 44
-25z m-179 16 c7 -8 9 -25 5 -42 -7 -26 -8 -26 -20 -9 -16 21 -19 65 -5 65 5
0 14 -6 20 -14z m726 -27 c-18 -35 -25 -37 -18 -6 9 41 13 48 23 42 6 -4 4
-17 -5 -36z m185 9 c30 -49 26 -84 -13 -123 -37 -37 -100 -56 -120 -36 -9 9 0
21 35 52 43 36 46 42 41 74 -11 69 23 89 57 33z m-2294 8 c23 -17 20 -19 -72
-40 -61 -14 -62 -14 -73 10 -9 22 -8 24 22 33 49 14 101 13 123 -3z m2069 -18
c-4 -19 -21 -45 -38 -60 -38 -32 -43 -33 -51 -11 -5 11 8 29 40 60 26 23 49
43 51 43 3 0 2 -15 -2 -32z m-754 -39 c-12 -32 -20 -45 -20 -32 -1 21 29 96
36 90 2 -2 -6 -28 -16 -58z m137 47 c7 1 8 0 2 -3 -18 -9 9 -32 30 -26 14 4
20 0 20 -12 0 -14 -3 -15 -15 -5 -13 11 -17 8 -26 -19 -8 -22 -16 -30 -26 -27
-8 3 -18 6 -23 6 -5 0 -8 22 -7 49 2 40 5 47 17 41 8 -4 21 -6 28 -4z m491
-17 c12 -36 9 -45 -18 -52 -25 -6 -35 20 -22 57 14 35 27 33 40 -5z m254 7
c10 -3 17 -15 17 -29 0 -32 -33 -61 -59 -52 -17 5 -20 2 -18 -22 2 -22 -3 -29
-20 -31 -27 -4 -29 9 -9 64 33 93 35 95 53 85 10 -5 26 -12 36 -15z m-1228 4
c4 -6 -12 -10 -42 -9 -36 0 -43 3 -28 9 28 12 63 12 70 0z m655 -44 c0 -28
-17 -8 -25 29 -7 29 -7 29 8 10 9 -11 17 -29 17 -39z m240 32 c0 -6 -7 -7 -16
-4 -9 3 -18 6 -20 6 -3 0 -3 4 1 10 7 11 35 2 35 -12z m497 -15 c11 -56 9
-146 -2 -150 -6 -2 -19 3 -29 10 -17 12 -17 14 0 44 16 27 17 39 8 82 -8 40
-8 51 2 51 7 0 16 -17 21 -37z m-1494 20 c-7 -2 -19 -2 -25 0 -7 3 -2 5 12 5
14 0 19 -2 13 -5z m1708 -13 c25 -7 39 -18 43 -33 10 -38 7 -107 -6 -130 -11
-19 -14 -12 -18 58 l-5 80 -77 9 c-43 5 -78 13 -78 18 0 11 97 10 141 -2z
m-2506 -30 c10 -11 27 -20 37 -20 16 0 19 -6 16 -32 -3 -31 -5 -32 -93 -55
-49 -12 -95 -23 -101 -23 -11 0 -57 110 -49 118 6 7 116 30 146 31 14 1 34 -8
44 -19z m870 10 c-3 -5 -40 -10 -81 -10 -43 0 -74 4 -74 10 0 6 34 10 81 10
51 0 78 -4 74 -10z m425 -26 c0 -15 6 -24 15 -24 13 0 14 -4 5 -20 -25 -48
-71 -1 -50 51 14 33 30 29 30 -7z m493 19 c-7 -2 -19 -2 -25 0 -7 3 -2 5 12 5
14 0 19 -2 13 -5z m-699 -71 c5 -42 4 -53 -6 -50 -12 4 -29 104 -19 114 10 10
19 -13 25 -64z m-1303 12 c26 -58 36 -148 19 -169 -17 -20 -66 -19 -74 1 -13
33 -6 93 12 103 16 10 16 10 -2 11 -16 0 -18 5 -12 42 12 74 28 78 57 12z
m2004 16 c-6 -9 -43 -2 -50 9 -2 4 9 5 25 3 17 -2 28 -8 25 -12z m189 -33
c-19 -56 -34 -69 -34 -29 0 26 36 89 46 79 2 -2 -3 -25 -12 -50z m-405 27 c16
-15 -68 -29 -88 -15 -26 17 -2 31 42 25 23 -4 44 -8 46 -10z m311 -29 c0 -42
-10 -44 -33 -6 -18 30 -14 41 15 41 14 0 18 -8 18 -35z m-102 -7 c-3 -20 -9
-23 -51 -22 -38 0 -47 -3 -45 -15 2 -9 14 -21 28 -28 l25 -13 -31 0 c-35 0
-49 19 -38 54 11 37 25 46 71 46 40 0 44 -2 41 -22z m52 -9 c0 -10 -4 -19 -10
-19 -5 0 -10 12 -10 26 0 14 4 23 10 19 6 -3 10 -15 10 -26z m-800 16 c0 -12
-40 -43 -45 -35 -6 9 21 40 36 40 5 0 9 -2 9 -5z m502 -19 c41 -1 53 -5 56
-18 4 -19 -29 -43 -73 -52 -26 -5 -28 -5 -13 7 20 16 9 40 -14 32 -9 -4 -18 1
-22 12 -6 15 -8 15 -16 3 -14 -22 -12 -27 13 -35 l22 -8 -24 -4 c-38 -7 -47
11 -28 53 15 30 20 34 32 24 8 -7 39 -13 67 -14z m-266 -14 c15 -8 32 -8 54
-2 35 10 50 6 50 -13 0 -9 -16 -11 -57 -7 -66 6 -83 14 -83 38 0 11 3 13 8 6
4 -6 17 -16 28 -22z m790 -7 c18 -14 17 -14 -13 -15 -31 0 -41 9 -26 23 10 10
17 9 39 -8z m-2003 -27 c3 -18 8 -40 12 -50 8 -19 -1 -23 -104 -42 l-72 -14
-10 27 c-29 73 -28 75 53 92 111 24 115 24 121 -13z m2181 17 c15 -8 35 -15
42 -15 16 0 18 -18 5 -39 -15 -23 -80 -5 -91 25 -19 48 -8 56 44 29z m849 -16
c21 -26 21 -38 -1 -65 -16 -19 -24 -20 -105 -15 l-88 6 30 18 c17 10 31 22 31
26 0 5 10 21 22 36 18 23 26 26 57 21 20 -3 44 -15 54 -27z m-1308 2 c-3 -6
-14 -11 -23 -11 -13 0 -13 2 4 14 21 15 30 14 19 -3z m1789 -39 c24 -23 56
-78 56 -97 0 -2 -18 5 -41 17 -33 17 -119 113 -119 133 0 11 76 -27 104 -53z
m-2177 20 c-15 -15 -27 -33 -27 -40 0 -7 -4 -12 -10 -12 -16 0 -32 -40 -26
-65 9 -34 59 -50 156 -50 69 0 91 4 120 21 21 13 41 19 50 14 66 -33 185 -48
249 -30 50 13 101 58 101 89 0 25 1 25 48 6 46 -20 82 -53 82 -76 0 -25 -44
-56 -104 -74 -162 -49 -751 -59 -1021 -16 -71 11 -152 27 -180 35 -66 21 -155
73 -155 91 0 30 83 63 229 90 98 18 91 17 91 7 0 -8 -55 -33 -162 -72 -39 -14
-55 -25 -52 -35 13 -34 183 -73 354 -82 114 -6 160 2 160 28 0 6 -8 5 -22 -2
-51 -27 -425 14 -462 51 -9 9 15 24 72 44 36 13 37 13 39 -11 2 -44 25 -55
130 -65 139 -12 218 -3 243 29 22 28 13 63 -18 64 -14 0 -13 3 6 16 22 15 22
17 5 35 -17 19 -16 19 33 13 39 -6 53 -4 63 9 7 9 18 16 24 16 6 0 -1 -13 -16
-28z m418 8 c-3 -4 1 -10 7 -13 8 -2 9 -8 4 -13 -5 -5 -11 -4 -13 4 -3 6 -8
10 -13 7 -4 -3 -6 4 -3 15 3 11 9 17 14 14 5 -3 7 -9 4 -14z m-584 5 c33 -8
43 -29 23 -50 -21 -21 -65 -20 -57 1 4 12 1 15 -15 12 -11 -1 -29 6 -41 16
-12 11 -21 14 -21 8 0 -7 -11 -12 -25 -12 -26 0 -34 15 -12 23 20 7 119 8 148
2z m429 -11 c0 -9 -5 -14 -12 -12 -18 6 -21 28 -4 28 9 0 16 -7 16 -16z m255
5 c5 -7 -4 -9 -29 -5 -27 5 -34 3 -30 -8 3 -8 1 -17 -4 -20 -5 -3 -12 5 -14
19 -5 23 -2 25 33 25 21 0 41 -5 44 -11z m186 -23 c100 -23 180 -54 193 -75
12 -19 -7 -40 -54 -60 -65 -28 -80 -27 -80 4 0 32 -35 66 -86 84 -65 23 -134
56 -134 64 0 13 53 7 161 -17z m-471 -33 c0 -13 -5 -33 -11 -45 -36 -68 -247
-61 -257 10 -4 28 1 28 33 -4 21 -20 29 -24 38 -15 9 10 8 15 -5 25 -23 17
-29 63 -8 57 43 -13 130 -12 157 2 33 18 53 7 53 -30z m804 27 c14 -14 -1 -26
-58 -45 -45 -15 -57 -16 -70 -6 -14 11 -13 16 5 41 19 25 25 27 67 22 26 -2
51 -8 56 -12z m-1380 -5 c3 -9 18 -15 38 -15 18 0 40 -5 48 -11 11 -7 -3 -9
-52 -7 -73 4 -84 9 -75 33 8 19 33 20 41 0z m1426 -10 c0 -16 -6 -25 -15 -25
-16 0 -19 9 -9 34 9 25 24 19 24 -9z m-773 0 c5 -3 -23 -70 -32 -77 -18 -14
-21 -8 -21 42 0 48 1 49 25 43 14 -3 27 -7 28 -8z m96 -11 c34 -13 41 -12 77
6 48 25 50 25 50 0 0 -29 -71 -46 -130 -31 -24 7 -50 17 -57 23 -19 15 -16 31
5 23 9 -4 34 -14 55 -21z m170 -20 c-3 -38 -33 -61 -89 -70 -88 -13 -174 13
-174 53 0 15 16 17 25 3 3 -5 19 -10 35 -10 22 0 28 -4 24 -15 -4 -8 -1 -15 5
-15 6 0 11 5 11 10 0 6 15 10 34 10 19 0 46 4 60 10 20 7 24 6 19 -5 -10 -27
6 -15 22 15 9 17 13 36 9 42 -4 6 -1 9 7 6 8 -3 13 -17 12 -34z m1274 25 c15
-6 38 -20 51 -32 21 -20 22 -22 5 -28 -36 -15 -79 -8 -137 20 -51 25 -56 30
-40 40 24 14 85 14 121 0z m-2104 -38 c125 3 159 -4 143 -30 -9 -14 -264 -15
-301 -1 -34 13 -43 39 -19 57 16 12 20 11 34 -7 15 -20 24 -21 143 -19z m1287
-31 c0 -51 -31 -75 -84 -64 -50 9 -48 34 3 34 38 0 56 16 50 46 -3 18 1 24 16
24 11 0 15 -11 15 -40z m-2333 15 c-14 -14 -318 -85 -364 -85 -34 0 -29 30 5
31 15 0 99 15 187 33 195 41 191 40 172 21z m3843 8 c0 -3 -7 -15 -17 -25 -15
-17 -15 -18 0 -18 10 0 17 -4 17 -10 0 -5 -11 -10 -24 -10 -12 0 -37 -5 -54
-11 -66 -23 -69 -5 -7 38 57 40 85 52 85 36z m-3683 -13 c47 0 64 -3 61 -12
-3 -7 -20 -14 -39 -16 -43 -5 -149 17 -149 31 0 5 13 7 31 3 17 -3 61 -6 96
-6z m3211 -1 c28 -5 58 -17 68 -24 17 -13 10 -14 -58 -15 -68 0 -80 3 -105 25
l-28 24 37 1 c20 0 59 -5 86 -11z m-3257 -50 c19 -10 104 -197 94 -207 -9 -9
-37 31 -77 106 -27 52 -58 96 -58 81 0 -9 43 -115 60 -148 24 -48 43 -63 87
-70 47 -8 60 -29 42 -66 -22 -46 -74 -53 -143 -22 -63 29 -96 71 -131 169
l-23 63 -7 -35 c-3 -19 -7 -70 -8 -112 -1 -56 -6 -78 -15 -78 -23 0 -82 29
-82 40 0 29 45 137 81 197 62 103 66 106 119 98 25 -4 52 -11 61 -16z m-192
-48 c-18 -29 -42 -53 -53 -56 -12 -2 -48 -9 -81 -15 -33 -6 -67 -13 -76 -16
-12 -3 -19 6 -27 38 -6 23 -9 44 -7 47 5 5 269 59 273 56 1 -1 -12 -26 -29
-54z m321 39 c0 -5 -4 -10 -10 -10 -15 0 -12 -21 5 -34 8 -6 16 -29 18 -51 2
-34 -1 -40 -18 -40 -15 0 -28 17 -52 65 -17 36 -32 68 -32 73 -1 4 19 7 44 7
25 0 45 -4 45 -10z m79 -56 c48 -54 52 -86 16 -110 -14 -9 -27 -15 -29 -13 -1
2 -11 36 -21 74 -10 39 -20 76 -23 83 -9 26 18 10 57 -34z m1887 -1 c3 -16 23
-87 45 -160 46 -151 56 -203 41 -203 -14 0 -122 337 -122 383 0 20 30 3 36
-20z m-157 -20 c0 -25 -1 -26 -9 -8 -12 27 -12 35 0 35 6 0 10 -12 9 -27z
m-2474 -10 c-3 -10 -9 -46 -12 -80 -7 -74 1 -87 67 -115 39 -17 42 -21 25 -28
-11 -4 -67 -13 -124 -19 -162 -19 -198 -38 -175 -89 4 -9 8 -42 8 -72 l1 -55
53 -19 52 -19 -82 -27 c-46 -16 -101 -36 -123 -46 l-40 -17 35 -10 c182 -49
193 -67 41 -67 -99 0 -113 2 -132 21 -29 29 -20 50 36 81 53 29 52 34 -4 18
l-33 -9 24 29 c12 16 39 48 58 72 l35 43 -49 -35 c-26 -19 -55 -44 -62 -55 -8
-11 -25 -20 -37 -20 -15 0 -21 -5 -18 -15 11 -42 12 -70 3 -70 -6 0 -14 5 -17
10 -10 16 -23 12 -30 -11 -15 -46 -14 -8 1 57 20 87 69 188 106 219 50 42 60
32 28 -32 -31 -65 -45 -113 -32 -113 5 0 14 17 20 38 6 20 27 63 46 94 35 59
36 68 4 68 -17 0 -18 1 -2 25 30 46 -1 26 -73 -47 -75 -77 -99 -115 -118 -188
l-12 -45 -8 50 c-9 59 -56 193 -85 242 l-20 34 22 29 c29 40 48 46 48 15 0
-13 9 -63 20 -110 11 -47 20 -100 21 -118 0 -27 3 -23 15 23 33 122 129 219
249 250 29 8 28 8 -10 9 -74 1 -164 -56 -216 -137 l-28 -44 -12 44 c-6 23 -12
64 -13 90 0 27 -5 48 -9 48 -15 0 -51 -22 -78 -47 l-26 -24 -39 40 -40 39 31
24 c41 34 71 49 135 69 47 15 95 18 319 18 246 1 263 0 256 -16z m2445 -2 c0
-19 -25 -31 -68 -31 -27 0 -26 -7 29 -172 33 -98 38 -120 28 -136 -10 -16 -9
-34 3 -91 13 -58 13 -71 2 -71 -14 0 -30 49 -44 136 -5 30 -25 115 -44 189
-20 74 -37 140 -38 146 -2 6 18 17 45 24 26 6 50 15 54 18 13 14 33 6 33 -12z
m-2372 -24 c4 -18 -14 -22 -37 -8 -7 5 -10 14 -6 20 10 17 39 9 43 -12z m2511
-106 c48 -162 39 -166 -23 -9 -23 57 -36 104 -32 114 11 28 23 6 55 -105z
m-128 66 c-41 -18 -71 -17 -71 1 0 10 91 30 105 23 5 -3 -10 -13 -34 -24z
m-2178 -9 c-15 -26 -32 -36 -88 -54 -38 -12 -71 -27 -73 -33 -5 -15 -33 -14
-76 4 -37 16 -43 32 -30 81 5 19 9 20 35 11 26 -10 28 -15 23 -44 -4 -20 -2
-33 4 -33 6 0 17 -3 25 -6 13 -4 14 2 10 33 l-5 39 73 16 c41 9 85 16 97 17
l24 1 -19 -32z m2847 17 c17 -9 30 -22 30 -30 0 -19 -10 -19 -34 0 -32 24 -75
19 -88 -10 -13 -28 -28 -33 -28 -10 0 23 46 65 70 65 12 0 34 -7 50 -15z
m-880 -7 c0 -7 3 -31 7 -53 l6 -39 -29 18 c-16 10 -45 30 -64 45 l-35 26 35 6
c59 11 80 10 80 -3z m-1542 -35 c3 -27 1 -31 -17 -26 -12 3 -21 8 -21 12 0 3
-3 17 -7 29 -5 21 -3 23 18 20 19 -2 25 -10 27 -35z m672 29 c0 -4 -8 -37 -18
-74 l-19 -66 101 -6 c56 -3 182 -8 281 -11 99 -3 237 -8 308 -12 125 -6 127
-6 127 -29 0 -28 19 -27 -280 -15 -118 6 -292 13 -386 16 l-172 6 -12 -65
c-14 -73 -30 -102 -52 -93 -18 6 -12 38 43 240 16 59 29 110 29 112 0 3 11 5
25 5 14 0 25 -3 25 -8z m25 -41 c-4 -23 -10 -43 -14 -45 -4 -3 -3 17 3 44 12
59 21 59 11 1z m449 2 c11 -70 10 -73 -33 -73 -34 0 -39 3 -44 29 -3 16 -9 40
-13 55 -6 25 -5 26 39 26 44 0 44 -1 51 -37z m676 -3 c11 -21 20 -41 20 -44 0
-2 -29 -6 -65 -8 -62 -3 -65 -2 -73 22 -8 23 -5 26 42 46 28 12 52 22 53 23 2
0 12 -17 23 -39z m1670 6 c0 -25 -68 -166 -80 -166 -4 0 -5 24 -3 53 l4 52
-35 -65 c-19 -36 -42 -87 -52 -113 -28 -84 -28 -42 1 64 30 110 63 160 120
185 41 18 45 17 45 -10z m-2586 -53 c7 -21 4 -23 -31 -23 -44 0 -83 9 -83 19
0 4 19 21 42 39 l42 32 12 -22 c6 -13 15 -33 18 -45z m-824 33 c0 -28 -28 -43
-37 -19 -4 9 1 21 12 29 25 18 25 18 25 -10z m70 -1 c13 -14 29 -25 35 -25 7
0 38 11 69 25 31 14 59 25 61 25 3 0 5 -11 5 -23 0 -21 -7 -25 -54 -36 -29 -6
-79 -27 -110 -46 -31 -19 -63 -32 -71 -28 -19 7 -19 6 5 45 11 18 20 45 20 61
0 34 10 34 40 2z m-1559 -37 c73 -91 130 -239 144 -373 l5 -50 -13 35 c-33 83
-79 161 -125 211 -35 38 -55 71 -66 109 -23 76 -21 120 5 120 5 0 27 -24 50
-52z m2852 1 c116 -2 117 -2 117 -26 0 -23 -2 -24 -57 -19 -32 3 -88 8 -125
12 -72 6 -75 7 -89 57 l-9 32 23 -27 c21 -27 25 -27 140 -29z m757 21 c0 -5
-7 -10 -15 -10 -8 0 -15 5 -15 10 0 6 7 10 15 10 8 0 15 -4 15 -10z m1137 -14
c1 -1 -7 -28 -19 -60 -18 -50 -23 -55 -32 -39 -9 15 -12 10 -16 -32 l-5 -50
-18 68 c-19 75 -13 101 26 117 18 7 53 5 64 -4z m-3787 -5 c0 -5 -3 -23 -6
-40 -6 -29 -10 -32 -33 -26 -31 8 -71 32 -71 44 0 10 55 29 88 30 12 1 22 -3
22 -8z m780 -37 c16 -42 12 -72 -12 -85 -21 -11 -22 -11 -9 4 13 16 12 54 -4
90 -4 10 -3 17 4 17 6 0 16 -12 21 -26z m220 14 c0 -7 -3 -23 -6 -35 -6 -22
-12 -23 -89 -23 -66 0 -84 3 -89 16 -10 27 -7 33 27 43 50 14 157 13 157 -1z
m1583 0 c2 -7 -5 -18 -17 -25 l-21 -12 22 -1 c12 0 27 -9 33 -20 13 -25 -3
-26 -69 -7 -43 13 -71 38 -71 64 0 18 116 18 123 1z m185 -11 c3 -14 -1 -18
-20 -15 -12 2 -24 11 -26 21 -3 14 1 18 20 15 12 -2 24 -11 26 -21z m-2020
-41 c-2 -12 -11 -22 -22 -24 -12 -3 -16 0 -11 8 4 7 -2 18 -15 27 -22 15 -22
17 -5 29 16 12 21 11 37 -3 10 -9 18 -26 16 -37z m1560 42 c5 -7 13 -23 16
-35 7 -22 5 -23 -44 -23 -37 0 -52 4 -57 16 -3 8 -17 20 -32 25 -20 8 -22 12
-11 19 22 14 116 12 128 -2z m1356 -72 c20 -47 36 -89 36 -94 0 -5 -20 9 -44
32 -25 22 -65 58 -90 80 -26 21 -46 42 -46 47 0 10 26 16 71 18 37 1 37 1 73
-83z m-762 57 c11 -9 18 -30 18 -50 0 -74 -97 -113 -184 -74 -69 30 -103 57
-114 91 -9 26 -9 30 6 30 9 -1 26 -15 37 -33 31 -50 65 -48 122 7 52 49 84 57
115 29z m-2442 -8 c0 -8 -4 -15 -10 -15 -5 0 -7 7 -4 15 4 8 8 15 10 15 2 0 4
-7 4 -15z m214 -31 l28 -34 -52 -48 c-66 -59 -67 -59 -81 -29 -14 31 13 110
45 133 27 18 26 18 60 -22z m-564 5 c19 -5 55 -9 79 -9 l45 0 -29 -30 c-35
-37 -96 -56 -126 -40 -19 11 -49 65 -49 90 0 7 8 9 23 4 12 -4 38 -11 57 -15z
m1954 -36 c16 -48 15 -69 -2 -36 -12 22 -25 83 -19 83 3 0 12 -21 21 -47z
m-2148 28 c-3 -5 -70 -21 -148 -36 -79 -15 -148 -31 -155 -37 -15 -12 -63 1
-63 18 0 8 1 14 3 14 5 0 214 30 272 40 71 11 97 11 91 1z m555 -31 c28 -22
24 -24 -19 -9 -41 14 -67 -1 -84 -47 l-13 -37 -101 6 c-56 4 -112 11 -125 16
l-24 10 23 0 c29 1 72 23 95 49 16 17 27 20 70 15 29 -3 68 -1 87 5 52 15 65
14 91 -8z m82 -14 c-19 -27 -38 -33 -48 -16 -4 6 -3 9 2 8 4 -2 19 8 31 20 30
30 40 22 15 -12z m-563 15 c-8 -5 -62 -18 -120 -30 -58 -12 -128 -27 -155 -35
-36 -9 -58 -10 -75 -3 -24 10 -24 10 15 19 218 48 373 71 335 49z m886 -18
c36 -23 32 -61 -8 -77 -71 -29 -75 -29 -70 4 2 17 12 32 23 35 25 8 24 22 -1
30 -11 3 -20 13 -20 22 0 18 38 11 76 -14z m1760 -5 c5 -7 -4 -20 -21 -32 -61
-45 -76 -62 -76 -86 1 -14 1 -35 1 -47 0 -24 14 -28 73 -24 19 2 27 -2 27 -13
0 -12 -11 -16 -41 -16 -44 0 -68 19 -69 53 0 9 -4 17 -9 17 -5 0 -16 2 -23 5
-10 4 -102 -57 -137 -91 -2 -2 3 -6 12 -10 11 -4 33 8 63 35 52 46 59 48 68
25 9 -24 0 -29 -20 -13 -16 13 -17 11 -11 -13 8 -32 -19 -98 -40 -98 -8 0 -38
-11 -67 -25 -37 -18 -57 -34 -66 -55 -13 -30 -24 -35 -165 -59 -33 -5 -94 -16
-135 -23 -84 -15 -324 -17 -412 -5 -52 8 -58 11 -58 32 0 24 -17 35 -52 35
-26 0 -18 -24 10 -28 12 -2 22 -8 22 -14 0 -13 -110 -2 -124 12 -6 6 -13 40
-17 77 -5 50 -12 70 -25 78 -25 14 -67 55 -62 61 3 2 53 -6 112 -18 l108 -21
-38 -20 c-42 -21 -91 -57 -79 -57 4 0 34 16 67 36 68 41 42 43 251 -12 l108
-28 87 29 c48 16 120 41 160 57 40 15 85 28 100 28 31 0 79 29 65 39 -6 3 -13
19 -17 34 -7 28 -6 28 31 21 92 -18 233 3 233 34 0 8 -68 33 -125 45 -11 3 12
5 50 6 55 1 83 7 130 30 65 32 100 38 111 19z m-1936 -25 c-35 -45 -97 -93
-119 -93 -12 0 -43 11 -69 24 -27 13 -65 27 -85 31 -20 4 -37 11 -37 15 0 66
116 44 158 -30 9 -16 22 -30 28 -30 6 0 39 25 73 55 68 61 84 69 51 28z m87
11 c2 -5 -12 -18 -32 -27 -39 -18 -43 -13 -19 21 16 23 44 26 51 6z m516 1
c85 -8 88 -21 4 -17 -34 2 -94 -1 -132 -6 -39 -5 -71 -8 -73 -7 -2 2 2 13 8
25 10 20 17 21 68 16 31 -3 87 -8 125 -11z m-1275 -7 c-5 -14 -9 -15 -166 -52
-82 -20 -108 -23 -128 -14 -47 22 -42 24 151 62 92 18 148 20 143 4z m3605 -5
l32 -17 -45 -8 c-25 -4 -56 -16 -70 -26 -25 -19 -25 -19 -63 6 -20 14 -36 26
-35 27 2 2 23 10 48 18 59 21 94 21 133 0z m-1857 -24 c3 -6 -1 -18 -10 -27
-13 -14 -36 -17 -109 -16 -51 0 -105 6 -122 13 -29 12 -29 13 -11 27 25 17
241 20 252 3z m924 1 c13 -8 13 -11 -1 -25 -18 -18 -104 -47 -113 -38 -12 12
-5 23 31 48 40 27 59 30 83 15z m250 -15 c0 -34 -44 -55 -120 -55 -55 0 -60 2
-60 21 0 21 3 22 66 16 61 -6 68 -5 88 18 26 30 26 30 26 0z m-2890 -4 c0 -4
-21 -14 -47 -21 -27 -6 -68 -18 -93 -27 -63 -21 -94 -21 -98 -2 -2 13 16 20
95 37 112 23 143 26 143 13z m715 -12 c-8 -24 -94 -139 -105 -139 -3 0 -14 6
-24 13 -17 13 -16 17 25 74 43 60 55 69 92 72 14 1 17 -4 12 -20z m412 -13
c15 -19 45 -67 66 -106 31 -57 37 -74 27 -85 -20 -24 -35 -18 -76 33 -53 64
-84 92 -103 92 -9 0 -51 -20 -94 -44 -74 -42 -77 -43 -77 -21 0 39 35 72 85
80 37 5 50 12 65 38 18 30 40 45 67 46 6 1 24 -14 40 -33z m705 17 c10 -9 33
-17 51 -18 118 -4 117 -4 128 -31 5 -15 8 -28 6 -30 -1 -2 -31 6 -66 16 -80
25 -78 26 -96 -11 -15 -28 -19 -30 -63 -27 -41 3 -47 6 -50 27 -2 13 -1 39 3
57 5 30 10 34 37 34 17 0 40 -8 50 -17z m854 -41 c-4 -3 -11 -1 -18 6 -8 8 -8
15 3 28 13 16 14 16 17 -5 2 -13 1 -25 -2 -29z m-2242 2 c55 -32 97 -31 137 3
28 24 30 24 21 6 -17 -31 -61 -63 -88 -63 -13 0 -44 14 -70 32 -35 23 -62 33
-103 36 -40 4 -50 7 -36 13 30 11 93 -1 139 -27z m3117 20 c11 -14 10 -21 -4
-47 -21 -35 -10 -55 21 -38 23 12 180 41 224 41 l30 0 -34 -37 c-18 -21 -44
-55 -57 -76 -22 -37 -24 -37 -37 -18 -13 19 -69 43 -127 56 l-28 6 6 -63 c8
-79 -8 -61 -25 28 -10 54 -10 65 5 88 14 21 15 29 5 41 -7 8 -19 15 -27 15 -8
0 -11 5 -8 10 9 15 41 12 56 -6z m-3457 -12 c5 -2 -42 -19 -105 -37 -90 -26
-118 -31 -141 -23 -47 17 -27 32 73 55 84 19 146 21 173 5z m2403 -14 c-3 -8
-6 -5 -6 6 -1 11 2 17 5 13 3 -3 4 -12 1 -19z m-1673 2 c30 -11 33 -26 9 -53
-13 -15 -15 -21 -5 -24 6 -3 12 -12 12 -20 0 -13 -8 -14 -42 -9 -40 7 -108 43
-108 58 0 8 80 56 97 57 6 1 23 -3 37 -9z m1796 0 c0 -22 -41 -50 -74 -50 -71
0 -43 23 72 59 1 1 2 -3 2 -9z m-3570 -87 c20 -53 29 -112 10 -68 -32 78 -58
157 -45 141 8 -11 24 -44 35 -73z m1157 66 c55 -14 48 -19 -77 -49 -103 -25
-146 -47 -70 -35 25 3 88 18 140 31 127 33 211 41 228 22 10 -13 8 -17 -15
-27 -56 -22 -233 -61 -281 -61 -42 0 -202 47 -219 64 -10 10 -1 14 97 39 110
29 135 31 197 16z m2608 -9 c-7 -11 -130 -23 -155 -15 -41 13 -18 20 70 21 49
1 88 -2 85 -6z m-1460 -10 c119 -14 122 -15 99 -42 l-19 -21 35 18 c54 28 158
30 285 6 61 -12 133 -21 160 -21 112 0 107 -11 -25 -55 l-125 -42 -32 25 c-51
38 -100 51 -194 52 -72 0 -272 28 -332 46 -9 3 -22 14 -27 25 -10 18 -7 19 37
19 26 0 89 -5 138 -10z m1504 -75 c26 -80 26 -87 2 -109 -19 -18 -20 -17 -23
26 -2 34 -7 43 -20 42 -10 -1 -18 4 -18 12 0 8 -4 14 -10 14 -5 0 -10 -8 -10
-17 0 -26 -35 -79 -64 -98 -19 -13 -29 -14 -45 -5 -28 14 -27 20 15 106 34 68
40 74 73 79 20 4 43 8 51 10 8 1 18 3 21 4 3 0 16 -28 28 -64z m-2290 9 c29
-21 101 -131 101 -155 0 -18 -35 -49 -56 -49 -7 0 -15 12 -19 27 -3 15 -35 55
-71 90 -35 34 -64 65 -64 68 0 7 54 34 70 35 9 0 26 -7 39 -16z m-945 -78
c-10 -42 -22 -72 -26 -68 -9 9 3 77 22 127 20 52 22 17 4 -59z m50 -25 c-25
-84 -44 -116 -44 -74 0 18 39 162 47 176 3 5 10 4 15 -1 6 -6 0 -42 -18 -101z
m2840 74 c-4 -8 -10 -13 -14 -10 -13 8 -20 -24 -11 -49 9 -23 57 -50 81 -44 7
2 15 -3 17 -9 6 -16 -73 -18 -82 -3 -3 6 -16 10 -27 10 -12 0 -32 10 -45 22
-13 12 -23 17 -23 10 0 -17 29 -42 49 -42 24 0 30 -8 24 -31 -7 -26 -29 -24
-58 6 -30 30 -31 56 -4 112 19 40 24 43 60 43 30 0 37 -3 33 -15z m59 -7 c14
-21 -6 -68 -28 -68 -11 0 -15 11 -15 46 0 37 3 45 16 42 9 -2 22 -11 27 -20z
m1062 3 c61 -27 69 -42 49 -85 -18 -36 -18 -36 -37 -16 -10 12 -32 23 -48 27
-24 4 -29 11 -29 33 0 16 -3 35 -6 44 -8 22 20 21 71 -3z m-2928 -40 c26 -5
65 -12 86 -16 l38 -6 -3 -47 -3 -47 -65 -16 c-36 -9 -78 -22 -93 -28 -46 -18
-53 -13 -16 12 43 28 50 72 20 123 -11 18 -18 34 -16 34 2 0 26 -4 52 -9z
m207 -39 c-4 -6 -64 31 -64 40 0 4 15 -3 34 -15 18 -12 32 -24 30 -25z m225
25 c14 -18 4 -27 -30 -27 -34 0 -46 15 -22 29 24 14 39 13 52 -2z m-899 -10
c0 -8 -81 -231 -91 -248 -5 -10 -16 -19 -24 -19 -11 0 -8 18 14 83 33 95 77
187 91 187 6 0 10 -1 10 -3z m1030 -22 c0 -18 -7 -28 -26 -35 -34 -13 -34 -13
-34 13 0 15 9 28 23 35 33 16 37 14 37 -13z m1100 -4 c0 -5 -6 -11 -12 -13 -8
-3 -2 -14 17 -31 34 -30 20 -37 -16 -8 -20 16 -59 18 -59 2 0 -13 83 -51 94
-42 6 4 38 5 71 0 33 -4 86 -8 117 -8 31 -1 59 -5 62 -10 15 -24 -203 -29
-277 -7 -60 18 -108 52 -100 72 6 15 69 53 91 54 6 0 12 -4 12 -9z m400 -5 c0
-8 -7 -16 -15 -20 -13 -4 -14 -2 -5 14 13 23 20 26 20 6z m-2730 -18 c37 -15
8 -21 -39 -8 -51 13 -68 35 -20 25 19 -4 45 -12 59 -17z m418 -15 c11 -21 33
-43 53 -52 53 -25 81 -76 104 -188 6 -30 5 -32 -30 -39 -44 -8 -141 1 -210 20
l-50 14 83 -5 c82 -6 82 -6 82 18 0 14 -7 51 -15 84 -13 46 -13 60 -3 66 19
12 45 -17 80 -89 18 -36 34 -60 36 -53 7 21 -19 78 -54 120 -29 33 -40 40 -59
35 -21 -5 -25 -1 -35 36 -6 23 -14 48 -17 56 -11 30 18 12 35 -23z m450 25
c13 -13 16 -48 5 -48 -16 1 -43 28 -43 44 0 19 21 21 38 4z m2675 -50 c21 -83
7 -113 -22 -45 -11 26 -23 47 -27 47 -4 0 -4 -25 0 -56 8 -68 -3 -64 -43 14
-16 31 -40 64 -53 72 l-23 14 35 7 c19 3 54 7 76 8 l42 1 15 -62z m34 16 l2
-39 -14 30 c-18 38 -19 58 -2 53 6 -3 13 -22 14 -44z m-3522 -80 c-15 -54 -30
-103 -34 -107 -4 -4 -14 -1 -21 8 -13 15 -11 23 52 194 6 16 12 21 19 14 6 -6
0 -44 -16 -109z m893 106 c7 0 12 -13 12 -30 0 -21 -5 -30 -16 -30 -30 0 -54
20 -54 47 0 21 3 24 23 19 12 -3 28 -6 35 -6z m202 -9 c0 -11 -5 -23 -12 -27
-17 -11 -148 -32 -152 -25 -2 3 -6 18 -10 33 -6 27 -6 27 56 31 35 2 75 4 91
5 21 2 27 -2 27 -17z m1690 -6 c0 -18 -5 -25 -20 -25 -24 0 -25 8 -3 32 21 23
23 23 23 -7z m1066 3 c-3 -13 -11 -46 -17 -74 -10 -46 -14 -50 -36 -46 -32 6
-109 -24 -156 -60 -21 -17 -41 -27 -44 -24 -10 9 56 103 103 146 43 40 114 79
143 80 9 0 11 -7 7 -22z m-4685 -37 c69 -73 90 -190 52 -291 -11 -30 -25 -80
-31 -110 -5 -30 -16 -71 -24 -90 l-14 -35 -17 49 c-12 36 -17 83 -17 169 0
101 -2 118 -14 108 -8 -6 -19 -25 -26 -41 -16 -38 -25 -38 -47 3 -35 66 -4
211 55 257 34 27 40 26 83 -19z m2022 -67 c-7 -32 -15 -41 -46 -53 -21 -7 -39
-12 -40 -10 -2 2 -1 33 2 68 6 62 7 64 41 75 33 11 35 10 44 -15 5 -16 5 -43
-1 -65z m-1753 60 c12 -12 11 -14 -7 -14 -12 0 -29 -10 -38 -22 -13 -20 -17
-21 -25 -8 -34 53 23 89 70 44z m3085 16 c4 -6 -13 -10 -44 -10 -27 0 -53 5
-56 10 -4 6 13 10 44 10 27 0 53 -4 56 -10z m-329 -45 c20 -14 53 -29 73 -35
62 -17 219 -12 294 9 52 15 67 17 67 7 0 -22 -23 -35 -96 -52 -151 -35 -384
15 -384 83 0 18 3 17 46 -12z m1023 -6 l45 -19 -79 -50 c-44 -28 -85 -50 -91
-50 -7 0 -26 13 -44 30 -23 21 -30 35 -25 50 7 23 -10 27 -22 5 -7 -12 -16
-12 -57 -2 l-48 13 58 19 c119 38 183 39 263 4z m-2376 -18 c4 -18 6 -36 2
-39 -9 -10 -24 12 -31 47 -9 45 17 38 29 -8z m207 24 c0 -12 -33 -55 -41 -55
-10 0 -12 43 -2 53 8 8 43 9 43 2z m-760 -31 c6 -14 10 -30 10 -35 0 -10 -59
-10 -105 0 l-30 7 25 16 c72 46 87 48 100 12z m620 -14 c0 -44 -21 -55 -40
-21 -19 36 -13 61 15 61 23 0 25 -4 25 -40z m70 6 c0 -25 -5 -35 -19 -39 -26
-6 -31 0 -31 40 0 29 3 33 25 33 22 0 25 -4 25 -34z m-1362 18 c33 -9 27 -24
-10 -24 -42 0 -78 10 -78 21 0 10 54 12 88 3z m3657 -191 c-8 -32 -54 -83 -75
-83 -21 0 -30 20 -29 63 1 24 3 26 6 9 6 -31 23 -18 23 18 0 46 -19 45 -39 -1
-22 -48 -18 -51 -36 35 -4 20 4 31 47 63 28 21 63 45 77 54 l26 16 3 -76 c2
-42 0 -86 -3 -98z m-3851 128 c82 20 116 21 116 0 0 -5 -12 -12 -27 -16 -28
-7 -28 -7 -5 -16 12 -4 22 -15 22 -24 0 -14 -3 -14 -30 0 -44 23 -128 19 -182
-8 l-46 -23 -5 45 c-3 26 -9 55 -13 65 -6 16 2 13 39 -13 l46 -31 85 21z
m3532 28 c24 -6 44 -15 44 -19 0 -4 18 -19 40 -34 50 -33 67 -59 76 -116 l7
-45 -37 33 c-40 35 -103 65 -117 56 -5 -3 -9 -11 -9 -19 0 -8 -5 -25 -11 -39
-11 -24 -13 -24 -40 -11 -15 8 -51 20 -79 26 -27 6 -50 15 -50 20 0 17 67 9
113 -15 35 -17 47 -20 47 -10 0 15 -58 43 -107 51 -32 5 -33 7 -33 55 0 46 2
50 33 63 39 17 65 18 123 4z m857 -41 c-4 -18 -8 -55 -7 -82 1 -42 6 -53 30
-72 15 -13 26 -25 24 -27 -3 -2 -27 -9 -55 -14 -27 -6 -58 -14 -67 -18 -14 -5
-18 -2 -18 11 0 11 -13 56 -28 101 l-28 82 46 20 c56 25 70 29 93 30 16 1 17
-4 10 -31z m-1523 -3 c0 -1 -5 -16 -11 -34 -13 -37 -39 -42 -39 -7 0 39 10 54
31 49 10 -3 19 -6 19 -8z m250 -71 c0 -24 -4 -44 -10 -44 -5 0 -10 23 -10 51
0 31 4 48 10 44 6 -3 10 -26 10 -51z m-3060 8 c27 -22 30 -75 6 -118 -15 -29
-15 -29 -16 36 0 59 -1 63 -13 40 -19 -38 -47 -31 -74 18 l-24 42 50 0 c32 0
56 -6 71 -18z m2505 -12 c43 -45 22 -59 -40 -27 l-48 24 24 16 c31 22 30 22
64 -13z m-2625 -9 c19 -36 12 -173 -14 -272 -13 -52 -27 -116 -31 -144 -9 -71
-25 -117 -38 -112 -27 9 -28 164 -1 231 16 41 -19 2 -43 -48 l-24 -51 6 120
c4 66 11 142 17 168 10 50 48 103 82 117 31 13 34 12 46 -9z m4161 -1 c29 -16
49 -63 49 -116 0 -39 -5 -51 -34 -80 -48 -48 -78 -45 -117 9 -27 37 -30 48
-26 91 7 78 71 126 128 96z m-3805 -12 c5 -7 -8 -25 -33 -45 -40 -33 -40 -35
-32 -74 5 -22 21 -63 34 -90 25 -48 25 -49 5 -50 -11 -1 -26 -2 -32 -3 -7 -1
-13 7 -13 16 0 9 -4 20 -8 24 -4 4 -7 15 -7 25 0 10 -11 30 -23 45 -18 20 -29
25 -43 20 -18 -8 -18 -8 2 -16 28 -11 36 -24 28 -44 -5 -14 -9 -13 -31 4 -14
11 -35 20 -47 20 -18 1 -17 4 14 29 19 16 32 33 28 36 -12 13 -37 -3 -58 -37
-27 -45 -25 -12 3 36 28 49 60 73 128 97 64 22 75 23 85 7z m3324 -25 c32 -22
40 -33 40 -58 -1 -18 -3 -17 -21 7 -11 15 -35 32 -54 38 -19 6 -35 16 -35 21
0 15 44 10 70 -8z m-3010 -53 c0 -11 -18 -73 -39 -138 -21 -64 -42 -133 -47
-152 -7 -33 -8 -34 -14 -10 -6 24 -2 59 15 109 11 35 -9 18 -29 -24 l-17 -36
-20 25 c-10 13 -19 33 -19 43 0 76 90 203 143 203 20 0 27 -5 27 -20z m-304
-52 c43 -38 76 -104 67 -136 l-5 -22 -28 20 c-16 11 -42 48 -59 82 -48 95 -40
112 25 56z m-667 -18 c20 -21 39 -58 56 -112 33 -105 74 -278 66 -278 -24 0
-58 45 -102 132 -28 55 -52 98 -55 96 -2 -3 5 -30 15 -61 11 -32 18 -57 16
-57 -12 0 -55 95 -65 144 -11 52 -7 136 7 159 9 15 32 6 62 -23z m4780 11 l24
-19 -39 -38 c-22 -22 -48 -51 -59 -66 -13 -18 -29 -28 -46 -28 -37 0 -39 6
-18 48 11 20 19 49 19 65 0 22 7 31 33 42 43 19 57 18 86 -4z m-3528 -41 c5 0
18 -9 29 -20 17 -17 20 -33 20 -111 0 -82 -1 -89 -16 -75 -8 9 -22 16 -31 16
-12 0 -11 -4 5 -17 11 -10 23 -31 26 -48 l7 -30 -21 25 -21 25 4 -39 c3 -33 1
-36 -7 -20 -6 10 -37 45 -68 78 -32 33 -55 63 -52 68 3 4 19 8 35 8 20 0 28 4
23 11 -7 12 -125 7 -174 -7 -23 -6 -24 -5 -10 9 8 9 33 23 55 32 l40 15 -53
-3 c-44 -4 -50 -2 -40 10 20 24 65 43 103 43 28 0 45 -9 80 -41 52 -48 58 -43
15 11 l-31 39 23 15 c13 9 29 14 36 11 8 -3 18 -5 23 -5z m-695 -62 c-14 -9
-20 7 -11 30 6 15 8 15 15 -3 4 -12 3 -23 -4 -27z m3497 -27 c18 -22 27 -49
35 -113 7 -45 14 -94 18 -108 4 -19 3 -21 -5 -10 -5 8 -13 32 -16 52 -4 21
-11 38 -16 38 -9 0 -4 -34 12 -77 12 -34 4 -28 -22 15 -13 20 -45 63 -71 95
-51 62 -58 89 -31 119 25 28 67 23 96 -11z m-3476 -16 c8 -22 -6 -33 -17 -15
-13 20 -12 30 0 30 6 0 13 -7 17 -15z m115 -29 c10 -11 18 -38 18 -58 0 -20 4
-48 9 -62 9 -22 7 -26 -21 -35 -18 -6 -35 -8 -38 -4 -4 5 -19 44 -35 87 -27
76 -27 79 -10 93 23 16 54 8 77 -21z m3773 -16 c25 -49 19 -68 -47 -131 -34
-32 -63 -57 -65 -56 -2 2 8 38 22 81 14 42 25 91 25 110 0 18 3 36 6 39 11 11
43 -12 59 -43z m-3642 -31 c49 -56 50 -73 8 -128 -18 -24 -19 -24 -46 -7 -33
22 -55 72 -55 129 0 76 30 78 93 6z m309 -22 c15 -29 28 -77 20 -77 -12 0 -72
103 -66 112 7 11 31 -8 46 -35z m3568 23 c0 -12 -28 -25 -36 -17 -9 9 6 27 22
27 8 0 14 -5 14 -10z m-936 -155 c3 -8 2 -30 -1 -48 -7 -31 -7 -31 -14 -7 -10
36 -10 70 0 70 5 0 11 -7 15 -15z m43 -30 c-10 -35 -27 -48 -27 -20 0 22 22
65 31 60 4 -3 2 -21 -4 -40z m-2667 1 c0 -3 -4 -8 -10 -11 -5 -3 -10 -1 -10 4
0 6 5 11 10 11 6 0 10 -2 10 -4z"/>
<path d="M962 4765 c0 -16 2 -22 5 -12 2 9 2 23 0 30 -3 6 -5 -1 -5 -18z"/>
<path d="M921 4486 c-25 -27 -31 -91 -13 -138 23 -58 106 -71 139 -22 15 24
14 26 -31 67 -44 42 -58 78 -36 92 18 11 11 25 -13 25 -13 0 -34 -11 -46 -24z"/>
<path d="M1058 4468 c-32 -11 -37 -28 -9 -28 19 0 71 -52 71 -71 0 -5 5 -9 10
-9 19 0 10 29 -19 62 -15 18 -26 39 -24 46 3 6 3 12 1 11 -1 0 -15 -5 -30 -11z"/>
<path d="M1077 4148 c-36 -37 -38 -40 -20 -53 10 -8 20 -15 23 -15 5 0 41 104
37 106 -1 0 -19 -17 -40 -38z"/>
<path d="M4134 3552 c-22 -15 -36 -54 -30 -88 7 -35 43 -70 84 -81 21 -5 23
-10 19 -39 -7 -39 10 -46 19 -9 9 36 -1 52 -40 69 -58 24 -75 89 -34 133 15
16 17 23 7 23 -8 0 -19 -4 -25 -8z"/>
<path d="M3983 3398 c-21 -10 -40 -44 -30 -54 2 -2 21 11 42 31 38 34 32 44
-12 23z"/>
<path d="M4350 3301 c-16 -30 -12 -36 10 -16 21 19 26 35 10 35 -5 0 -14 -9
-20 -19z"/>
<path d="M4350 3209 c0 -23 21 -39 51 -39 27 0 65 27 54 38 -3 3 -11 0 -17 -6
-17 -17 -48 -15 -70 5 -15 13 -18 14 -18 2z"/>
<path d="M4230 3131 c0 -10 31 -31 45 -31 11 0 -5 20 -26 30 -12 7 -19 7 -19
1z"/>
<path d="M3007 3299 c45 -76 176 -240 240 -299 131 -122 213 -191 213 -180 0
6 -71 82 -158 168 -86 86 -191 199 -231 250 -76 96 -95 113 -64 61z"/>
<path d="M1983 3228 c-20 -26 -26 -41 -15 -34 12 7 36 46 29 46 -3 0 -9 -6
-14 -12z"/>
<path d="M511 3084 c-19 -8 -32 -16 -29 -19 6 -7 68 18 68 27 0 10 2 10 -39
-8z"/>
<path d="M785 2820 c-32 -4 -22 -7 54 -13 128 -10 384 -8 349 3 -35 10 -349
18 -403 10z"/>
<path d="M1325 2820 c8 -13 95 -13 115 0 10 7 -5 10 -53 10 -43 0 -66 -4 -62
-10z"/>
<path d="M870 2740 c30 -5 159 -5 285 -1 l230 8 -285 0 c-181 0 -265 -2 -230
-7z"/>
<path d="M1265 2679 c-13 -6 0 -7 40 -3 33 4 62 8 64 10 9 8 -85 2 -104 -7z"/>
<path d="M1636 2360 c-52 -16 -94 -40 -72 -40 13 0 176 52 176 56 0 9 -49 2
-104 -16z"/>
<path d="M770 2305 c0 -8 9 -15 19 -15 26 0 35 16 15 24 -25 10 -34 7 -34 -9z"/>
<path d="M900 2291 c0 -21 114 -30 134 -10 6 5 -11 8 -43 6 -28 -2 -54 0 -57
5 -7 11 -34 10 -34 -1z"/>
<path d="M1544 2282 c3 -5 45 -12 93 -16 48 -3 102 -9 118 -12 22 -5 27 -4 19
5 -18 20 -242 42 -230 23z"/>
<path d="M1655 2180 c-23 -6 -15 -8 38 -9 39 -1 67 3 67 9 0 11 -60 11 -105 0z"/>
<path d="M1760 2110 c0 -5 9 -10 21 -10 11 0 17 5 14 10 -3 6 -13 10 -21 10
-8 0 -14 -4 -14 -10z"/>
<path d="M4453 2600 c-13 -5 -23 -12 -23 -16 0 -9 73 6 85 17 12 12 -32 11
-62 -1z"/>
<path d="M3340 2501 c-5 -11 -10 -27 -10 -35 0 -14 3 -14 20 -4 11 7 20 23 20
35 0 28 -16 30 -30 4z"/>
<path d="M3042 2438 c-17 -17 -15 -47 3 -54 8 -4 15 -13 15 -20 0 -8 7 -17 15
-20 8 -4 15 -15 15 -25 0 -11 7 -22 16 -26 22 -8 66 8 72 27 4 12 2 13 -9 3
-7 -7 -23 -13 -36 -13 -29 0 -31 30 -3 37 31 8 13 23 -27 23 -35 0 -36 1 -19
19 10 11 16 28 14 38 -4 22 -38 29 -56 11z"/>
<path d="M3222 2418 c-17 -17 -15 -57 4 -65 9 -3 25 3 37 16 17 17 19 25 11
39 -14 22 -36 26 -52 10z"/>
<path d="M2387 2423 c-12 -11 -8 -23 8 -23 18 0 20 -17 3 -23 -10 -3 -10 -7
-1 -17 17 -18 43 -5 43 23 0 35 -33 60 -53 40z"/>
<path d="M2587 2373 c-7 -11 28 -53 43 -53 6 0 10 7 8 16 -4 20 -44 49 -51 37z"/>
<path d="M2485 2330 c-3 -5 -1 -11 5 -15 16 -10 1 -25 -18 -18 -15 6 -15 5 -3
-10 15 -19 66 -23 77 -6 3 6 1 15 -7 19 -9 6 -5 11 14 15 15 4 27 10 27 15 0
10 -89 10 -95 0z"/>
<path d="M4150 2248 c-58 -12 -74 -17 -68 -23 7 -7 111 15 123 26 11 11 7 10
-55 -3z"/>
<path d="M3848 2213 c12 -2 32 -2 45 0 12 2 2 4 -23 4 -25 0 -35 -2 -22 -4z"/>
<path d="M4193 1673 c-13 -2 -23 -9 -23 -15 0 -5 7 -7 16 -4 9 3 28 6 42 6 21
0 24 2 12 10 -8 5 -17 9 -20 8 -3 0 -15 -3 -27 -5z"/>
<path d="M4550 1630 c0 -5 6 -10 14 -10 8 0 18 5 21 10 3 6 -3 10 -14 10 -12
0 -21 -4 -21 -10z"/>
<path d="M4607 1584 c-31 -17 -30 -32 0 -18 10 4 27 8 37 8 11 1 21 7 23 14 6
17 -26 15 -60 -4z"/>
<path d="M1240 2208 c1 -7 7 -26 15 -43 10 -23 14 -26 14 -10 1 29 -10 65 -20
65 -5 0 -9 -6 -9 -12z"/>
<path d="M1398 2068 c18 -18 15 -27 -8 -21 -21 6 -27 -11 -11 -36 12 -19 41
-6 41 18 0 28 -10 51 -23 51 -7 0 -7 -4 1 -12z"/>
<path d="M731 2110 c-24 -11 -42 -23 -39 -26 8 -7 88 26 88 37 0 11 3 12 -49
-11z"/>
<path d="M2666 1944 c-4 -9 -4 -19 -2 -21 8 -8 26 8 26 23 0 19 -16 18 -24 -2z"/>
<path d="M3200 1781 c-28 -17 -167 -51 -246 -62 -43 -5 -180 -10 -304 -11
-186 -1 -211 -2 -145 -10 89 -9 382 -2 490 13 78 10 182 42 211 64 21 16 17
19 -6 6z"/>
<path d="M2711 1866 c-8 -10 -9 -21 -4 -31 8 -14 11 -15 22 -1 8 10 9 21 4 31
-8 14 -11 15 -22 1z"/>
<path d="M2590 1833 c0 -10 5 -25 10 -33 7 -11 10 -7 10 18 0 17 -4 32 -10 32
-5 0 -10 -8 -10 -17z"/>
<path d="M2630 1825 c0 -14 5 -25 10 -25 6 0 10 11 10 25 0 14 -4 25 -10 25
-5 0 -10 -11 -10 -25z"/>
<path d="M2670 1831 c0 -12 5 -21 10 -21 6 0 10 6 10 14 0 8 -4 18 -10 21 -5
3 -10 -3 -10 -14z"/>
<path d="M568 1618 c24 -11 46 -17 49 -15 7 8 -53 37 -74 36 -10 0 1 -10 25
-21z"/>
<path d="M3200 973 c0 -12 5 -25 10 -28 13 -8 13 15 0 35 -8 12 -10 11 -10 -7z"/>
<path d="M3240 980 c0 -5 18 -10 40 -10 22 0 40 5 40 10 0 6 -18 10 -40 10
-22 0 -40 -4 -40 -10z"/>
<path d="M3081 959 c-13 -5 -22 -11 -20 -14 9 -8 118 8 113 16 -7 12 -63 10
-93 -2z"/>
<path d="M2928 937 c-70 -18 -95 -37 -48 -37 30 0 150 40 150 50 0 13 -8 12
-102 -13z"/>
<path d="M2657 944 c-10 -10 68 -34 111 -34 45 0 32 16 -20 24 -24 4 -52 9
-63 12 -11 3 -24 2 -28 -2z"/>
<path d="M4308 870 c-35 -36 -35 -40 2 -40 24 0 33 6 40 26 21 53 1 60 -42 14z"/>
<path d="M4076 818 c-8 -13 -18 -36 -22 -52 -6 -25 -5 -27 12 -18 33 18 67 60
61 76 -9 23 -34 20 -51 -6z"/>
<path d="M1337 4743 c-17 -16 -3 -23 51 -23 52 1 55 2 38 15 -20 15 -77 20
-89 8z"/>
<path d="M2695 4110 c-4 -6 12 -10 40 -10 48 0 92 -17 114 -44 12 -14 3 -16
-93 -16 -64 0 -106 -4 -106 -10 0 -6 47 -10 120 -10 66 0 120 3 120 6 0 20
-46 64 -80 78 -45 18 -106 21 -115 6z"/>
<path d="M3585 4056 c-45 -20 -76 -59 -82 -104 -4 -33 -11 -43 -34 -53 -16 -6
-34 -19 -39 -28 -9 -15 -11 -14 -21 2 -16 27 -84 57 -132 57 -49 0 -160 -34
-177 -55 -24 -29 1 -35 156 -35 147 0 154 -1 154 -20 0 -16 -7 -20 -32 -20
-33 0 -88 -33 -76 -45 3 -4 20 1 37 9 16 9 44 16 61 16 25 0 30 4 30 24 0 14
12 38 26 55 20 24 34 31 62 31 30 1 34 3 20 11 -44 25 7 130 71 144 59 13 122
-31 141 -100 7 -24 21 -52 31 -61 17 -15 21 -14 65 25 32 28 56 41 75 41 16 0
29 5 29 10 0 29 -88 1 -124 -39 -26 -29 -33 -27 -46 17 -17 53 -57 102 -96
118 -41 17 -60 17 -99 0z m-236 -160 c15 -8 33 -22 40 -30 12 -14 2 -16 -95
-15 -60 0 -127 3 -149 8 l-40 7 45 16 c70 26 72 26 123 27 26 1 60 -5 76 -13z"/>
<path d="M3926 3921 c-8 -13 57 -81 77 -81 9 0 17 6 17 14 0 19 -17 29 -25 16
-10 -16 -45 18 -45 42 0 19 -15 25 -24 9z"/>
<path d="M4035 3850 c-3 -5 1 -10 9 -10 9 0 16 5 16 10 0 6 -4 10 -9 10 -6 0
-13 -4 -16 -10z"/>
<path d="M3635 3786 c-5 -3 -26 -7 -46 -10 -21 -4 -49 -16 -65 -28 -25 -20
-37 -22 -158 -20 -76 2 -137 -2 -146 -8 -10 -7 31 -10 136 -10 123 0 154 3
164 15 30 36 112 47 335 44 118 -2 217 0 221 4 4 4 -42 7 -102 7 -60 0 -158 2
-219 5 -60 3 -114 3 -120 1z"/>
<path d="M1535 3534 c-31 -16 -65 -52 -64 -69 0 -5 6 -1 14 9 50 66 185 78
185 16 0 -16 7 -20 34 -20 19 0 38 -4 41 -10 3 -5 34 -9 68 -8 59 2 60 2 13 5
-27 3 -59 11 -70 19 -11 8 -28 14 -37 14 -10 0 -31 14 -47 30 -35 35 -87 40
-137 14z"/>
<path d="M1340 3480 c-20 -7 -16 -8 22 -9 26 -1 50 4 53 9 7 12 -38 12 -75 0z"/>
<path d="M1442 3420 l3 -25 169 0 c104 0 171 4 173 10 2 6 -54 9 -159 7 -147
-3 -164 -1 -176 15 -13 17 -13 16 -10 -7z"/>
<path d="M5072 3043 c-5 -10 -12 -31 -16 -46 -6 -26 -5 -28 16 -21 24 7 38 22
38 39 -1 6 -5 2 -11 -8 -13 -22 -29 -13 -22 13 3 11 9 17 14 14 5 -3 9 -1 9 5
0 19 -19 22 -28 4z"/>
<path d="M5034 2504 c-29 -14 -92 -72 -69 -63 43 17 135 65 135 72 0 12 -33 8
-66 -9z"/>
<path d="M227 2143 c-38 -71 -52 -72 -17 -3 11 22 18 40 16 40 -12 0 -50 -48
-63 -79 l-14 -34 -22 34 -22 34 -5 -55 -5 -55 -18 48 c-10 26 -23 45 -28 41
-5 -3 -2 -18 6 -34 19 -37 19 -40 -5 -40 -26 0 -25 -12 0 -35 16 -15 42 -20
110 -23 49 -2 102 -1 117 3 l28 8 -33 14 -33 13 22 33 c13 17 36 49 52 70 42
54 13 45 -45 -14 -28 -27 -53 -48 -55 -45 -3 3 11 37 30 76 46 89 33 92 -16 3z"/>
<path d="M67 1886 c-27 -7 -54 -19 -60 -26 -10 -10 -7 -11 13 -6 14 4 48 11
75 17 126 27 125 27 70 27 -27 0 -72 -5 -98 -12z"/>
<path d="M473 1865 c0 -22 2 -30 4 -17 2 12 2 30 0 40 -3 9 -5 -1 -4 -23z"/>
<path d="M495 1860 c-3 -5 -3 -15 1 -21 6 -11 23 6 24 24 0 10 -18 9 -25 -3z"/>
<path d="M540 1830 c36 -11 92 -11 110 0 10 7 -8 9 -60 9 -53 -1 -68 -3 -50
-9z"/>
<path d="M385 1794 c22 -8 44 -19 49 -24 13 -13 26 -13 26 0 0 15 -56 40 -87
39 -26 0 -25 -2 12 -15z"/>
<path d="M480 1765 c7 -8 17 -15 22 -15 6 0 5 7 -2 15 -7 8 -17 15 -22 15 -6
0 -5 -7 2 -15z"/>
<path d="M5033 1165 l-48 -47 48 33 c51 35 62 47 54 56 -3 3 -27 -16 -54 -42z"/>
<path d="M45 849 c-4 -16 -4 -38 0 -49 6 -19 8 -19 43 -5 48 21 49 22 23 49
-35 37 -59 39 -66 5z"/>
<path d="M2435 783 c-35 -9 -135 -74 -135 -88 0 -7 8 -16 18 -20 24 -10 225
-19 256 -11 39 10 32 40 -16 79 -43 35 -86 49 -123 40z m90 -50 l30 -28 -64
-3 c-90 -4 -110 7 -75 42 25 25 75 20 109 -11z"/>
<path d="M2662 739 c2 -7 10 -15 17 -17 8 -3 12 1 9 9 -2 7 -10 15 -17 17 -8
3 -12 -1 -9 -9z"/>
<path d="M2703 735 c5 -14 29 -13 34 2 3 7 -4 11 -16 10 -12 -1 -20 -6 -18
-12z"/>
<path d="M2152 604 c-35 -20 -61 -41 -59 -47 8 -25 202 -38 224 -16 25 25 -37
99 -82 99 -11 0 -48 -16 -83 -36z m102 0 c24 -24 10 -34 -47 -34 l-52 1 30 24
c35 29 48 31 69 9z"/>
<path d="M1710 608 c0 -9 5 -20 11 -23 17 -11 20 0 4 21 -13 17 -14 17 -15 2z"/>
<path d="M1746 612 c-3 -5 1 -15 9 -22 12 -10 18 -10 30 0 8 7 15 18 15 24 0
6 -7 3 -14 -7 -13 -17 -15 -17 -24 -1 -5 10 -12 12 -16 6z"/>
<path d="M3450 528 c0 -18 18 -34 28 -24 3 4 -2 14 -11 23 -16 16 -17 16 -17
1z"/>
<path d="M3520 511 c-30 -6 -32 -8 -14 -14 20 -7 74 6 74 18 0 6 -11 5 -60 -4z"/>
<path d="M2935 469 c-16 -11 -63 -36 -102 -55 -60 -29 -73 -39 -73 -58 0 -13
7 -29 15 -36 8 -7 15 -19 15 -27 0 -7 -7 -16 -15 -19 -24 -10 -17 -31 13 -42
65 -26 139 -42 190 -42 45 0 68 7 121 36 82 45 131 81 131 98 0 7 -10 22 -22
33 -40 37 -200 133 -222 133 -12 0 -34 -9 -51 -21z m121 -35 c32 -20 75 -46
94 -58 l35 -21 -85 -6 c-47 -4 -116 -10 -153 -14 l-68 -7 15 38 c15 37 76 104
94 104 4 0 35 -16 68 -36z"/>
<path d="M3353 468 c35 -15 34 -23 -5 -36 l-33 -10 46 -1 c25 -1 53 5 63 12
16 12 16 14 2 26 -8 7 -35 15 -58 17 -41 3 -41 3 -15 -8z"/>
<path d="M2120 371 c0 -5 17 -20 38 -35 27 -18 50 -26 78 -25 44 1 103 16 70
18 -18 1 -18 2 -1 21 22 25 1 28 -26 4 -19 -17 -39 -11 -39 12 0 22 -27 16
-33 -8 -5 -19 -8 -20 -29 -6 -32 20 -58 29 -58 19z"/>
<path d="M2412 373 c-24 -10 0 -23 44 -23 32 0 44 4 44 15 0 11 -10 15 -37 14
-21 0 -44 -3 -51 -6z"/>
<path d="M43 323 c-18 -7 -16 -28 8 -75 17 -33 20 -51 14 -94 l-6 -54 110 0
c99 0 111 2 111 18 0 34 -50 122 -94 167 -40 40 -50 45 -88 44 -24 0 -49 -3
-55 -6z"/>
<path d="M1746 282 c-31 -62 -58 -164 -46 -176 5 -5 11 3 15 20 3 16 19 68 35
117 15 48 26 87 24 87 -2 0 -15 -22 -28 -48z"/>
<path d="M2096 322 c-6 -11 62 -27 72 -18 8 9 1 13 -35 20 -17 4 -34 3 -37 -2z"/>
</g>
</svg>